<?xml version="1.0" encoding="UTF-8"?><svg id="a" xmlns="http://www.w3.org/2000/svg" viewBox="0 0 1920 1080"><path d="M1032.28-931.76c6.29,0,13.15.55,21.59,1.74,13.67,1.92,27.37,1.93,40.61,1.95,19.11.02,37.15.04,54.62,5.38,11.61,3.55,21.95,6.91,30.97,12.12,14.15,8.19,22.51,19.71,23.55,32.43,1.11,13.56-6.26,27.9-20.2,39.35-15.57,12.79-32.89,21.68-51.21,31.11-8.24,4.23-16.76,8.61-25.07,13.36-3.97,2.27-5.5,7.22-3.5,11.32,1.49,3.07,4.58,4.89,7.81,4.89,1.09,0,2.19-.21,3.26-.64,7.16-2.91,14.32-5.83,21.48-8.75,18.92-7.72,38.49-15.7,57.82-23.25.91-.35,1.86-.74,2.83-1.13,3.68-1.49,8.71-3.53,11.43-3.53.17,0,.28,0,.34.02,15.94,6.8,32.59,8.64,48.7,10.41,17.42,1.92,33.87,3.73,48.58,11.51,4.3,2.27,8.06,3.33,11.84,3.33,5.94,0,10.75-2.75,14.67-5.44,12.08-8.28,23.79-12.49,34.79-12.49,19.39,0,37.05,13.72,48.45,37.63,8.06,16.92,19.33,29.88,30.22,42.42,2.88,3.31,5.85,6.73,8.7,10.15,5.06,6.08,10.83,9.16,17.16,9.16,5.23,0,10.42-2.09,15.85-6.4,13.16-10.44,25.88-15.3,40.03-15.3,4.51,0,9.3.5,14.24,1.5,4.56.92,9.22,1.36,14.27,1.36,11.74,0,23.29-2.48,34.45-4.87,8.21-1.76,15.97-3.43,23.71-4.16,9.67-.91,13.11-6.46,14.29-10.95,5.39-20.48,17.93-24.67,35.09-24.67,5.56,0,11.37.48,16.98.94,1.68.14,3.34.27,4.98.4,40.66,3.05,80.94,14.85,116.49,34.12,15.92,8.63,29.6,13.98,48.53,13.98,3.24,0,6.59-.15,10.25-.44,2.68-.22,5.4-.33,8.09-.33,23.73,0,47.17,8.62,66,24.27.43.36.87.72,1.31,1.08,3.99,3.29,7.43,6.13,8.39,9.5,6.09,21.54,19.33,26.06,29.37,26.06,5.26,0,10.94-1.2,17.36-3.68,4.02-1.55,8.26-2.3,12.98-2.3,3.68,0,7.77.46,12.5,1.4,7.39,1.47,14.89,2.22,22.28,2.22,5.55,0,10.96-.43,16.07-1.27l.62-.1c10.05-1.66,19.55-3.24,28.73-3.24,18.64,0,31.83,6.77,44.1,22.62,1.69,2.18,4.25,3.37,6.87,3.37,1.32,0,2.65-.3,3.89-.92,3.71-1.86,5.58-6.09,4.46-10.09-2.45-8.76-7.23-13.57-10.39-16.75-.46-.47-1.03-1.04-1.46-1.51.55-1.08,2.05-2.29,7.47-2.29.61,0,1.21.02,1.79.04,3.27.14,6.55.26,9.84.38,33.75,1.27,68.64,2.58,96.1,20.7,47.83,31.58,95.16,61.87,148.13,85.3,12.61,5.58,14.22,8.52,14.43,9.17-.09.36-1.02,3.26-8.91,8.4-2.51,1.64-3.69,3.96-4.29,5.28-5.86,5.84-6.02,14.26-6.14,20.49-.04,1.97-.09,4.78-.4,6.28-.06,0-.12,0-.18,0-.54,0-1.17-.05-1.88-.16-4.28-.62-10.06-4.43-15.64-8.12-5.17-3.41-10.51-6.94-16.42-9.4-1.99-.83-4.23-2.81-6.61-4.91-1.16-1.02-2.36-2.08-3.65-3.12-1.41-1.13-2.81-2.34-4.29-3.61-6.71-5.79-14.32-12.36-24.55-12.36-7.32,0-14.36,3.35-21.51,10.26-.26.25-1.05.41-2.05.41-4.16,0-10.45-2.46-14.2-3.93-.83-.32-1.65-.66-2.48-.99-5.98-2.4-12.75-5.13-20.5-5.13-1.69,0-3.38.13-5.03.39-4.9.77-17.9,2.83-20.95,15.69-2.83,11.96,7.07,18.22,11.82,21.24,4.57,2.9,9.41,6.06,13.77,9.53,2.7,2.16,4.39,3.7,5.45,4.79-1.02.4-2.43.87-4.36,1.36-2.11.53-8.54,2.16-11.49,8.16-3.01,6.13-.19,12.61.87,15.05,1.72,3.95,3,8.23,4.36,12.76.94,3.15,1.92,6.41,3.08,9.66,1.32,3.71,3.79,6.59,5.78,8.9.66.77,1.56,1.82,2.1,2.59-.42.46-1.12.85-3.09.85-2.09,0-4.75-.49-7.31-.97-1.2-.22-2.43-.45-3.67-.64-3.73-.58-7.47-.88-11.13-.88-25.56,0-45.25,14.3-59.55,26.76-6.79,5.92-13.05,12.4-19.09,18.67-6.83,7.08-13.29,13.77-20.42,19.69-7.14,5.92-13.53,8.91-18.99,8.91-4.91,0-9.61-2.45-14.35-7.5-3.19-3.39-7.74-7.29-14.63-7.29-2.72,0-5.5.61-8.49,1.88-32.81,13.91-54.93,55.54-47.33,89.09,7.65,33.77,5.11,55-8.22,68.81-12.51,12.96-19.29,27.34-25.86,41.25-3.24,6.87-6.31,13.36-10.01,19.65-4.05,6.87-7.32,8.7-8.62,8.7-1.37,0-5.06-2.26-9.2-10.79-14.04-28.94-21.53-52.77-23.58-75-2.45-26.56,3.04-50.88,16.79-74.35,10.32-17.61,25.36-31.05,41.28-45.28,6.99-6.25,14.21-12.7,20.98-19.53,1.83-1.84,3.66-3.68,5.5-5.51,9.64-9.63,19.6-19.59,28.29-30.73,7.02-9,6.38-15.75,4.6-19.82-2.6-5.96-8.64-9.37-17.95-10.16l-1.08-.09c-4.04-.34-8.21-.7-12.48-.7-7.52,0-13.58,1.12-19.1,3.52-15.88,6.93-30.84,10.29-45.74,10.29-5.28,0-10.7-.42-16.11-1.26-1.57-.24-3.13-.37-4.65-.37-8.5,0-23.92,4.07-31.66,31.33-6.65,23.44-10.47,34.04-16.91,39.04-6.38,4.96-17.51,6.02-41.66,6.64-6.68.17-13.5.27-20.1.37-35.29.52-71.79,1.05-107.25,12.59-19.47,6.33-32.68,15.58-44.16,30.93-15.18,20.28-34.76,38.32-53.7,55.76-2.86,2.64-5.72,5.27-8.56,7.91-8.46,7.85-12.4,15.38-12.04,23,.48,10.15,8.44,17.39,14.39,21.95,17.18,13.18,34.28,19.86,50.83,19.86.45,0,.89,0,1.34-.01.38,0,.76-.01,1.14-.01,14.62,0,20.14,5.61,22.68,23.09,6.74,46.23,7.61,84.84-10.04,122.99-7.53,16.28-12,33.86-16.32,50.85-.98,3.86-2,7.86-3.03,11.74-4.34,16.37-14.19,26.35-30.99,31.4-2.71.81-5.44,1.69-8.07,2.54-9.18,2.95-17.84,5.73-26.37,6.31-30.75,2.11-49.62,25.36-57.02,46.41-9.26,26.34-7.53,57.83,4.76,86.38,7.37,17.14,26.49,18.23,33.68,18.64,1.53.09,2.63.22,3.41.36-.09.24-.19.51-.32.81-1.91,3.11-14.42,15.31-33.34,30.49-7.01,5.63-13.72,10.71-19.72,14.98.81-6.74.35-13.2-.06-19.04-.64-9.04-1.2-16.85,2.19-24.19,2.68-5.79,1.62-13.23-3.33-23.41-10.38-21.32-41.7-58.74-59.23-62.88-15.55-3.66-26.78-12.92-36.39-30.01-1.32-2.35-3.66-3.95-6.32-4.33-.41-.06-.83-.09-1.24-.09-2.24,0-4.41.87-6.05,2.45-9.87,9.59-8.79,21.5-8,30.2.67,7.33.72,10.76-1.62,12.85-2.51,2.25-6.55,2.44-12.93,2.56-8.71.17-19.55.38-28.49,9.59-3.01,3.11-3.28,7.96-.61,11.37,5.77,7.4,13.16,11,22.58,11,4.14,0,8.33-.67,12.61-1.42,2.89-.5,5.6-.76,8.06-.76,5.87,0,10.23,1.48,11.98,4.06,1.82,2.69,1.52,7.61-.83,13.5-12.78,31.96-8.44,65.34,12.55,96.54,19.12,28.41,25.37,63.89,17.59,99.9-7.49,34.68-27.76,67.28-55.63,89.42-4.97,3.95-11.23,6.7-15.23,6.7-.25,0-.49-.01-.71-.03-2.19-.23-4.41-.34-6.6-.34-17.15,0-31.15,6.85-44.69,13.47-6.29,3.07-12.22,5.98-18.35,8.16-10.59,3.76-18.1,11.44-21.7,22.2-3.45,10.29-7.27,20.71-10.96,30.8l-.08.23c-.99,2.71-1.55,5.52-2.04,8-1.53,7.73-2.06,7.77-5.01,8.01-.25.02-.5.03-.74.03-4.29,0-6.46-3.36-7.53-6.18-3.96-10.44-3.76-17.36.67-23.14.82-1.06,2.73-2.31,4.57-3.52,1.4-.91,2.84-1.86,4.29-2.99,2.88-2.24,11.65-9.07,6.76-19.56-2.8-6.02-8.34-9.48-15.18-9.48-1.98,0-4.11.29-6.33.86-5.78,1.48-23.35,6-28.6,25.08-8.36,30.38-2.96,54.47,16.49,73.66,24.06,23.73,34.11,38.65,35.85,53.22,1.75,14.58-4.48,31.65-22.19,60.86-2.73,4.5-5.65,8.83-8.73,13.41-2.29,3.4-4.67,6.93-6.94,10.5-7.13,11.22-15.26,17.39-22.91,17.39-9.18,0-17.02-8.47-21.98-15.58-10.39-14.89-21.14-21.68-37.11-23.43-7.37-.81-11.3-6.75-16.82-18.94-.95-2.09-1.81-4.32-2.71-6.68-3.24-8.41-6.92-17.95-16.43-25.99-1.58-1.34-3.57-2.05-5.6-2.05-.75,0-1.5.1-2.24.29-2.74.73-4.95,2.76-5.92,5.43-5.61,15.5-2,28.85,1.19,40.63.94,3.48,1.83,6.76,2.44,9.94,2.31,12.08,2.12,24.12,1.91,36.86-.09,5.48-.18,11.15-.06,16.82.13,5.66-1.44,5.93-2.95,6.2-.35.06-.59.07-.73.07-.03,0-.06,0-.08,0-.74-.65-1.97-3.14-2.72-4.65-.4-.82-.81-1.63-1.23-2.43-10.84-20.55-11.06-42.8-11.3-66.34-.11-10.66-.22-21.67-1.38-32.58-1.09-10.2-2.04-20.62-2.96-30.7-.72-7.88-1.46-16.03-2.27-24.06-1.36-13.51-8.21-18.33-13.71-20-1.94-.59-3.71-.87-5.4-.87-4.94,0-9,2.48-11.12,6.81-1.24,2.53-1.53,5.08-1.75,7.13-.05.48-.13,1.18-.2,1.55-.53,1.07-1,2.12-1.45,3.14-1.93,4.32-2.69,5.51-3.52,5.54-.08,0-.16,0-.23,0-1.05,0-4.26,0-8.33-8.09-5.8-11.52-11.27-23.53-16.57-35.15-1.31-2.87-2.62-5.74-3.93-8.61-5.93-12.95-12.66-27.63-25.08-38.04-13.04-10.94-19.85-21.28-22.75-34.55-2.72-12.46-11.9-20.83-22.83-20.83-6.69,0-12.87,3.22-17.38,9.07-9.44,12.22-21.54,21.36-34.36,31.04-12.42,9.38-25.26,19.09-35.73,31.94-13.76,16.9-29.05,33.23-43.84,49.03-4.43,4.73-9.01,9.63-13.5,14.48-15.07,16.3-20.53,33.84-17.69,56.86,2.61,21.19-1.67,42.3-6.2,64.65-1.93,9.52-3.93,19.37-5.34,29.2-.24,1.7-.76,2.38-.87,2.46,0,0-.09.04-.31.04-.25,0-.79-.05-1.62-.36-1.6-.61-3.2-1.2-4.79-1.78-13.64-4.99-22.66-8.29-25.37-24.34-5-29.55-17.16-56.75-28.92-83.05-7.87-17.61-16.01-35.82-21.75-54.29-4.13-13.31-5.74-26.68-7.44-40.83-1.17-9.75-2.39-19.83-4.5-29.85-1.36-6.45-5.51-26.1-24.82-26.1-3.75,0-7.77.77-12.28,2.36-2.38.84-4.54,1.25-6.6,1.25-5.02,0-9.82-2.46-16.57-8.49-5.98-5.34-12.2-10.48-18.22-15.44-18.17-14.99-35.33-29.14-46.96-49.1-4.3-7.39-11.54-11.46-20.39-11.46-6.83,0-13.09,2.41-17.14,4.43-5.23,2.61-10.81,3.83-17.55,3.83-6.28,0-12.73-1.04-19.57-2.14-7.24-1.16-14.72-2.37-22.46-2.37-3.03,0-5.86.18-8.65.55-.1.01-.2.02-.3.02-3.93,0-9.93-11.04-12.5-15.76-4.46-8.21-12.18-19.65-27.58-24.23-3.4-1.01-6.04-1.46-8.57-1.46-6.9,0-12.37,3.42-16.26,10.18-5.93,10.29-8.26,10.41-8.29,10.41-.67,0-3.48-.58-11.3-8.09-2.73-2.63-5.47-5.25-8.22-7.87-16.61-15.88-33.79-32.3-48.87-49.73-6.76-7.81-14.5-11.77-23.01-11.77-7.8,0-14.65,3.27-20.68,6.15-2.5,1.19-4.86,2.32-7,3.08-4.43,1.57-7.68,4.75-9.15,8.97-2.72,7.83,1.47,17.05,5.47,23.41l2.08,3.3c16,25.45,32.54,51.76,50.77,76.41,6.33,8.55,15.86,13.07,27.57,13.07,6.27,0,13.23-1.25,21.29-3.81,7.2-2.29,14.33-3.45,21.21-3.45,23.19,0,42.55,12.9,60,26.84,14.64,11.69,16.75,27.53,5.66,42.38l-.1.13c-3.31,4.43-7.07,9.46-10.78,11.29-28.46,14.06-52.08,34.7-74.92,54.66-24.04,21.01-46.75,40.86-74.75,53.85-2.39,1.11-4.77,2.22-7.16,3.33-17.13,7.98-34.85,16.23-52.66,22.72-3.3,1.2-6.64,1.84-9.64,1.84-8.71,0-10.85-5-11.7-8.77-8.23-36.36-27.58-66.47-46.28-95.59-9.67-15.06-19.67-30.63-27.77-46.62-3.85-7.6-8.53-14.76-13.06-21.69-10.12-15.48-19.69-30.1-19.68-48.39,0-5.8-3.05-13.82-8.71-17.24-14.98-9.06-22.21-23.99-29.86-39.79-5.64-11.65-11.47-23.69-20.7-34.07-1.71-1.92-4.09-2.91-6.49-2.91-1.79,0-3.6.55-5.14,1.69-3.61,2.66-4.6,7.63-2.28,11.47,11.63,19.27,15.83,40.58,20.27,63.14,1.87,9.5,3.81,19.32,6.34,28.95,6.41,24.35,17.71,42.13,34.54,54.35,5.65,4.1,6.66,11.76,7.57,22.98.15,1.8.3,3.66.48,5.48,3.55,34.23,15.36,58.54,38.27,78.83,17.06,15.11,27.24,37.15,37.85,62.29,5.24,12.41,11.61,22.35,19.48,30.4,4.76,4.87,10.02,7.44,15.23,7.44,3.48,0,10.05-1.23,14.98-9.46,2.44-4.07,4.41-4.76,7.89-4.76,2.31,0,5.1.41,7.78.86,5.3.88,10.72,1.33,16.1,1.33,13.79,0,28.15-2.95,42.66-8.77,5.76-2.31,9.31-2.79,11.28-2.79,2.65,0,3.45.82,3.79,1.18,1.02,1.06,3.36,4.82,2.9,16.65-.8,20.55-9.33,39.83-17.58,58.47l-1.56,3.53c-15.2,34.47-30.66,63.29-47.26,88.1-9.09,13.58-22.18,22.8-36.04,32.56-11.34,7.99-23.07,16.25-32.86,27.26-2.45,2.75-4.91,5.49-7.37,8.23-17.86,19.86-36.32,40.4-48.05,66.18-13.75,30.21-13.01,56.37,2.25,79.95l.47.72c1.32,2.03,4.06,6.24,4.15,7.86-2.46,26.26,2.38,51.57,7.06,76.05,4.21,22.04,8.2,42.85,7.29,64.31-.46,10.96-8.62,24.84-21.3,36.21-12.76,11.45-28.06,18.56-39.93,18.56-1.43,0-2.82-.1-4.12-.3-3.01-.46-5.87-.7-8.51-.7-12.5,0-18.83,5.21-21.93,9.58-5.07,7.14-5.46,16.96-1.19,29.2,1.7,4.85,3.47,9.74,5.19,14.47,3.93,10.82,8,22,11.19,33.08,2.45,8.51,2.35,15.22-.32,19.93-2.31,4.08-6.9,7.06-13.66,8.85-24.61,6.54-33.15,25.58-37.43,39.34-12.88,41.4-33.83,80.37-64.04,119.11-21.97,28.17-45.15,41.35-75.19,42.73-19.74.91-38.48,7.04-56.6,12.98l-3.6,1.18c-5.32,1.73-10.24,2.61-14.62,2.61-6.34,0-11.22-1.81-14.5-5.39-4.18-4.56-5.94-12.14-5.09-21.9,2.91-33.27-8.66-60.47-20.35-82.7-25.83-49.08-36.1-88.7-33.32-128.44,1-14.31-5.27-25.56-10.8-35.48-.77-1.38-1.55-2.77-2.3-4.17-3.83-7.07-8.03-13.98-12.1-20.66-9.67-15.88-18.81-30.87-23.31-48.04-5.4-20.58-2.81-40.8,7.69-60.11,17.03-31.33,20.83-64.01,11.61-99.93-2.88-11.21-3.56-23.06-4.27-35.61-.5-8.85-1.03-18-2.39-27.03-4.85-32.16-18.6-56.69-42.05-75.02-27.75-21.69-30.9-44.97-9.92-73.27,12.79-17.25,7.05-33.76,2.44-47.03-.54-1.56-1.09-3.12-1.61-4.7-5.73-17.36-19.88-17.91-29.24-18.27-1.29-.05-2.52-.1-3.71-.18-19.15-1.29-32.76-5.21-41.41-20.74-5.21-9.37-13.49-14.53-23.29-14.53-5.53,0-11.33,1.63-17.26,4.85-3,1.63-6.15,3.23-9.19,4.78-4.1,2.09-8.35,4.25-12.5,6.6-15.14,8.57-27.54,12.39-40.21,12.39-4.12,0-8.38-.42-12.66-1.24-7.34-1.41-15.07-2.13-22.97-2.13-23.68,0-46.66,6.5-61.89,11.4-5.37,1.72-10.46,2.6-15.15,2.6-11.28,0-21.39-4.99-31.8-15.72-35.71-36.76-58.76-68.33-74.74-102.38-4.44-9.46-12.06-15.33-18.78-20.51-3.91-3.01-7.6-5.86-10.46-9.17-15.25-17.68-18.63-32.13-11.66-49.87,13.53-34.45,14.56-71.97,3.25-118.1-5.66-23.06,6.58-44.36,18.41-64.96,1.41-2.46,2.82-4.9,4.18-7.33,15.41-27.42,33.67-55.28,62.7-73.23,13.07-8.08,20.68-20.99,23.27-39.48,2.83-20.19,9.47-34.23,21.53-45.52,6.91-6.48,12.54-15.58,15.06-24.34,9.52-33.12,22.34-46.02,45.73-46.02,3.4,0,7.07.29,10.91.86.43.06.85.09,1.27.09,3.14,0,6.08-1.71,7.62-4.53,1.74-3.2,1.3-7.14-1.1-9.87-9.55-10.89-20.83-13.59-30.77-15.96-1.68-.4-3.27-.78-4.84-1.2-15.43-4.09-23.1-7.77-27.39-13.12-4.29-5.36-6.22-13.69-6.88-29.72-.29-7-.59-13.99-.88-20.99-.75-17.72-1.53-36.05-2.19-54.06-.59-16.08,2.72-28.13,9.85-35.79,6.97-7.49,18.32-11.57,33.73-12.12,13.69-.49,27.29-1.93,40.44-3.33,5.64-.6,11.47-1.22,17.2-1.75,12.39-1.15,21.85-6.37,26.64-14.7,4.5-7.82,4.39-17.69-.3-27.8-8.45-18.21-19.04-35.85-31.47-52.44-6.35-8.47-15.77-8.47-18.86-8.47-2.75,0-5.43.27-8.02.53-2.28.23-4.44.45-6.34.45-.81,0-1.51-.04-2.13-.12-2-.26-3.97-.29-5.47-.29-.76,0-1.52,0-2.29.02-.7,0-1.39.02-2.09.02-3.04,0-4.27-.25-4.76-.42-.05-.15-.11-.39-.16-.74-.32-2.1-.48-3.15,9.76-7.01,1.32-.5,2.69-1.01,4.02-1.56,5.7-2.35,12.03-3.59,18.31-3.59,3.18,0,6.32.31,9.33.93,4.73.97,9.45,1.46,14.02,1.46,25.12,0,43.66-14.6,60.5-29.56,13.4-11.91,26.76-24.25,39.68-36.18,4.75-4.39,9.49-8.77,14.25-13.15.5-.46,1.21-1.02,1.96-1.61,2.92-2.29,6.92-5.43,8.17-10.55,7.47-30.68,31.8-46.59,57.56-63.43l2.18-1.43c3.44-2.25,4.3-5.77,4.82-7.88.17-.7.35-1.43.6-2.19.82-2.46.5-5.16-.89-7.36-1.38-2.2-3.67-3.66-6.25-3.99-1.2-.15-2.42-.23-3.75-.23-2.65,0-5.12.29-7.51.58-1.96.23-3.8.45-5.38.45-2.64,0-3.72-.52-5-2.4-2.72-4-1.97-6.72,1.03-14.09,1-2.45,2.03-4.98,2.83-7.78,1.32-4.66,1.95-9.28,2.55-13.76.66-4.9,1.29-9.52,2.75-13.46,1.97-5.29,3.9-6.76,4.3-6.85.66,0,3.24,1,7.1,5.56,4.9,5.77,6.2,13.11,7.4,22.11,2.56,19.25,7.96,44.51,27.21,69.18,1.66,2.13,4.2,3.34,6.84,3.34.6,0,1.22-.06,1.82-.19,3.25-.7,5.82-3.19,6.61-6.42,4.33-17.74,3.32-29.73-3.49-41.37-8.55-14.6-16.96-30.44-17.79-49.32-.91-20.79-14.22-28.2-26.38-28.2-5.62,0-11.76,1.5-17.77,4.35-3.99,1.89-7.42,2.85-10.17,2.85-4.51,0-8.49-2.44-14.39-14.61-12.1-24.92-15.18-51.26-9.16-78.31,2.09-9.38,10.12-16.92,21.49-20.19,22.42-6.44,35.67-22.38,43.69-33.81,4.51-6.42,11.06-10.91,17.99-15.67,7.46-5.11,15.17-10.4,21.47-18.6,15.94-20.75,23.17-39.75,22.75-59.8-.5-24.12,15.06-36.2,33.08-50.2.92-.71,1.84-1.43,2.76-2.14,1.28-1,3.56-1.95,5.75-2.86,4.43-1.84,9.45-3.93,12.93-8.58,15.44-20.67,37.07-30.62,68.08-31.33,5.49-.13,13.6-2.18,18.37-7.54,12.95-14.58,27.18-21.37,44.76-21.37,15.68,0,32.66,5.41,49.07,10.63,4.52,1.44,9.2,2.93,13.81,4.3,13.64,4.04,27.11,13.09,39.64,22.27,28.11,20.59,60.77,33.87,97.08,39.45,19.65,3.02,25.39,8.9,23.63,24.19-.53,4.59.84,8.72,1.94,12.04.44,1.32.85,2.56,1.06,3.59,2.81,13.4,2.77,21.65-.13,25.22-2.51,3.1-9.22,4.67-19.94,4.67-1.57,0-3.27-.03-5.04-.1-9.83-.36-23.28-.86-29.79-7.27-8.46-8.33-17.63-12.38-28.03-12.38-10.2,0-20.54,3.95-30.53,7.77-3.24,1.24-5.44,4.29-5.57,7.77-.14,3.47,1.81,6.69,4.95,8.18,9.44,4.48,14.95,11.99,20.78,19.94,4.27,5.81,8.68,11.82,14.75,16.85,1.06.88,3.28,2.71,1.03,8.24-4.22,10.36-.5,20.99,9.68,27.73,2.64,1.74,5.36,2.63,8.1,2.63,6.69,0,10.43-4.98,12.44-7.66.37-.49.91-1.22,1.2-1.52,9.98-6.41,22.87-17.36,20.98-38.48-.31-3.46.36-5.19.75-5.63.28-.3,1.18-.5,2.31-.5s2.54.19,4.1.57c4.87,1.18,9.4,1.77,13.45,1.77,8.59,0,15.5-2.6,20.52-7.73,5.74-5.87,8.53-14.71,8.28-26.27-.06-2.64.68-5.76,1.47-9.07.7-2.96,1.43-6.03,1.77-9.35.15-1.48.38-2.42.56-2.99.56.08,1.45.27,2.75.73,10.13,3.59,19.28,5.34,27.97,5.34,20.81,0,38.09-10.1,52.83-30.89,5.08-7.17,14.76-12.18,25-17.47,4.83-2.5,9.82-5.08,14.48-7.99.16-.1.32-.2.46-.28,7.59,3.07,15.5,4.57,24.11,4.57,10.97,0,21.47-2.44,31.63-4.79,6.36-1.48,12.38-2.87,18.49-3.71l4.77-.66c19.3-2.67,39.25-5.43,59.32-5.43,3.96,0,7.86.11,11.6.32.17,0,.34.01.5.01,3.88,0,7.32-2.59,8.36-6.38,1.08-3.95-.74-8.12-4.37-10-12.62-6.54-24.19-14.51-36.44-22.94-3.22-2.21-6.45-4.44-9.73-6.66,32.45,8.47,61.99,24.98,92.73,42.16,18.08,10.11,36.78,20.56,56.19,29.27,1.13.51,2.34.76,3.55.76,1.43,0,2.86-.35,4.15-1.05,2.38-1.3,4.02-3.63,4.43-6.31,3.15-20.55-9.21-32.89-20.33-41.33-9.59-7.28-9.57-14.18-7.14-30.62,4.28-28.91,24.15-44.25,45.2-60.5,7.18-5.54,14.61-11.27,21.44-17.6,1.26-1.16,2.63-1.75,4.09-1.75,1.96,0,4.05,1.05,5.91,2.95,2.03,2.09,4.3,3.76,6.49,5.38,6.4,4.74,6.21,5.17,5.14,7.57-14.58,32.76-8.78,64.9-3.16,95.97.54,2.97,1.07,5.94,1.59,8.91.2,1.12.4,2.24.59,3.36,3.98,22.29,5.07,33.32-13.51,40.62-4.83,1.9-7.82,5.84-10.22,9.01-.38.5-.75.99-1.12,1.46l-.55.69c-2.73,3.39-9.99,12.39-2.88,21.63,2.81,3.65,6.68,5.66,10.9,5.66,5.35,0,9.5-3.17,12.24-5.27l.5-.38c9.55-7.24,20.78-15.84,31.61-24.79,13.3-10.98,16.36-27.24,8.4-44.6-6.37-13.9-6.65-28.85-6.95-44.68-.18-9.55-.36-19.43-1.95-29.29-.41-2.54.29-4.82,2.14-6.99,3.43-4.02,10.01-6.62,16.77-6.62,3.56,0,7.06.73,10.14,2.1.67.3,1.33.6,1.98.9,4.86,2.21,9.88,4.5,15.53,4.5,7.35,0,13.67-3.76,19.34-11.49.88-1.2,1.22-1.2,1.43-1.2,1.59,0,4.6,1.29,7.26,2.43,4.53,1.94,9.66,4.14,15.52,4.14,4.09,0,7.63-2.86,8.48-6.86,2.64-12.36-4.27-18.76-7.99-22.2-.74-.68-1.43-1.33-1.92-1.88-4.95-5.55-7.23-10.51-6.41-13.98.82-3.46,5.06-6.88,11.96-9.63,10.17-4.06,20.24-6.11,29.95-6.11,7.53,0,15.06,1.24,22.39,3.67l.9.3c3.32,1.12,7.09,2.39,11.23,2.39,6.93,0,12.54-3.66,15.8-10.31,3.53-7.19,1.9-12.7-.09-16.06-2.1-3.55-5.28-5.85-7.83-7.7-.98-.71-1.91-1.38-2.57-1.97-1.87-1.67-3.91-3.06-5.89-4.4-1.82-1.24-4.81-3.28-5.44-4.37,0-.02,0-.04.01-.06.36-.05.92-.09,1.78-.09s1.82.04,2.84.08c1.16.05,2.36.1,3.61.1,2.92,0,5.29-.3,7.44-.94,17.92-5.37,36.02-14.54,55.33-28.05,4.48-3.14,9.28-4.31,14.83-5.66,2.17-.53,4.42-1.08,6.77-1.77,14.12-4.18,28.54-6.02,43.81-7.98,14.91-1.91,30.33-3.88,45.4-8.23.66-.19,1.34-.38,2.01-.56,5.83-1.6,13.83-3.8,18.38-11.22,10.5-17.13,25.44-24.77,48.44-24.77M-217.26-247.84c9.78,0,18.15-3.67,24.21-10.6,6.77-7.75,15.22-13.86,27.38-19.79,14.56-7.11,21.87-18.11,23-34.63,1.03-15.08,3.67-24.02,8.82-29.91,4.99-5.7,13.31-9.52,27.81-12.79.42-.09.85-.19,1.27-.28,3.67-.8,7.83-1.71,11.72-4.08,3.56-2.17,14.39-8.78,14.45-20.91.04-8.14-4.47-11.95-7.16-13.49-3.32-1.9-6.83-2.23-9.64-2.49-.89-.08-2.23-.21-2.68-.35-1.57-.5-3.14-1.02-4.72-1.54-7.15-2.36-14.55-4.8-22.44-5.77-14.37-1.77-27-13.65-32.19-30.26-4-12.82-3.57-30.73,9.67-42.54,8.23-7.34,15.18-15.58,22.54-24.31,3.3-3.91,6.71-7.95,10.28-11.95,1.98-2.21,2.68-5.29,1.87-8.14-.81-2.86-3.03-5.1-5.87-5.95-3.43-1.02-6.76-1.54-9.88-1.54-6.49,0-12.38,2.26-17.02,6.54-8.36,7.71-17.53,14.3-27.23,21.28-13.23,9.52-26.91,19.36-38.43,32.29-7.82,8.77-14.76,20-6.94,36.82,8.99,19.32-.43,34.93-6.85,42.51-15.87,18.74-22.74,39.39-21.61,64.99.46,10.4.61,24.05-2.3,37.41l-.32,1.45c-1.98,8.9-6.11,27.42,11.94,33.93,7.65,2.76,14.29,4.1,20.32,4.1M296.82,197.89c5.13,0,11.14-1.66,19.48-5.4,3.88-1.74,7.17-2.62,9.76-2.62s5.32.53,7.87,6.81c1.45,3.57,5.85,14.44,15.74,14.44,6.53,0,11.07-4.87,14.72-8.78.65-.7,1.31-1.41,1.98-2.09,10.49-10.64,11.41-23.45,2.52-35.15-9.69-12.75-13.01-27.31-10.44-45.82,3.18-22.92-5.05-43.15-23.17-56.96-12.55-9.57-18.78-22.24-21.5-43.74-1.86-14.67-.11-17.96.47-18.61.34-.39,1.69-.85,4.35-.85,3.27,0,7.75.67,13.7,2.04.65.15,1.3.22,1.95.22,1.97,0,3.91-.67,5.47-1.94,2.08-1.69,3.26-4.23,3.21-6.91-.18-8.93-.72-36.1-25.01-36.1-1.06,0-2.17.05-3.31.16-19.78,1.87-38.74,12.61-52.02,29.46-12.75,16.18-18.55,36.1-15.91,54.67,2.89,20.3,12.8,37.38,21.11,50,1.14,1.73,2.31,3.46,3.48,5.19,12.31,18.21,19.29,30.24,8.14,47.22-3.97,6.05-3.35,13.38-2.81,19.84.14,1.7.28,3.31.31,4.72.19,8.25.7,30.16,19.92,30.16M82.33-29.19c-.55-.02-1.09-.02-1.62-.02-9.77,0-16.77,2.9-20.79,8.62-4.44,6.31-4.57,15.02-.39,26.62.36.99.75,2.01,1.15,3.06,3.5,9.05,2.83,9.99.86,11.42-1.11.81-1.84.91-2.35.91-2.62,0-6.7-2.87-9.97-5.18-.6-.43-1.2-.84-1.78-1.25-4.86-3.36-10.03-5.97-15.03-8.49C22.15,1.32,13.28-3.15,8.72-12.81c-2.63-5.56-7.35-8.76-12.96-8.76-3.24,0-6.6,1.06-10.26,3.23C-45.15-.14-62.26,47.32-50.41,81.23c3.35,9.59,10.32,14.87,19.63,14.87,1.81,0,3.74-.21,5.72-.62,5.68-1.17,11.42-2.39,16.98-3.58,22.84-4.86,46.47-9.89,70.17-12.24,3.61-.36,6.25-.52,8.56-.52,6.91,0,11.29,1.48,16.73,5.65,12.06,9.25,28.48,19.88,48.56,19.88,2.06,0,4.15-.11,6.22-.33,7.12-.76,17.05-2.74,20.99-11.04,3.27-6.88.28-13.97-2.8-18.71-2.76-4.23-5.26-8.71-7.91-13.46-7.17-12.82-14.58-26.08-27.61-35.26-16.26-11.46-21.76-21.09-20.29-35.54.64-6.3-.73-11.36-4.07-15.05-2.11-2.33-5.98-5.11-12.47-5.11-1.77,0-3.67.21-5.67.63M-241.76,154.88c-.62-.55-1.47-1.39-2.62-2.68-1.28-1.44-1.4-3.63-1.37-8.29.01-1.78.02-3.61-.11-5.57-1.01-14.21-3.12-43.78-41.54-44.51-13.91-.26-31.86-1.51-47.28-8.86-1.18-.56-2.46-.84-3.73-.84-1.53,0-3.07.41-4.42,1.21-2.49,1.47-4.08,4.09-4.24,6.98-.19,3.39-.25,6.65-.32,9.81-.13,6.31-.24,12.26-1.37,17.61-1.53,7.29-5.68,8.74-19.14,9.91-1.02.09-2.03.18-3.03.27-.31.03-.63.04-.95.04-3.19,0-5.82-1.33-6.62-2.19,3.64-12.2,1.04-22.96-1.25-32.45-1.4-5.81-2.73-11.29-2.48-16.5.15-3.11-.17-6.13-.47-9.06-.82-7.94-.43-9.45,1.33-10.49.27-.16.51-.26.63-.26,1.21,0,4.27,2.21,6.29,3.68,2.62,1.9,5.59,4.04,9.02,5.45,1.32.54,2.76.82,4.27.82,1.34,0,2.46-.21,3.28-.36.16-.03.32-.06.48-.09,2.91-.27,5.49-1.99,6.87-4.58,1.38-2.6,1.34-5.73-.1-8.3-7.2-12.85-16.07-26.57-30.15-26.57-9.36,0-18.26,6.3-25.73,12.46-4.69,3.87-7.61,4.31-9.41,4.31-1.35,0-2.75-.3-4.28-.91-3.28-1.31-6.54-1.97-9.7-1.97-6.52,0-12.51,2.74-17.78,8.14-2.38,2.44-4.92,4.89-7.38,7.26-9.52,9.19-19.37,18.69-25.55,32.09-14.11,30.54-30.31,62.21-59.36,84.22-4.28,3.24-7.78,8.18-9.37,13.2-.3.95-.73,2.04-1.19,3.2-2.3,5.79-6.59,16.57,3.66,26.13,4.26,3.98,9.15,5.99,14.52,5.99s10.09-2.03,13.64-3.81c4.08-2.04,8.32-4.05,12.42-5.99,9.88-4.68,20.09-9.51,29.67-15.48,14.68-9.13,29.54-13.57,45.44-13.57,25.62,0,51.48,11.91,73.71,23.06,1.78.89,3.06,1.54,3.05,8.65-.05,33.25,8.39,38.34,35.09,49.42l2.21.92c10.58,4.4,21.6,8.08,32.25,11.64,28.09,9.39,54.62,18.25,74.76,39.46,3.61,3.81,9.25,8.87,16.47,8.87,9.42,0,15.18-8.46,18.62-13.52,10.91-16.04,17.87-19.32,24.95-19.32,4.89,0,10.92,1.67,18.44,5.12,27.01,12.37,56.7,18.14,93.45,18.14,16.81,0,33.52-1.15,49.06-2.4,19.2-1.54,31.4-10.58,37.32-27.66,7.27-20.98,18.73-39.17,34.05-54.06,12.33-11.99,13.92-24.13,12.51-38.67-.32-3.24-2.42-6.04-5.45-7.23-1.03-.41-2.11-.6-3.18-.6-2.08,0-4.13.75-5.74,2.17-8.23,7.26-16.31,10.99-24.72,11.42-2.46.13-4.98.19-7.51.19-26.47,0-52.49-6.75-79.04-14.26-15.33-4.34-31.03-19.4-40-38.36-5.64-11.91-13.35-28.22-31.77-33.12l-.97-.26c-4.45-1.19-9.49-2.54-14.55-2.54-11.59,0-19.26,7.4-21.03,20.3-2.03,14.81-5.56,17.2-13.21,17.2-.62,0-1.28-.02-1.96-.07-19.69-1.29-29.32-4.27-34.4-18.5-8.62-24.17-18.5-47.55-29.34-69.47-3.96-8.01-10.32-13.96-16.47-19.72-6.98-6.53-13.57-12.7-16.09-21.29-2.26-7.71-8.41-12.69-15.65-12.69-3.31,0-9.68,1.15-15.05,8.85-7.06,10.11-5,24.76-.73,35.1,5.14,12.45,13.87,20.89,23.33,22.59,6.19,1.11,17.8,11.08,26.5,25.83,6.99,11.85,8.76,21.14,7.42,25.09-3.37,9.91-9.78,19.58-15.99,28.93l-.89,1.34M781.81-843.16h0,0M150.19-592.95h0,0M75.77-494.62h0,0M-357.4,68.51h0,0M1032.28-940.44c-21.51,0-41.89,6.16-55.84,28.92-3.14,5.13-9.65,6.32-15.4,7.98-29.19,8.42-60.02,7.57-89.27,16.22-8.31,2.46-16.28,3.16-24.11,8.64-16.19,11.33-33.64,21.1-52.84,26.85-1.52.45-3.2.58-4.95.58-2.13,0-4.34-.18-6.44-.18-4.5,0-8.5.85-10.06,6.16-2.68,9.12,8.04,12.75,13.82,17.91,4.77,4.26,12.66,6.92,8.48,15.44-2.04,4.16-4.89,5.46-8.01,5.46s-6.32-1.22-9.39-2.24c-8.44-2.8-16.82-4.12-25.13-4.12-11.21,0-22.28,2.39-33.16,6.73-20.01,7.98-22.94,21.62-8.81,37.45,3.77,4.22,9.93,7.03,7.9,16.49h0c-7.9,0-15.81-6.57-22.78-6.57-3.01,0-5.85,1.23-8.43,4.75-4.34,5.93-8.29,7.94-12.34,7.94-4.36,0-8.82-2.34-13.97-4.64-4.39-1.96-9.08-2.85-13.67-2.85-15.4,0-29.66,10.05-27.47,23.66,4.07,25.31-1.67,51.7,9.57,76.22,5.45,11.89,5.55,24.73-6.04,34.3-10.23,8.45-20.75,16.55-31.32,24.56-2.21,1.68-4.89,3.89-7.5,3.89-1.39,0-2.75-.62-4.03-2.27-3.17-4.12.67-8.26,3.35-11.63,2.28-2.87,4.59-6.56,7.72-7.79,27.44-10.77,22.07-31.94,18.3-53.55-5.8-33.23-13.88-66.55.95-99.86,5.44-12.23-7.13-16.16-13.34-22.54-3.59-3.68-7.9-5.57-12.12-5.57-3.55,0-7.04,1.33-9.98,4.06-26.58,24.59-62.97,40.23-69.33,83.2-2.43,16.42-3.36,28.29,10.48,38.8,10.65,8.09,19.38,17.61,17,33.11-64.77-29.08-120.31-77.17-195.08-78.06,30.91,13.53,55.39,36.61,84.79,51.85-4.05-.23-8.08-.34-12.1-.34-22.34,0-44.24,3.28-65.27,6.17-16.62,2.28-32.54,8.42-48.94,8.42-7.53,0-15.16-1.3-22.99-4.85-.27-.12-.58-.18-.92-.18-1.57,0-3.78,1.13-5.26,2.05-14.34,8.96-32.91,15.03-41.96,27.81-13.29,18.75-28.16,27.23-45.75,27.23-7.79,0-16.12-1.66-25.07-4.84-2.41-.86-4.5-1.29-6.29-1.29-5.16,0-7.81,3.58-8.55,10.83-.67,6.55-3.43,13.03-3.28,19.5.39,18.08-7.52,25.14-20.12,25.14-3.47,0-7.31-.54-11.42-1.53-2.28-.55-4.32-.81-6.13-.81-9.24,0-12.5,6.72-11.71,15.57,1.35,15.07-6.22,23.5-17.23,30.53-3.11,1.99-4.89,7.68-8.76,7.68-.96,0-2.05-.35-3.31-1.19-5.64-3.73-9.46-9.78-6.43-17.22,2.86-7.03,2.06-13.56-3.53-18.19-13.3-11.02-18.5-29-37.35-37.95,10.25-3.92,19.09-7.2,27.43-7.2,7.5,0,14.6,2.65,21.95,9.89,8.61,8.48,22.9,9.29,35.56,9.76,1.87.07,3.65.1,5.36.1,28.45,0,34.94-9.89,28.56-40.34-.91-4.32-3.36-8.74-2.88-12.86,2.7-23.5-11-30.69-30.93-33.75-33.98-5.23-65.19-17.3-93.27-37.87-12.98-9.51-27.16-19.1-42.3-23.59-21.66-6.42-43.81-15.29-65.34-15.29-17.71,0-35,6-51.24,24.29-2.57,2.9-7.95,4.53-12.08,4.63-30.12.69-55.94,9.53-74.83,34.81-3.59,4.81-11.92,5.78-17.07,9.79-19.6,15.3-39.79,29.5-39.17,59.36.42,19.99-8.09,37.58-20.95,54.33-11.24,14.64-29.16,19.59-39.68,34.57-9.56,13.62-21.3,25.37-38.99,30.45-12.78,3.67-24.49,12.85-27.56,26.65-6.42,28.83-3.19,57.18,9.82,83.98,5.41,11.15,11.51,19.5,22.2,19.5,3.94,0,8.51-1.14,13.89-3.69,4.75-2.25,9.61-3.51,14.05-3.51,9.49,0,17.09,5.76,17.71,19.9.88,20.25,9.3,36.8,18.97,53.32,5.95,10.16,6.1,20.41,2.55,34.93-16.48-21.12-22.48-42.6-25.45-64.99-1.3-9.75-2.89-18.93-9.38-26.58-4.86-5.72-9.53-8.62-13.72-8.62-5,0-9.32,4.13-12.43,12.5-3.26,8.76-2.94,18.78-5.52,27.87-2.74,9.65-10.02,18.33-2.69,29.12,3.4,5,7.64,6.2,12.17,6.2,4.2,0,8.65-1.03,12.89-1.03.89,0,1.78.05,2.65.16-1,2.99-1.02,4.95-1.94,5.56-27.24,17.83-54.92,35.12-63.42,70.07-.74,3.04-4.87,5.34-7.57,7.82-17.9,16.45-35.65,33.08-53.83,49.23-16.15,14.34-32.62,27.37-54.74,27.37-3.91,0-7.99-.41-12.28-1.28-3.58-.73-7.3-1.11-11.07-1.11-7.22,0-14.64,1.37-21.62,4.25-8.81,3.63-20.84,6.19-19.06,17.9,1.19,7.8,7.18,8.53,13.5,8.53,1.46,0,2.94-.04,4.38-.04,1.52,0,2.99.04,4.36.22,1.05.14,2.14.19,3.24.19,4.68,0,9.73-.98,14.36-.98,4.67,0,8.91,1,11.92,5,11.82,15.77,22.25,33.01,30.55,50.89,7.71,16.62-1.02,28.51-19.28,30.21-19.03,1.77-37.91,4.37-57.14,5.06-36.61,1.3-53.28,20.66-51.95,56.9.92,25.03,2.03,50.06,3.07,75.09,1.39,33.49,8.45,42.3,40.71,50.86,10.69,2.84,22.15,4.05,31.31,14.49-4.34-.64-8.4-.95-12.19-.95-32.65,0-45.62,22.94-54.07,52.3-2.14,7.46-6.98,15.09-12.66,20.41-14.88,13.94-21.44,31.1-24.19,50.65-1.89,13.47-6.81,25.61-19.25,33.3-29.92,18.5-49.19,46.98-65.7,76.36-13.4,23.86-30.67,49.2-23.46,78.6,9.4,38.35,11.67,75.75-2.9,112.86-9.06,23.06-2.1,41.02,13.17,58.71,8.69,10.07,22.1,15.22,27.96,27.7,18.71,39.86,45.92,73.39,76.37,104.74,11.48,11.82,23.64,18.35,38.02,18.35,5.57,0,11.48-.98,17.81-3.01,19.24-6.18,39.21-10.98,59.23-10.98,7.12,0,14.24.61,21.34,1.97,4.96.95,9.71,1.4,14.3,1.4,16.1,0,30.23-5.46,44.48-13.52,7.06-3.99,14.43-7.44,21.56-11.31,4.54-2.47,9-3.8,13.13-3.8,6.31,0,11.84,3.12,15.71,10.07,10.89,19.56,28.63,23.85,48.41,25.18,10.16.68,20.87-.86,25.29,12.51,4.87,14.74,11.73,28.6.43,43.84-23.46,31.65-20.12,60.52,11.55,85.27,23.2,18.13,34.63,41.76,38.81,69.48,3.17,21.05,1.6,43.1,6.84,63.5,8.55,33.28,5.41,63.77-10.82,93.62-11.38,20.93-14.52,43.34-8.46,66.45,6.85,26.11,23.59,47.35,36.17,70.63,5.97,11.04,13.02,21.43,12.08,34.91-3.37,48.14,12.39,91.45,34.29,133.09,12.85,24.41,21.91,49,19.39,77.9-2.06,23.59,9.23,36.73,28.22,36.73,5.23,0,11.04-1,17.31-3.04,18.98-6.19,38.09-12.82,57.91-13.73,35.51-1.64,60.54-19.02,81.63-46.06,28.85-37.01,51.54-77.05,65.49-121.87,5.12-16.45,13.57-28.8,31.37-33.53,20.91-5.55,25.51-20.76,20.08-39.57-4.68-16.24-10.95-32.02-16.53-48-6.11-17.49-.58-27.25,14.93-27.25,2.2,0,4.6.2,7.2.59,1.77.27,3.59.4,5.44.4,29.94,0,68.69-34.38,69.9-63.08,1.99-47.38-18.86-92.32-14.38-139.98.42-4.48-3.21-9.77-5.97-14.04-15.29-23.63-12.58-47.6-1.64-71.64,12.73-27.98,33.9-49.6,54.01-72.23,20.71-23.31,51.78-34.1,69.62-60.76,18.94-28.31,34.36-58.51,47.99-89.42,9.1-20.63,18.96-41.62,19.87-65.16.69-17.8-4.06-26.84-15.35-26.84-4,0-8.82,1.13-14.51,3.42-12.98,5.2-26.12,8.15-39.44,8.15-4.87,0-9.76-.39-14.67-1.21-3.33-.55-6.39-.98-9.21-.98-6.13,0-11.15,2-15.33,8.97-2.24,3.74-4.86,5.24-7.54,5.24-3.08,0-6.24-1.98-9.03-4.83-7.76-7.94-13.29-17.3-17.69-27.71-10.05-23.8-21-48.51-40.09-65.41-23.01-20.37-32.4-44.32-35.4-73.23-1.26-12.12-.75-26.72-11.58-34.58-17.42-12.64-26.27-30.63-31.24-49.54-8.34-31.69-9.95-65.15-27.58-94.37,20.8,23.39,23.67,58.05,52.56,75.52,2.6,1.58,4.53,6.47,4.53,9.82-.01,29.76,21.53,50.01,33.68,74,23.8,46.99,61.2,86.67,73.32,140.21,2.53,11.17,10.83,15.53,20.16,15.53,4.14,0,8.48-.86,12.61-2.36,20.63-7.51,40.55-17.07,60.51-26.33,56.97-26.42,93.7-80.87,149.86-108.6,5.62-2.78,10.05-8.74,13.98-14.01,14-18.73,11.12-39.73-7.19-54.35-20.04-16-40.77-28.74-65.42-28.74-7.55,0-15.46,1.2-23.84,3.86-5.86,1.87-12.39,3.4-18.66,3.4-7.84,0-15.3-2.4-20.6-9.56-18.81-25.42-35.62-52.36-52.48-79.17-3.55-5.65-8.85-16.73-.77-19.59,7.89-2.79,16.12-8.73,24.79-8.73,5.31,0,10.79,2.23,16.45,8.78,17.82,20.6,37.95,39.26,57.64,58.18,7.26,6.98,12.62,10.51,17.31,10.51,5.5,0,10.1-4.86,15.8-14.75,2.49-4.32,5.31-5.84,8.74-5.84,1.84,0,3.86.43,6.1,1.1,10.81,3.21,17.35,10.71,22.42,20.05,4.79,8.81,11.07,20.29,20.12,20.29.48,0,.96-.03,1.45-.1,2.5-.33,5-.48,7.49-.48,14.06,0,28.06,4.5,42.03,4.5,7.15,0,14.29-1.18,21.43-4.75,4.13-2.07,8.84-3.52,13.26-3.52,5.12,0,9.86,1.95,12.89,7.15,16.52,28.36,43.39,45.64,66.9,66.65,7.11,6.35,14,10.69,22.35,10.69,2.96,0,6.09-.55,9.49-1.74,3.59-1.26,6.7-1.87,9.4-1.87,9.35,0,13.8,7.23,16.33,19.21,4.99,23.64,4.78,47.71,12.15,71.46,14.43,46.49,42.26,88.14,50.4,136.22,3.94,23.31,19.73,26.7,35.62,32.78,1.64.63,3.23.94,4.72.94,4.99,0,8.85-3.46,9.78-9.95,4.59-32.03,15.54-63.91,11.56-96.14-2.57-20.85,2.22-35.61,15.45-49.91,19.49-21.07,39.59-41.69,57.69-63.92,20.17-24.77,50.48-37.59,70.23-63.16,3.01-3.89,6.79-5.69,10.51-5.69,6.29,0,12.41,5.14,14.35,14.01,3.7,16.9,12.76,28.54,25.65,39.35,10.71,8.98,16.89,22.19,22.77,35.01,6.76,14.74,13.35,29.57,20.63,44.05,3.26,6.47,8.17,12.87,16.08,12.87.19,0,.37,0,.56-.01,7.78-.3,9.6-7.91,12.57-13.81,1.67-3.33-.18-10.36,5.14-10.36.79,0,1.74.16,2.89.5,5.32,1.61,7.06,7.27,7.59,12.57,1.84,18.26,3.29,36.56,5.24,54.81,3.64,34.13-3.43,69.69,13.63,102.05,2.81,5.33,4.89,11.7,11.7,11.7.69,0,1.42-.06,2.21-.2,8.04-1.4,10.3-7.74,10.14-14.94-.41-18.36,1.54-36.62-2.01-55.12-2.75-14.33-10.18-28.88-3.99-45.99,10.24,8.66,12.4,19.83,16.84,29.62,5.01,11.05,10.72,22.55,23.78,23.98,14.35,1.57,22.54,7.74,30.94,19.77,9.06,12.98,19.14,19.29,29.1,19.29,10.7,0,21.26-7.29,30.23-21.42,5.14-8.09,10.8-15.87,15.77-24.07,34.87-57.52,32.48-77.94-14.99-124.76-19.05-18.79-20.88-40.93-14.21-65.18,3.17-11.51,11.96-16.3,22.4-18.98,1.38-.35,2.8-.59,4.17-.59,3,0,5.76,1.11,7.32,4.46,1.93,4.14-1.29,6.77-4.23,9.05-3.48,2.71-7.84,4.71-10.42,8.08-7.55,9.84-5.9,20.94-1.9,31.49,2.62,6.91,8.15,11.78,15.65,11.78.47,0,.96-.02,1.44-.06,13.29-1.08,11.42-13.26,14.5-21.67,3.8-10.38,7.61-20.77,11.12-31.25,2.79-8.33,8.29-13.91,16.38-16.78,19.99-7.1,37.54-21.13,60.14-21.13,1.86,0,3.76.1,5.69.3.53.05,1.06.08,1.61.08,6.83,0,15.05-4.15,20.63-8.59,60.29-47.91,83.01-136.8,39.84-200.96-17.19-25.54-24.68-55.99-11.7-88.47,7.29-18.22-.95-29.46-19.2-29.46-2.93,0-6.12.29-9.55.89-3.95.69-7.65,1.29-11.12,1.29-5.89,0-11.11-1.72-15.74-7.66,12.12-12.49,30.2-2.08,40.98-11.74,11.99-10.75-3.54-30.26,9.87-43.29,9.96,17.7,22.8,29.68,41.96,34.19,16.99,4,63.15,60.21,56.68,74.2-10.35,22.37,7.89,45.62-13.54,68.35,18.38-6.14,76.27-54.27,80.22-63.3,4.75-10.86-2.03-13-10.47-13.48-10.8-.62-21.67-2.87-26.21-13.4-11.18-25.97-13.25-55.32-4.54-80.08,6.54-18.61,22.65-38.8,49.43-40.63,12.27-.84,24.36-5.59,36.34-9.19,19.01-5.71,31.62-17.63,36.88-37.49,5.47-20.64,9.96-41.98,18.84-61.18,19.31-41.75,17.07-84.49,10.75-127.89-2.65-18.15-9.36-30.52-31.27-30.52-.44,0-.88,0-1.33.01-.39,0-.77.01-1.15.01-16.33,0-31.93-7.61-45.55-18.06-13.44-10.31-15.24-19.18-1.73-31.72,22.16-20.57,45.35-40.84,63.3-64.83,11.21-14.98,23.63-22.58,39.9-27.88,40.76-13.26,82.97-11.46,124.89-12.53,49.41-1.27,53.07-3.98,66.7-51.99,3.59-12.64,10.47-25.02,23.31-25.02,1.07,0,2.18.09,3.33.26,5.96.92,11.75,1.36,17.44,1.36,17.08,0,33.11-4,49.2-11.02,4.96-2.16,10.25-2.8,15.63-2.8,4.26,0,8.58.4,12.83.76,12.01,1.01,14.23,7.04,7.24,15.99-9.96,12.77-21.69,23.95-33.11,35.47-21.59,21.77-47.76,39.51-63.59,66.54-31.44,53.68-18.57,105.91,6.47,157.52,5,10.31,10.91,15.68,17,15.68,5.4,0,10.93-4.22,16.09-12.97,11.57-19.63,17.26-41.27,34.64-59.28,19.13-19.83,16.62-49.46,10.44-76.75-6.82-30.11,13.86-67.15,42.25-79.18,1.94-.82,3.61-1.19,5.1-1.19,3.3,0,5.74,1.82,8.31,4.56,6.84,7.28,13.81,10.23,20.67,10.23,8.47,0,16.79-4.5,24.53-10.91,14.14-11.72,25.8-26.41,39.68-38.49,15.65-13.64,32.74-24.63,53.85-24.63,3.17,0,6.43.25,9.79.77,3.95.62,8.29,1.71,12.32,1.71s7.73-1.09,10.43-4.85c5.67-7.87-4.73-12.6-7.05-19.09-2.72-7.6-4.45-15.59-7.65-22.96-2.7-6.2-2.17-9.59,4.79-11.34,19.91-5.03,12.35-13.24,2.2-21.34-4.6-3.67-9.56-6.93-14.54-10.08-4.53-2.87-9.41-6.03-8.02-11.91,1.57-6.62,7.9-8.18,13.86-9.12,1.24-.2,2.47-.29,3.67-.29,7,0,13.43,3.02,19.82,5.52,5.44,2.13,11.88,4.53,17.37,4.53,3.13,0,5.94-.78,8.08-2.84,5.88-5.67,10.92-7.82,15.49-7.82,8.74,0,15.72,7.89,23.41,14.06,4.03,3.23,7.74,7.34,12.35,9.26,12.2,5.09,23.42,16.55,34.16,18.1,1.15.17,2.18.24,3.12.24,15.74,0,4.3-22.09,13.38-29.8,1.06-.9,1.25-2.94,2.36-3.67,25.42-16.58,7.72-26.38-6.75-32.78-52.05-23.02-99.48-53.33-146.86-84.61-32.24-21.29-72.35-20.91-110.35-22.52-.7-.03-1.42-.05-2.16-.05-6.44,0-13.83,1.43-16.11,9.39-2.29,7.99,8.4,8.78,12.14,22.16-15.91-20.56-33.12-25.99-50.96-25.99-10.09,0-20.39,1.74-30.76,3.45-4.76.79-9.7,1.16-14.65,1.16-6.94,0-13.94-.73-20.59-2.05-4.87-.97-9.57-1.56-14.19-1.56-5.46,0-10.79.83-16.1,2.88-5.26,2.03-10.01,3.1-14.24,3.1-10.09,0-17.16-6.1-21.02-19.74-1.84-6.51-7.23-10.51-12.49-14.89-21-17.46-46.32-26.28-71.55-26.28-2.94,0-5.87.12-8.8.36-3.37.28-6.54.42-9.55.42-16.26,0-28.06-4.08-44.39-12.93-36.21-19.63-78.01-31.99-119.97-35.14-7.23-.54-15-1.36-22.61-1.36-18.73,0-36.58,4.95-43.48,31.14-.93,3.54-3.71,4.24-6.71,4.52-19.19,1.81-38.38,8.99-57.35,8.99-4.2,0-8.39-.35-12.56-1.19-5.58-1.12-10.88-1.67-15.95-1.67-17.07,0-31.54,6.18-45.42,17.18-3.75,2.98-7.2,4.53-10.46,4.53-3.66,0-7.1-1.95-10.5-6.03-13.48-16.2-28.13-30.55-37.76-50.76-11.92-25.02-31.64-42.58-56.29-42.58-12.15,0-25.5,4.27-39.7,14.01-3.65,2.51-6.56,3.92-9.77,3.92-2.31,0-4.77-.74-7.78-2.33-30.48-16.13-66.55-8.79-98.04-22.29-1.09-.46-2.31-.66-3.63-.66-5.26,0-12.02,3.16-17.41,5.26-26.59,10.38-52.96,21.31-79.41,32.04,26.09-14.91,53.81-25.86,77.48-45.3,32.44-26.63,31.59-65.1-4.5-85.99-10.06-5.82-21.56-9.49-32.78-12.91-31.5-9.62-64.37-3.1-96.57-7.62-7.59-1.06-15.26-1.82-22.79-1.82h0ZM-217.26-256.51c-5.9,0-11.98-1.64-17.37-3.59-11.48-4.14-8.06-16.32-6.09-25.36,2.88-13.19,3.08-26.44,2.49-39.65-.99-22.34,4.55-41.27,19.56-59,12.12-14.31,16.81-33.06,8.1-51.78-5.19-11.14-2.43-18.43,5.55-27.38,18.94-21.24,44.47-33.99,65.06-52.96,2.92-2.69,6.58-4.25,11.14-4.25,2.24,0,4.7.38,7.4,1.18-11.4,12.77-20.69,25.36-32.12,35.56-30.37,27.08-10.55,83.22,27.23,87.88,8.69,1.07,17.16,4.29,25.59,6.97,5.06,1.61,13.47-.78,13.43,8.01-.03,6.24-5.23,10.46-10.29,13.55-3.01,1.84-6.83,2.51-10.38,3.31-30.9,6.96-41.12,17.62-43.38,50.57-.95,13.84-6.56,21.77-18.15,27.42-11.27,5.5-21.5,12.03-30.1,21.88-4.95,5.67-11.21,7.63-17.68,7.63h0ZM296.82,189.21c-8.11,0-10.9-6.76-11.24-21.69-.15-6.62-2.03-14.86,1.08-19.61,16.36-24.93.78-43.09-11.63-61.94-9.45-14.35-17.36-29.55-19.76-46.45-4.99-35.07,24.65-70.91,60.16-74.28.86-.08,1.69-.12,2.49-.12,11.2,0,15.95,8.18,16.33,27.59-6.34-1.47-11.51-2.27-15.65-2.27-13.3,0-16.09,8.25-13.43,29.23,2.47,19.53,8.11,36.79,24.85,49.54,15.75,12.01,22.6,28.93,19.84,48.87-2.64,19.08.22,36.59,12.13,52.26,6.26,8.24,5.63,16.29-1.79,23.81-3.73,3.78-7.09,8.28-10.52,8.28-2.48,0-4.99-2.35-7.69-9.03-3.48-8.58-8.97-12.23-15.91-12.23-3.99,0-8.46,1.21-13.31,3.37-6.79,3.04-11.99,4.64-15.94,4.64h0ZM83.14-20.48c1.8-.45,3.42-.67,4.86-.67,5.82,0,8.6,3.66,7.9,10.61-2.04,20.21,8.12,32.37,23.93,43.51,15.88,11.19,22.87,30.41,33.25,46.36,8.06,12.38-2.8,15.42-11.84,16.39-1.8.19-3.56.28-5.3.28-16.53,0-30.57-8.33-43.28-18.08-7.44-5.7-13.89-7.44-22.01-7.44-2.89,0-5.99.22-9.42.56-29.98,2.97-58.83,9.93-88.04,15.95-1.37.28-2.7.44-3.97.44-5,0-9.12-2.42-11.44-9.06C-52.6,48.66-37.06,5.15-10.08-10.87c2.16-1.28,4.12-2.02,5.83-2.02,2.13,0,3.87,1.14,5.12,3.78C9.29,8.72,28.28,12.28,42.51,22.13c4.92,3.4,10.61,7.97,16.68,7.97,2.43,0,4.93-.74,7.46-2.58,9.25-6.73,3.87-16.55,1.04-24.43-5.45-15.15-2.58-23.63,13.02-23.63.78,0,1.59.02,2.43.06h0ZM-241.18,164.43c2.13,0,4.31-1.22,6.45-4.45,6.85-10.35,14.12-20.99,18.06-32.57,6.12-18.03-21.57-58.83-40.6-62.25-14.53-2.61-25.78-31.63-17.01-44.19,2.52-3.61,5.36-5.14,7.94-5.14,3.31,0,6.17,2.53,7.32,6.46,5.64,19.18,25.59,27.21,33.11,42.41,10.88,22,20.61,45.17,28.95,68.54,7.38,20.7,23.96,23.06,42.01,24.25.87.06,1.71.09,2.53.09,15.7,0,19.86-10.54,21.8-24.7,1.38-10.04,6.4-12.8,12.43-12.8,4.24,0,8.98,1.36,13.29,2.51,14.27,3.8,20.6,16.7,26.16,28.45,9.76,20.63,27.39,37.87,45.48,42.99,26.04,7.37,53.51,14.59,81.4,14.59,2.65,0,5.3-.07,7.95-.2,9.97-.51,19.96-4.71,30.02-13.58,1.39,14.24-.82,22.77-9.92,31.61-16.45,15.99-28.62,35.59-36.2,57.44-5.07,14.63-15.14,20.67-29.82,21.85-16.22,1.3-32.35,2.37-48.37,2.37-30.41,0-60.4-3.86-89.84-17.35-8.6-3.94-15.75-5.91-22.05-5.91-12.49,0-21.65,7.72-32.12,23.12-4.02,5.91-7.35,9.72-11.45,9.72-2.86,0-6.09-1.86-10.17-6.17-29.8-31.4-72.47-37.55-109.97-53.14-26-10.81-32-12.41-31.95-42.32.01-7.75-1.3-13.13-7.84-16.41-25.53-12.81-51.13-23.99-77.6-23.99-16.28,0-32.89,4.22-50.02,14.88-13.09,8.15-27.53,14.15-41.39,21.07-3.28,1.64-6.53,2.89-9.76,2.89-2.89,0-5.76-1.01-8.6-3.66-7.3-6.81-2.2-13.75-.11-20.37,1.05-3.33,3.53-6.78,6.33-8.9,29.92-22.66,46.77-54.51,62-87.5,7.04-15.25,19.97-25.36,31.26-36.93,3.48-3.57,7.27-5.53,11.58-5.53,2.04,0,4.19.44,6.48,1.35,2.62,1.05,5.1,1.53,7.5,1.53,5.32,0,10.19-2.39,14.93-6.3,8.34-6.88,14.64-10.48,20.21-10.48,7.8,0,14.14,7.08,22.58,22.13-.96.08-2.02.41-2.95.41-.35,0-.68-.05-.97-.17-6.32-2.59-12-9.78-18.6-9.78-1.62,0-3.3.43-5.06,1.48-9.65,5.72-4.67,17.47-5.1,26.6-.74,15.7,9.22,30.05,4.02,47.1-2.37,7.78,6.7,13.13,15,13.13.6,0,1.2-.03,1.79-.08,12.1-1.17,26.46-1.06,29.82-17.04,1.89-9,1.29-18.52,1.86-28.71,15.76,7.51,33.9,9.38,50.85,9.7,26.78.51,31.59,15.95,33.05,36.45.47,6.59-1.16,13.61,3.67,19.02,2.81,3.15,6.17,6.45,9.67,6.45h0Z"/><path d="M1682.21,908.62h0,0M1680.11,958.52c.87,2.64,2.13,4.96,3.79,6.99,6.92,8.45,18.5,8.45,22.31,8.45,4.43,0,9.14-.47,13.57-.97.65-.07,1.38-.1,2.53-.1.89,0,1.91.02,3.13.04,2,.03,4.49.08,7.85.08.79,0,1.59-.11,2.35-.32,7.31-2.06,15.67-3.1,24.86-3.1,15.89,0,33.98,3.21,50.94,9.03,4.52,1.55,9.16,3.1,13.65,4.59,21.58,7.17,43.89,14.58,62.43,26.26,20.48,12.89,33.62,29.07,41.35,50.92.27.75.54,1.5.8,2.25,2.31,6.45,4.31,12.01,3.95,17.77-1.56,24.74,6.97,43.5,25.36,55.85-1.52.16-3.01.24-4.48.24-14.37,0-25.95-7.66-32.61-21.56-3.14-6.55-5.6-13.43-8.21-20.71-1.36-3.8-2.77-7.73-4.28-11.6-.36-.93-.71-2.14-1.08-3.43-1.57-5.51-4.85-16.99-17.84-16.99-1.11,0-2.28.09-3.47.28-7.55,1.18-16.98,6.38-19.08,24.47-.69,5.91-1.01,11.84-1.31,17.56-.41,7.53-.79,14.64-1.94,21.6-.32,1.93-.45,3.83-.58,5.67-.51,7.38-1.18,7.59-2.99,8.17-1.12.36-2.14.53-3.13.53-4.1,0-8.07-3.27-13.15-8.53-1.1-1.14-2.2-2.34-3.27-3.5-6.87-7.48-14.66-15.96-28.71-15.96-3.69,0-7.51.59-11.7,1.79-.79.23-1.5.34-2.12.34-4.56,0-8.11-8.96-9.61-17.84-.62-3.67-.8-7.52-1-11.6-.35-7.26-.7-14.76-3.48-22.61-3.79-10.73-9.75-22.1-25.14-25.16l-.28-.06c-1.57-.31-4.29-.85-5.62-1.44.52-20.82-14.07-29-24.76-34.98-2.1-1.18-4.09-2.29-5.97-3.46-10.86-6.79-21.81-13.94-32.39-20.86-3.67-2.4-7.35-4.8-11.03-7.2.11-3.73.23-7.35.35-10.89M1678.72,904.98c-1.8,0-5.11,1.98-5.18,3.18-1.15,21.76-1.94,43.54-2.58,65.32-.03.87,2.08,1.9,3.29,2.69,14.75,9.59,29.41,19.33,44.33,28.65,12.24,7.65,27.37,12.17,26.64,31.33-.28,7.27,7.08,8.6,12.9,9.76,10.92,2.17,15.19,9.78,18.65,19.54,3.83,10.83,2.28,21.94,4.1,32.76,1.96,11.63,7.05,25.07,18.16,25.07,1.41,0,2.92-.22,4.52-.68,3.49-1.01,6.56-1.45,9.3-1.45,12.03,0,17.85,8.63,25.73,16.8,5.38,5.58,11.42,11.19,19.39,11.19,1.82,0,3.75-.29,5.79-.95,10.21-3.28,8.27-13.39,9.47-20.69,2.14-13.02,1.78-26.43,3.31-39.58.85-7.36,3.34-15.58,11.8-16.9.77-.12,1.48-.18,2.14-.18,8.23,0,8.49,8.87,10.84,14.9,4.28,10.96,7.68,22.33,12.75,32.91,8.28,17.29,23.03,26.48,40.43,26.48,3.4,0,6.89-.35,10.46-1.06,3.57-.71,7.87-.48,8.76-5.03.89-4.58-3.24-6.02-6.31-7.79-19.49-11.25-26.49-28.71-25.13-50.34.53-8.35-2.5-15.74-5.24-23.46-20.45-57.76-74.58-70.52-122.8-87.08-17.08-5.86-36.04-9.5-53.76-9.5-9.6,0-18.84,1.07-27.21,3.42-5.44,0-8.64-.11-10.99-.11-1.36,0-2.44.04-3.51.16-4.4.5-8.67.92-12.58.92-13.14,0-22.13-4.7-17.73-26.59,1.63-8.14-2.09-17.38-3.44-26.1-.58-3.74-1.72-7.56-6.28-7.62-.01,0-.02,0-.03,0h0Z"/><path d="M1157.61,783.68c1.84,0,3.32.73,3.96,1.96,9.02,17.41,17.84,35.46,26.98,55.18,0,.02.01.03.02.05-.28.85-1.71,2.73-2.58,3.88-.82,1.09-1.68,2.21-2.49,3.46-10.84,16.59-11.21,34.39-1.12,54.44,1.29,2.57,3.78,4.33,6.63,4.7.38.05.75.07,1.12.07,2.46,0,4.83-1.05,6.49-2.92,2.84-3.2,4.64-6.98,6.23-10.3.86-1.8,2.11-4.43,2.97-5.42.34.07.94.24,1.86.66,7.95,3.63,10.52,10.07,7.65,19.14-3.46,10.92-.21,19.26,2.65,26.62.49,1.25.99,2.55,1.45,3.83,3.38,9.41,6.28,19.3,9.09,28.87,5.66,19.28,11.51,39.22,21.83,57.85,1.92,3.47,2.06,10.78.32,17.36-1.36,5.17-4.77,8.92-8.1,8.92-1.24,0-2.58-.49-3.98-1.47-3.34-2.32-6.72-4.61-9.98-6.83-24.02-16.28-46.71-31.66-58.19-62.87-15.56-42.32-42.84-79.44-69.22-115.34-5.99-8.16-12.19-16.59-18.11-24.9-.79-1.11-1.59-2.16-2.36-3.17-5.3-6.95-4.91-7.47-3.03-9.97,6.21-8.3,11.76-13.49,20.18-13.73.17,0,.34,0,.51,0,3.67,0,5.19,0,6.55,9.47,2.35,16.33,7.74,37.84,28.74,59.51,1.66,1.71,3.92,2.64,6.23,2.64.94,0,1.9-.15,2.82-.47,3.18-1.09,5.44-3.93,5.8-7.27.27-2.49.64-4.5.97-6.28.76-4.11,1.54-8.35-1.24-12.39-12.43-18.09-6.32-34.8.75-54.14,2.01-5.49,4.09-11.18,5.72-16.96.84-2.98,1.4-3.8,1.59-4.01.07-.02.26-.08.6-.11.23-.02.47-.03.7-.03M1156.35,783.79h0,0M1206.09,888.5h0,0M1157.61,775c-.51,0-1.03.03-1.55.08-6.13.61-8.14,4.95-9.68,10.39-7.3,25.75-24.28,50.73-5.28,78.38,1.2,1.74-.4,5.4-1.2,12.82-17.34-17.88-23.63-35.58-26.38-54.7-1.38-9.58-3.93-16.91-15.14-16.91-.25,0-.5,0-.76.01-12.5.35-20.15,8.21-26.88,17.2-7.18,9.59.12,16.14,5.28,23.38,31.62,44.39,67.61,87.48,86.25,138.19,14.08,38.3,43.09,54.17,71.36,73.83,2.99,2.08,6.03,3.02,8.94,3.02,7.51,0,14.09-6.29,16.49-15.38,1.96-7.44,2.38-17.47-1.12-23.78-14.93-26.95-20.15-57.03-30.35-85.44-3.04-8.46-7.03-15.33-4-24.9,4.01-12.65.12-23.97-12.32-29.65-2.27-1.04-4.18-1.49-5.82-1.49-8.52,0-9.65,12.28-15.33,18.69-8.56-17-8.7-31.52.63-45.79,3.18-4.86,8.62-9.39,5.66-15.78-8.66-18.69-17.68-37.23-27.15-55.52-2.16-4.18-6.62-6.65-11.66-6.65h0Z"/><path d="M1424.32,832.14h0c.77,0,1.7.22,2.76.64.91.37,3.32,1.33,2.35,7.19-1.11,6.66-4.24,8.16-19.69,9.43-2.8.23-5.32,1.81-6.75,4.22-1.43,2.42-1.6,5.38-.46,7.95,1.08,2.44,1.96,4.89,2.8,7.27,1.92,5.42,3.91,11.02,8.25,15.21,19.69,19.02,20.34,38.6,2.34,69.85-6.01,10.44-11.87,15.18-15.01,15.24-10.18.21-19.84,2.27-29.18,4.26-9.36,1.99-18.2,3.87-27.09,3.87-2.68,0-5.19-.17-7.65-.51-2.07-.34-11.02-4.32-23.28-12.41-12.36-8.16-18.63-14.31-19.92-16.54-1.49-11.55,2.93-23.2,13.12-34.63,20.25-22.71,39.15-38.72,65.56-43.08,13.66-2.26,23.26-11.64,31.72-19.91,2.2-2.15,4.29-4.19,6.4-6.08,1.94-1.73,3.64-3.62,5.29-5.44,3.68-4.07,6.09-6.55,8.44-6.55M1424.32,823.47c-8.7,0-13.53,8.85-19.52,14.2-10.42,9.32-19.75,21.58-33.76,23.9-30.7,5.07-51.38,24.3-70.61,45.87-10.46,11.73-17.5,26.1-15.16,42.21,1.39,9.55,40.7,34.36,50.49,35.73,2.98.42,5.94.6,8.87.6,19.12,0,37.25-7.73,56.45-8.13,8.89-.19,16.95-10.22,22.34-19.58,15.99-27.75,23-54.51-3.83-80.42-4.33-4.19-5.52-11.63-9.15-19.77,13.89-1.15,25.17-2.46,27.54-16.65,1.21-7.25-.79-13.91-7.67-16.67-2.19-.88-4.18-1.27-5.99-1.27h0Z"/><path d="M1746.19,105.66c.83,0,1.78.09,2.82.26,13.98,2.31,19.48,7.23,20.39,18.59-8.87,29.41-11.96,56.5-9.44,82.77.43,4.53-6.74,9.27-12.5,13.09l-.82.54c-14.36,9.53-31.81,14.25-48.67,18.82-1.2.32-2.22.53-3.07.62.47-.4,1.04-.86,1.7-1.38,9.28-7.17,26.46-20.44,16.16-45.27.43-2.24,3.27-7.21,4.84-9.96.66-1.16,1.3-2.28,1.87-3.33,10.39-19.1,17.15-39.76,20.09-61.42,1.81-13.33,3.63-13.33,6.64-13.33M1746.19,96.98c-11.94,0-13.81,10.33-15.23,20.84-2.8,20.63-9.12,40.08-19.11,58.44-3.47,6.38-9.47,15.32-7.39,20.08,7.56,17.39-1.1,26.45-13.16,35.76-3.64,2.81-8.89,7.13-5.22,12.97,1.92,3.05,4.87,4,7.96,4,2.1,0,4.26-.44,6.2-.97,17.76-4.81,35.73-9.69,51.2-19.96,7.77-5.16,18.12-11.63,17.16-21.69-2.73-28.46,1.8-55.69,9.56-80.91-.89-19.5-12.95-25.73-27.73-28.18-1.54-.25-2.95-.37-4.24-.37h0Z"/><path d="M1525.33,902.71c-4.87,5.28-9.97,10.55-14.91,15.65-1.35,1.39-2.69,2.78-4.04,4.18-13.31,13.8-19.83,30.16-18.38,46.08,1.44,15.84,10.75,30.65,26.19,41.72,1.75,1.26,3.53,2.29,5.24,3.3,6.34,3.71,6.25,4.04,5.55,6.61-3.21,11.67-7.47,17.04-15.73,19.81-8.6,2.88-14.63,4.22-18.98,4.22-6.1,0-11-1.71-18.51-23.88-13.96-41.19,6.47-93.35,44.61-113.9,2.44-1.32,5.09-2.46,7.21-3.38.29-.13.57-.25.84-.36.33-.02.63-.03.91-.03M1525.84,894.03c-1.08,0-2.26.06-3.53.16-2.16.99-6.22,2.59-10.05,4.65-41.83,22.54-64,79.22-48.71,124.32,7.2,21.23,13.71,29.77,26.73,29.77,5.76,0,12.8-1.68,21.74-4.67,13.11-4.39,18.16-14.19,21.34-25.73,3.23-11.74-7.17-14.29-14.1-19.26-27.76-19.88-30.35-50.11-6.62-74.72,6.63-6.87,13.31-13.69,19.77-20.71,2.64-2.87,3.62-6.7,1.68-10.18-1.56-2.8-4.28-3.63-8.23-3.63h0Z"/><path d="M1486.93,583.42c2.08,0,4.38,3.3,7.42,7.96,1.15,1.77,2.34,3.59,3.67,5.36,6.27,8.3,6.09,18.09,5.89,29.42-.03,1.88-.07,3.75-.07,5.65,0,1.72.12,3.34.24,4.91.16,2.12.34,4.51-.02,5.66-3.33,10.52-6.29,24.05.38,35.3,5.04,8.49,14.64,14.02,29.36,16.91,10.8,2.12,13.53,10.59,16.81,28.09.63,3.35,1.28,6.81,2.1,10.16-.44.57-1.72,1.43-3.5,2.09.14-1.27.19-2.62,0-4.01-1.26-9.94-5.32-18.49-11.74-24.73-.84-.82-1.97-2.2-3.07-3.53-4.04-4.93-8.63-10.51-15.6-10.52h0c-11.58,0-14.55,14.52-15.67,19.99-.24,1.17-.74,3.61-9.11,3.81h-.18c-.06,0-.12,0-.17,0-.32-1.01-.6-2.79-.8-4.05-.15-.95-.31-1.94-.51-2.96-2.78-14.25-3.36-28.66-3.98-43.91-.85-20.9-1.73-42.51-8.7-63.82-.9-2.76-2.85-14.5,4.99-17.29.88-.31,1.67-.48,2.27-.48M1486.93,574.74c-1.56,0-3.28.3-5.18.98-12.76,4.54-12.99,20.04-10.33,28.17,11.45,34.98,5.56,71.52,12.41,106.69,1.23,6.32,1.03,14.03,10,14.03.13,0,.26,0,.4,0,7.55-.18,15.63-2.15,17.39-10.74,2-9.77,4.49-13.05,7.17-13.05,4.13,0,8.72,7.8,12.63,11.6,5.27,5.11,8.22,11.99,9.18,19.6.56,4.44-4.35,12.49,4.11,12.49.54,0,1.14-.03,1.8-.1,7.43-.78,16.59-5.65,14.64-13.52-4.24-17.12-3.99-40.55-25.69-44.8-26.93-5.28-30.16-18.88-23.13-41.08,1.27-4.01.18-8.77.18-13.19.03-13.89,1.73-27.99-7.57-40.3-5.2-6.88-9.11-16.76-18.02-16.76h0Z"/><path d="M1767.87.14c.36,0,.78.05,1.25.14,8.04,1.63,14.55,8.11,17.87,17.76.47,1.36.48,3.6.49,5.97,0,1.6.02,3.26.16,5.02.03.36,0,1.02,0,1.66-.09,3.16-.33,11.57,7.86,15.37,1.47.68,2.97,1.13,4.49,1.32-18.96,9-39.63,18.11-64.14,28.28-1.23.51-2.23.85-3.02,1.08.14-1.01.42-2.36.91-4.11,5.82-20.68,15.87-40.17,25.58-59.02.77-1.49,1.47-3.03,2.15-4.52,2.78-6.08,4.44-8.98,6.41-8.98M1767.87-8.53c-9.58,0-12.46,10.8-16.27,18.19-10.1,19.59-20.18,39.18-26.22,60.64-2.97,10.55-1.1,15.6,4.97,15.6,2.33,0,5.28-.75,8.82-2.21,25.07-10.4,49.99-21.29,74.38-33.2,11.76-5.74,16.92-17.18,19.21-32.45-12.55,2.27-16.07,10.56-22.32,15.3-2.73,2.07-5.19,5.49-8.66,5.49-.82,0-1.69-.19-2.63-.63-3.94-1.83-2.58-6.35-2.86-9.86-.35-4.39.29-9.1-1.09-13.13-4.06-11.8-12.5-21.03-24.35-23.44-1.06-.22-2.05-.32-2.98-.32h0Z"/><path d="M1672.57,211.76h0c3.98,0,7.29.96,10.19,2.99-2.82,3.8-5.61,7.62-8.34,11.35-9.92,13.57-20.17,27.61-31.41,40.11-1.91,2.12-7.38,3.48-12.21,4.68-3.64.91-7.41,1.84-11.02,3.29-12.35,4.94-17.65,15.09-20.57,22.29-1.61,3.97-1.04,7.93-.19,11.24-4.1-1.62-9.15-5.18-12.96-9.35.71-1.46,2.78-3.96,3.96-5.39.85-1.03,1.73-2.09,2.54-3.17,1.9-2.52,3.68-5.08,5.39-7.55,7.2-10.34,13.41-19.27,25.91-22.81,15.3-4.34,25.38-19.55,26.31-39.71.14-3.13.97-3.66,1.33-3.89,1.44-.92,4.37-1.39,7.21-1.85,1.92-.31,3.9-.63,5.89-1.13,2.86-.73,5.54-1.09,7.95-1.09M1672.57,203.08c-3.32,0-6.71.51-10.08,1.36-8.49,2.15-20.31.73-20.96,14.89-.66,14.29-7.12,28.11-20,31.76-18.92,5.36-25.96,20.32-35.87,33.49-4.27,5.67-12.18,12.64-6.46,19.1,5.89,6.66,15.8,13.64,23.91,13.64.07,0,.14,0,.2,0,12.11-.18,1.5-11.49,3.97-17.59,3.24-8.01,7.78-14.3,15.75-17.49,8.88-3.55,20.83-3.97,26.45-10.23,16.06-17.87,29.6-38.02,44.05-57.17-.81-1.61-1.18-3.18-2.16-4.16-5.53-5.51-12.03-7.6-18.79-7.6h0Z"/><path d="M828.63,741.56h0,0M827.99,742.61c.18.93.31,1.93.39,2.46.98,7.34,1.43,14.78,1.76,20.21.09,1.58.18,2.97.26,4.13-.21,4.79-.33,9.07-.44,12.86-.23,7.79-.41,13.94-1.14,19.84-1.21,9.72-4.46,9.72-7.07,9.72h-.31c-3.39-.08-4.8-.11-4.59-10.13.35-17.27,4.57-33.92,9.03-51.54.4-1.6.81-3.2,1.21-4.8.33-1.3.65-2.18.91-2.76M828.67,732.99c-.06,0-.13,0-.19,0-6.07.1-8.5,5.06-9.81,10.27-4.82,19.19-10.09,38.36-10.5,58.28-.18,8.87.59,18.69,13.07,18.98.17,0,.34,0,.51,0,10.93,0,14.55-8.24,15.68-17.33,1.17-9.44,1.01-19.04,1.66-33.9-.38-4.96-.75-15.23-2.11-25.37-.63-4.74-1.6-10.94-8.31-10.94h0Z"/></svg>