<?xml version="1.0" encoding="UTF-8"?><svg id="a" xmlns="http://www.w3.org/2000/svg" viewBox="0 0 1920 1080"><path d="M1124.38-573.79c5.42,0,11.34.48,18.63,1.5,11.79,1.65,23.62,1.67,35.05,1.68,16.49.02,32.06.03,47.14,4.64,10.02,3.06,18.94,5.96,26.72,10.46,12.21,7.07,19.43,17.01,20.32,27.98.95,11.7-5.4,24.08-17.43,33.96-13.44,11.03-28.38,18.71-44.19,26.84-7.11,3.65-14.46,7.43-21.63,11.53-3.42,1.95-4.74,6.23-3.02,9.77,1.29,2.65,3.95,4.22,6.74,4.22.94,0,1.89-.18,2.81-.55,6.18-2.51,12.36-5.03,18.54-7.55,16.33-6.66,33.21-13.55,49.89-20.06.78-.31,1.6-.64,2.44-.98,3.17-1.29,7.52-3.05,9.86-3.05.15,0,.24,0,.29.01,13.76,5.87,28.13,7.45,42.02,8.99,15.03,1.66,29.23,3.22,41.92,9.93,3.71,1.96,6.96,2.88,10.22,2.88,5.12,0,9.28-2.37,12.66-4.7,10.43-7.15,20.53-10.77,30.02-10.77,16.74,0,31.97,11.84,41.81,32.47,6.96,14.6,16.68,25.79,26.08,36.6,2.48,2.86,5.05,5.81,7.5,8.76,4.36,5.24,9.35,7.9,14.81,7.9,4.52,0,8.99-1.81,13.68-5.53,11.36-9.01,22.34-13.2,34.54-13.2,3.89,0,8.03.43,12.29,1.29,3.93.79,7.96,1.18,12.31,1.18,10.13,0,20.09-2.14,29.73-4.21,7.09-1.52,13.78-2.96,20.46-3.59,8.34-.79,11.31-5.57,12.33-9.45,4.65-17.67,15.47-21.29,30.28-21.29,4.8,0,9.81.41,14.65.81,1.45.12,2.89.24,4.3.34,35.08,2.63,69.84,12.81,100.52,29.44,13.74,7.45,25.54,12.06,41.87,12.06,2.8,0,5.69-.13,8.85-.38,2.31-.19,4.66-.28,6.98-.28,20.48,0,40.71,7.44,56.95,20.95.38.31.75.62,1.13.93,3.44,2.84,6.42,5.29,7.24,8.2,5.25,18.58,16.68,22.49,25.34,22.49,4.54,0,9.44-1.04,14.98-3.17,3.47-1.34,7.13-1.98,11.2-1.98,3.17,0,6.7.39,10.79,1.21,6.38,1.27,12.85,1.91,19.22,1.91,4.79,0,9.45-.37,13.87-1.1l.53-.09c8.68-1.44,16.87-2.79,24.79-2.79,16.09,0,27.47,5.84,38.06,19.52,1.46,1.88,3.67,2.91,5.92,2.91,1.14,0,2.29-.26,3.36-.8,3.2-1.61,4.81-5.25,3.85-8.7-2.11-7.56-6.24-11.71-8.97-14.45-.4-.4-.89-.9-1.26-1.3.48-.93,1.77-1.97,6.45-1.97.53,0,1.04.01,1.54.03,2.82.12,5.65.23,8.49.33,29.12,1.09,59.23,2.22,82.92,17.87,41.28,27.25,82.11,53.39,127.82,73.61,10.88,4.81,12.27,7.35,12.45,7.92-.08.31-.88,2.81-7.69,7.25-2.17,1.41-3.18,3.42-3.7,4.56-5.05,5.04-5.19,12.3-5.3,17.68-.03,1.7-.08,4.12-.35,5.42-.05,0-.1,0-.16,0-.46,0-1.01-.05-1.62-.13-3.7-.53-8.68-3.82-13.5-7.01-4.46-2.94-9.07-5.99-14.17-8.11-1.72-.72-3.65-2.43-5.7-4.23-1-.88-2.04-1.8-3.15-2.69-1.22-.98-2.42-2.02-3.7-3.12-5.79-5-12.36-10.66-21.19-10.66-6.32,0-12.39,2.89-18.56,8.85-.22.22-.9.35-1.77.35-3.59,0-9.01-2.13-12.25-3.39-.71-.28-1.43-.57-2.14-.85-5.16-2.07-11-4.42-17.69-4.42-1.46,0-2.92.11-4.34.34-4.23.67-15.45,2.44-18.07,13.54-2.44,10.32,6.1,15.73,10.2,18.33,3.95,2.5,8.12,5.23,11.88,8.23,2.33,1.86,3.79,3.19,4.7,4.13-.88.34-2.1.75-3.77,1.17-1.82.46-7.37,1.86-9.92,7.04-2.6,5.29-.16,10.88.75,12.99,1.48,3.41,2.59,7.1,3.76,11.01.81,2.72,1.66,5.53,2.66,8.33,1.14,3.2,3.27,5.68,4.99,7.68.57.66,1.34,1.57,1.81,2.23-.36.4-.97.74-2.67.74-1.81,0-4.1-.42-6.31-.83-1.03-.19-2.1-.39-3.17-.56-3.22-.5-6.45-.76-9.6-.76-22.05,0-39.05,12.34-51.39,23.09-5.86,5.11-11.26,10.7-16.47,16.11-5.9,6.11-11.46,11.89-17.62,16.99-6.16,5.1-11.67,7.69-16.39,7.69-4.24,0-8.29-2.12-12.38-6.47-2.75-2.93-6.68-6.29-12.63-6.29-2.35,0-4.75.53-7.32,1.62-28.31,12-47.4,47.92-40.84,76.87,6.6,29.14,4.41,47.46-7.09,59.38-10.79,11.18-16.65,23.59-22.31,35.6-2.8,5.93-5.44,11.53-8.64,16.96-3.49,5.93-6.32,7.51-7.44,7.51-1.18,0-4.36-1.95-7.94-9.31-12.11-24.97-18.58-45.54-20.35-64.72-2.11-22.92,2.63-43.91,14.49-64.16,8.9-15.19,21.88-26.8,35.62-39.08,6.03-5.39,12.27-10.96,18.11-16.85,1.58-1.59,3.16-3.17,4.74-4.76,8.32-8.31,16.91-16.9,24.41-26.52,6.06-7.77,5.5-13.59,3.97-17.1-2.25-5.14-7.46-8.09-15.49-8.76l-.93-.08c-3.48-.3-7.09-.6-10.77-.6-6.49,0-11.72.97-16.48,3.04-13.7,5.98-26.61,8.88-39.47,8.88-4.56,0-9.23-.37-13.9-1.09-1.35-.21-2.7-.32-4.02-.32-7.34,0-20.64,3.51-27.32,27.03-5.74,20.22-9.04,29.37-14.59,33.69-5.51,4.28-15.11,5.2-35.95,5.73-5.76.15-11.65.23-17.34.32-30.45.45-61.94.91-92.55,10.86-16.8,5.47-28.2,13.45-38.11,26.69-13.1,17.5-29.99,33.07-46.34,48.12-2.47,2.27-4.94,4.55-7.39,6.82-7.3,6.78-10.7,13.27-10.39,19.85.41,8.76,7.28,15.01,12.42,18.95,14.82,11.37,29.58,17.13,43.86,17.13.39,0,.77,0,1.16-.01.33,0,.66-.01.98-.01,12.62,0,17.38,4.84,19.57,19.93,5.82,39.89,6.57,73.21-8.66,106.13-6.5,14.05-10.35,29.21-14.09,43.88-.85,3.33-1.73,6.78-2.61,10.13-3.75,14.13-12.24,22.74-26.74,27.1-2.34.7-4.69,1.46-6.97,2.19-7.92,2.54-15.4,4.94-22.75,5.45-26.54,1.82-42.82,21.88-49.21,40.05-7.99,22.73-6.5,49.9,4.11,74.54,6.36,14.79,22.86,15.73,29.06,16.08,1.32.08,2.27.19,2.95.31-.08.21-.17.44-.28.7-1.65,2.69-12.44,13.21-28.77,26.31-6.05,4.85-11.84,9.24-17.01,12.93.7-5.81.31-11.39-.05-16.43-.55-7.8-1.03-14.54,1.89-20.87,2.31-5,1.4-11.42-2.88-20.2-8.96-18.39-35.98-50.69-51.11-54.26-13.42-3.16-23.11-11.15-31.4-25.89-1.14-2.02-3.15-3.41-5.45-3.74-.36-.05-.72-.08-1.07-.08-1.93,0-3.81.75-5.22,2.12-8.52,8.28-7.58,18.56-6.9,26.06.58,6.32.62,9.28-1.4,11.09-2.17,1.94-5.65,2.11-11.15,2.21-7.51.15-16.87.33-24.58,8.28-2.6,2.68-2.83,6.87-.53,9.82,4.98,6.39,11.35,9.49,19.49,9.49,3.58,0,7.19-.58,10.89-1.22,2.49-.43,4.83-.65,6.95-.65,5.06,0,8.83,1.28,10.34,3.5,1.57,2.32,1.31,6.57-.72,11.65-11.03,27.58-7.28,56.38,10.83,83.3,16.5,24.52,21.89,55.13,15.18,86.21-6.46,29.93-23.96,58.05-48.01,77.16-4.29,3.41-9.69,5.78-13.14,5.78-.22,0-.42-.01-.61-.03-1.89-.2-3.8-.3-5.69-.3-14.8,0-26.88,5.91-38.56,11.62-5.42,2.65-10.55,5.16-15.84,7.04-9.14,3.24-15.61,9.87-18.73,19.16-2.98,8.88-6.27,17.88-9.45,26.57l-.07.2c-.86,2.34-1.34,4.76-1.76,6.9-1.32,6.67-1.78,6.71-4.32,6.91-.22.02-.43.03-.64.03-3.7,0-5.58-2.9-6.5-5.34-3.42-9.01-3.24-14.98.58-19.96.7-.92,2.35-2,3.95-3.04,1.2-.79,2.45-1.6,3.7-2.58,2.49-1.94,10.05-7.83,5.84-16.88-2.42-5.2-7.19-8.18-13.1-8.18-1.71,0-3.55.25-5.46.74-4.98,1.28-20.15,5.18-24.68,21.64-7.21,26.21-2.56,47,14.23,63.56,20.76,20.47,29.43,33.35,30.94,45.93,1.51,12.58-3.86,27.31-19.15,52.52-2.36,3.88-4.87,7.62-7.54,11.57-1.98,2.94-4.03,5.98-5.99,9.06-6.15,9.68-13.17,15.01-19.77,15.01-7.93,0-14.69-7.31-18.97-13.44-8.97-12.85-18.24-18.71-32.02-20.22-6.36-.7-9.75-5.83-14.52-16.34-.82-1.8-1.56-3.73-2.34-5.76-2.8-7.26-5.97-15.49-14.18-22.42-1.37-1.16-3.08-1.77-4.83-1.77-.64,0-1.29.08-1.93.25-2.37.63-4.28,2.38-5.11,4.69-4.84,13.38-1.73,24.9,1.02,35.06.81,3,1.58,5.83,2.1,8.58,2,10.42,1.83,20.81,1.65,31.81-.08,4.73-.16,9.62-.05,14.51.11,4.88-1.24,5.12-2.55,5.35-.3.05-.51.06-.63.06-.03,0-.05,0-.07,0-.64-.56-1.7-2.71-2.34-4.01-.35-.7-.7-1.41-1.06-2.09-9.35-17.73-9.54-36.93-9.75-57.25-.09-9.2-.19-18.7-1.19-28.12-.94-8.8-1.76-17.8-2.56-26.49-.62-6.8-1.26-13.83-1.96-20.76-1.17-11.66-7.08-15.82-11.83-17.26-1.68-.51-3.2-.75-4.66-.75-4.26,0-7.76,2.14-9.6,5.88-1.07,2.18-1.32,4.39-1.51,6.16-.05.42-.11,1.02-.17,1.34-.45.92-.86,1.83-1.25,2.71-1.67,3.72-2.32,4.75-3.03,4.78-.07,0-.13,0-.2,0-.91,0-3.68,0-7.19-6.99-5-9.94-9.73-20.31-14.3-30.34-1.13-2.48-2.26-4.95-3.39-7.43-5.12-11.17-10.93-23.84-21.64-32.83-11.26-9.44-17.13-18.36-19.63-29.82-2.35-10.75-10.27-17.98-19.7-17.98-5.77,0-11.1,2.78-15,7.82-8.14,10.54-18.59,18.43-29.65,26.79-10.72,8.1-21.8,16.47-30.83,27.57-11.88,14.59-25.07,28.68-37.83,42.31-3.82,4.08-7.78,8.31-11.65,12.49-13.01,14.06-17.71,29.2-15.26,49.07,2.26,18.29-1.44,36.5-5.35,55.79-1.67,8.22-3.39,16.72-4.61,25.2-.21,1.47-.66,2.06-.75,2.13,0,0-.08.03-.27.03-.22,0-.68-.04-1.39-.31-1.38-.53-2.76-1.03-4.14-1.54-11.77-4.31-19.55-7.16-21.89-21.01-4.31-25.5-14.81-48.97-24.95-71.67-6.79-15.19-13.82-30.91-18.77-46.85-3.56-11.48-4.95-23.02-6.42-35.23-1.01-8.41-2.06-17.11-3.88-25.76-1.18-5.57-4.75-22.52-21.41-22.52-3.24,0-6.71.67-10.6,2.03-2.06.72-3.92,1.08-5.7,1.08-4.33,0-8.47-2.12-14.3-7.32-5.16-4.61-10.53-9.04-15.73-13.33-15.68-12.93-30.49-25.15-40.52-42.37-3.71-6.38-9.96-9.89-17.59-9.89-5.89,0-11.29,2.08-14.79,3.82-4.52,2.26-9.33,3.31-15.15,3.31-5.42,0-10.99-.9-16.89-1.84-6.25-1-12.71-2.04-19.38-2.04-2.62,0-5.06.16-7.46.48-.09.01-.18.02-.26.02-3.39,0-8.57-9.53-10.78-13.6-3.85-7.08-10.51-16.96-23.8-20.9-2.93-.87-5.21-1.26-7.39-1.26-5.95,0-10.67,2.95-14.03,8.78-5.12,8.88-7.13,8.98-7.15,8.98-.58,0-3-.5-9.75-6.98-2.36-2.27-4.72-4.53-7.09-6.79-14.33-13.7-29.16-27.87-42.17-42.92-5.83-6.74-12.51-10.16-19.86-10.16-6.73,0-12.64,2.82-17.85,5.31-2.16,1.03-4.19,2-6.04,2.66-3.83,1.35-6.63,4.1-7.9,7.74-2.35,6.76,1.27,14.72,4.72,20.2l1.79,2.85c13.8,21.96,28.08,44.67,43.81,65.93,5.46,7.38,13.69,11.28,23.79,11.28,5.41,0,11.42-1.08,18.37-3.29,6.21-1.98,12.37-2.98,18.3-2.98,20.01,0,36.71,11.13,51.78,23.16,12.63,10.09,14.45,23.76,4.88,36.57l-.09.11c-2.86,3.83-6.1,8.16-9.3,9.74-24.56,12.13-44.94,29.94-64.65,47.17-20.75,18.13-40.34,35.26-64.5,46.47-2.06.96-4.12,1.91-6.18,2.87-14.78,6.88-30.07,14-45.44,19.6-2.85,1.04-5.73,1.59-8.32,1.59-7.51,0-9.36-4.32-10.09-7.57-7.11-31.37-23.79-57.36-39.93-82.49-8.34-12.99-16.97-26.43-23.96-40.22-3.32-6.56-7.36-12.74-11.27-18.71-8.74-13.36-16.99-25.98-16.98-41.75,0-5.01-2.63-11.93-7.52-14.88-12.93-7.82-19.17-20.7-25.77-34.34-4.87-10.05-9.9-20.44-17.86-29.4-1.47-1.66-3.53-2.51-5.6-2.51-1.55,0-3.11.48-4.44,1.46-3.11,2.29-3.97,6.58-1.97,9.9,10.03,16.63,13.66,35.01,17.5,54.48,1.62,8.2,3.29,16.67,5.47,24.98,5.53,21.01,15.28,36.36,29.8,46.9,4.87,3.54,5.75,10.15,6.53,19.83.13,1.55.25,3.16.42,4.73,3.06,29.53,13.25,50.51,33.03,68.02,14.73,13.04,23.5,32.06,32.66,53.75,4.52,10.71,10.02,19.29,16.81,26.23,4.1,4.2,8.65,6.42,13.15,6.42,3,0,8.67-1.06,12.93-8.16,2.11-3.51,3.8-4.11,6.81-4.11,1.99,0,4.4.36,6.71.74,4.57.76,9.25,1.15,13.9,1.15,11.9,0,24.29-2.55,36.82-7.57,4.97-1.99,8.03-2.41,9.73-2.41,2.29,0,2.97.71,3.27,1.01.88.92,2.9,4.16,2.5,14.37-.69,17.73-8.05,34.37-15.17,50.46l-1.34,3.04c-13.11,29.74-26.45,54.61-40.78,76.02-7.84,11.72-19.14,19.67-31.1,28.1-9.79,6.89-19.91,14.02-28.35,23.52-2.11,2.38-4.23,4.74-6.36,7.1-15.41,17.14-31.34,34.86-41.47,57.1-11.86,26.07-11.23,48.64,1.94,68.99l.4.62c1.14,1.75,3.5,5.39,3.58,6.78-2.12,22.66,2.06,44.5,6.1,65.62,3.64,19.02,7.07,36.98,6.29,55.49-.4,9.46-7.44,21.43-18.38,31.24-11.01,9.88-24.22,16.02-34.46,16.02-1.23,0-2.43-.09-3.56-.26-2.59-.4-5.06-.6-7.34-.6-10.79,0-16.25,4.5-18.93,8.27-4.37,6.16-4.72,14.64-1.02,25.2,1.46,4.19,3,8.41,4.48,12.49,3.39,9.33,6.9,18.98,9.66,28.54,2.12,7.34,2.03,13.13-.28,17.19-1.99,3.52-5.96,6.09-11.78,7.64-21.24,5.64-28.6,22.08-32.3,33.95-11.12,35.73-29.19,69.35-55.26,102.79-18.95,24.31-38.96,35.68-64.88,36.87-17.03.79-33.2,6.08-48.84,11.2l-3.11,1.02c-4.59,1.5-8.84,2.26-12.62,2.26-5.47,0-9.68-1.57-12.51-4.65-3.61-3.94-5.13-10.47-4.39-18.9,2.51-28.71-7.47-52.18-17.56-71.36-22.29-42.35-31.15-76.54-28.75-110.83.86-12.35-4.55-22.05-9.32-30.62-.67-1.19-1.33-2.39-1.99-3.6-3.3-6.1-6.93-12.07-10.45-17.83-8.35-13.7-16.23-26.64-20.11-41.45-4.66-17.76-2.42-35.21,6.63-51.87,14.7-27.03,17.98-55.24,10.01-86.23-2.48-9.67-3.07-19.9-3.69-30.72-.44-7.64-.89-15.53-2.06-23.33-4.18-27.75-16.05-48.92-36.28-64.73-23.94-18.71-26.66-38.8-8.56-63.22,11.03-14.89,6.09-29.14,2.11-40.58-.47-1.34-.94-2.69-1.39-4.05-4.95-14.98-17.15-15.45-25.23-15.76-1.12-.04-2.17-.08-3.2-.15-16.53-1.11-28.27-4.49-35.73-17.9-4.5-8.09-11.64-12.54-20.1-12.54-4.77,0-9.78,1.41-14.9,4.18-2.59,1.4-5.31,2.79-7.93,4.13-3.54,1.8-7.2,3.67-10.79,5.7-13.07,7.4-23.77,10.69-34.69,10.69-3.55,0-7.23-.36-10.92-1.07-6.33-1.22-13-1.84-19.82-1.84-20.44,0-40.26,5.61-53.4,9.83-4.63,1.49-9.03,2.24-13.08,2.24-9.73,0-18.45-4.31-27.44-13.56-30.81-31.72-50.7-58.97-64.49-88.35-3.83-8.16-10.41-13.23-16.21-17.7-3.37-2.6-6.56-5.06-9.02-7.91-13.16-15.25-16.08-27.72-10.06-43.04,11.67-29.72,12.57-62.11,2.81-101.91-4.88-19.9,5.68-38.28,15.89-56.05,1.22-2.12,2.43-4.23,3.61-6.33,13.3-23.66,29.05-47.7,54.1-63.19,11.28-6.97,17.84-18.12,20.08-34.07,2.44-17.42,8.17-29.53,18.58-39.28,5.97-5.59,10.82-13.44,13-21.01,8.21-28.58,19.28-39.71,39.46-39.71,2.93,0,6.1.25,9.42.74.37.05.73.08,1.1.08,2.71,0,5.25-1.47,6.57-3.9,1.5-2.76,1.12-6.16-.95-8.52-8.24-9.4-17.97-11.72-26.55-13.77-1.45-.35-2.82-.68-4.17-1.03-13.31-3.53-19.94-6.7-23.63-11.32-3.7-4.62-5.37-11.81-5.94-25.64-.25-6.04-.51-12.07-.76-18.11-.65-15.29-1.32-31.1-1.89-46.65-.51-13.88,2.35-24.27,8.5-30.89,6.02-6.47,15.81-9.98,29.11-10.46,11.82-.42,23.55-1.67,34.89-2.88,4.87-.52,9.9-1.05,14.84-1.51,10.69-.99,18.86-5.5,22.99-12.69,3.88-6.75,3.79-15.27-.26-23.99-7.29-15.71-16.43-30.94-27.16-45.25-5.48-7.31-13.6-7.31-16.27-7.31-2.37,0-4.68.23-6.92.46-1.97.2-3.83.39-5.47.39-.7,0-1.3-.03-1.84-.1-1.73-.22-3.43-.25-4.72-.25-.65,0-1.31,0-1.98.02-.6,0-1.2.02-1.8.02-2.63,0-3.69-.21-4.11-.36-.04-.13-.1-.34-.14-.64-.28-1.81-.42-2.72,8.43-6.05,1.14-.43,2.32-.87,3.47-1.35,4.92-2.03,10.38-3.1,15.8-3.1,2.74,0,5.45.27,8.05.8,4.09.84,8.16,1.26,12.1,1.26,21.68,0,37.68-12.6,52.21-25.51,11.57-10.27,23.09-20.92,34.24-31.22,4.1-3.78,8.19-7.57,12.3-11.34.43-.4,1.04-.88,1.69-1.39,2.52-1.98,5.97-4.69,7.05-9.1,6.44-26.48,27.44-40.2,49.67-54.74l1.89-1.23c2.97-1.94,3.71-4.98,4.16-6.8.15-.61.3-1.23.52-1.89.71-2.13.43-4.46-.76-6.35-1.19-1.9-3.17-3.16-5.39-3.44-1.03-.13-2.09-.2-3.23-.2-2.28,0-4.42.25-6.48.5-1.69.2-3.28.39-4.64.39-2.28,0-3.21-.45-4.31-2.07-2.34-3.45-1.7-5.8.89-12.16.86-2.11,1.75-4.3,2.44-6.71,1.14-4.02,1.68-8.01,2.2-11.87.57-4.23,1.11-8.22,2.38-11.61,1.7-4.56,3.37-5.84,3.71-5.91.57,0,2.79.86,6.13,4.79,4.23,4.98,5.35,11.31,6.38,19.08,2.21,16.61,6.87,38.41,23.48,59.7,1.44,1.84,3.63,2.88,5.9,2.88.52,0,1.05-.05,1.57-.17,2.81-.6,5.02-2.76,5.7-5.54,3.74-15.31,2.87-25.65-3.02-35.7-7.38-12.6-14.64-26.27-15.35-42.56-.78-17.94-12.27-24.34-22.76-24.34-4.85,0-10.15,1.3-15.33,3.75-3.45,1.63-6.4,2.46-8.78,2.46-3.89,0-7.32-2.11-12.42-12.61-10.44-21.5-13.1-44.24-7.9-67.57,1.8-8.09,8.73-14.6,18.55-17.43,19.35-5.56,30.78-19.31,37.7-29.17,3.89-5.54,9.54-9.42,15.52-13.52,6.43-4.41,13.09-8.97,18.52-16.05,13.75-17.91,19.99-34.3,19.63-51.6-.44-20.81,12.99-31.24,28.54-43.32.79-.62,1.59-1.23,2.38-1.85,1.11-.87,3.07-1.68,4.97-2.47,3.82-1.59,8.16-3.39,11.16-7.4,13.33-17.83,31.99-26.43,58.74-27.03,4.74-.11,11.74-1.88,15.85-6.5,11.18-12.58,23.45-18.44,38.62-18.44,13.53,0,28.18,4.66,42.34,9.18,3.9,1.24,7.94,2.53,11.92,3.71,11.77,3.49,23.4,11.3,34.21,19.22,24.26,17.77,52.44,29.22,83.77,34.04,16.95,2.61,21.91,7.68,20.39,20.87-.46,3.96.73,7.53,1.68,10.39.38,1.14.73,2.21.92,3.1,2.42,11.57,2.39,18.68-.11,21.76-2.17,2.67-7.96,4.03-17.21,4.03-1.35,0-2.82-.03-4.35-.09-8.48-.31-20.09-.74-25.71-6.27-7.3-7.19-15.22-10.69-24.19-10.69-8.8,0-17.72,3.41-26.35,6.71-2.8,1.07-4.69,3.71-4.81,6.7-.12,2.99,1.56,5.77,4.27,7.06,8.14,3.87,12.9,10.34,17.93,17.2,3.68,5.02,7.49,10.2,12.73,14.54.92.76,2.83,2.34.89,7.11-3.64,8.94-.44,18.11,8.36,23.92,2.27,1.5,4.63,2.27,6.99,2.27,5.77,0,9-4.3,10.74-6.61.32-.43.79-1.05,1.04-1.31,8.61-5.53,19.73-14.98,18.11-33.2-.27-2.99.31-4.48.65-4.86.24-.26,1.02-.43,1.99-.43s2.19.16,3.54.49c4.2,1.01,8.11,1.53,11.61,1.53,7.41,0,13.37-2.24,17.7-6.67,4.96-5.06,7.36-12.69,7.14-22.67-.05-2.28.59-4.97,1.27-7.83.61-2.56,1.23-5.2,1.53-8.07.13-1.28.32-2.09.48-2.58.49.07,1.26.24,2.38.63,8.74,3.1,16.64,4.6,24.14,4.6,17.96,0,32.87-8.72,45.59-26.66,4.39-6.19,12.74-10.51,21.57-15.08,4.17-2.15,8.47-4.38,12.49-6.9.14-.09.28-.17.4-.24,6.55,2.65,13.38,3.94,20.8,3.94,9.47,0,18.53-2.1,27.29-4.14,5.49-1.27,10.68-2.48,15.96-3.2l4.12-.57c16.65-2.3,33.87-4.68,51.19-4.68,3.42,0,6.78.09,10.01.28.15,0,.29.01.44.01,3.35,0,6.32-2.24,7.22-5.5.94-3.41-.64-7-3.77-8.63-10.89-5.64-20.87-12.52-31.45-19.8-2.77-1.91-5.57-3.83-8.4-5.74,28,7.31,53.49,21.55,80.02,36.38,15.6,8.72,31.74,17.74,48.49,25.26.98.44,2.02.66,3.07.66,1.23,0,2.47-.3,3.58-.91,2.05-1.12,3.47-3.13,3.82-5.44,2.72-17.74-7.95-28.38-17.54-35.67-8.27-6.29-8.26-12.24-6.16-26.42,3.69-24.95,20.84-38.19,39-52.2,6.2-4.78,12.6-9.73,18.5-15.19,1.08-1,2.27-1.51,3.53-1.51,1.69,0,3.5.9,5.1,2.55,1.75,1.8,3.71,3.25,5.6,4.64,5.53,4.09,5.36,4.46,4.44,6.53-12.58,28.27-7.57,56-2.73,82.81.46,2.56.93,5.13,1.37,7.69.17.97.34,1.93.51,2.9,3.43,19.23,4.37,28.75-11.66,35.05-4.17,1.64-6.75,5.04-8.82,7.77-.33.43-.65.86-.97,1.26l-.48.6c-2.36,2.92-8.62,10.69-2.48,18.66,2.42,3.15,5.76,4.88,9.41,4.88,4.61,0,8.19-2.74,10.56-4.55l.43-.33c8.24-6.25,17.93-13.67,27.27-21.39,11.47-9.48,14.12-23.51,7.25-38.49-5.5-12-5.74-24.9-5.99-38.56-.15-8.24-.31-16.76-1.68-25.28-.35-2.19.25-4.16,1.84-6.03,2.96-3.47,8.64-5.72,14.47-5.72,3.07,0,6.09.63,8.75,1.81.58.26,1.15.52,1.71.77,4.19,1.91,8.52,3.88,13.4,3.88,6.34,0,11.8-3.24,16.68-9.92.76-1.04,1.06-1.04,1.23-1.04,1.37,0,3.97,1.11,6.27,2.09,3.91,1.67,8.34,3.57,13.39,3.57,3.53,0,6.58-2.47,7.32-5.92,2.28-10.67-3.69-16.19-6.89-19.16-.64-.59-1.24-1.15-1.66-1.62-4.27-4.79-6.23-9.07-5.53-12.07.7-2.99,4.37-5.94,10.32-8.31,8.77-3.5,17.47-5.27,25.84-5.27,6.49,0,13,1.07,19.32,3.17l.77.26c2.87.96,6.11,2.06,9.69,2.06,5.98,0,10.82-3.16,13.63-8.9,3.05-6.21,1.64-10.96-.07-13.86-1.81-3.06-4.56-5.05-6.76-6.64-.85-.61-1.64-1.19-2.22-1.7-1.62-1.44-3.38-2.64-5.08-3.8-1.57-1.07-4.15-2.83-4.7-3.77,0-.01,0-.03.01-.05.31-.04.79-.08,1.54-.08s1.57.04,2.45.07c1,.04,2.03.09,3.11.09,2.52,0,4.56-.26,6.42-.81,15.46-4.63,31.08-12.55,47.74-24.21,3.87-2.71,8.01-3.72,12.8-4.89,1.88-.46,3.82-.93,5.84-1.53,12.19-3.6,24.63-5.2,37.81-6.88,12.87-1.65,26.18-3.35,39.18-7.1.57-.17,1.15-.32,1.74-.49,5.03-1.38,11.93-3.28,15.86-9.69,9.06-14.78,21.95-21.38,41.8-21.38M46.13,16.37c8.44,0,15.66-3.16,20.89-9.15,5.85-6.69,13.13-11.96,23.62-17.08,12.56-6.13,18.87-15.63,19.84-29.88.89-13.01,3.17-20.73,7.61-25.81,4.3-4.92,11.48-8.22,24-11.04.36-.08.73-.16,1.1-.24,3.17-.69,6.76-1.48,10.11-3.52,3.07-1.87,12.42-7.57,12.47-18.04.03-7.03-3.86-10.31-6.18-11.64-2.86-1.64-5.89-1.92-8.32-2.14-.77-.07-1.93-.18-2.31-.3-1.36-.43-2.71-.88-4.07-1.33-6.17-2.04-12.56-4.14-19.36-4.98-12.4-1.53-23.3-11.78-27.78-26.11-3.46-11.07-3.08-26.52,8.35-36.71,7.1-6.34,13.1-13.45,19.45-20.97,2.85-3.37,5.79-6.86,8.87-10.31,1.71-1.91,2.32-4.56,1.62-7.03-.7-2.47-2.61-4.4-5.07-5.13-2.96-.88-5.83-1.33-8.52-1.33-5.6,0-10.68,1.95-14.69,5.64-7.22,6.65-15.12,12.34-23.49,18.36-11.41,8.21-23.22,16.71-33.17,27.86-6.75,7.57-12.74,17.26-5.99,31.77,7.76,16.67-.37,30.14-5.91,36.68-13.7,16.17-19.62,33.99-18.65,56.08.4,8.97.53,20.75-1.99,32.28l-.28,1.25c-1.71,7.68-5.27,23.66,10.3,29.28,6.6,2.38,12.34,3.54,17.53,3.54M489.74,400.99c4.43,0,9.62-1.44,16.81-4.66,3.35-1.5,6.18-2.26,8.42-2.26s4.59.45,6.79,5.88c1.25,3.08,5.05,12.46,13.58,12.46,5.64,0,9.55-4.2,12.7-7.57.56-.6,1.13-1.21,1.71-1.8,9.05-9.18,9.84-20.23,2.17-30.33-8.36-11-11.22-23.57-9.01-39.54,2.74-19.78-4.36-37.23-19.99-49.15-10.83-8.25-16.2-19.19-18.55-37.74-1.6-12.65-.09-15.49.41-16.06.3-.34,1.46-.73,3.75-.73,2.82,0,6.69.58,11.82,1.76.56.13,1.12.19,1.69.19,1.7,0,3.37-.58,4.72-1.67,1.79-1.45,2.81-3.65,2.77-5.96-.15-7.7-.62-31.15-21.58-31.15-.92,0-1.88.05-2.85.14-17.07,1.62-33.43,10.88-44.89,25.42-11,13.96-16.01,31.15-13.73,47.18,2.49,17.51,11.04,32.26,18.21,43.15.98,1.5,1.99,2.99,3,4.48,10.62,15.72,16.65,26.09,7.03,40.75-3.42,5.22-2.89,11.54-2.43,17.12.12,1.47.24,2.86.27,4.07.16,7.12.6,26.03,17.19,26.03M304.65,205.04c-.48-.01-.94-.02-1.4-.02-8.43,0-14.47,2.5-17.94,7.44-3.83,5.44-3.94,12.96-.34,22.97.31.86.65,1.74,1,2.64,3.02,7.81,2.45,8.62.75,9.86-.96.7-1.59.79-2.03.79-2.26,0-5.78-2.48-8.6-4.47-.52-.37-1.03-.73-1.53-1.08-4.2-2.9-8.66-5.15-12.97-7.33-8.86-4.47-16.51-8.33-20.45-16.66-2.27-4.8-6.35-7.56-11.19-7.56-2.8,0-5.69.91-8.86,2.79-26.44,15.7-41.2,56.65-30.98,85.91,2.89,8.28,8.91,12.83,16.94,12.83,1.56,0,3.22-.18,4.94-.53,4.9-1.01,9.86-2.06,14.65-3.09,19.71-4.2,40.1-8.54,60.55-10.56,3.12-.31,5.4-.45,7.39-.45,5.97,0,9.74,1.28,14.43,4.87,10.41,7.99,24.58,17.15,41.91,17.15,1.78,0,3.58-.1,5.37-.29,6.15-.66,14.71-2.36,18.12-9.53,2.82-5.94.24-12.06-2.42-16.14-2.38-3.65-4.54-7.52-6.83-11.61-6.19-11.06-12.58-22.5-23.83-30.43-14.03-9.89-18.77-18.2-17.51-30.67.55-5.43-.63-9.8-3.51-12.99-1.82-2.01-5.16-4.41-10.76-4.41-1.53,0-3.17.18-4.89.55M24.99,363.88c-.53-.47-1.27-1.2-2.26-2.31-1.11-1.24-1.21-3.13-1.18-7.15.01-1.53.02-3.12-.1-4.8-.87-12.26-2.69-37.78-35.84-38.41-12-.23-27.49-1.3-40.8-7.64-1.02-.49-2.12-.73-3.22-.73-1.32,0-2.64.35-3.82,1.05-2.15,1.27-3.52,3.53-3.66,6.02-.16,2.92-.22,5.74-.27,8.46-.11,5.44-.21,10.58-1.18,15.19-1.32,6.29-4.9,7.54-16.51,8.55-.88.08-1.75.15-2.61.24-.26.03-.54.04-.82.04-2.75,0-5.02-1.14-5.72-1.89,3.14-10.53.9-19.81-1.08-28-1.21-5.01-2.35-9.75-2.14-14.24.13-2.68-.14-5.29-.41-7.82-.71-6.85-.37-8.15,1.15-9.06.23-.14.44-.23.54-.23,1.04,0,3.68,1.91,5.43,3.17,2.26,1.64,4.82,3.49,7.78,4.7,1.14.47,2.38.71,3.68.71,1.15,0,2.12-.18,2.83-.31.14-.03.28-.05.41-.07,2.51-.23,4.74-1.72,5.92-3.95,1.19-2.25,1.16-4.95-.08-7.16-6.22-11.09-13.87-22.92-26.01-22.93-8.08,0-15.75,5.44-22.2,10.76-4.04,3.34-6.57,3.72-8.12,3.72-1.17,0-2.37-.26-3.69-.78-2.83-1.13-5.64-1.7-8.37-1.7-5.63,0-10.79,2.36-15.35,7.02-2.05,2.1-4.25,4.22-6.37,6.27-8.22,7.93-16.71,16.13-22.05,27.69-12.17,26.36-26.15,53.68-51.23,72.67-3.69,2.8-6.72,7.06-8.08,11.39-.26.82-.63,1.76-1.03,2.76-1.99,5-5.69,14.3,3.16,22.55,3.68,3.43,7.89,5.17,12.53,5.17s8.71-1.76,11.77-3.29c3.52-1.76,7.18-3.49,10.72-5.17,8.52-4.03,17.33-8.21,25.6-13.35,12.66-7.88,25.49-11.71,39.21-11.71,22.11,0,44.42,10.27,63.61,19.9,1.54.77,2.64,1.33,2.63,7.46-.05,28.7,7.24,33.09,30.28,42.65l1.9.79c9.13,3.8,18.63,6.97,27.83,10.05,24.24,8.1,47.14,15.75,64.51,34.05,3.12,3.29,7.99,7.65,14.21,7.65,8.13,0,13.1-7.3,16.07-11.67,9.42-13.84,15.42-16.68,21.53-16.68,4.22,0,9.43,1.44,15.91,4.42,23.31,10.68,48.93,15.65,80.64,15.65,14.51,0,28.92-1,42.34-2.07,16.56-1.33,27.1-9.13,32.21-23.86,6.28-18.11,16.16-33.8,29.38-46.65,10.64-10.34,12.01-20.82,10.79-33.37-.27-2.8-2.09-5.21-4.71-6.24-.89-.35-1.82-.52-2.75-.52-1.79,0-3.56.64-4.95,1.87-7.1,6.26-14.08,9.49-21.33,9.86-2.12.11-4.3.16-6.48.16-22.85,0-45.3-5.82-68.2-12.31-13.23-3.75-26.78-16.74-34.52-33.1-4.86-10.28-11.52-24.35-27.41-28.58l-.84-.22c-3.84-1.03-8.19-2.19-12.55-2.19-10,0-16.62,6.38-18.15,17.51-1.75,12.78-4.8,14.85-11.39,14.85-.54,0-1.11-.02-1.69-.06-16.99-1.11-25.3-3.68-29.69-15.97-7.44-20.86-15.96-41.03-25.32-59.95-3.42-6.91-8.91-12.05-14.21-17.01-6.02-5.64-11.71-10.96-13.89-18.37-1.95-6.65-7.25-10.95-13.5-10.95-2.86,0-8.35.99-12.99,7.64-6.09,8.73-4.32,21.37-.63,30.29,4.44,10.74,11.96,18.03,20.13,19.49,5.34.96,15.36,9.56,22.86,22.29,6.03,10.23,7.56,18.24,6.41,21.65-2.91,8.55-8.44,16.9-13.8,24.97l-.76,1.15M908.24-497.34h0,0M363.21-281.43h0,0M299-196.57h0,0M-74.79,289.35h0,0M1124.38-581.28c-18.56,0-36.15,5.32-48.18,24.95-2.71,4.42-8.32,5.46-13.29,6.89-25.19,7.27-51.79,6.53-77.03,14-7.17,2.12-14.04,2.73-20.8,7.46-13.97,9.78-29.03,18.21-45.6,23.17-1.31.39-2.76.5-4.27.5-1.83,0-3.74-.16-5.56-.16-3.88,0-7.34.73-8.68,5.31-2.31,7.87,6.94,11,11.93,15.46,4.12,3.68,10.92,5.97,7.32,13.32-1.76,3.59-4.22,4.71-6.91,4.71s-5.45-1.05-8.1-1.93c-7.28-2.42-14.51-3.55-21.69-3.55-9.67,0-19.23,2.06-28.62,5.81-17.27,6.89-19.79,18.65-7.6,32.32,3.25,3.65,8.57,6.07,6.82,14.23h0c-6.82,0-13.65-5.67-19.66-5.67-2.6,0-5.05,1.06-7.27,4.1-3.74,5.12-7.16,6.85-10.64,6.85-3.76,0-7.61-2.02-12.06-4.01-3.79-1.69-7.83-2.46-11.8-2.46-13.29,0-25.59,8.67-23.71,20.42,3.51,21.84-1.44,44.61,8.26,65.77,4.7,10.26,4.79,21.34-5.21,29.6-8.83,7.29-17.9,14.28-27.03,21.2-1.91,1.45-4.22,3.36-6.47,3.36-1.2,0-2.38-.54-3.47-1.96-2.74-3.55.58-7.12,2.89-10.04,1.97-2.48,3.96-5.66,6.66-6.72,23.67-9.3,19.04-27.56,15.79-46.2-5.01-28.67-11.98-57.42.82-86.17,4.7-10.56-6.16-13.95-11.51-19.45-3.1-3.18-6.82-4.81-10.46-4.81-3.06,0-6.07,1.15-8.61,3.5-22.94,21.22-54.34,34.72-59.82,71.79-2.1,14.17-2.9,24.41,9.04,33.48,9.19,6.98,16.72,15.19,14.67,28.57-55.89-25.1-103.81-66.59-168.34-67.36,26.67,11.68,47.79,31.59,73.16,44.74-3.49-.2-6.97-.29-10.44-.29-19.28,0-38.18,2.83-56.32,5.32-14.34,1.97-28.08,7.27-42.23,7.27-6.49,0-13.08-1.12-19.84-4.19-.23-.1-.5-.15-.8-.15-1.35,0-3.26.97-4.54,1.77-12.38,7.74-28.4,12.97-36.21,23.99-11.47,16.18-24.3,23.5-39.48,23.5-6.72,0-13.91-1.44-21.64-4.17-2.08-.74-3.88-1.11-5.43-1.11-4.45,0-6.74,3.09-7.38,9.35-.58,5.65-2.96,11.24-2.83,16.82.34,15.6-6.49,21.7-17.36,21.7-3,0-6.31-.46-9.85-1.32-1.97-.48-3.73-.7-5.29-.7-7.97,0-10.78,5.8-10.1,13.44,1.16,13.01-5.37,20.28-14.86,26.34-2.68,1.71-4.22,6.63-7.56,6.63-.83,0-1.77-.3-2.86-1.02-4.87-3.22-8.16-8.44-5.55-14.86,2.47-6.07,1.78-11.7-3.04-15.7-11.48-9.51-15.96-25.02-32.23-32.74,8.84-3.38,16.47-6.21,23.67-6.21,6.47,0,12.6,2.29,18.94,8.53,7.43,7.31,19.76,8.01,30.68,8.42,1.61.06,3.15.09,4.63.09,24.55,0,30.15-8.54,24.65-34.81-.78-3.73-2.9-7.54-2.49-11.1,2.33-20.28-9.49-26.48-26.69-29.13-29.32-4.51-56.25-14.93-80.48-32.68-11.2-8.2-23.44-16.48-36.5-20.36-18.69-5.54-37.8-13.19-56.39-13.19-15.28,0-30.2,5.18-44.22,20.96-2.22,2.5-6.86,3.91-10.42,3.99-25.99.59-48.27,8.22-64.57,30.04-3.1,4.15-10.29,4.99-14.73,8.45-16.91,13.2-34.34,25.45-33.8,51.22.36,17.25-6.98,32.43-18.08,46.88-9.7,12.63-25.16,16.9-34.24,29.83-8.25,11.75-18.38,21.89-33.64,26.28-11.03,3.17-21.13,11.08-23.79,22.99-5.54,24.87-2.75,49.34,8.48,72.47,4.67,9.62,9.93,16.83,19.16,16.83,3.4,0,7.34-.98,11.98-3.18,4.1-1.94,8.29-3.03,12.12-3.03,8.19,0,14.75,4.97,15.28,17.18.76,17.48,8.02,31.75,16.37,46.01,5.13,8.77,5.27,17.61,2.2,30.14-14.22-18.23-19.4-36.76-21.97-56.08-1.12-8.41-2.49-16.33-8.1-22.93-4.19-4.94-8.22-7.44-11.84-7.44-4.32,0-8.04,3.56-10.73,10.79-2.81,7.56-2.54,16.21-4.76,24.05-2.37,8.33-8.65,15.81-2.32,25.12,2.93,4.32,6.59,5.35,10.51,5.35,3.62,0,7.46-.89,11.12-.89.77,0,1.54.04,2.29.14-.86,2.58-.88,4.27-1.68,4.79-23.51,15.39-47.39,30.31-54.73,60.47-.64,2.63-4.2,4.6-6.54,6.75-15.45,14.2-30.76,28.55-46.45,42.48-13.93,12.38-28.15,23.62-47.24,23.62-3.37,0-6.9-.35-10.6-1.11-3.09-.63-6.3-.95-9.55-.95-6.23,0-12.63,1.18-18.65,3.67-7.6,3.13-17.99,5.34-16.44,15.45,1.03,6.73,6.19,7.36,11.65,7.36,1.26,0,2.53-.03,3.78-.03,1.31,0,2.58.04,3.76.19.91.12,1.84.16,2.8.16,4.04,0,8.4-.85,12.39-.85,4.03,0,7.69.86,10.28,4.32,10.2,13.61,19.2,28.48,26.36,43.91,6.65,14.34-.88,24.61-16.64,26.07-16.42,1.52-32.71,3.77-49.31,4.36-31.59,1.12-45.98,17.83-44.82,49.1.8,21.6,1.76,43.2,2.65,64.8,1.2,28.9,7.29,36.5,35.13,43.89,9.23,2.45,19.11,3.49,27.02,12.51-3.75-.56-7.24-.82-10.51-.82-28.18,0-39.37,19.79-46.65,45.13-1.85,6.44-6.02,13.02-10.92,17.61-12.84,12.03-18.5,26.84-20.87,43.7-1.63,11.62-5.88,22.1-16.61,28.74-25.81,15.97-42.44,40.54-56.69,65.89-11.57,20.58-26.46,42.46-20.24,67.83,8.11,33.09,10.07,65.37-2.51,97.39-7.82,19.9-1.81,35.4,11.36,50.66,7.5,8.69,19.07,13.14,24.12,23.9,16.15,34.4,39.62,63.33,65.9,90.38,9.91,10.2,20.4,15.83,32.81,15.83,4.81,0,9.91-.85,15.37-2.6,16.61-5.34,33.84-9.47,51.11-9.47,6.14,0,12.29.52,18.41,1.7,4.28.82,8.38,1.21,12.34,1.21,13.89,0,26.09-4.71,38.38-11.67,6.09-3.45,12.45-6.42,18.6-9.76,3.92-2.13,7.77-3.28,11.33-3.28,5.45,0,10.22,2.69,13.56,8.69,9.39,16.88,24.71,20.58,41.77,21.72,8.76.59,18.01-.74,21.82,10.8,4.2,12.72,10.12,24.68.37,37.83-20.24,27.31-17.36,52.22,9.97,73.58,20.02,15.64,29.88,36.04,33.49,59.95,2.74,18.17,1.38,37.2,5.9,54.8,7.38,28.71,4.67,55.03-9.34,80.79-9.82,18.06-12.53,37.4-7.3,57.34,5.91,22.53,20.35,40.86,31.21,60.95,5.15,9.53,11.24,18.49,10.42,30.13-2.91,41.54,10.69,78.91,29.59,114.84,11.08,21.07,18.91,42.29,16.73,67.22-1.78,20.35,7.96,31.69,24.35,31.69,4.51,0,9.53-.86,14.94-2.62,16.38-5.34,32.87-11.06,49.97-11.85,30.64-1.41,52.24-16.42,70.44-39.75,24.9-31.93,44.48-66.49,56.51-105.16,4.42-14.19,11.71-24.85,27.07-28.93,18.04-4.79,22.01-17.91,17.33-34.14-4.04-14.01-9.45-27.63-14.27-41.42-5.27-15.09-.5-23.51,12.88-23.51,1.9,0,3.97.17,6.21.51,1.53.23,3.1.35,4.69.35,25.84,0,59.28-29.67,60.32-54.43,1.72-40.88-16.28-79.66-12.41-120.79.36-3.86-2.77-8.43-5.15-12.11-13.2-20.39-10.85-41.08-1.41-61.82,10.99-24.14,29.25-42.8,46.61-62.33,17.87-20.11,44.68-29.43,60.07-52.43,16.34-24.42,29.65-50.49,41.41-77.16,7.85-17.8,16.36-35.91,17.15-56.23.6-15.36-3.5-23.16-13.25-23.16-3.45,0-7.61.98-12.52,2.95-11.2,4.49-22.54,7.03-34.03,7.03-4.2,0-8.42-.34-12.66-1.05-2.87-.48-5.51-.84-7.95-.84-5.29,0-9.62,1.72-13.23,7.74-1.93,3.23-4.19,4.52-6.51,4.52-2.66,0-5.39-1.71-7.79-4.16-6.7-6.85-11.47-14.93-15.27-23.91-8.67-20.54-18.12-41.86-34.6-56.44-19.86-17.58-27.96-38.24-30.54-63.19-1.09-10.46-.65-23.05-10-29.84-15.03-10.91-22.67-26.43-26.96-42.75-7.2-27.34-8.59-56.22-23.8-81.43,17.95,20.18,20.43,50.09,45.35,65.16,2.25,1.36,3.91,5.58,3.9,8.47-.01,25.68,18.58,43.15,29.06,63.85,20.54,40.55,52.81,74.79,63.27,120.98,2.18,9.64,9.35,13.4,17.4,13.4,3.57,0,7.32-.74,10.88-2.04,17.8-6.48,34.99-14.73,52.21-22.72,49.16-22.8,80.85-69.78,129.32-93.71,4.85-2.39,8.67-7.54,12.07-12.09,12.08-16.17,9.59-34.29-6.21-46.9-17.29-13.81-35.18-24.8-56.45-24.8-6.51,0-13.34,1.03-20.57,3.33-5.06,1.61-10.69,2.93-16.1,2.93-6.77,0-13.2-2.07-17.77-8.25-16.23-21.94-30.74-45.18-45.28-68.31-3.07-4.88-7.63-14.44-.67-16.9,6.81-2.41,13.91-7.54,21.4-7.54,4.58,0,9.31,1.92,14.2,7.57,15.38,17.78,32.75,33.88,49.74,50.2,6.27,6.02,10.89,9.07,14.94,9.07,4.75,0,8.72-4.2,13.64-12.73,2.15-3.73,4.58-5.04,7.55-5.04,1.59,0,3.33.37,5.26.95,9.33,2.77,14.97,9.24,19.35,17.3,4.13,7.6,9.55,17.51,17.36,17.51.41,0,.83-.03,1.25-.08,2.16-.29,4.31-.41,6.47-.41,12.13,0,24.21,3.89,36.27,3.89,6.17,0,12.33-1.02,18.49-4.1,3.57-1.78,7.63-3.04,11.44-3.04,4.42,0,8.51,1.68,11.12,6.17,14.25,24.47,37.44,39.38,57.73,57.51,6.13,5.48,12.08,9.23,19.28,9.23,2.55,0,5.26-.47,8.19-1.5,3.1-1.09,5.78-1.61,8.11-1.61,8.07,0,11.91,6.24,14.09,16.58,4.3,20.4,4.12,41.17,10.48,61.66,12.45,40.12,36.47,76.05,43.49,117.55,3.4,20.12,17.03,23.04,30.74,28.29,1.42.54,2.79.81,4.07.81,4.3,0,7.64-2.99,8.44-8.58,3.96-27.64,13.41-55.15,9.98-82.96-2.22-17.99,1.92-30.73,13.33-43.07,16.82-18.19,34.16-35.97,49.78-55.15,17.4-21.38,43.56-32.44,60.6-54.5,2.59-3.36,5.86-4.91,9.07-4.91,5.43,0,10.71,4.43,12.39,12.09,3.19,14.58,11.01,24.62,22.14,33.95,9.24,7.75,14.58,19.14,19.65,30.21,5.83,12.72,11.52,25.52,17.8,38.01,2.81,5.59,7.05,11.11,13.88,11.11.16,0,.32,0,.49,0,6.71-.25,8.28-6.82,10.85-11.92,1.44-2.87-.16-8.94,4.44-8.94.68,0,1.5.13,2.49.43,4.59,1.39,6.09,6.28,6.55,10.84,1.59,15.76,2.84,31.55,4.52,47.3,3.14,29.45-2.96,60.14,11.76,88.06,2.42,4.6,4.22,10.1,10.1,10.1.59,0,1.23-.06,1.91-.17,6.93-1.21,8.89-6.68,8.75-12.89-.35-15.84,1.32-31.6-1.73-47.56-2.37-12.36-8.78-24.92-3.44-39.68,8.84,7.47,10.7,17.12,14.53,25.56,4.32,9.53,9.25,19.46,20.52,20.7,12.38,1.36,19.45,6.68,26.7,17.06,7.82,11.2,16.52,16.65,25.11,16.65,9.24,0,18.34-6.29,26.09-18.48,4.44-6.98,9.32-13.69,13.61-20.77,30.09-49.63,28.03-67.25-12.94-107.66-16.44-16.21-18.02-35.32-12.26-56.24,2.73-9.93,10.32-14.06,19.33-16.38,1.19-.31,2.42-.51,3.6-.51,2.59,0,4.97.96,6.31,3.85,1.66,3.58-1.12,5.84-3.65,7.81-3,2.34-6.76,4.06-8.99,6.97-6.51,8.49-5.09,18.07-1.64,27.17,2.26,5.97,7.03,10.17,13.5,10.17.41,0,.82-.02,1.25-.05,11.47-.93,9.85-11.44,12.51-18.7,3.28-8.96,6.56-17.92,9.6-26.97,2.41-7.19,7.15-12.01,14.13-14.48,17.25-6.12,32.4-18.23,51.9-18.23,1.61,0,3.24.08,4.91.26.45.05.92.07,1.39.07,5.9,0,12.99-3.58,17.8-7.41,52.02-41.34,71.63-118.05,34.38-173.41-14.83-22.04-21.3-48.31-10.09-76.34,6.29-15.73-.82-25.42-16.57-25.42-2.53,0-5.28.25-8.24.77-3.41.59-6.6,1.11-9.6,1.11-5.08,0-9.59-1.49-13.58-6.61,10.46-10.78,26.06-1.79,35.36-10.13,10.35-9.28-3.06-26.11,8.51-37.35,8.6,15.27,19.67,25.61,36.21,29.51,14.66,3.45,54.49,51.95,48.91,64.02-8.93,19.3,6.81,39.37-11.68,58.98,15.86-5.3,65.81-46.83,69.22-54.62,4.1-9.37-1.75-11.21-9.04-11.63-9.32-.53-18.7-2.48-22.61-11.57-9.64-22.41-11.44-47.73-3.92-69.1,5.65-16.06,19.55-33.48,42.66-35.06,10.59-.73,21.02-4.83,31.36-7.93,16.41-4.93,27.28-15.22,31.82-32.35,4.72-17.81,8.59-36.22,16.26-52.79,16.66-36.02,14.73-72.9,9.27-110.35-2.28-15.66-8.07-26.33-26.98-26.33-.38,0-.76,0-1.15.01-.33,0-.66.01-.99.01-14.09,0-27.55-6.57-39.31-15.59-11.6-8.9-13.15-16.55-1.49-27.37,19.12-17.75,39.13-35.24,54.62-55.94,9.67-12.92,20.39-19.49,34.43-24.05,35.17-11.44,71.59-9.89,107.76-10.81,42.64-1.09,45.79-3.43,57.55-44.86,3.1-10.91,9.03-21.59,20.11-21.59.92,0,1.88.07,2.87.23,5.14.79,10.14,1.18,15.05,1.18,14.73,0,28.57-3.45,42.46-9.51,4.28-1.87,8.84-2.42,13.48-2.42,3.68,0,7.41.35,11.07.65,10.36.87,12.28,6.07,6.25,13.8-8.6,11.02-18.71,20.67-28.57,30.61-18.63,18.79-41.21,34.09-54.87,57.41-27.13,46.32-16.02,91.39,5.58,135.93,4.31,8.89,9.42,13.53,14.67,13.53,4.66,0,9.43-3.64,13.88-11.2,9.99-16.94,14.89-35.61,29.89-51.15,16.51-17.11,14.34-42.68,9.01-66.23-5.88-25.98,11.96-57.94,36.46-68.33,1.67-.71,3.11-1.03,4.4-1.03,2.85,0,4.95,1.57,7.17,3.93,5.9,6.28,11.91,8.83,17.84,8.83,7.31,0,14.49-3.88,21.16-9.41,12.21-10.11,22.26-22.79,34.24-33.22,13.51-11.77,28.25-21.25,46.47-21.25,2.74,0,5.55.21,8.45.67,3.41.53,7.15,1.48,10.63,1.48s6.67-.94,9-4.18c4.89-6.79-4.08-10.87-6.08-16.47-2.34-6.56-3.84-13.46-6.6-19.81-2.33-5.35-1.87-8.27,4.13-9.79,17.18-4.34,10.66-11.43,1.9-18.41-3.97-3.17-8.25-5.98-12.54-8.7-3.91-2.47-8.12-5.2-6.92-10.28,1.35-5.71,6.82-7.06,11.96-7.87,1.07-.17,2.13-.25,3.17-.25,6.04,0,11.59,2.6,17.1,4.76,4.69,1.84,10.26,3.91,14.99,3.91,2.7,0,5.13-.67,6.97-2.45,5.07-4.9,9.43-6.75,13.37-6.75,7.54,0,13.57,6.81,20.2,12.13,3.48,2.79,6.68,6.34,10.66,7.99,10.53,4.39,20.21,14.28,29.48,15.62.99.14,1.88.21,2.7.21,13.58,0,3.71-19.06,11.55-25.71.92-.78,1.08-2.54,2.04-3.16,21.94-14.31,6.66-22.76-5.82-28.29-44.92-19.87-85.84-46.02-126.72-73.01-27.82-18.37-62.43-18.05-95.22-19.43-.6-.03-1.23-.04-1.86-.04-5.55,0-11.93,1.23-13.9,8.1-1.98,6.89,7.25,7.58,10.47,19.13-13.73-17.74-28.58-22.42-43.98-22.42-8.71,0-17.6,1.5-26.55,2.98-4.11.68-8.37,1-12.64,1-5.99,0-12.03-.63-17.76-1.77-4.2-.83-8.26-1.35-12.25-1.35-4.71,0-9.31.72-13.89,2.49-4.54,1.75-8.64,2.67-12.29,2.67-8.71,0-14.81-5.26-18.14-17.04-1.59-5.62-6.24-9.07-10.78-12.85-18.12-15.07-39.97-22.68-61.74-22.68-2.53,0-5.07.1-7.59.31-2.91.24-5.64.36-8.24.36-14.03,0-24.22-3.52-38.31-11.16-31.25-16.94-67.32-27.61-103.53-30.32-6.24-.47-12.94-1.17-19.51-1.17-16.17,0-31.57,4.27-37.52,26.87-.8,3.05-3.2,3.66-5.79,3.9-16.56,1.56-33.12,7.76-49.48,7.76-3.62,0-7.24-.3-10.84-1.03-4.82-.97-9.39-1.44-13.76-1.44-14.73,0-27.22,5.33-39.19,14.83-3.24,2.57-6.21,3.91-9.03,3.91-3.16,0-6.13-1.68-9.06-5.2-11.63-13.98-24.27-26.36-32.58-43.8-10.29-21.59-27.3-36.74-48.57-36.74-10.48,0-22,3.68-34.26,12.09-3.15,2.16-5.66,3.38-8.43,3.38-1.99,0-4.12-.63-6.72-2.01-26.31-13.92-57.43-7.58-84.6-19.23-.94-.4-1.99-.57-3.13-.57-4.54,0-10.38,2.72-15.02,4.54-22.94,8.95-45.7,18.39-68.52,27.64,22.52-12.87,46.43-22.31,66.86-39.09,27.99-22.98,27.26-56.17-3.89-74.2-8.68-5.02-18.61-8.19-28.29-11.14-27.18-8.3-55.55-2.68-83.33-6.57-6.55-.92-13.17-1.57-19.67-1.57h0ZM46.13,8.88c-5.09,0-10.33-1.41-14.99-3.1-9.9-3.57-6.96-14.08-5.25-21.89,2.49-11.38,2.66-22.81,2.15-34.21-.85-19.28,3.93-35.61,16.88-50.91,10.46-12.35,14.5-28.53,6.99-44.68-4.47-9.61-2.1-15.91,4.79-23.63,16.35-18.33,38.37-29.33,56.14-45.7,2.52-2.32,5.68-3.66,9.62-3.66,1.93,0,4.06.32,6.39,1.02-9.84,11.02-17.85,21.89-27.72,30.68-26.21,23.37-9.1,71.81,23.49,75.83,7.5.93,14.81,3.7,22.08,6.01,4.37,1.39,11.63-.68,11.59,6.91-.03,5.38-4.52,9.03-8.88,11.69-2.6,1.59-5.89,2.16-8.95,2.85-26.66,6.01-35.49,15.21-37.43,43.64-.82,11.94-5.66,18.78-15.66,23.66-9.72,4.75-18.55,10.38-25.98,18.88-4.28,4.89-9.68,6.59-15.25,6.59h0ZM489.74,393.5c-7,0-9.41-5.84-9.7-18.72-.13-5.71-1.75-12.82.93-16.92,14.12-21.51.67-37.19-10.03-53.45-8.16-12.39-14.98-25.5-17.05-40.08-4.3-30.26,21.27-61.19,51.92-64.09.74-.07,1.46-.11,2.15-.11,9.66,0,13.76,7.06,14.09,23.81-5.47-1.27-9.93-1.96-13.51-1.96-11.48,0-13.88,7.12-11.59,25.22,2.13,16.85,7,31.74,21.44,42.75,13.59,10.36,19.5,24.96,17.12,42.17-2.28,16.46.19,31.57,10.46,45.1,5.4,7.11,4.86,14.06-1.54,20.55-3.22,3.26-6.12,7.15-9.08,7.15-2.14,0-4.31-2.03-6.64-7.79-3-7.4-7.74-10.55-13.73-10.55-3.44,0-7.3,1.04-11.48,2.91-5.86,2.62-10.35,4-13.75,4h0ZM305.35,212.56c1.55-.39,2.95-.58,4.19-.58,5.02,0,7.42,3.16,6.82,9.16-1.76,17.44,7.01,27.93,20.65,37.54,13.7,9.66,19.73,26.24,28.7,40.01,6.95,10.68-2.41,13.31-10.22,14.14-1.55.17-3.07.25-4.57.25-14.26,0-26.37-7.19-37.35-15.6-6.42-4.92-11.98-6.42-18.99-6.42-2.49,0-5.17.19-8.13.48-25.87,2.56-50.76,8.57-75.97,13.76-1.18.24-2.33.38-3.43.38-4.32,0-7.87-2.09-9.87-7.82-8.96-25.64,4.45-63.18,27.73-77,1.86-1.1,3.55-1.74,5.03-1.74,1.83,0,3.34.98,4.42,3.27,7.26,15.38,23.65,18.45,35.93,26.95,4.24,2.93,9.16,6.87,14.39,6.87,2.1,0,4.25-.63,6.43-2.22,7.98-5.81,3.34-14.28.9-21.08-4.7-13.08-2.23-20.39,11.23-20.39.67,0,1.37.02,2.1.05h0ZM25.5,372.12c1.84,0,3.72-1.06,5.56-3.84,5.91-8.93,12.19-18.11,15.58-28.11,5.29-15.56-18.61-50.76-35.04-53.71-12.54-2.25-22.24-27.29-14.68-38.13,2.17-3.11,4.63-4.44,6.85-4.44,2.85,0,5.32,2.19,6.32,5.57,4.86,16.55,22.08,23.48,28.58,36.6,9.39,18.98,17.79,38.98,24.98,59.14,6.37,17.86,20.68,19.9,36.25,20.92.75.05,1.48.07,2.18.07,13.55,0,17.13-9.09,18.81-21.31,1.19-8.67,5.52-11.05,10.73-11.04,3.66,0,7.75,1.18,11.47,2.17,12.31,3.28,17.77,14.41,22.57,24.55,8.42,17.8,23.64,32.68,39.25,37.1,22.47,6.36,46.17,12.59,70.24,12.59,2.28,0,4.57-.06,6.86-.17,8.6-.44,17.22-4.06,25.9-11.72,1.2,12.29-.71,19.65-8.56,27.28-14.19,13.79-24.7,30.71-31.23,49.56-4.38,12.62-13.07,17.84-25.73,18.85-14,1.12-27.92,2.05-41.74,2.05-26.24,0-52.12-3.33-77.52-14.97-7.42-3.4-13.59-5.1-19.03-5.1-10.78,0-18.68,6.66-27.72,19.95-3.47,5.1-6.35,8.39-9.88,8.39-2.47,0-5.25-1.61-8.78-5.32-25.72-27.09-62.54-32.4-94.89-45.86-22.43-9.33-27.61-10.71-27.57-36.51.01-6.69-1.12-11.33-6.76-14.16-22.03-11.06-44.12-20.7-66.96-20.7-14.05,0-28.38,3.64-43.16,12.84-11.3,7.03-23.76,12.21-35.71,18.18-2.83,1.41-5.64,2.5-8.42,2.5-2.5,0-4.97-.87-7.42-3.16-6.3-5.88-1.9-11.86-.1-17.58.91-2.87,3.05-5.85,5.46-7.68,25.82-19.56,40.36-47.04,53.5-75.5,6.08-13.16,17.23-21.88,26.98-31.86,3.01-3.08,6.28-4.77,9.99-4.77,1.76,0,3.62.38,5.59,1.17,2.26.9,4.41,1.32,6.47,1.32,4.59,0,8.79-2.06,12.88-5.43,7.19-5.94,12.63-9.04,17.44-9.04,6.73,0,12.2,6.11,19.48,19.1-.83.07-1.75.36-2.55.36-.3,0-.58-.04-.84-.14-5.45-2.23-10.35-8.44-16.05-8.44-1.4,0-2.85.37-4.36,1.27-8.32,4.94-4.03,15.08-4.4,22.96-.64,13.54,7.96,25.93,3.47,40.65-2.05,6.71,5.78,11.33,12.95,11.33.52,0,1.03-.02,1.54-.07,10.44-1.01,22.83-.92,25.73-14.7,1.63-7.76,1.11-15.98,1.6-24.78,13.6,6.48,29.25,8.09,43.88,8.37,23.11.44,27.26,13.76,28.52,31.46.4,5.68-1,11.75,3.17,16.41,2.43,2.72,5.33,5.56,8.34,5.56h0Z"/><path d="M1685.21,1014.29h0,0M1683.4,1057.35c.75,2.28,1.84,4.28,3.27,6.03,5.97,7.29,15.96,7.29,19.25,7.29,3.82,0,7.88-.4,11.71-.84.56-.06,1.2-.09,2.18-.09.77,0,1.65.02,2.71.03,1.73.03,3.88.07,6.78.07.69,0,1.37-.09,2.03-.28,6.3-1.77,13.52-2.67,21.45-2.67,13.71,0,29.32,2.77,43.96,7.79,3.9,1.34,7.91,2.67,11.78,3.96,18.62,6.19,37.87,12.58,53.88,22.66,17.67,11.12,29.01,25.09,35.68,43.94.23.65.46,1.3.69,1.94,2,5.56,3.72,10.37,3.41,15.33-1.34,21.35,6.02,37.54,21.89,48.2-1.31.14-2.6.21-3.87.21-12.4,0-22.39-6.61-28.14-18.6-2.71-5.65-4.84-11.59-7.09-17.87-1.17-3.28-2.39-6.67-3.69-10.01-.31-.8-.61-1.85-.93-2.96-1.36-4.76-4.18-14.66-15.4-14.66-.96,0-1.97.08-3,.24-6.51,1.02-14.66,5.51-16.47,21.12-.59,5.1-.87,10.21-1.13,15.16-.35,6.5-.68,12.64-1.67,18.64-.27,1.66-.39,3.3-.5,4.89-.44,6.36-1.02,6.55-2.58,7.05-.96.31-1.85.46-2.7.46-3.54,0-6.96-2.82-11.34-7.36-.95-.99-1.9-2.02-2.82-3.02-5.93-6.45-12.65-13.77-24.77-13.77-3.18,0-6.48.51-10.1,1.55-.68.2-1.29.29-1.83.29-3.93,0-7-7.73-8.29-15.4-.53-3.16-.69-6.49-.86-10.01-.3-6.26-.61-12.74-3-19.51-3.27-9.26-8.41-19.07-21.69-21.71l-.24-.05c-1.35-.27-3.7-.73-4.85-1.24.45-17.97-12.14-25.02-21.37-30.18-1.81-1.02-3.53-1.97-5.15-2.99-9.37-5.86-18.82-12.03-27.95-18-3.17-2.07-6.34-4.15-9.52-6.21.1-3.22.2-6.34.3-9.39M1682.2,1011.15c-1.56,0-4.41,1.71-4.47,2.75-.99,18.78-1.67,37.57-2.23,56.37-.02.75,1.79,1.64,2.84,2.32,12.73,8.27,25.38,16.68,38.25,24.72,10.56,6.6,23.62,10.5,22.99,27.04-.24,6.27,6.11,7.43,11.13,8.42,9.42,1.87,13.11,8.44,16.09,16.86,3.31,9.35,1.96,18.93,3.54,28.27,1.69,10.03,6.08,21.64,15.67,21.64,1.22,0,2.52-.19,3.9-.59,3.01-.87,5.66-1.25,8.03-1.25,10.38,0,15.41,7.45,22.2,14.5,4.64,4.81,9.86,9.66,16.73,9.66,1.57,0,3.23-.25,4.99-.82,8.81-2.83,7.14-11.56,8.17-17.86,1.85-11.23,1.54-22.8,2.85-34.15.74-6.35,2.89-13.45,10.19-14.58.66-.1,1.27-.15,1.84-.15,7.1,0,7.32,7.65,9.35,12.86,3.69,9.46,6.63,19.27,11,28.4,7.15,14.92,19.88,22.85,34.89,22.85,2.93,0,5.95-.3,9.03-.91,3.08-.61,6.79-.42,7.55-4.34.77-3.95-2.79-5.19-5.44-6.73-16.82-9.71-22.86-24.77-21.69-43.44.45-7.2-2.16-13.58-4.52-20.24-17.64-49.84-64.36-60.85-105.97-75.14-14.74-5.06-31.1-8.2-46.39-8.2-8.28,0-16.25.92-23.48,2.95-4.7,0-7.45-.1-9.48-.1-1.18,0-2.11.03-3.03.14-3.8.43-7.49.79-10.86.79-11.34,0-19.1-4.05-15.3-22.94,1.41-7.03-1.8-14.99-2.97-22.52-.5-3.23-1.49-6.52-5.42-6.58-.01,0-.02,0-.03,0h0Z"/><path d="M1232.53,906.48c1.59,0,2.87.63,3.41,1.69,7.78,15.02,15.4,30.6,23.29,47.61,0,.01.01.03.02.04-.24.73-1.47,2.36-2.23,3.35-.71.94-1.45,1.91-2.15,2.98-9.36,14.31-9.67,29.68-.97,46.98,1.12,2.22,3.26,3.74,5.72,4.06.32.04.65.06.97.06,2.13,0,4.17-.91,5.6-2.52,2.45-2.76,4-6.02,5.37-8.89.74-1.55,1.82-3.82,2.56-4.68.3.06.81.21,1.6.57,6.86,3.13,9.08,8.69,6.6,16.52-2.99,9.43-.18,16.62,2.29,22.97.42,1.08.86,2.2,1.25,3.3,2.92,8.12,5.42,16.66,7.84,24.91,4.88,16.64,9.93,33.84,18.84,49.92,1.66,3,1.78,9.3.28,14.98-1.18,4.46-4.12,7.69-6.99,7.69-1.07,0-2.23-.43-3.44-1.27-2.88-2-5.8-3.98-8.61-5.89-20.73-14.05-40.31-27.32-50.21-54.25-13.42-36.52-36.96-68.55-59.73-99.52-5.17-7.04-10.52-14.31-15.63-21.48-.68-.96-1.37-1.86-2.04-2.74-4.57-5.99-4.24-6.44-2.62-8.6,5.36-7.16,10.15-11.64,17.41-11.85.15,0,.3,0,.44,0,3.17,0,4.48,0,5.65,8.17,2.03,14.09,6.68,32.66,24.8,51.35,1.43,1.48,3.38,2.28,5.38,2.28.81,0,1.64-.13,2.43-.41,2.75-.94,4.7-3.39,5.01-6.28.23-2.15.55-3.89.83-5.42.65-3.54,1.33-7.21-1.07-10.69-10.73-15.61-5.45-30.03.65-46.72,1.73-4.74,3.53-9.64,4.94-14.63.73-2.57,1.2-3.28,1.37-3.46.06-.02.22-.07.51-.1.2-.02.41-.03.6-.03M1231.44,906.57h0,0M1274.36,996.93h0,0M1232.53,898.99c-.44,0-.89.02-1.34.07-5.29.52-7.02,4.27-8.35,8.96-6.3,22.22-20.95,43.77-4.56,67.64,1.03,1.5-.35,4.66-1.04,11.07-14.96-15.43-20.39-30.7-22.76-47.2-1.19-8.26-3.39-14.59-13.06-14.59-.21,0-.43,0-.65,0-10.78.3-17.38,7.08-23.19,14.84-6.19,8.27.11,13.93,4.55,20.17,27.28,38.3,58.34,75.48,74.43,119.25,12.15,33.05,37.18,46.74,61.58,63.71,2.58,1.8,5.21,2.61,7.71,2.61,6.48,0,12.16-5.43,14.23-13.27,1.69-6.42,2.05-15.07-.97-20.52-12.88-23.26-17.38-49.21-26.19-73.73-2.62-7.3-6.07-13.23-3.45-21.49,3.46-10.91.1-20.69-10.63-25.59-1.96-.89-3.61-1.28-5.02-1.28-7.35,0-8.33,10.6-13.23,16.13-7.38-14.67-7.51-27.2.55-39.51,2.74-4.2,7.44-8.1,4.89-13.62-7.48-16.13-15.26-32.12-23.43-47.91-1.87-3.61-5.71-5.73-10.06-5.73h0Z"/><path d="M1462.67,948.3h0c.66,0,1.46.19,2.38.55.78.32,2.87,1.15,2.02,6.21-.96,5.74-3.66,7.04-16.99,8.14-2.42.2-4.59,1.56-5.83,3.65-1.24,2.09-1.38,4.64-.4,6.86.94,2.1,1.69,4.22,2.42,6.27,1.66,4.67,3.37,9.51,7.12,13.12,16.99,16.41,17.55,33.31,2.02,60.28-5.19,9.01-10.24,13.09-12.95,13.15-8.78.18-17.12,1.96-25.18,3.67-8.08,1.72-15.71,3.34-23.37,3.34-2.31,0-4.48-.15-6.6-.44-1.79-.29-9.51-3.73-20.08-10.71-10.67-7.04-16.07-12.35-17.19-14.27-1.28-9.97,2.53-20.02,11.33-29.88,17.48-19.59,33.79-33.41,56.57-37.18,11.79-1.95,20.07-10.04,27.38-17.18,1.9-1.86,3.7-3.61,5.52-5.24,1.67-1.5,3.14-3.12,4.57-4.7,3.18-3.52,5.25-5.65,7.29-5.65M1462.67,940.81c-7.51,0-11.68,7.64-16.84,12.25-9,8.04-17.05,18.62-29.13,20.62-26.49,4.38-44.33,20.97-60.93,39.58-9.03,10.12-15.1,22.52-13.08,36.42,1.2,8.24,35.12,29.65,43.57,30.83,2.58.36,5.12.52,7.65.52,16.5,0,32.15-6.67,48.71-7.02,7.67-.16,14.63-8.82,19.28-16.9,13.79-23.95,19.85-47.04-3.3-69.4-3.74-3.61-4.77-10.03-7.89-17.06,11.99-.99,21.72-2.12,23.76-14.37,1.04-6.25-.68-12-6.62-14.39-1.89-.76-3.6-1.09-5.17-1.09h0Z"/><path d="M1740.42,321.41c.72,0,1.54.08,2.43.22,12.06,1.99,16.81,6.24,17.59,16.04-7.65,25.38-10.32,48.76-8.14,71.42.37,3.91-5.82,8-10.79,11.3l-.71.47c-12.39,8.23-27.45,12.3-42,16.24-1.03.28-1.92.46-2.65.53.4-.35.89-.74,1.47-1.19,8.01-6.19,22.84-17.64,13.94-39.07.37-1.93,2.82-6.22,4.17-8.59.57-1,1.12-1.97,1.62-2.87,8.97-16.48,14.8-34.31,17.34-53,1.56-11.5,3.13-11.5,5.73-11.5M1740.42,313.92c-10.3,0-11.91,8.92-13.14,17.98-2.42,17.8-7.87,34.59-16.49,50.43-3,5.5-8.17,13.22-6.38,17.33,6.53,15-.95,22.82-11.35,30.86-3.14,2.43-7.67,6.15-4.5,11.19,1.66,2.63,4.2,3.45,6.86,3.45,1.81,0,3.68-.38,5.35-.84,15.33-4.15,30.83-8.36,44.18-17.23,6.7-4.45,15.64-10.04,14.81-18.71-2.36-24.56,1.55-48.06,8.25-69.82-.77-16.82-11.17-22.21-23.93-24.31-1.33-.22-2.54-.32-3.66-.32h0Z"/><path d="M1549.83,1009.19c-4.2,4.55-8.6,9.1-12.87,13.5-1.16,1.2-2.32,2.4-3.48,3.61-11.48,11.9-17.11,26.02-15.86,39.76,1.25,13.67,9.27,26.45,22.6,36,1.51,1.08,3.04,1.98,4.53,2.84,5.47,3.2,5.39,3.48,4.78,5.7-2.77,10.07-6.45,14.71-13.57,17.09-7.42,2.48-12.62,3.64-16.38,3.64-5.26,0-9.49-1.48-15.97-20.61-12.05-35.54,5.58-80.55,38.5-98.28,2.11-1.14,4.39-2.12,6.22-2.91.25-.11.49-.21.72-.31.28-.01.54-.02.79-.03M1550.27,1001.7c-.94,0-1.95.05-3.05.14-1.86.85-5.37,2.24-8.67,4.01-36.09,19.45-55.23,68.36-42.04,107.28,6.21,18.32,11.83,25.69,23.06,25.69,4.97,0,11.05-1.45,18.76-4.03,11.31-3.79,15.67-12.24,18.41-22.2,2.79-10.13-6.19-12.33-12.17-16.62-23.95-17.16-26.19-43.24-5.71-64.48,5.72-5.93,11.49-11.81,17.06-17.87,2.27-2.47,3.12-5.78,1.45-8.79-1.35-2.42-3.7-3.14-7.11-3.14h0Z"/><path d="M1516.7,733.67c1.79,0,3.78,2.85,6.4,6.87.99,1.53,2.02,3.1,3.17,4.62,5.41,7.16,5.26,15.61,5.08,25.39-.03,1.62-.06,3.24-.06,4.87,0,1.49.11,2.89.21,4.24.14,1.83.3,3.9-.02,4.88-2.87,9.08-5.43,20.75.33,30.46,4.35,7.33,12.63,12.1,25.33,14.59,9.32,1.83,11.67,9.14,14.5,24.24.54,2.89,1.1,5.87,1.81,8.77-.38.49-1.48,1.24-3.02,1.8.12-1.09.16-2.26,0-3.46-1.09-8.58-4.59-15.96-10.13-21.34-.73-.7-1.7-1.9-2.65-3.05-3.49-4.25-7.44-9.07-13.46-9.07h0c-9.99,0-12.56,12.53-13.52,17.25-.21,1.01-.64,3.11-7.86,3.29h-.16c-.05,0-.1,0-.15,0-.27-.87-.52-2.41-.69-3.5-.13-.82-.27-1.67-.44-2.55-2.4-12.3-2.9-24.73-3.44-37.89-.73-18.03-1.49-36.68-7.51-55.07-.78-2.38-2.46-12.51,4.31-14.92.76-.27,1.44-.41,1.96-.41M1516.7,726.18c-1.35,0-2.83.26-4.47.85-11.01,3.92-11.21,17.29-8.91,24.3,9.88,30.19,4.8,61.71,10.71,92.06,1.06,5.46.89,12.11,8.63,12.11.11,0,.23,0,.34,0,6.51-.16,13.49-1.86,15.01-9.27,1.73-8.43,3.88-11.26,6.19-11.26,3.57,0,7.52,6.73,10.9,10.01,4.54,4.41,7.09,10.35,7.92,16.91.49,3.83-3.75,10.78,3.55,10.78.47,0,.99-.03,1.55-.09,6.41-.68,14.31-4.88,12.63-11.67-3.66-14.77-3.44-34.99-22.17-38.66-23.24-4.56-26.02-16.29-19.96-35.44,1.1-3.46.16-7.57.16-11.38.03-11.99,1.49-24.16-6.53-34.78-4.49-5.94-7.86-14.46-15.55-14.46h0Z"/><path d="M1759.12,230.36c.31,0,.68.04,1.08.12,6.93,1.41,12.56,7,15.42,15.33.4,1.17.41,3.1.42,5.15,0,1.38.02,2.82.13,4.33.02.31,0,.88,0,1.44-.08,2.73-.28,9.98,6.78,13.27,1.27.59,2.56.97,3.87,1.14-16.36,7.77-34.19,15.63-55.34,24.4-1.06.44-1.92.74-2.6.93.12-.87.36-2.04.78-3.54,5.03-17.84,13.69-34.66,22.08-50.93.66-1.28,1.27-2.61,1.85-3.9,2.39-5.25,3.83-7.74,5.53-7.74M1759.12,222.87c-8.26,0-10.75,9.32-14.04,15.7-8.71,16.91-17.41,33.81-22.63,52.33-2.56,9.1-.95,13.46,4.29,13.46,2.01,0,4.56-.64,7.61-1.91,21.64-8.98,43.14-18.37,64.18-28.65,10.15-4.95,14.6-14.83,16.58-28-10.83,1.96-13.87,9.11-19.26,13.2-2.36,1.79-4.48,4.74-7.47,4.74-.7,0-1.46-.16-2.27-.54-3.4-1.58-2.23-5.48-2.47-8.5-.3-3.79.25-7.86-.94-11.33-3.5-10.18-10.79-18.15-21.01-20.23-.91-.19-1.77-.27-2.57-.27h0Z"/><path d="M1676.89,412.96h0c3.44,0,6.29.83,8.79,2.58-2.43,3.28-4.84,6.58-7.19,9.8-8.56,11.71-17.4,23.83-27.1,34.61-1.65,1.83-6.37,3.01-10.53,4.04-3.14.78-6.39,1.59-9.51,2.84-10.65,4.26-15.23,13.02-17.75,19.23-1.39,3.42-.9,6.84-.16,9.7-3.54-1.4-7.89-4.47-11.18-8.06.61-1.26,2.4-3.42,3.42-4.65.73-.89,1.49-1.81,2.19-2.74,1.64-2.18,3.17-4.38,4.66-6.51,6.21-8.92,11.57-16.63,22.36-19.69,13.2-3.74,21.9-16.87,22.7-34.27.12-2.7.84-3.16,1.14-3.36,1.24-.79,3.77-1.2,6.22-1.6,1.65-.27,3.36-.54,5.09-.98,2.47-.63,4.78-.94,6.86-.94M1676.89,405.47c-2.87,0-5.79.44-8.7,1.17-7.33,1.86-17.53.63-18.09,12.84-.57,12.33-6.14,24.25-17.26,27.41-16.33,4.63-22.4,17.53-30.96,28.9-3.69,4.9-10.51,10.91-5.58,16.48,5.08,5.74,13.64,11.77,20.63,11.77.06,0,.12,0,.18,0,10.45-.15,1.29-9.92,3.42-15.18,2.8-6.91,6.71-12.34,13.59-15.09,7.66-3.07,17.97-3.42,22.83-8.82,13.86-15.42,25.54-32.81,38.01-49.33-.7-1.39-1.02-2.75-1.86-3.59-4.77-4.75-10.38-6.56-16.21-6.56h0Z"/><path d="M1722.66,62.12c1.44.7,3.4,2.06,4.5,2.82l.56.39c7.87,5.45,10.71,10.13,10.13,16.69-1.97,22.08,2.53,40.84,13.76,57.34,4.14,6.08,4.6,13.22,1.42,20.08-2.14-1.08-5.24-2.98-8.68-5.73-5.9-4.74-8.4-8.47-8.69-9.53-3.02-11.23-3.64-21.33-2-32.68,4.04-15.83-2.78-31.06-8.81-44.5-.26-.59-.55-1.2-.85-1.83-.38-.8-.95-2-1.36-3.05M1721.31,54.19c-1.64,0-3.25.54-4.79,1.93-4.06,3.66-.45,9.56,1.51,13.94,6.03,13.45,11.8,26.84,8.29,39.94-2.04,13.67-.86,25.08,2.11,36.12,2.21,8.22,20.74,21.87,27,21.87.82,0,1.42-.23,1.76-.74,6.58-9.85,7.6-21.81.6-32.1-10.95-16.1-14.17-33.63-12.5-52.47.98-11.04-5.27-17.94-13.33-23.51-3.14-2.17-6.95-4.98-10.67-4.98h0Z"/><path d="M948.64,870.13h0,0M948.09,871.04c.15.8.27,1.67.33,2.13.85,6.33,1.23,12.75,1.52,17.44.08,1.36.15,2.57.23,3.57-.18,4.13-.29,7.82-.38,11.09-.2,6.72-.35,12.03-.98,17.12-1.04,8.39-3.85,8.39-6.1,8.39h-.27c-2.93-.07-4.14-.1-3.96-8.74.3-14.9,3.94-29.27,7.79-44.48.35-1.38.7-2.76,1.05-4.14.28-1.13.56-1.88.79-2.38M948.68,862.73c-.05,0-.11,0-.16,0-5.24.09-7.34,4.36-8.47,8.86-4.16,16.56-8.71,33.1-9.06,50.29-.16,7.65.51,16.13,11.28,16.37.15,0,.29,0,.44,0,9.43,0,12.55-7.11,13.53-14.95,1.01-8.14.87-16.43,1.44-29.25-.33-4.28-.65-13.14-1.82-21.89-.55-4.09-1.38-9.44-7.17-9.44h0Z"/></svg>