<?xml version="1.0" encoding="UTF-8"?><svg id="a" xmlns="http://www.w3.org/2000/svg" viewBox="0 0 1920 1080"><path d="M906.44-926.77c6.05,0,12.65.53,20.78,1.67,13.15,1.85,26.34,1.86,39.09,1.87,18.39.02,35.75.04,52.57,5.18,11.17,3.41,21.13,6.65,29.8,11.67,13.62,7.88,21.67,18.97,22.66,31.21,1.06,13.05-6.02,26.85-19.44,37.87-14.99,12.3-31.65,20.87-49.29,29.94-7.93,4.08-16.13,8.29-24.12,12.86-3.82,2.18-5.29,6.95-3.37,10.9,1.44,2.96,4.4,4.7,7.51,4.7,1.05,0,2.11-.2,3.13-.61,6.89-2.8,13.78-5.61,20.67-8.42,18.21-7.43,37.04-15.11,55.65-22.37.88-.34,1.79-.71,2.72-1.09,3.54-1.43,8.39-3.4,11-3.4.16,0,.27,0,.33.02,15.34,6.55,31.37,8.31,46.87,10.02,16.77,1.85,32.6,3.59,46.75,11.08,4.14,2.19,7.76,3.21,11.4,3.21,5.71,0,10.34-2.65,14.12-5.24,11.63-7.97,22.89-12.02,33.49-12.02,18.66,0,35.66,13.2,46.63,36.22,7.76,16.28,18.6,28.76,29.09,40.82,2.77,3.19,5.63,6.48,8.37,9.77,4.87,5.85,10.42,8.81,16.52,8.81,5.04,0,10.03-2.02,15.26-6.16,12.67-10.05,24.91-14.73,38.52-14.73,4.34,0,8.95.49,13.7,1.44,4.38.88,8.88,1.31,13.73,1.31,11.3,0,22.41-2.38,33.16-4.69,7.9-1.7,15.37-3.3,22.82-4,9.31-.88,12.61-6.22,13.75-10.54,5.19-19.71,17.26-23.74,33.77-23.74,5.35,0,10.94.46,16.34.9,1.62.13,3.22.26,4.79.38,39.13,2.93,77.89,14.29,112.11,32.83,15.32,8.31,28.48,13.45,46.7,13.45,3.12,0,6.35-.14,9.87-.43,2.58-.21,5.2-.32,7.79-.32,22.84,0,45.4,8.3,63.52,23.36.42.35.84.69,1.26,1.04,3.84,3.16,7.16,5.9,8.07,9.14,5.86,20.73,18.61,25.08,28.27,25.08,5.06,0,10.53-1.16,16.7-3.54,3.87-1.49,7.95-2.21,12.49-2.21,3.54,0,7.48.44,12.03,1.35,7.11,1.42,14.33,2.13,21.44,2.13,5.34,0,10.54-.41,15.46-1.23l.59-.1c9.68-1.6,18.82-3.11,27.65-3.11,17.94,0,30.63,6.51,42.44,21.77,1.63,2.1,4.09,3.24,6.61,3.24,1.27,0,2.55-.29,3.74-.89,3.57-1.79,5.37-5.86,4.3-9.71-2.35-8.43-6.96-13.06-10-16.12-.45-.45-1-1-1.41-1.45.53-1.04,1.97-2.2,7.19-2.2.59,0,1.16.02,1.72.04,3.14.13,6.3.25,9.47.37,32.48,1.22,66.06,2.48,92.48,19.93,46.03,30.4,91.58,59.55,142.56,82.09,12.13,5.37,13.69,8.2,13.89,8.83-.08.35-.99,3.14-8.58,8.09-2.42,1.58-3.55,3.81-4.13,5.08-5.64,5.62-5.79,13.72-5.91,19.72-.04,1.9-.09,4.6-.39,6.04-.05,0-.11,0-.17,0-.52,0-1.13-.05-1.81-.15-4.12-.6-9.68-4.27-15.05-7.81-4.97-3.28-10.11-6.68-15.8-9.05-1.92-.8-4.08-2.7-6.36-4.72-1.12-.99-2.27-2.01-3.51-3-1.36-1.09-2.7-2.25-4.13-3.48-6.46-5.57-13.79-11.89-23.63-11.89-7.05,0-13.82,3.23-20.7,9.87-.25.24-1.01.39-1.97.39-4,0-10.05-2.37-13.67-3.79-.79-.31-1.59-.63-2.39-.95-5.75-2.31-12.27-4.93-19.73-4.93-1.63,0-3.26.13-4.84.38-4.71.75-17.23,2.73-20.16,15.1-2.72,11.51,6.8,17.54,11.38,20.44,4.4,2.79,9.05,5.83,13.25,9.17,2.6,2.07,4.23,3.56,5.24,4.61-.98.38-2.34.83-4.2,1.3-2.03.51-8.22,2.08-11.06,7.86-2.9,5.9-.18,12.14.84,14.49,1.65,3.8,2.89,7.92,4.19,12.28.91,3.03,1.85,6.17,2.96,9.29,1.28,3.57,3.65,6.34,5.56,8.56.63.74,1.5,1.75,2.02,2.49-.41.45-1.08.82-2.97.82-2.01,0-4.57-.47-7.04-.93-1.15-.21-2.34-.43-3.53-.62-3.59-.56-7.19-.84-10.71-.84-24.6,0-43.55,13.76-57.31,25.76-6.54,5.69-12.55,11.93-18.37,17.97-6.58,6.82-12.79,13.26-19.66,18.95-6.87,5.69-13.02,8.58-18.28,8.58-4.73,0-9.24-2.36-13.81-7.22-3.07-3.27-7.45-7.02-14.08-7.02-2.62,0-5.29.59-8.17,1.81-31.58,13.38-52.86,53.45-45.55,85.74,7.36,32.5,4.92,52.93-7.91,66.22-12.04,12.47-18.57,26.31-24.88,39.7-3.12,6.61-6.07,12.86-9.63,18.91-3.9,6.61-7.05,8.38-8.29,8.38-1.32,0-4.87-2.17-8.85-10.39-13.51-27.85-20.72-50.79-22.7-72.18-2.36-25.56,2.93-48.97,16.16-71.56,9.93-16.95,24.4-29.88,39.73-43.58,6.73-6.01,13.68-12.23,20.19-18.79,1.76-1.77,3.53-3.54,5.29-5.3,9.27-9.27,18.86-18.85,27.23-29.58,6.76-8.67,6.14-15.16,4.42-19.07-2.51-5.73-8.32-9.02-17.28-9.78l-1.04-.09c-3.89-.33-7.9-.67-12.01-.67-7.23,0-13.07,1.08-18.38,3.39-15.28,6.66-29.68,9.91-44.02,9.91-5.08,0-10.3-.41-15.51-1.21-1.51-.23-3.02-.35-4.48-.35-8.18,0-23.02,3.92-30.47,30.15-6.4,22.55-10.08,32.76-16.27,37.58-6.14,4.78-16.85,5.8-40.1,6.39-6.43.16-12.99.26-19.34.35-33.96.5-69.09,1.01-103.21,12.11-18.74,6.1-31.45,15-42.5,29.76-14.61,19.52-33.45,36.88-51.68,53.67-2.75,2.54-5.5,5.07-8.24,7.61-8.14,7.56-11.93,14.8-11.58,22.14.46,9.77,8.12,16.74,13.85,21.13,16.53,12.68,32.99,19.11,48.92,19.11.43,0,.86,0,1.29-.01.37,0,.74-.01,1.09-.01,14.07,0,19.38,5.4,21.83,22.22,6.49,44.49,7.33,81.65-9.66,118.37-7.25,15.66-11.55,32.58-15.71,48.94-.95,3.72-1.92,7.57-2.91,11.3-4.18,15.76-13.65,25.36-29.82,30.22-2.61.78-5.23,1.63-7.77,2.44-8.83,2.83-17.17,5.51-25.37,6.08-29.59,2.03-47.75,24.41-54.88,44.67-8.92,25.35-7.25,55.65,4.58,83.13,7.1,16.49,25.49,17.54,32.42,17.94,1.48.08,2.54.21,3.29.35-.08.23-.19.49-.31.78-1.84,3-13.87,14.73-32.09,29.35-6.75,5.41-13.2,10.31-18.97,14.42.78-6.48.34-12.7-.06-18.33-.62-8.7-1.15-16.22,2.11-23.28,2.58-5.58,1.56-12.73-3.21-22.53-9.99-20.52-40.13-56.54-57-60.51-14.97-3.53-25.77-12.43-35.02-28.88-1.27-2.26-3.52-3.8-6.08-4.17-.4-.06-.8-.09-1.2-.09-2.16,0-4.25.84-5.82,2.36-9.5,9.23-8.46,20.69-7.7,29.06.64,7.05.69,10.35-1.56,12.37-2.42,2.17-6.3,2.35-12.44,2.47-8.38.16-18.81.36-27.41,9.23-2.9,2.99-3.15,7.66-.59,10.95,5.55,7.12,12.66,10.59,21.73,10.59,3.99,0,8.02-.65,12.14-1.36,2.78-.48,5.39-.73,7.76-.73,5.65,0,9.85,1.42,11.53,3.91,1.76,2.59,1.46,7.33-.8,12.99-12.3,30.76-8.12,62.88,12.08,92.9,18.4,27.34,24.41,61.49,16.93,96.14-7.21,33.38-26.72,64.75-53.54,86.06-4.78,3.8-10.81,6.45-14.66,6.45-.24,0-.47-.01-.68-.03-2.1-.22-4.24-.33-6.35-.33-16.5,0-29.98,6.59-43.01,12.96-6.05,2.96-11.76,5.75-17.66,7.85-10.19,3.62-17.41,11.01-20.89,21.37-3.32,9.9-6.99,19.94-10.54,29.64l-.08.22c-.96,2.61-1.49,5.31-1.97,7.7-1.48,7.44-1.99,7.48-4.82,7.71-.24.02-.48.03-.72.03-4.13,0-6.22-3.24-7.25-5.95-3.81-10.05-3.62-16.71.64-22.27.79-1.02,2.62-2.23,4.4-3.39,1.34-.88,2.73-1.79,4.13-2.88,2.77-2.16,11.21-8.73,6.51-18.82-2.7-5.8-8.02-9.12-14.61-9.12-1.91,0-3.96.28-6.09.83-5.56,1.43-22.47,5.77-27.53,24.14-8.04,29.24-2.85,52.42,15.87,70.88,23.15,22.83,32.83,37.2,34.51,51.22,1.68,14.03-4.31,30.46-21.36,58.57-2.63,4.33-5.43,8.5-8.41,12.91-2.21,3.28-4.49,6.67-6.68,10.1-6.86,10.79-14.69,16.74-22.05,16.74-8.84,0-16.38-8.15-21.16-14.99-10-14.33-20.35-20.86-35.71-22.55-7.09-.78-10.87-6.5-16.19-18.23-.91-2.01-1.74-4.16-2.61-6.43-3.12-8.1-6.66-17.27-15.81-25.01-1.52-1.29-3.44-1.97-5.39-1.97-.72,0-1.44.09-2.15.28-2.64.7-4.77,2.66-5.7,5.23-5.4,14.92-1.92,27.77,1.14,39.1.91,3.35,1.76,6.51,2.35,9.57,2.23,11.62,2.04,23.21,1.84,35.48-.09,5.28-.17,10.73-.05,16.19.12,5.45-1.39,5.71-2.84,5.96-.34.06-.57.07-.7.07-.03,0-.06,0-.08,0-.71-.63-1.9-3.02-2.61-4.47-.39-.79-.78-1.57-1.18-2.33-10.43-19.78-10.65-41.19-10.87-63.85-.1-10.26-.21-20.86-1.33-31.36-1.05-9.82-1.96-19.85-2.85-29.55-.69-7.58-1.41-15.43-2.19-23.15-1.31-13-7.9-17.64-13.2-19.25-1.87-.57-3.57-.84-5.2-.84-4.76,0-8.66,2.39-10.7,6.55-1.2,2.44-1.47,4.89-1.69,6.87-.05.47-.13,1.14-.19,1.5-.51,1.03-.96,2.04-1.4,3.02-1.86,4.15-2.59,5.3-3.38,5.33-.07,0-.15,0-.22,0-1.01,0-4.1,0-8.02-7.79-5.58-11.08-10.85-22.65-15.94-33.83-1.26-2.76-2.52-5.52-3.78-8.28-5.71-12.46-12.18-26.59-24.14-36.61-12.55-10.53-19.1-20.48-21.9-33.26-2.62-11.99-11.45-20.05-21.97-20.05-6.44,0-12.38,3.1-16.73,8.72-9.08,11.76-20.73,20.56-33.07,29.87-11.95,9.03-24.31,18.37-34.39,30.74-13.24,16.27-27.96,31.98-42.19,47.18-4.26,4.56-8.67,9.27-12.99,13.93-14.51,15.69-19.76,32.56-17.02,54.73,2.52,20.4-1.61,40.71-5.97,62.22-1.86,9.17-3.78,18.64-5.14,28.1-.24,1.64-.73,2.29-.84,2.37,0,0-.09.03-.3.03-.24,0-.76-.05-1.56-.35-1.54-.59-3.08-1.15-4.61-1.71-13.13-4.81-21.8-7.98-24.42-23.43-4.81-28.44-16.51-54.62-27.83-79.93-7.58-16.95-15.41-34.47-20.93-52.25-3.97-12.81-5.52-25.67-7.16-39.3-1.13-9.38-2.3-19.09-4.33-28.72-1.31-6.21-5.3-25.11-23.88-25.11-3.61,0-7.48.74-11.82,2.27-2.29.81-4.37,1.2-6.36,1.2-4.83,0-9.45-2.37-15.94-8.17-5.75-5.14-11.74-10.08-17.54-14.86-17.49-14.42-34-28.04-45.19-47.26-4.14-7.11-11.11-11.03-19.62-11.03-6.57,0-12.6,2.32-16.49,4.27-5.04,2.52-10.4,3.69-16.89,3.69-6.04,0-12.26-1-18.83-2.06-6.97-1.12-14.17-2.28-21.61-2.28-2.92,0-5.64.17-8.32.53-.1.01-.2.02-.29.02-3.78,0-9.56-10.63-12.03-15.17-4.29-7.9-11.72-18.91-26.54-23.31-3.27-.97-5.81-1.4-8.25-1.4-6.64,0-11.9,3.3-15.65,9.8-5.71,9.9-7.95,10.02-7.97,10.02-.65,0-3.35-.56-10.87-7.79-2.63-2.53-5.27-5.05-7.91-7.57-15.99-15.28-32.52-31.08-47.04-47.86-6.5-7.52-13.96-11.33-22.15-11.33-7.51,0-14.1,3.14-19.91,5.92-2.4,1.15-4.67,2.23-6.74,2.96-4.27,1.51-7.39,4.58-8.81,8.63-2.62,7.54,1.42,16.41,5.26,22.53l2,3.18c15.4,24.49,31.31,49.82,48.86,73.53,6.09,8.23,15.26,12.58,26.53,12.58,6.03,0,12.74-1.2,20.49-3.67,6.93-2.2,13.79-3.32,20.41-3.32,22.32,0,40.95,12.42,57.75,25.83,14.09,11.25,16.12,26.5,5.44,40.79l-.09.13c-3.19,4.27-6.8,9.1-10.37,10.87-27.39,13.53-50.12,33.39-72.1,52.61-23.14,20.22-44.99,39.33-71.94,51.82-2.3,1.07-4.59,2.14-6.89,3.2-16.49,7.68-33.54,15.62-50.68,21.86-3.18,1.16-6.39,1.77-9.28,1.77-8.38,0-10.44-4.82-11.26-8.44-7.93-34.99-26.54-63.97-44.54-92-9.31-14.49-18.93-29.48-26.72-44.86-3.7-7.31-8.21-14.21-12.57-20.87-9.74-14.9-18.95-28.97-18.94-46.57,0-5.59-2.94-13.3-8.38-16.6-14.42-8.72-21.38-23.09-28.74-38.29-5.43-11.21-11.04-22.8-19.92-32.79-1.64-1.85-3.93-2.8-6.24-2.8-1.73,0-3.46.53-4.95,1.63-3.47,2.56-4.43,7.34-2.2,11.04,11.19,18.54,15.23,39.05,19.51,60.77,1.8,9.14,3.66,18.59,6.1,27.86,6.17,23.44,17.04,40.55,33.24,52.3,5.43,3.94,6.41,11.32,7.28,22.11.14,1.73.28,3.52.47,5.27,3.42,32.94,14.78,56.34,36.84,75.86,16.42,14.54,26.21,35.75,36.43,59.95,5.04,11.94,11.17,21.51,18.75,29.26,4.58,4.68,9.65,7.16,14.66,7.16,3.35,0,9.67-1.18,14.42-9.1,2.35-3.92,4.24-4.58,7.59-4.58,2.22,0,4.91.4,7.49.83,5.1.85,10.31,1.28,15.5,1.28,13.28,0,27.09-2.84,41.06-8.44,5.54-2.22,8.96-2.69,10.85-2.69,2.55,0,3.32.79,3.64,1.13.99,1.02,3.23,4.64,2.79,16.03-.77,19.78-8.98,38.33-16.92,56.27l-1.5,3.39c-14.63,33.17-29.5,60.91-45.48,84.78-8.75,13.07-21.34,21.94-34.68,31.34-10.92,7.69-22.2,15.64-31.62,26.24-2.35,2.65-4.72,5.28-7.09,7.92-17.19,19.11-34.96,38.88-46.25,63.69-13.23,29.08-12.52,54.25,2.17,76.94l.45.69c1.27,1.95,3.9,6.01,3.99,7.56-2.37,25.28,2.29,49.63,6.8,73.19,4.06,21.21,7.89,41.24,7.02,61.89-.44,10.55-8.3,23.9-20.5,34.85-12.28,11.02-27.01,17.86-38.43,17.86-1.37,0-2.71-.1-3.97-.29-2.89-.44-5.65-.67-8.19-.67-12.03,0-18.12,5.02-21.11,9.22-4.88,6.87-5.26,16.32-1.14,28.1,1.63,4.67,3.34,9.38,5,13.93,3.78,10.41,7.7,21.17,10.77,31.83,2.36,8.19,2.26,14.64-.31,19.18-2.22,3.93-6.64,6.79-13.14,8.52-23.68,6.29-31.9,24.62-36.02,37.86-12.4,39.85-32.56,77.34-61.64,114.63-21.14,27.11-43.46,39.79-72.36,41.13-19,.88-37.03,6.78-54.47,12.49l-3.46,1.13c-5.12,1.67-9.86,2.52-14.07,2.52-6.1,0-10.79-1.75-13.95-5.19-4.02-4.39-5.72-11.68-4.89-21.08,2.8-32.01-8.33-58.2-19.59-79.59-24.85-47.24-34.74-85.36-32.06-123.61.96-13.77-5.07-24.6-10.4-34.15-.74-1.33-1.49-2.67-2.21-4.01-3.68-6.81-7.73-13.46-11.65-19.89-9.31-15.28-18.1-29.71-22.43-46.23-5.19-19.81-2.7-39.27,7.4-57.85,16.39-30.15,20.05-61.61,11.17-96.17-2.77-10.79-3.42-22.19-4.11-34.27-.49-8.52-.99-17.32-2.3-26.02-4.67-30.95-17.9-54.56-40.46-72.2-26.7-20.87-29.74-43.27-9.55-70.51,12.31-16.6,6.79-32.49,2.35-45.26-.52-1.5-1.04-3-1.54-4.52-5.52-16.71-19.13-17.23-28.14-17.58-1.25-.05-2.42-.09-3.57-.17-18.43-1.24-31.53-5.01-39.85-19.96-5.02-9.02-12.98-13.98-22.42-13.98-5.32,0-10.91,1.57-16.61,4.67-2.89,1.57-5.92,3.11-8.85,4.6-3.95,2.01-8.03,4.09-12.03,6.36-14.57,8.25-26.51,11.93-38.69,11.93-3.96,0-8.06-.4-12.18-1.19-7.06-1.36-14.5-2.05-22.11-2.05-22.79,0-44.91,6.26-59.56,10.97-5.16,1.66-10.07,2.5-14.58,2.5-10.86,0-20.58-4.81-30.61-15.12-34.36-35.38-56.55-65.76-71.93-98.53-4.27-9.1-11.61-14.76-18.08-19.74-3.76-2.9-7.32-5.64-10.06-8.82-14.68-17.01-17.93-30.92-11.22-48,13.02-33.15,14.02-69.27,3.13-113.66-5.44-22.2,6.33-42.69,17.72-62.51,1.36-2.37,2.71-4.72,4.02-7.05,14.83-26.39,32.4-53.2,60.34-70.48,12.57-7.78,19.9-20.21,22.4-37.99,2.73-19.43,9.12-32.94,20.72-43.81,6.65-6.23,12.07-14.99,14.5-23.43,9.16-31.87,21.5-44.29,44.01-44.29,3.27,0,6.8.28,10.5.83.41.06.82.09,1.23.09,3.02,0,5.85-1.64,7.33-4.35,1.68-3.08,1.25-6.87-1.05-9.5-9.19-10.48-20.04-13.07-29.61-15.36-1.62-.39-3.15-.75-4.66-1.15-14.85-3.94-22.24-7.48-26.36-12.62-4.13-5.16-5.98-13.17-6.62-28.6-.28-6.73-.56-13.47-.85-20.2-.72-17.05-1.47-34.69-2.11-52.03-.57-15.48,2.62-27.07,9.48-34.45,6.71-7.21,17.63-11.14,32.46-11.66,13.18-.47,26.26-1.86,38.92-3.21,5.43-.58,11.04-1.18,16.55-1.69,11.92-1.11,21.03-6.13,25.64-14.15,4.33-7.53,4.23-17.03-.29-26.75-8.13-17.52-18.32-34.5-30.29-50.47-6.11-8.16-15.17-8.16-18.15-8.16-2.65,0-5.22.26-7.72.51-2.2.22-4.27.43-6.1.43-.78,0-1.45-.04-2.05-.12-1.92-.25-3.82-.28-5.26-.28-.73,0-1.46,0-2.2.02-.67,0-1.34.02-2.01.02-2.93,0-4.11-.24-4.58-.4-.05-.14-.11-.37-.16-.71-.31-2.02-.46-3.03,9.4-6.74,1.27-.48,2.58-.97,3.87-1.5,5.49-2.26,11.58-3.46,17.62-3.46,3.06,0,6.08.3,8.98.9,4.56.93,9.1,1.4,13.49,1.4,24.18,0,42.02-14.05,58.23-28.45,12.9-11.46,25.76-23.34,38.19-34.82,4.57-4.22,9.14-8.44,13.72-12.65.48-.44,1.17-.98,1.89-1.55,2.81-2.21,6.66-5.23,7.86-10.15,7.18-29.53,30.6-44.84,55.39-61.05l2.1-1.38c3.31-2.17,4.14-5.56,4.64-7.58.16-.67.34-1.37.58-2.11.79-2.37.48-4.97-.85-7.09-1.33-2.12-3.54-3.52-6.02-3.84-1.15-.15-2.33-.22-3.61-.22-2.55,0-4.93.28-7.23.56-1.88.22-3.66.44-5.18.44-2.54,0-3.58-.5-4.81-2.31-2.61-3.85-1.9-6.46,1-13.56.96-2.36,1.96-4.8,2.72-7.49,1.27-4.48,1.88-8.93,2.46-13.24.64-4.71,1.24-9.16,2.65-12.95,1.89-5.09,3.76-6.51,4.14-6.59.64,0,3.11.96,6.84,5.35,4.71,5.55,5.97,12.62,7.12,21.27,2.46,18.53,7.66,42.84,26.19,66.58,1.6,2.05,4.04,3.21,6.58,3.21.58,0,1.17-.06,1.75-.19,3.13-.67,5.6-3.07,6.36-6.18,4.17-17.07,3.2-28.61-3.36-39.81-8.23-14.05-16.32-29.3-17.12-47.46-.87-20.01-13.69-27.14-25.39-27.14-5.41,0-11.32,1.45-17.1,4.18-3.84,1.82-7.14,2.74-9.79,2.74-4.34,0-8.17-2.35-13.85-14.06-11.64-23.98-14.61-49.34-8.81-75.36,2.01-9.02,9.74-16.29,20.68-19.43,21.58-6.2,34.33-21.54,42.05-32.54,4.34-6.18,10.64-10.5,17.31-15.08,7.18-4.92,14.6-10.01,20.66-17.9,15.34-19.97,22.3-38.26,21.89-57.55-.49-23.21,14.49-34.84,31.83-48.31.88-.69,1.77-1.37,2.65-2.06,1.24-.97,3.42-1.87,5.54-2.75,4.26-1.77,9.1-3.78,12.44-8.26,14.86-19.89,35.68-29.47,65.52-30.15,5.29-.12,13.09-2.09,17.68-7.25,12.47-14.03,26.15-20.57,43.07-20.57,15.09,0,31.43,5.2,47.22,10.23,4.35,1.39,8.85,2.82,13.29,4.13,13.13,3.89,26.09,12.6,38.15,21.43,27.05,19.82,58.49,32.59,93.43,37.97,18.91,2.91,24.44,8.56,22.74,23.28-.51,4.41.81,8.39,1.87,11.59.42,1.27.82,2.47,1.02,3.45,2.7,12.9,2.66,20.84-.12,24.27-2.42,2.98-8.88,4.49-19.19,4.49-1.51,0-3.14-.03-4.85-.09-9.46-.35-22.41-.83-28.67-6.99-8.14-8.02-16.97-11.92-26.98-11.92-9.82,0-19.76,3.8-29.38,7.48-3.12,1.19-5.23,4.13-5.36,7.47-.13,3.34,1.74,6.44,4.76,7.87,9.08,4.31,14.39,11.54,20,19.19,4.11,5.59,8.35,11.38,14.19,16.22,1.02.85,3.15,2.61.99,7.93-4.06,9.97-.49,20.2,9.32,26.68,2.54,1.68,5.16,2.53,7.8,2.53,6.44,0,10.04-4.79,11.98-7.37.36-.47.88-1.17,1.16-1.46,9.61-6.17,22.01-16.71,20.19-37.03-.3-3.33.35-5,.73-5.41.27-.29,1.14-.48,2.22-.48s2.44.18,3.94.55c4.69,1.13,9.05,1.7,12.95,1.7,8.27,0,14.91-2.5,19.74-7.44,5.53-5.65,8.21-14.16,7.97-25.29-.06-2.54.66-5.55,1.41-8.73.68-2.85,1.38-5.8,1.71-9,.15-1.42.36-2.33.54-2.88.54.08,1.4.26,2.65.71,9.75,3.46,18.56,5.14,26.92,5.14,20.03,0,36.66-9.72,50.84-29.73,4.89-6.9,14.2-11.72,24.06-16.82,4.65-2.4,9.45-4.89,13.94-7.69.16-.1.31-.19.45-.27,7.3,2.96,14.92,4.4,23.2,4.4,10.56,0,20.66-2.34,30.44-4.61,6.13-1.42,11.91-2.76,17.79-3.57l4.59-.63c18.57-2.57,37.78-5.22,57.09-5.22,3.81,0,7.56.11,11.16.31.16,0,.32.01.49.01,3.74,0,7.05-2.5,8.05-6.14,1.04-3.8-.71-7.81-4.21-9.62-12.14-6.3-23.28-13.96-35.07-22.08-3.09-2.13-6.21-4.28-9.36-6.41,31.23,8.15,59.66,24.04,89.24,40.57,17.4,9.73,35.4,19.78,54.08,28.17,1.09.49,2.26.73,3.42.73,1.38,0,2.75-.34,3.99-1.01,2.29-1.25,3.87-3.49,4.26-6.07,3.03-19.78-8.86-31.65-19.57-39.78-9.23-7.01-9.21-13.65-6.87-29.47,4.12-27.82,23.25-42.59,43.5-58.22,6.91-5.33,14.06-10.85,20.64-16.94,1.21-1.12,2.53-1.69,3.93-1.69,1.88,0,3.9,1.01,5.69,2.84,1.95,2.01,4.13,3.62,6.24,5.18,6.16,4.56,5.98,4.98,4.95,7.29-14.03,31.53-8.45,62.45-3.04,92.36.52,2.86,1.03,5.72,1.53,8.57.19,1.08.38,2.16.57,3.23,3.83,21.45,4.88,32.07-13.01,39.09-4.65,1.83-7.52,5.62-9.83,8.67-.36.48-.72.95-1.08,1.41l-.53.66c-2.63,3.26-9.61,11.92-2.77,20.82,2.7,3.51,6.43,5.45,10.49,5.45,5.14,0,9.14-3.05,11.78-5.07l.48-.36c9.19-6.97,19.99-15.25,30.42-23.86,12.8-10.57,15.74-26.22,8.09-42.93-6.13-13.38-6.4-27.77-6.69-43-.17-9.19-.35-18.7-1.87-28.19-.39-2.44.28-4.64,2.06-6.72,3.3-3.87,9.64-6.38,16.14-6.38,3.42,0,6.79.7,9.75,2.02.65.29,1.28.58,1.91.86,4.67,2.13,9.5,4.33,14.95,4.33,7.07,0,13.16-3.62,18.61-11.06.85-1.16,1.18-1.16,1.38-1.16,1.53,0,4.43,1.24,6.99,2.34,4.36,1.87,9.3,3.98,14.94,3.98,3.94,0,7.34-2.75,8.16-6.6,2.54-11.9-4.11-18.06-7.69-21.37-.71-.66-1.38-1.28-1.85-1.81-4.76-5.34-6.95-10.12-6.17-13.46.78-3.33,4.87-6.62,11.51-9.27,9.78-3.9,19.48-5.88,28.82-5.88,7.24,0,14.49,1.19,21.55,3.54l.86.29c3.2,1.08,6.82,2.3,10.81,2.3,6.66,0,12.06-3.53,15.21-9.93,3.4-6.92,1.83-12.23-.08-15.46-2.02-3.42-5.08-5.63-7.54-7.41-.94-.68-1.83-1.33-2.48-1.9-1.8-1.61-3.77-2.95-5.67-4.24-1.75-1.19-4.63-3.15-5.24-4.21,0-.02,0-.03.01-.05.34-.05.89-.09,1.72-.09s1.75.04,2.73.08c1.12.05,2.27.1,3.47.1,2.81,0,5.09-.29,7.16-.91,17.25-5.16,34.66-14,53.25-27,4.31-3.02,8.93-4.14,14.27-5.45,2.09-.51,4.26-1.04,6.51-1.71,13.59-4.02,27.47-5.8,42.16-7.68,14.35-1.84,29.19-3.74,43.7-7.92.64-.18,1.29-.36,1.94-.54,5.62-1.54,13.31-3.65,17.69-10.8,10.11-16.49,24.48-23.84,46.62-23.84M-296.11-268.57c9.41,0,17.47-3.53,23.3-10.2,6.52-7.46,14.65-13.34,26.35-19.05,14.01-6.84,21.04-17.43,22.13-33.32.99-14.51,3.53-23.12,8.49-28.78,4.8-5.48,12.81-9.17,26.76-12.31.41-.09.81-.18,1.23-.27,3.53-.77,7.54-1.65,11.27-3.93,3.42-2.09,13.85-8.45,13.9-20.13.04-7.84-4.3-11.5-6.89-12.98-3.19-1.83-6.57-2.14-9.28-2.39-.86-.08-2.15-.2-2.58-.33-1.51-.48-3.03-.98-4.54-1.48-6.89-2.27-14-4.62-21.59-5.55-13.83-1.71-25.99-13.14-30.98-29.12-3.85-12.34-3.43-29.58,9.31-40.94,7.92-7.07,14.61-15,21.69-23.39,3.17-3.76,6.46-7.66,9.89-11.5,1.9-2.13,2.58-5.09,1.8-7.84-.78-2.75-2.91-4.91-5.65-5.72-3.3-.98-6.5-1.48-9.5-1.48-6.25,0-11.91,2.18-16.38,6.29-8.05,7.42-16.87,13.76-26.2,20.48-12.73,9.16-25.89,18.63-36.99,31.07-7.53,8.44-14.21,19.25-6.68,35.43,8.65,18.6-.42,33.61-6.6,40.91-15.28,18.04-21.89,37.91-20.79,62.54.44,10.01.59,23.14-2.22,36.01l-.31,1.39c-1.91,8.56-5.88,26.39,11.49,32.65,7.36,2.66,13.76,3.95,19.55,3.95M198.64,160.39c4.94,0,10.72-1.6,18.75-5.19,3.73-1.67,6.9-2.52,9.4-2.52s5.12.51,7.58,6.56c1.39,3.44,5.63,13.9,15.14,13.9,6.28,0,10.65-4.68,14.16-8.45.63-.67,1.26-1.35,1.91-2.01,10.1-10.24,10.98-22.57,2.42-33.83-9.32-12.27-12.52-26.28-10.05-44.1,3.06-22.06-4.86-41.53-22.3-54.82-12.08-9.21-18.07-21.4-20.69-42.09-1.79-14.11-.1-17.28.45-17.91.33-.38,1.63-.82,4.19-.82,3.15,0,7.46.64,13.18,1.97.62.14,1.25.22,1.88.22,1.9,0,3.76-.65,5.26-1.87,2-1.62,3.14-4.08,3.09-6.65-.17-8.59-.69-34.74-24.07-34.74-1.02,0-2.09.05-3.18.16-19.03,1.8-37.28,12.14-50.07,28.35-12.27,15.57-17.85,34.75-15.31,52.62,2.78,19.53,12.31,35.98,20.31,48.12,1.1,1.67,2.22,3.33,3.34,4.99,11.85,17.53,18.57,29.1,7.84,45.44-3.82,5.82-3.23,12.87-2.71,19.1.14,1.64.27,3.19.3,4.54.18,7.94.67,29.03,19.17,29.03M-7.78-58.15c-.53-.02-1.05-.02-1.56-.02-9.4,0-16.13,2.79-20.01,8.3-4.27,6.07-4.39,14.45-.38,25.62.34.96.72,1.94,1.11,2.94,3.36,8.71,2.73,9.61.83,10.99-1.07.78-1.77.88-2.26.88-2.52,0-6.44-2.76-9.59-4.99-.58-.41-1.15-.81-1.71-1.2-4.68-3.23-9.66-5.74-14.47-8.17-9.88-4.98-18.42-9.29-22.81-18.58-2.53-5.36-7.08-8.43-12.48-8.43-3.12,0-6.35,1.02-9.88,3.11-29.49,17.51-45.95,63.18-34.55,95.81,3.23,9.23,9.93,14.31,18.89,14.31,1.74,0,3.6-.2,5.51-.59,5.46-1.13,10.99-2.3,16.34-3.44,21.98-4.68,44.72-9.52,67.53-11.78,3.48-.34,6.02-.5,8.24-.5,6.65,0,10.86,1.42,16.1,5.44,11.61,8.91,27.41,19.13,46.74,19.13,1.98,0,4-.11,5.99-.32,6.86-.73,16.41-2.63,20.2-10.62,3.15-6.62.27-13.45-2.7-18.01-2.65-4.07-5.06-8.39-7.62-12.95-6.9-12.34-14.03-25.1-26.58-33.94-15.64-11.03-20.94-20.3-19.53-34.21.61-6.06-.7-10.93-3.91-14.48-2.03-2.24-5.76-4.92-12-4.92-1.7,0-3.53.21-5.46.61M-319.68,119c-.59-.53-1.41-1.34-2.52-2.58-1.24-1.38-1.35-3.49-1.32-7.98.01-1.71.02-3.48-.11-5.36-.97-13.68-3-42.14-39.98-42.84-13.39-.25-30.66-1.45-45.5-8.52-1.14-.54-2.37-.81-3.59-.81-1.48,0-2.95.39-4.26,1.17-2.39,1.42-3.92,3.94-4.08,6.72-.18,3.26-.24,6.4-.3,9.44-.12,6.07-.23,11.8-1.32,16.95-1.48,7.02-5.46,8.41-18.42,9.54-.98.09-1.96.17-2.91.26-.29.03-.6.04-.91.04-3.07,0-5.6-1.28-6.38-2.1,3.5-11.74,1-22.09-1.21-31.23-1.35-5.59-2.62-10.87-2.39-15.88.14-2.99-.16-5.9-.45-8.72-.79-7.64-.42-9.09,1.28-10.1.26-.16.49-.25.61-.25,1.16,0,4.11,2.13,6.05,3.54,2.52,1.82,5.38,3.89,8.68,5.24,1.27.52,2.65.79,4.11.79,1.29,0,2.37-.2,3.16-.35.15-.03.31-.06.46-.08,2.8-.26,5.29-1.92,6.61-4.41,1.33-2.51,1.29-5.52-.09-7.99-6.93-12.37-15.46-25.57-29.01-25.57-9.01,0-17.57,6.06-24.76,12-4.51,3.72-7.33,4.15-9.05,4.15-1.3,0-2.65-.29-4.12-.87-3.15-1.26-6.3-1.9-9.34-1.9-6.28,0-12.04,2.64-17.12,7.83-2.29,2.34-4.74,4.71-7.1,6.99-9.16,8.84-18.64,17.99-24.59,30.88-13.57,29.4-29.17,59.87-57.13,81.05-4.12,3.12-7.49,7.87-9.01,12.71-.29.92-.71,1.97-1.15,3.08-2.22,5.57-6.34,15.94,3.52,25.15,4.1,3.83,8.8,5.77,13.98,5.77s9.71-1.96,13.13-3.66c3.93-1.96,8.01-3.89,11.96-5.76,9.5-4.5,19.33-9.15,28.56-14.89,14.12-8.79,28.43-13.06,43.73-13.06,24.66,0,49.54,11.46,70.94,22.2,1.71.86,2.95,1.48,2.94,8.32-.05,32,8.08,36.9,33.77,47.57l2.12.88c10.18,4.23,20.78,7.78,31.04,11.2,27.03,9.03,52.57,17.57,71.95,37.98,3.48,3.66,8.91,8.54,15.85,8.54,9.07,0,14.61-8.14,17.92-13.01,10.5-15.44,17.19-18.6,24.01-18.6,4.71,0,10.51,1.61,17.74,4.92,25.99,11.91,54.57,17.45,89.94,17.45,16.18,0,32.26-1.11,47.22-2.31,18.47-1.48,30.22-10.19,35.92-26.62,7-20.19,18.02-37.7,32.77-52.02,11.87-11.54,13.4-23.22,12.03-37.22-.3-3.12-2.33-5.81-5.25-6.96-.99-.39-2.03-.58-3.06-.58-2,0-3.97.72-5.52,2.09-7.92,6.98-15.7,10.58-23.79,10.99-2.36.12-4.79.18-7.23.18-25.48,0-50.52-6.49-76.06-13.73-14.75-4.18-29.86-18.67-38.5-36.92-5.42-11.46-12.85-27.16-30.57-31.87l-.94-.25c-4.28-1.15-9.13-2.45-14-2.45-11.16,0-18.53,7.12-20.24,19.53-1.96,14.26-5.35,16.56-12.71,16.56-.6,0-1.24-.02-1.89-.06-18.95-1.24-28.22-4.1-33.11-17.81-8.3-23.26-17.8-45.76-28.24-66.86-3.81-7.7-9.93-13.43-15.85-18.98-6.72-6.29-13.06-12.23-15.49-20.49-2.18-7.42-8.09-12.21-15.06-12.21-3.19,0-9.31,1.11-14.49,8.52-6.79,9.73-4.82,23.83-.7,33.78,4.95,11.98,13.34,20.11,22.45,21.74,5.96,1.07,17.13,10.66,25.5,24.86,6.73,11.41,8.43,20.34,7.14,24.14-3.24,9.54-9.42,18.84-15.39,27.84l-.85,1.29M665.39-841.5h0,0M57.53-600.71h0,0M-14.09-506.07h0,0M-430.97,35.87h0,0M906.44-935.12c-20.7,0-40.32,5.93-53.74,27.83-3.02,4.93-9.28,6.08-14.82,7.68-28.09,8.11-57.76,7.29-85.91,15.61-8,2.37-15.66,3.04-23.2,8.32-15.58,10.9-32.37,20.31-50.86,25.84-1.46.44-3.08.56-4.76.56-2.05,0-4.18-.18-6.2-.18-4.33,0-8.18.81-9.69,5.93-2.58,8.78,7.74,12.27,13.3,17.24,4.59,4.1,12.18,6.66,8.16,14.86-1.96,4-4.7,5.25-7.71,5.25s-6.08-1.17-9.04-2.16c-8.12-2.7-16.19-3.96-24.19-3.96-10.78,0-21.44,2.3-31.92,6.48-19.26,7.68-22.07,20.8-8.48,36.04,3.63,4.07,9.55,6.77,7.61,15.87h0c-7.6,0-15.22-6.32-21.92-6.32-2.9,0-5.63,1.18-8.11,4.57-4.18,5.71-7.98,7.64-11.87,7.64-4.19,0-8.49-2.25-13.45-4.47-4.22-1.89-8.74-2.74-13.16-2.74-14.82,0-28.54,9.67-26.44,22.77,3.91,24.36-1.6,49.75,9.21,73.35,5.24,11.44,5.34,23.8-5.81,33.01-9.84,8.13-19.97,15.93-30.14,23.64-2.13,1.61-4.7,3.74-7.22,3.74-1.33,0-2.65-.6-3.87-2.19-3.05-3.96.64-7.95,3.22-11.19,2.2-2.76,4.42-6.32,7.43-7.5,26.4-10.37,21.24-30.74,17.61-51.53-5.58-31.98-13.36-64.04.91-96.11,5.24-11.77-6.87-15.56-12.84-21.69-3.45-3.54-7.6-5.36-11.67-5.36-3.41,0-6.77,1.28-9.61,3.91-25.58,23.67-60.6,38.72-66.72,80.07-2.34,15.8-3.23,27.23,10.08,37.34,10.25,7.78,18.65,16.95,16.36,31.87-62.34-27.99-115.78-74.27-187.75-75.13,29.75,13.02,53.3,35.24,81.6,49.9-3.89-.22-7.77-.33-11.64-.33-21.5,0-42.58,3.16-62.81,5.93-15.99,2.2-31.32,8.11-47.1,8.11-7.24,0-14.59-1.25-22.13-4.67-.26-.12-.56-.17-.89-.17-1.51,0-3.63,1.08-5.06,1.98-13.81,8.63-31.67,14.47-40.38,26.76-12.79,18.04-27.1,26.21-44.03,26.21-7.5,0-15.51-1.6-24.13-4.66-2.32-.82-4.33-1.24-6.05-1.24-4.96,0-7.51,3.45-8.23,10.43-.65,6.3-3.3,12.54-3.16,18.76.38,17.4-7.24,24.2-19.36,24.2-3.34,0-7.03-.52-10.99-1.47-2.2-.53-4.16-.78-5.9-.78-8.89,0-12.03,6.47-11.27,14.99,1.3,14.51-5.99,22.62-16.58,29.38-2.99,1.91-4.7,7.39-8.43,7.39-.92,0-1.97-.34-3.19-1.14-5.43-3.59-9.11-9.41-6.19-16.57,2.75-6.77,1.98-13.05-3.4-17.5-12.8-10.61-17.81-27.91-35.94-36.52,9.86-3.77,18.37-6.93,26.4-6.93,7.22,0,14.05,2.55,21.12,9.52,8.28,8.16,22.04,8.94,34.22,9.39,1.8.07,3.52.1,5.16.1,27.38,0,33.63-9.52,27.49-38.82-.87-4.16-3.23-8.41-2.77-12.38,2.6-22.61-10.58-29.53-29.77-32.48-32.7-5.03-62.74-16.65-89.76-36.45-12.49-9.15-26.14-18.38-40.71-22.7-20.84-6.18-42.16-14.71-62.89-14.71-17.04,0-33.68,5.77-49.32,23.37-2.48,2.79-7.65,4.36-11.62,4.45-28.99.66-53.84,9.17-72.01,33.5-3.46,4.63-11.47,5.56-16.43,9.43-18.86,14.72-38.3,28.39-37.69,57.13.4,19.24-7.79,36.17-20.17,52.29-10.82,14.09-28.07,18.85-38.18,33.27-9.2,13.11-20.5,24.42-37.52,29.31-12.3,3.54-23.57,12.36-26.53,25.64-6.17,27.74-3.07,55.03,9.45,80.82,5.21,10.73,11.08,18.77,21.36,18.77,3.79,0,8.19-1.09,13.37-3.55,4.57-2.17,9.25-3.38,13.52-3.38,9.14,0,16.45,5.54,17.04,19.16.85,19.49,8.95,35.41,18.25,51.32,5.72,9.78,5.87,19.64,2.46,33.61-15.86-20.33-21.63-41-24.5-62.54-1.25-9.38-2.78-18.21-9.03-25.58-4.67-5.51-9.17-8.29-13.2-8.29-4.81,0-8.97,3.97-11.96,12.03-3.14,8.43-2.83,18.08-5.31,26.82-2.64,9.29-9.64,17.64-2.59,28.02,3.27,4.81,7.35,5.97,11.72,5.97,4.04,0,8.32-.99,12.41-.99.86,0,1.71.04,2.55.15-.96,2.87-.99,4.77-1.87,5.35-26.22,17.16-52.85,33.8-61.04,67.44-.71,2.93-4.69,5.14-7.29,7.53-17.23,15.84-34.31,31.84-51.8,47.38-15.54,13.8-31.39,26.34-52.68,26.34-3.76,0-7.69-.39-11.82-1.24-3.44-.7-7.02-1.06-10.66-1.06-6.95,0-14.09,1.32-20.8,4.09-8.48,3.49-20.06,5.95-18.34,17.23,1.15,7.5,6.91,8.21,12.99,8.21,1.4,0,2.83-.04,4.21-.04,1.46,0,2.88.04,4.2.21,1.01.13,2.06.18,3.12.18,4.5,0,9.36-.94,13.82-.94,4.49,0,8.58.96,11.47,4.81,11.38,15.18,21.41,31.77,29.4,48.98,7.42,15.99-.98,27.44-18.55,29.07-18.32,1.7-36.49,4.21-54.99,4.87-35.24,1.25-51.28,19.89-49.99,54.76.89,24.09,1.96,48.18,2.96,72.27,1.34,32.23,8.13,40.71,39.18,48.95,10.29,2.73,21.31,3.9,30.13,13.95-4.18-.62-8.08-.92-11.73-.92-31.42,0-43.91,22.07-52.03,50.33-2.06,7.18-6.71,14.52-12.18,19.64-14.32,13.42-20.64,29.93-23.28,48.74-1.82,12.96-6.55,24.65-18.52,32.05-28.79,17.81-47.34,45.21-63.23,73.49-12.9,22.96-29.51,47.35-22.57,75.65,9.05,36.91,11.23,72.9-2.79,108.62-8.72,22.19-2.02,39.48,12.67,56.5,8.36,9.69,21.27,14.65,26.9,26.66,18.01,38.36,44.19,70.63,73.5,100.8,11.05,11.37,22.75,17.66,36.59,17.66,5.36,0,11.05-.94,17.14-2.9,18.52-5.95,37.74-10.57,57-10.57,6.85,0,13.7.58,20.53,1.9,4.77.92,9.34,1.34,13.76,1.34,15.49,0,29.1-5.25,42.81-13.01,6.79-3.84,13.88-7.16,20.75-10.88,4.37-2.37,8.66-3.66,12.63-3.66,6.07,0,11.4,3,15.12,9.7,10.48,18.82,27.55,22.95,46.58,24.23,9.77.66,20.08-.83,24.34,12.04,4.68,14.19,11.29,27.52.41,42.19-22.58,30.46-19.36,58.24,11.12,82.06,22.32,17.45,33.33,40.19,37.35,66.86,3.05,20.26,1.54,41.48,6.58,61.12,8.23,32.02,5.21,61.37-10.42,90.1-10.95,20.14-13.97,41.71-8.14,63.95,6.59,25.13,22.7,45.57,34.81,67.97,5.75,10.63,12.54,20.62,11.63,33.6-3.25,46.33,11.92,88.01,33,128.08,12.36,23.49,21.09,47.16,18.66,74.97-1.99,22.7,8.88,35.35,27.16,35.35,5.03,0,10.62-.96,16.66-2.93,18.27-5.96,36.66-12.34,55.73-13.22,34.18-1.58,58.27-18.31,78.56-44.33,27.77-35.61,49.6-74.16,63.02-117.29,4.92-15.83,13.06-27.72,30.19-32.27,20.12-5.35,24.55-19.98,19.33-38.08-4.51-15.63-10.54-30.82-15.91-46.2-5.88-16.83-.56-26.22,14.37-26.22,2.12,0,4.43.19,6.92.57,1.71.26,3.45.39,5.24.39,28.82,0,66.11-33.09,67.27-60.71,1.92-45.6-18.15-88.85-13.84-134.71.41-4.31-3.09-9.41-5.75-13.51-14.72-22.74-12.1-45.81-1.58-68.95,12.25-26.93,32.62-47.73,51.98-69.52,19.93-22.43,49.83-32.82,67-58.47,18.23-27.24,33.07-56.31,46.18-86.06,8.75-19.85,18.24-40.05,19.12-62.71.66-17.13-3.91-25.83-14.77-25.83-3.85,0-8.49,1.09-13.96,3.29-12.49,5.01-25.14,7.84-37.95,7.84-4.68,0-9.39-.38-14.12-1.17-3.2-.53-6.15-.94-8.86-.94-5.9,0-10.73,1.92-14.75,8.64-2.16,3.6-4.68,5.04-7.26,5.04-2.96,0-6.01-1.9-8.69-4.65-7.47-7.64-12.79-16.65-17.02-26.67-9.67-22.91-20.21-46.68-38.58-62.95-22.15-19.61-31.18-42.65-34.07-70.47-1.21-11.67-.72-25.71-11.15-33.28-16.76-12.17-25.28-29.48-30.07-47.67-8.03-30.5-9.58-62.7-26.54-90.82,20.02,22.51,22.78,55.87,50.58,72.68,2.51,1.52,4.36,6.22,4.35,9.45-.01,28.64,20.72,48.12,32.41,71.21,22.9,45.22,58.9,83.41,70.57,134.93,2.43,10.75,10.42,14.94,19.4,14.94,3.98,0,8.16-.83,12.13-2.27,19.86-7.23,39.02-16.43,58.23-25.34,54.83-25.43,90.18-77.83,144.23-104.52,5.41-2.67,9.67-8.41,13.46-13.48,13.47-18.03,10.7-38.24-6.92-52.31-19.28-15.4-39.24-27.66-62.96-27.66-7.26,0-14.88,1.15-22.94,3.71-5.64,1.79-11.92,3.27-17.96,3.27-7.55,0-14.72-2.31-19.82-9.2-18.1-24.47-34.28-50.39-50.5-76.19-3.42-5.44-8.51-16.1-.74-18.85,7.59-2.69,15.51-8.41,23.86-8.4,5.11,0,10.38,2.15,15.83,8.45,17.15,19.83,36.52,37.79,55.47,55.99,6.99,6.71,12.14,10.12,16.66,10.12,5.3,0,9.72-4.68,15.21-14.2,2.4-4.16,5.11-5.62,8.42-5.62,1.77,0,3.71.42,5.87,1.06,10.41,3.09,16.69,10.31,21.58,19.3,4.61,8.48,10.65,19.53,19.36,19.53.46,0,.93-.03,1.4-.09,2.41-.32,4.81-.46,7.21-.46,13.53,0,27,4.34,40.45,4.34,6.88,0,13.75-1.14,20.63-4.57,3.98-1.99,8.51-3.39,12.76-3.39,4.93,0,9.49,1.88,12.4,6.88,15.9,27.29,41.76,43.92,64.38,64.14,6.84,6.11,13.48,10.29,21.51,10.29,2.84,0,5.86-.52,9.13-1.67,3.45-1.22,6.45-1.8,9.04-1.8,9,0,13.28,6.95,15.71,18.49,4.8,22.75,4.6,45.92,11.69,68.77,13.89,44.74,40.67,84.82,48.5,131.1,3.8,22.43,18.99,25.7,34.28,31.55,1.58.6,3.11.9,4.54.9,4.8,0,8.52-3.33,9.41-9.57,4.41-30.83,14.95-61.51,11.13-92.53-2.47-20.06,2.14-34.27,14.87-48.03,18.76-20.28,38.1-40.12,55.52-61.51,19.41-23.84,48.58-36.18,67.59-60.79,2.89-3.75,6.53-5.48,10.12-5.48,6.05,0,11.95,4.94,13.81,13.48,3.56,16.26,12.28,27.46,24.69,37.87,10.31,8.64,16.26,21.35,21.91,33.69,6.5,14.19,12.85,28.46,19.86,42.39,3.13,6.23,7.87,12.39,15.48,12.39.18,0,.36,0,.54-.01,7.48-.28,9.24-7.61,12.1-13.29,1.61-3.2-.17-9.97,4.95-9.97.76,0,1.68.15,2.78.48,5.12,1.55,6.8,7,7.31,12.09,1.77,17.58,3.17,35.19,5.04,52.75,3.5,32.85-3.31,67.07,13.12,98.22,2.7,5.13,4.7,11.26,11.26,11.26.66,0,1.37-.06,2.13-.2,7.73-1.35,9.91-7.45,9.76-14.37-.39-17.67,1.48-35.25-1.93-53.05-2.64-13.79-9.8-27.79-3.84-44.26,9.86,8.33,11.94,19.09,16.21,28.51,4.82,10.63,10.31,21.7,22.88,23.08,13.81,1.51,21.7,7.45,29.78,19.03,8.72,12.49,18.42,18.56,28,18.56,10.3,0,20.46-7.02,29.1-20.61,4.95-7.79,10.39-15.27,15.17-23.16,33.56-55.35,31.26-75.01-14.43-120.07-18.33-18.08-20.1-39.4-13.68-62.73,3.05-11.07,11.51-15.68,21.55-18.26,1.33-.34,2.7-.56,4.02-.56,2.88,0,5.54,1.07,7.04,4.29,1.86,3.99-1.24,6.51-4.07,8.71-3.35,2.61-7.54,4.53-10.03,7.78-7.26,9.47-5.67,20.15-1.83,30.31,2.52,6.65,7.84,11.34,15.06,11.34.46,0,.92-.02,1.39-.06,12.79-1.04,10.99-12.76,13.95-20.86,3.66-9.99,7.32-19.99,10.7-30.08,2.69-8.02,7.97-13.39,15.76-16.15,19.24-6.83,36.13-20.33,57.88-20.33,1.79,0,3.62.09,5.48.29.51.05,1.02.08,1.55.08,6.58,0,14.48-4,19.85-8.26,58.02-46.1,79.89-131.65,38.34-193.4-16.54-24.58-23.76-53.88-11.26-85.14,7.01-17.54-.91-28.35-18.48-28.35-2.82,0-5.89.28-9.19.85-3.8.66-7.36,1.24-10.71,1.24-5.67,0-10.7-1.66-15.15-7.37,11.66-12.02,29.06-2,39.43-11.3,11.54-10.35-3.41-29.12,9.5-41.66,9.59,17.03,21.94,28.56,40.39,32.91,16.35,3.85,60.77,57.94,54.55,71.41-9.96,21.53,7.59,43.91-13.03,65.78,17.68-5.91,73.4-52.23,77.2-60.92,4.57-10.46-1.95-12.51-10.08-12.97-10.39-.59-20.86-2.76-25.22-12.9-10.76-24.99-12.75-53.24-4.37-77.06,6.3-17.91,21.8-37.34,47.57-39.11,11.81-.81,23.44-5.38,34.97-8.85,18.3-5.5,30.43-16.97,35.49-36.08,5.26-19.86,9.58-40.4,18.13-58.88,18.58-40.18,16.43-81.31,10.34-123.08-2.55-17.47-9.01-29.37-30.09-29.37-.42,0-.85,0-1.28.01-.37,0-.74.01-1.11.01-15.72,0-30.72-7.33-43.84-17.39-12.94-9.93-14.67-18.45-1.66-30.52,21.32-19.8,43.64-39.3,60.92-62.39,10.79-14.41,22.74-21.73,38.4-26.83,39.22-12.76,79.85-11.02,120.19-12.06,47.55-1.22,51.07-3.83,64.19-50.04,3.45-12.16,10.07-24.08,22.43-24.08,1.03,0,2.09.08,3.2.25,5.73.89,11.31,1.31,16.78,1.31,16.43,0,31.86-3.85,47.35-10.6,4.77-2.08,9.86-2.7,15.04-2.7,4.1,0,8.26.39,12.35.73,11.56.97,13.7,6.77,6.97,15.39-9.59,12.29-20.87,23.05-31.87,34.14-20.78,20.96-45.96,38.03-61.2,64.03-30.26,51.66-17.87,101.93,6.23,151.6,4.81,9.92,10.5,15.09,16.36,15.09,5.19,0,10.52-4.06,15.49-12.49,11.14-18.9,16.61-39.72,33.34-57.05,18.41-19.08,15.99-47.6,10.04-73.86-6.56-28.98,13.34-64.62,40.67-76.2,1.87-.79,3.47-1.15,4.91-1.15,3.18,0,5.52,1.75,8,4.38,6.58,7.01,13.29,9.85,19.89,9.85,8.16,0,16.16-4.33,23.6-10.5,13.61-11.28,24.83-25.41,38.19-37.05,15.07-13.13,31.51-23.7,51.83-23.7,3.05,0,6.19.24,9.43.74,3.8.59,7.98,1.65,11.86,1.65s7.44-1.05,10.04-4.66c5.46-7.58-4.55-12.12-6.78-18.37-2.62-7.31-4.28-15.01-7.37-22.1-2.6-5.96-2.08-9.23,4.61-10.92,19.16-4.84,11.89-12.74,2.12-20.53-4.43-3.53-9.2-6.67-13.99-9.7-4.36-2.76-9.06-5.8-7.72-11.46,1.51-6.37,7.61-7.87,13.34-8.78,1.2-.19,2.37-.28,3.54-.28,6.74,0,12.92,2.9,19.07,5.31,5.23,2.05,11.44,4.36,16.71,4.36,3.01,0,5.72-.75,7.77-2.73,5.66-5.46,10.51-7.53,14.91-7.53,8.41,0,15.13,7.6,22.53,13.53,3.88,3.11,7.45,7.07,11.88,8.92,11.74,4.9,22.54,15.92,32.87,17.42,1.1.16,2.1.24,3.01.24,15.14,0,4.14-21.26,12.88-28.68,1.02-.87,1.21-2.83,2.28-3.53,24.47-15.96,7.43-25.39-6.49-31.55-50.1-22.16-95.74-51.32-141.33-81.43-31.03-20.49-69.63-20.13-106.2-21.67-.67-.03-1.37-.05-2.07-.05-6.2,0-13.31,1.37-15.51,9.04-2.21,7.68,8.08,8.45,11.68,21.33-15.32-19.79-31.88-25.01-49.05-25.01-9.71,0-19.62,1.67-29.61,3.32-4.59.76-9.33,1.11-14.1,1.11-6.68,0-13.41-.7-19.81-1.97-4.68-.93-9.21-1.51-13.66-1.51-5.25,0-10.38.8-15.49,2.77-5.07,1.95-9.64,2.98-13.7,2.98-9.71,0-16.52-5.87-20.23-19-1.77-6.26-6.96-10.12-12.02-14.33-20.21-16.8-44.58-25.29-68.86-25.29-2.83,0-5.65.11-8.47.34-3.25.27-6.29.4-9.19.4-15.64,0-27.01-3.93-42.72-12.45-34.85-18.89-75.08-30.79-115.46-33.82-6.96-.52-14.43-1.31-21.76-1.31-18.03,0-35.21,4.77-41.85,29.97-.9,3.4-3.57,4.08-6.46,4.35-18.47,1.74-36.94,8.65-55.19,8.65-4.04,0-8.07-.34-12.09-1.15-5.37-1.08-10.47-1.61-15.35-1.61-16.43,0-30.36,5.94-43.71,16.53-3.61,2.86-6.93,4.36-10.07,4.36-3.53,0-6.83-1.88-10.1-5.8-12.97-15.59-27.07-29.4-36.34-48.85-11.48-24.08-30.45-40.97-54.17-40.97-11.69,0-24.54,4.11-38.21,13.48-3.52,2.41-6.31,3.77-9.4,3.77-2.22,0-4.59-.71-7.49-2.24-29.34-15.52-64.05-8.46-94.36-21.45-1.04-.45-2.22-.64-3.5-.64-5.06,0-11.57,3.04-16.75,5.06-25.59,9.99-50.97,20.51-76.42,30.83,25.11-14.35,51.78-24.88,74.57-43.59,31.22-25.63,30.4-62.65-4.33-82.76-9.68-5.6-20.75-9.13-31.55-12.43-30.31-9.26-61.95-2.99-92.94-7.33-7.3-1.02-14.68-1.75-21.94-1.75h0ZM-296.11-276.92c-5.68,0-11.53-1.58-16.72-3.45-11.05-3.99-7.76-15.7-5.86-24.41,2.77-12.7,2.96-25.44,2.4-38.16-.95-21.5,4.38-39.72,18.82-56.78,11.66-13.77,16.18-31.82,7.79-49.83-4.99-10.72-2.34-17.74,5.34-26.35,18.23-20.44,42.79-32.71,62.62-50.97,2.81-2.59,6.33-4.09,10.72-4.09,2.16,0,4.53.36,7.12,1.13-10.97,12.29-19.91,24.41-30.91,34.22-29.23,26.06-10.15,80.09,26.2,84.58,8.36,1.03,16.52,4.12,24.63,6.7,4.87,1.55,12.97-.75,12.93,7.71-.03,6-5.04,10.07-9.9,13.04-2.9,1.77-6.57,2.41-9.99,3.18-29.73,6.7-39.58,16.96-41.75,48.67-.91,13.32-6.31,20.95-17.46,26.39-10.84,5.29-20.69,11.58-28.97,21.06-4.77,5.46-10.79,7.35-17.01,7.35h0ZM198.64,152.04c-7.8,0-10.49-6.51-10.82-20.87-.15-6.37-1.95-14.3,1.04-18.87,15.75-23.99.75-41.47-11.19-59.61-9.1-13.81-16.71-28.43-19.02-44.71-4.8-33.75,23.72-68.25,57.9-71.48.83-.08,1.63-.12,2.39-.12,10.78,0,15.35,7.88,15.72,26.56-6.1-1.41-11.08-2.18-15.06-2.18-12.8,0-15.48,7.94-12.93,28.13,2.38,18.79,7.81,35.4,23.91,47.68,15.16,11.56,21.75,27.84,19.09,47.03-2.54,18.36.21,35.21,11.67,50.3,6.03,7.93,5.42,15.68-1.72,22.92-3.59,3.64-6.83,7.97-10.13,7.97-2.38,0-4.8-2.26-7.41-8.69-3.35-8.26-8.63-11.77-15.31-11.77-3.84,0-8.14,1.16-12.81,3.25-6.54,2.92-11.54,4.46-15.34,4.46h0ZM-7-49.76c1.73-.43,3.29-.65,4.67-.65,5.6,0,8.28,3.52,7.6,10.21C3.31-20.74,13.09-9.05,28.3,1.67c15.28,10.77,22.01,29.26,32,44.62,7.76,11.91-2.69,14.84-11.4,15.77-1.73.19-3.43.27-5.1.27-15.9,0-29.42-8.01-41.65-17.4-7.16-5.49-13.37-7.16-21.18-7.16-2.78,0-5.76.21-9.06.54-28.85,2.85-56.62,9.55-84.73,15.35-1.32.27-2.6.42-3.82.42-4.81,0-8.78-2.33-11.01-8.72-9.99-28.59,4.96-70.46,30.93-85.88,2.07-1.23,3.96-1.94,5.61-1.94,2.05,0,3.72,1.09,4.93,3.64,8.1,17.15,26.37,20.58,40.08,30.05,4.73,3.27,10.21,7.67,16.05,7.67,2.34,0,4.74-.71,7.18-2.48,8.9-6.48,3.73-15.92,1-23.51-5.24-14.58-2.48-22.74,12.53-22.74.75,0,1.53.02,2.34.06h0ZM-319.12,128.19c2.05,0,4.15-1.18,6.21-4.28,6.6-9.96,13.59-20.2,17.38-31.35,5.89-17.35-20.76-56.62-39.07-59.91-13.98-2.51-24.81-30.44-16.37-42.52,2.42-3.47,5.16-4.95,7.64-4.95,3.18,0,5.94,2.44,7.05,6.22,5.42,18.46,24.63,26.18,31.87,40.81,10.47,21.17,19.84,43.47,27.86,65.96,7.11,19.92,23.06,22.2,40.43,23.33.84.06,1.65.08,2.43.08,15.11,0,19.11-10.14,20.98-23.77,1.33-9.67,6.16-12.32,11.97-12.32,4.08,0,8.64,1.31,12.79,2.42,13.73,3.65,19.82,16.07,25.17,27.38,9.4,19.86,26.36,36.45,43.77,41.38,25.06,7.1,51.5,14.04,78.34,14.04,2.55,0,5.1-.06,7.65-.19,9.59-.49,19.21-4.53,28.89-13.07,1.33,13.71-.79,21.91-9.54,30.42-15.83,15.38-27.55,34.25-34.84,55.28-4.88,14.08-14.57,19.9-28.7,21.03-15.61,1.25-31.14,2.28-46.55,2.28-29.26,0-58.13-3.72-86.46-16.7-8.28-3.79-15.16-5.68-21.22-5.68-12.02,0-20.83,7.43-30.92,22.25-3.87,5.69-7.08,9.36-11.02,9.36-2.75,0-5.86-1.79-9.79-5.94-28.68-30.22-69.75-36.13-105.83-51.14-25.02-10.41-30.8-11.94-30.75-40.72.01-7.46-1.25-12.64-7.54-15.8-24.57-12.33-49.2-23.08-74.68-23.08-15.67,0-31.65,4.06-48.14,14.32-12.6,7.84-26.5,13.62-39.83,20.28-3.16,1.58-6.29,2.79-9.4,2.79-2.78,0-5.55-.97-8.28-3.52-7.03-6.55-2.12-13.23-.11-19.61,1.01-3.2,3.4-6.52,6.09-8.56,28.79-21.81,45.01-52.46,59.67-84.21,6.78-14.68,19.22-24.41,30.09-35.54,3.35-3.43,7-5.32,11.14-5.32,1.96,0,4.03.42,6.24,1.3,2.52,1.01,4.91,1.47,7.22,1.47,5.12,0,9.8-2.3,14.37-6.06,8.02-6.62,14.09-10.09,19.45-10.09,7.51,0,13.61,6.81,21.73,21.3-.92.08-1.95.4-2.84.4-.33,0-.65-.04-.94-.16-6.08-2.49-11.55-9.41-17.9-9.41-1.56,0-3.18.42-4.87,1.42-9.28,5.51-4.5,16.81-4.91,25.6-.71,15.11,8.87,28.92,3.87,45.33-2.28,7.49,6.45,12.63,14.44,12.63.58,0,1.15-.03,1.72-.08,11.65-1.13,25.46-1.02,28.7-16.4,1.82-8.66,1.24-17.82,1.79-27.63,15.16,7.22,32.63,9.02,48.94,9.33,25.77.49,30.4,15.35,31.81,35.08.45,6.34-1.12,13.1,3.53,18.31,2.71,3.03,5.94,6.2,9.31,6.2h0Z"/><path d="M1502.99,1081.77c2.29,0,5.44,2.15,8.21,4.26,13.68,10.38,23.44,24.51,31.95,38.25,4.01,6.48,8.65,12.46,13.13,18.24,3.86,4.98,7.5,9.68,10.76,14.65.39.59.77,1.18,1.15,1.76,6.38,9.81,14.33,22.03,31.06,22.03,2.82,0,5.83-.36,8.97-1.07.38-.09.76-.13,1.16-.13,2.07,0,6.62,1.3,13.89,10.01,10.72,12.84,24.43,20.94,37.7,28.76,1.08.64,2.16,1.28,3.24,1.92,1.32.78,2.79,1.17,4.26,1.17,1.95,0,3.9-.68,5.45-2.02,8.38-7.21,7.64-16.17,7.21-21.52-.1-1.19-.19-2.32-.18-3.24.11-13.37.09-26.94.07-40.07-.03-16.89-.06-34.35.21-51.49.04-2.87-.38-5.64-.79-8.31-1.07-7.02-.64-7.6.35-8.16,1.18-.66,2.36-.97,3.71-.97,4.25,0,9.7,3.08,14.51,5.8l1.54.87c13.54,7.58,21.24,19.5,22.28,34.48,3.94,56.88,30.72,106.58,84.27,156.43,1.64,1.53,3.5,2.99,5.3,4.4,3.11,2.44,8.31,6.53,8.35,8.81.02,1.17-1.42,3.79-5.56,7.35-4.11,3.52-5.5,8.7-3.72,13.85,1.02,2.95,2.83,5.36,4.44,7.48.62.82,1.26,1.67,1.6,2.24,11.67,19.53,18.3,38.73,20.29,58.71,2,20.12-.77,40.5-8.46,62.31-12.22,34.66-29.78,65.48-53.66,94.22-8.12,9.77-10.68,20.87-12.94,30.67-.47,2.04-.92,3.97-1.41,5.91-9.16,35.99-23.24,47.5-62.78,51.28-6.67.64-15.41,1.37-23.86,1.37-22.35,0-38.4-5.26-52.04-17.06-9.08-7.85-19.36-16.75-25.58-26.6-6.38-10.1-8.06-20.44-5.31-32.53,1.39-6.08-.11-10.15-1.61-12.49-1.36-2.12-4-4.87-8.87-5.9-3.83-.81-7.91-1.6-12.04-1.6-6.87,0-12.35,2.23-16.27,6.62-2.95,3.31-4.89,4.81-5.97,5.49-1.48-2.52-3.23-8.26-3.95-10.65l-.23-.75c-1.04-3.43-2.11-6.97-3.84-10.5-10.93-22.37-25.64-46.24-62.15-46.24-1.43,0-2.9.04-4.39.11-3.13.15-6.27.28-9.41.41-32.99,1.34-67.09,2.73-90.79,31.44-11.79,14.28-23.43,20.65-37.74,20.65-5.46,0-11.38-.9-18.11-2.74-1.92-.53-3.85-.79-5.72-.79-8.29,0-13.98,5.12-17.53,8.97-10.09,10.93-22.79,15.8-41.21,15.8-4.93,0-10.33-.34-17-1.05-8.09-.87-14.79-4.85-18.87-11.2-4.79-7.46-5.6-17.57-2.21-27.75,10.65-32,8.98-63.41-5.25-98.86-8.08-20.14-15.04-42.28-11.31-67.78,2.88-19.66,9.16-35.31,19.2-47.82,9.94-12.39,23.59-21.74,41.74-28.59,7.18-2.71,14.11-6.06,20.8-9.29,14.52-7.02,28.24-13.64,43.51-13.64,1.96,0,3.93.11,5.88.33,1.14.13,2.16.19,3.12.19,4.12,0,7.39-1.26,9.74-3.75,3.3-3.5,3.52-7.94,3.3-11.82-.59-10.18,4.2-18.7,16.52-29.43,17.59-15.32,31.28-33.98,41.85-57.04,1.72-3.75,3.31-6.5,5.52-7.77,1.56-.89,3.05-1.75,4.48-2.58,11-6.35,18.95-10.94,23.18-10.94,3.48,0,8.08,5.72,16.39,20.4,1.33,2.35,3.72,3.91,6.41,4.19.29.03.58.04.86.04,2.38,0,4.67-1.02,6.27-2.83,7.7-8.75,15.38-17.11,24.63-23.14,7.36-4.79,14.87-14.32,8.88-32.48-2.25-6.81-.62-7.67,1.1-8.58,1.13-.6,1.87-.67,2.34-.67M1502.99,1073.42c-1.99,0-4.07.49-6.25,1.64-7.91,4.19-7.48,11.39-5.11,18.57,2.93,8.89,2.89,17.39-5.51,22.87-10.16,6.62-18.22,15.39-26.34,24.61-9.93-17.55-15.63-24.64-23.66-24.64-7.18,0-16.22,5.68-31.82,14.63-4.33,2.48-6.79,6.81-8.96,11.53-9.51,20.75-22.29,39.02-39.74,54.22-10.69,9.31-20.28,20.33-19.37,36.21.27,4.76-.53,6.74-4.71,6.74-.64,0-1.37-.05-2.18-.14-2.31-.26-4.58-.38-6.81-.38-24.78,0-44.99,15.07-67.26,23.47-38.65,14.59-60.07,40.89-66.25,83.01-3.89,26.53,2.67,49.31,11.82,72.1,12.37,30.83,15.76,60.99,5.07,93.11-8.28,24.89,4.66,47.36,28.1,49.89,5.99.65,11.98,1.1,17.9,1.1,17.32,0,33.9-3.92,47.35-18.49,3.28-3.56,6.78-6.29,11.39-6.29,1.11,0,2.28.16,3.52.5,7.23,1.98,13.95,3.03,20.31,3.03,16.51,0,30.51-7.12,44.18-23.68,23.44-28.39,59.29-27.13,94.16-28.82,1.36-.07,2.69-.1,3.98-.1,30.56,0,43.2,18.13,54.64,41.56,1.55,3.17,2.55,6.62,3.57,10.01,2.71,8.93,5.43,17.08,11.2,17.08,3.2,0,7.34-2.51,12.94-8.78,2.6-2.91,6.2-3.83,10.04-3.83,3.41,0,7.02.72,10.31,1.42,4.32.91,4.95,4.48,4.06,8.37-7.21,31.6,13.05,49.56,33.56,67.3,17.41,15.06,36.78,19.1,57.5,19.1,8.03,0,16.26-.61,24.66-1.41,41.61-3.99,59.74-16.97,70.07-57.53,2.93-11.51,4.37-23.29,12.68-33.3,24.03-28.92,42.39-60.71,55.11-96.78,16.12-45.7,11.78-87.37-12.53-128.08-2.48-4.14-8.45-9.17-4.05-12.94,19.39-16.62.62-25.14-7.83-33.01-44.34-41.27-77.27-88.09-81.62-150.9-1.26-18.12-10.7-32.33-26.53-41.19-6.15-3.44-13.12-7.72-20.13-7.72-2.61,0-5.22.59-7.8,2.04-8.93,5.02-3.7,15.61-3.82,23.62-.47,30.53-.02,61.08-.28,91.62-.05,5.98,2.46,12.84-4.12,18.5-13.92-8.26-28.17-16.12-38.79-28.85-5.52-6.61-12.64-13.01-20.3-13.01-.99,0-1.99.11-3,.33-2.61.59-4.97.86-7.13.86-12.96,0-18.55-9.83-25.23-20.02-7.38-11.26-16.69-21.28-23.77-32.71-9.44-15.23-19.6-29.58-34-40.5-4.12-3.12-8.45-5.95-13.26-5.95h0Z"/><path d="M1531.93,844.39h0,0M1529.91,892.42c.83,2.54,2.05,4.78,3.64,6.72,6.66,8.13,17.81,8.13,21.47,8.13,4.26,0,8.79-.45,13.06-.94.63-.07,1.33-.1,2.44-.1.86,0,1.84.02,3.02.04,1.93.03,4.33.07,7.56.07.76,0,1.53-.1,2.26-.31,7.03-1.98,15.08-2.98,23.92-2.98,15.3,0,32.71,3.09,49.02,8.69,4.35,1.49,8.82,2.98,13.14,4.41,20.76,6.9,42.24,14.03,60.09,25.27,19.71,12.41,32.36,27.98,39.8,49.01.26.73.52,1.45.77,2.17,2.23,6.2,4.15,11.56,3.8,17.1-1.5,23.81,6.71,41.87,24.41,53.75-1.46.15-2.9.23-4.31.23-13.83,0-24.97-7.37-31.38-20.75-3.02-6.3-5.39-12.92-7.91-19.94-1.31-3.66-2.66-7.44-4.12-11.16-.35-.89-.68-2.06-1.04-3.3-1.51-5.31-4.67-16.35-17.17-16.35-1.07,0-2.2.09-3.34.27-7.26,1.13-16.35,6.14-18.37,23.55-.66,5.69-.97,11.39-1.26,16.9-.39,7.25-.76,14.09-1.86,20.79-.31,1.86-.43,3.69-.55,5.45-.49,7.1-1.14,7.31-2.88,7.87-1.07.34-2.06.51-3.01.51-3.94,0-7.76-3.14-12.65-8.21-1.06-1.1-2.12-2.25-3.15-3.37-6.61-7.2-14.11-15.36-27.63-15.36-3.55,0-7.23.56-11.26,1.73-.76.22-1.44.33-2.04.33-4.38,0-7.8-8.62-9.25-17.17-.6-3.53-.77-7.24-.96-11.16-.33-6.98-.68-14.2-3.35-21.76-3.65-10.32-9.38-21.27-24.19-24.21l-.27-.05c-1.51-.3-4.12-.82-5.41-1.39.51-20.04-13.54-27.9-23.83-33.66-2.02-1.13-3.93-2.2-5.74-3.33-10.45-6.53-20.99-13.42-31.17-20.08-3.54-2.31-7.07-4.62-10.61-6.93.11-3.59.22-7.07.33-10.48M1528.57,840.89c-1.74,0-4.92,1.91-4.98,3.06-1.1,20.94-1.87,41.9-2.49,62.87-.03.84,2,1.83,3.17,2.59,14.2,9.23,28.3,18.6,42.66,27.57,11.78,7.36,26.34,11.71,25.64,30.15-.27,6.99,6.81,8.28,12.41,9.39,10.51,2.08,14.62,9.42,17.94,18.8,3.69,10.43,2.19,21.12,3.95,31.53,1.89,11.19,6.78,24.13,17.48,24.13,1.36,0,2.81-.21,4.35-.65,3.36-.97,6.31-1.4,8.95-1.4,11.58,0,17.18,8.3,24.76,16.17,5.17,5.37,10.99,10.77,18.66,10.77,1.75,0,3.61-.28,5.57-.91,9.83-3.16,7.96-12.89,9.12-19.92,2.06-12.53,1.72-25.43,3.18-38.09.82-7.08,3.22-15,11.36-16.27.74-.12,1.42-.17,2.06-.17,7.92,0,8.17,8.54,10.43,14.34,4.12,10.55,7.4,21.49,12.27,31.67,7.97,16.64,22.17,25.49,38.91,25.49,3.27,0,6.63-.34,10.07-1.02,3.43-.68,7.57-.46,8.43-4.84.86-4.41-3.11-5.79-6.07-7.5-18.76-10.83-25.5-27.63-24.19-48.45.51-8.03-2.41-15.14-5.04-22.58-19.68-55.59-71.77-67.87-118.18-83.8-16.44-5.64-34.68-9.14-51.73-9.14-9.24,0-18.13,1.03-26.19,3.29-5.24,0-8.31-.11-10.57-.11-1.31,0-2.35.04-3.38.15-4.23.48-8.35.88-12.11.88-12.65,0-21.3-4.52-17.07-25.59,1.57-7.84-2.01-16.72-3.31-25.11-.56-3.6-1.66-7.27-6.04-7.34-.01,0-.02,0-.03,0h0Z"/><path d="M1027.06,724.15c1.77,0,3.2.7,3.81,1.89,8.68,16.75,17.17,34.12,25.97,53.1,0,.02.01.03.02.04-.27.81-1.64,2.63-2.48,3.73-.79,1.04-1.61,2.13-2.4,3.33-10.44,15.96-10.79,33.1-1.08,52.39,1.24,2.47,3.63,4.17,6.38,4.53.36.05.72.07,1.08.07,2.37,0,4.65-1.01,6.25-2.81,2.73-3.08,4.47-6.71,5.99-9.92.83-1.73,2.03-4.26,2.86-5.22.33.07.91.23,1.79.63,7.65,3.49,10.13,9.69,7.36,18.42-3.33,10.51-.2,18.54,2.55,25.62.47,1.21.96,2.46,1.4,3.68,3.25,9.06,6.05,18.58,8.75,27.78,5.45,18.55,11.08,37.74,21.01,55.67,1.85,3.34,1.98,10.37.31,16.71-1.31,4.97-4.59,8.58-7.8,8.58-1.2,0-2.49-.48-3.83-1.41-3.21-2.24-6.46-4.44-9.61-6.57-23.12-15.67-44.95-30.47-56-60.51-14.97-40.73-41.23-76.45-66.62-111-5.77-7.85-11.73-15.96-17.43-23.96-.76-1.07-1.53-2.08-2.28-3.05-5.1-6.68-4.72-7.19-2.92-9.59,5.98-7.99,11.31-12.98,19.42-13.21.17,0,.33,0,.49,0,3.53,0,4.99,0,6.31,9.11,2.26,15.71,7.45,36.42,27.66,57.27,1.6,1.65,3.77,2.54,6,2.54.91,0,1.83-.15,2.71-.45,3.06-1.05,5.24-3.78,5.59-7,.26-2.4.61-4.33.93-6.04.73-3.95,1.48-8.04-1.19-11.92-11.96-17.41-6.08-33.49.72-52.11,1.93-5.29,3.93-10.75,5.51-16.32.81-2.87,1.34-3.66,1.53-3.86.07-.02.25-.07.57-.11.23-.02.45-.03.67-.03M1025.85,724.26h0,0M1073.72,825.03h0,0M1027.06,715.8c-.49,0-.99.02-1.49.07-5.9.58-7.83,4.76-9.31,10-7.02,24.78-23.37,48.82-5.08,75.43,1.15,1.68-.39,5.2-1.16,12.34-16.69-17.21-22.74-34.24-25.39-52.65-1.33-9.22-3.78-16.27-14.57-16.27-.24,0-.48,0-.73.01-12.03.34-19.39,7.9-25.87,16.55-6.91,9.23.12,15.53,5.08,22.5,30.43,42.72,65.06,84.19,83.01,132.99,13.55,36.86,41.47,52.13,68.67,71.05,2.88,2,5.81,2.91,8.6,2.91,7.23,0,13.56-6.06,15.87-14.8,1.89-7.16,2.29-16.81-1.08-22.89-14.37-25.94-19.39-54.88-29.21-82.23-2.92-8.14-6.77-14.75-3.85-23.96,3.86-12.17.11-23.07-11.85-28.54-2.18-1-4.02-1.43-5.6-1.43-8.2,0-9.29,11.82-14.76,17.99-8.24-16.36-8.37-30.34.61-44.07,3.06-4.68,8.3-9.04,5.45-15.18-8.34-17.99-17.01-35.83-26.13-53.43-2.08-4.02-6.37-6.4-11.22-6.4h0Z"/><path d="M1283.74,770.79h0c.74,0,1.63.21,2.65.62.87.35,3.2,1.28,2.26,6.92-1.07,6.41-4.08,7.85-18.95,9.08-2.7.22-5.12,1.74-6.5,4.07-1.38,2.33-1.54,5.18-.44,7.65,1.04,2.34,1.88,4.71,2.69,7,1.85,5.21,3.76,10.6,7.94,14.64,18.95,18.3,19.58,37.15,2.25,67.23-5.79,10.04-11.42,14.6-14.44,14.67-9.8.21-19.09,2.18-28.09,4.1-9.01,1.92-17.52,3.73-26.07,3.73-2.58,0-4.99-.16-7.37-.49-1.99-.32-10.61-4.16-22.4-11.94-11.9-7.86-17.93-13.77-19.17-15.91-1.43-11.12,2.82-22.32,12.63-33.32,19.49-21.85,37.68-37.26,63.09-41.46,13.15-2.17,22.38-11.2,30.53-19.16,2.12-2.07,4.12-4.03,6.16-5.85,1.87-1.67,3.51-3.48,5.09-5.24,3.54-3.92,5.86-6.3,8.13-6.3M1283.74,762.44c-8.37,0-13.03,8.52-18.78,13.66-10.03,8.97-19.01,20.77-32.49,23-29.54,4.88-49.45,23.39-67.96,44.14-10.07,11.29-16.84,25.12-14.59,40.62,1.33,9.19,39.17,33.07,48.59,34.38,2.87.4,5.71.58,8.53.58,18.4,0,35.85-7.44,54.33-7.83,8.56-.18,16.31-9.84,21.5-18.85,15.39-26.71,22.13-52.46-3.68-77.4-4.17-4.03-5.32-11.19-8.8-19.02,13.37-1.1,24.22-2.37,26.5-16.02,1.16-6.98-.76-13.39-7.38-16.05-2.11-.85-4.02-1.22-5.76-1.22h0Z"/><path d="M1593.51,71.63c.8,0,1.71.08,2.71.25,13.46,2.22,18.74,6.96,19.62,17.89-8.54,28.31-11.51,54.38-9.08,79.66.42,4.36-6.49,8.93-12.03,12.6l-.79.52c-13.82,9.17-30.61,13.72-46.84,18.11-1.15.31-2.14.51-2.96.59.45-.39,1-.83,1.64-1.33,8.93-6.9,25.47-19.67,15.55-43.57.42-2.15,3.15-6.94,4.66-9.58.64-1.11,1.25-2.19,1.8-3.21,10-18.38,16.51-38.26,19.34-59.11,1.74-12.82,3.49-12.83,6.39-12.83M1593.51,63.28c-11.49,0-13.29,9.94-14.66,20.05-2.69,19.85-8.78,38.57-18.4,56.24-3.34,6.14-9.11,14.74-7.12,19.32,7.28,16.73-1.06,25.45-12.66,34.42-3.5,2.71-8.56,6.86-5.02,12.48,1.85,2.93,4.69,3.85,7.66,3.85,2.02,0,4.1-.43,5.97-.93,17.1-4.63,34.38-9.33,49.28-19.21,7.48-4.96,17.44-11.19,16.52-20.87-2.63-27.39,1.73-53.6,9.2-77.87-.86-18.76-12.46-24.77-26.69-27.12-1.48-.24-2.83-.36-4.08-.36h0Z"/><path d="M1380.95,838.71c-4.69,5.08-9.6,10.15-14.35,15.06-1.3,1.34-2.59,2.68-3.89,4.02-12.8,13.28-19.09,29.02-17.69,44.34,1.39,15.24,10.34,29.5,25.21,40.15,1.69,1.21,3.4,2.21,5.05,3.17,6.1,3.57,6.02,3.89,5.34,6.36-3.09,11.24-7.19,16.4-15.14,19.06-8.27,2.77-14.08,4.06-18.27,4.06-5.87,0-10.58-1.65-17.81-22.98-13.44-39.64,6.23-89.83,42.93-109.61,2.35-1.27,4.9-2.37,6.94-3.25.28-.12.55-.24.8-.35.31-.02.6-.03.88-.03M1381.44,830.35c-1.04,0-2.18.06-3.4.16-2.07.95-5.99,2.5-9.67,4.48-40.25,21.69-61.6,76.24-46.88,119.65,6.92,20.43,13.2,28.65,25.72,28.65,5.55,0,12.32-1.61,20.92-4.49,12.62-4.22,17.48-13.66,20.54-24.76,3.11-11.3-6.9-13.75-13.57-18.53-26.71-19.14-29.21-48.23-6.37-71.91,6.38-6.61,12.81-13.17,19.02-19.93,2.54-2.76,3.48-6.45,1.61-9.8-1.5-2.7-4.12-3.5-7.92-3.5h0Z"/><path d="M1343.99,531.42c2,0,4.22,3.18,7.14,7.66,1.11,1.7,2.25,3.46,3.53,5.15,6.03,7.99,5.86,17.41,5.66,28.32-.03,1.81-.07,3.61-.07,5.43,0,1.66.12,3.22.23,4.73.15,2.04.33,4.35-.02,5.45-3.2,10.13-6.06,23.14.36,33.97,4.85,8.17,14.09,13.5,28.25,16.27,10.39,2.04,13.02,10.19,16.17,27.03.6,3.22,1.23,6.55,2.02,9.78-.42.55-1.65,1.38-3.37,2.01.13-1.22.18-2.52,0-3.86-1.22-9.57-5.12-17.8-11.3-23.8-.81-.79-1.9-2.12-2.96-3.4-3.89-4.74-8.3-10.12-15.02-10.12h0c-11.15,0-14.01,13.97-15.08,19.23-.23,1.13-.71,3.47-8.76,3.67h-.18c-.06,0-.11,0-.17,0-.31-.97-.58-2.68-.77-3.9-.15-.92-.3-1.87-.49-2.84-2.67-13.72-3.23-27.58-3.83-42.26-.82-20.11-1.66-40.91-8.37-61.42-.87-2.65-2.74-13.96,4.81-16.64.85-.3,1.6-.46,2.19-.46M1343.99,523.07c-1.5,0-3.15.29-4.99.94-12.28,4.37-12.5,19.29-9.94,27.11,11.02,33.67,5.35,68.83,11.94,102.68,1.18,6.08.99,13.5,9.62,13.5.13,0,.25,0,.38,0,7.26-.18,15.05-2.07,16.74-10.34,1.92-9.4,4.32-12.56,6.9-12.56,3.98,0,8.39,7.5,12.16,11.16,5.07,4.92,7.91,11.54,8.84,18.86.54,4.27-4.19,12.02,3.96,12.02.52,0,1.1-.03,1.73-.1,7.15-.75,15.96-5.44,14.09-13.01-4.08-16.47-3.84-39.02-24.72-43.12-25.92-5.08-29.02-18.17-22.26-39.53,1.22-3.86.17-8.44.17-12.69.03-13.37,1.67-26.94-7.28-38.79-5-6.62-8.77-16.13-17.34-16.13h0Z"/><path d="M1614.36-29.92c.35,0,.75.05,1.2.14,7.73,1.57,14,7.8,17.2,17.1.45,1.31.46,3.46.47,5.74,0,1.54.02,3.14.15,4.83.03.35,0,.99,0,1.6-.09,3.04-.32,11.13,7.56,14.8,1.41.66,2.86,1.08,4.32,1.27-18.24,8.66-38.13,17.43-61.72,27.22-1.18.49-2.14.82-2.9,1.04.14-.97.4-2.27.87-3.95,5.61-19.9,15.27-38.66,24.62-56.8.74-1.43,1.41-2.91,2.07-4.35,2.67-5.85,4.27-8.64,6.17-8.64M1614.36-38.27c-9.22,0-11.99,10.39-15.66,17.51-9.72,18.86-19.42,37.7-25.24,58.36-2.86,10.15-1.06,15.01,4.78,15.01,2.24,0,5.08-.72,8.49-2.13,24.13-10.01,48.11-20.49,71.58-31.95,11.32-5.53,16.28-16.54,18.49-31.23-12.08,2.19-15.46,10.17-21.48,14.73-2.63,1.99-4.99,5.28-8.33,5.28-.78,0-1.62-.18-2.53-.6-3.79-1.76-2.48-6.11-2.75-9.48-.33-4.23.28-8.76-1.05-12.63-3.91-11.36-12.03-20.24-23.43-22.56-1.02-.21-1.97-.3-2.86-.3h0Z"/><path d="M1522.65,173.74h0c3.83,0,7.01.92,9.8,2.87-2.71,3.66-5.4,7.33-8.02,10.93-9.54,13.06-19.41,26.57-30.23,38.61-1.84,2.04-7.1,3.35-11.75,4.51-3.51.87-7.13,1.77-10.61,3.16-11.88,4.75-16.99,14.52-19.79,21.45-1.55,3.82-1,7.63-.18,10.82-3.95-1.56-8.8-4.99-12.47-8.99.68-1.41,2.67-3.81,3.81-5.19.82-.99,1.66-2.01,2.45-3.05,1.83-2.43,3.54-4.88,5.19-7.26,6.93-9.95,12.91-18.55,24.94-21.96,14.72-4.17,24.42-18.82,25.32-38.22.14-3.02.94-3.53,1.28-3.74,1.38-.89,4.21-1.34,6.94-1.78,1.84-.3,3.75-.6,5.67-1.09,2.75-.7,5.33-1.05,7.65-1.05M1522.65,165.39c-3.2,0-6.46.49-9.7,1.31-8.17,2.07-19.55.7-20.17,14.33-.63,13.75-6.85,27.05-19.25,30.57-18.21,5.16-24.98,19.55-34.52,32.23-4.11,5.46-11.72,12.16-6.22,18.38,5.67,6.41,15.21,13.13,23.01,13.13.07,0,.13,0,.2,0,11.65-.17,1.44-11.06,3.82-16.93,3.12-7.71,7.48-13.76,15.16-16.83,8.54-3.42,20.04-3.82,25.46-9.84,15.46-17.2,28.48-36.59,42.4-55.02-.78-1.55-1.14-3.06-2.08-4-5.32-5.3-11.57-7.32-18.08-7.32h0Z"/><path d="M710.45,683.61h0,0M709.84,684.62c.17.89.3,1.86.37,2.37.95,7.06,1.38,14.23,1.69,19.45.09,1.52.17,2.86.25,3.98-.2,4.61-.32,8.73-.43,12.37-.22,7.5-.39,13.42-1.1,19.1-1.16,9.36-4.29,9.36-6.8,9.36h-.3c-3.26-.08-4.62-.11-4.42-9.75.34-16.62,4.4-32.64,8.69-49.6.39-1.54.78-3.08,1.17-4.62.32-1.25.62-2.1.88-2.66M710.49,675.36c-.06,0-.12,0-.18,0-5.85.1-8.18,4.87-9.44,9.88-4.64,18.47-9.71,36.92-10.11,56.09-.17,8.54.57,17.99,12.58,18.26.17,0,.33,0,.49,0,10.52,0,14-7.93,15.09-16.67,1.13-9.08.97-18.33,1.6-32.62-.36-4.77-.72-14.66-2.03-24.42-.61-4.56-1.54-10.52-7.99-10.52h0Z"/></svg>