<?xml version="1.0" encoding="UTF-8"?><svg id="a" xmlns="http://www.w3.org/2000/svg" viewBox="0 0 1920 1080"><path d="M900.08-2053.01c11.23,0,23.48.99,38.56,3.1,24.41,3.42,48.88,3.45,72.54,3.48,34.12.04,66.35.07,97.56,9.6,20.74,6.33,39.21,12.34,55.31,21.65,25.27,14.63,40.21,35.2,42.06,57.91,1.97,24.22-11.18,49.83-36.08,70.28-27.81,22.83-58.73,38.73-91.47,55.56-14.71,7.56-29.93,15.38-44.77,23.86-7.08,4.05-9.81,12.89-6.25,20.22,2.67,5.49,8.17,8.73,13.94,8.73,1.94,0,3.91-.37,5.82-1.14,12.8-5.19,25.58-10.41,38.37-15.62,33.8-13.79,68.74-28.04,103.26-41.52,1.62-.63,3.32-1.32,5.05-2.02,6.57-2.66,15.56-6.31,20.41-6.31.31,0,.5.02.61.03,28.47,12.15,58.21,15.43,86.98,18.6,31.11,3.43,60.5,6.67,86.75,20.56,7.68,4.06,14.4,5.96,21.15,5.96,10.6,0,19.2-4.91,26.21-9.72,21.58-14.8,42.49-22.3,62.14-22.3,34.64,0,66.18,24.5,86.54,67.21,14.4,30.22,34.52,53.37,53.98,75.76,5.14,5.91,10.45,12.02,15.53,18.13,9.03,10.85,19.34,16.35,30.66,16.35,9.35,0,18.61-3.74,28.31-11.44,23.51-18.65,46.23-27.33,71.49-27.33,8.06,0,16.61.9,25.43,2.67,8.14,1.64,16.47,2.43,25.49,2.43,20.97,0,41.59-4.43,61.53-8.71,14.67-3.15,28.52-6.12,42.34-7.42,17.27-1.63,23.41-11.54,25.52-19.55,9.63-36.57,32.02-44.06,62.67-44.06,9.93,0,20.3.85,30.33,1.68,3,.25,5.97.49,8.9.71,72.61,5.45,144.55,26.51,208.04,60.93,28.44,15.41,52.86,24.97,86.67,24.97,5.79,0,11.78-.26,18.31-.79,4.78-.39,9.65-.59,14.45-.59,42.39,0,84.25,15.4,117.87,43.35.78.65,1.56,1.29,2.33,1.93,7.13,5.87,13.28,10.94,14.98,16.97,10.87,38.46,34.53,46.54,52.45,46.54,9.39,0,19.53-2.15,31-6.56,7.18-2.76,14.76-4.11,23.18-4.11,6.57,0,13.87.82,22.32,2.5,13.2,2.63,26.59,3.96,39.79,3.96,9.91,0,19.57-.77,28.7-2.28l1.1-.18c17.96-2.97,34.92-5.78,51.31-5.78,33.29,0,56.85,12.08,78.77,40.4,3.02,3.9,7.59,6.01,12.26,6.01,2.35,0,4.73-.54,6.95-1.65,6.62-3.33,9.96-10.87,7.97-18.01-4.37-15.65-12.91-24.23-18.56-29.91-.83-.83-1.85-1.86-2.61-2.69.99-1.93,3.66-4.09,13.35-4.09,1.09,0,2.16.03,3.2.07,5.84.25,11.7.47,17.58.69,60.27,2.26,122.6,4.6,171.62,36.98,85.43,56.41,169.95,110.5,264.55,152.35,22.52,9.96,25.4,15.22,25.77,16.38-.16.64-1.83,5.82-15.91,15.01-4.49,2.92-6.58,7.07-7.66,9.43-10.46,10.43-10.75,25.46-10.96,36.6-.07,3.52-.16,8.54-.72,11.21-.1,0-.21,0-.32,0-.96,0-2.09-.09-3.36-.28-7.65-1.11-17.96-7.92-27.94-14.5-9.23-6.09-18.76-12.39-29.32-16.79-3.56-1.48-7.56-5.02-11.81-8.76-2.07-1.83-4.22-3.72-6.52-5.57-2.52-2.02-5.02-4.17-7.66-6.46-11.99-10.34-25.58-22.07-43.85-22.07-13.08,0-25.65,5.99-38.42,18.32-.47.45-1.87.73-3.66.73-7.43,0-18.65-4.4-25.36-7.03-1.47-.58-2.95-1.17-4.43-1.77-10.67-4.29-22.77-9.16-36.61-9.16-3.02,0-6.04.24-8.98.7-8.75,1.38-31.98,5.06-37.41,28.02-5.05,21.36,12.62,32.55,21.11,37.93,8.17,5.17,16.8,10.82,24.59,17.03,4.83,3.85,7.85,6.61,9.73,8.55-1.82.71-4.34,1.55-7.8,2.42-3.77.95-15.26,3.86-20.52,14.58-5.38,10.95-.34,22.53,1.56,26.89,3.07,7.06,5.36,14.7,7.78,22.8,1.69,5.63,3.43,11.45,5.5,17.25,2.37,6.62,6.78,11.76,10.32,15.89,1.17,1.37,2.78,3.25,3.75,4.62-.76.83-2.01,1.53-5.52,1.53-3.74,0-8.48-.88-13.06-1.73-2.14-.4-4.35-.81-6.56-1.15-6.65-1.04-13.34-1.56-19.88-1.56-45.65,0-80.82,25.54-106.36,47.8-12.13,10.57-23.3,22.15-34.1,33.34-12.2,12.65-23.73,24.6-36.48,35.16-12.75,10.56-24.16,15.92-33.91,15.92-8.77,0-17.16-4.38-25.62-13.39-5.7-6.06-13.82-13.02-26.13-13.02-4.87,0-9.82,1.1-15.16,3.36-58.6,24.84-98.1,99.19-84.53,159.11,13.66,60.32,9.13,98.22-14.68,122.89-22.33,23.15-34.46,48.83-46.18,73.67-5.79,12.27-11.26,23.87-17.88,35.09-7.23,12.27-13.08,15.55-15.39,15.55-2.45,0-9.03-4.03-16.42-19.28-25.07-51.69-38.46-94.25-42.12-133.95-4.38-47.44,5.43-90.87,29.99-132.79,18.42-31.45,45.29-55.46,73.73-80.88,12.48-11.15,25.39-22.69,37.47-34.88,3.27-3.29,6.54-6.57,9.82-9.84,17.21-17.2,35.01-34.98,50.53-54.88,12.54-16.08,11.39-28.12,8.21-35.39-4.65-10.64-15.44-16.74-32.06-18.14l-1.92-.16c-7.21-.61-14.67-1.25-22.3-1.25-13.42,0-24.26,2-34.1,6.3-28.36,12.37-55.07,18.38-81.68,18.38-9.43,0-19.11-.76-28.78-2.25-2.8-.43-5.6-.65-8.31-.65-15.18,0-42.72,7.27-56.54,55.95-11.88,41.85-18.7,60.79-30.2,69.73-11.4,8.86-31.27,10.76-74.41,11.86-11.93.31-24.11.48-35.9.66-63.03.92-128.21,1.88-191.54,22.48-34.78,11.31-58.37,27.83-78.87,55.23-27.11,36.22-62.08,68.44-95.9,99.59-5.11,4.71-10.22,9.41-15.29,14.12-15.11,14.02-22.14,27.46-21.5,41.08.85,18.13,15.07,31.06,25.7,39.21,30.67,23.53,61.22,35.46,90.78,35.46.8,0,1.6,0,2.4-.03.68-.02,1.37-.02,2.03-.02,26.12,0,35.96,10.02,40.51,41.24,12.04,82.56,13.6,151.52-17.92,219.66-13.45,29.07-21.43,60.46-29.15,90.82-1.76,6.9-3.57,14.04-5.41,20.97-7.75,29.24-25.34,47.06-55.34,56.08-4.84,1.46-9.71,3.02-14.42,4.53-16.39,5.26-31.87,10.23-47.09,11.27-54.92,3.77-88.62,45.29-101.84,82.89-16.55,47.04-13.45,103.28,8.5,154.28,13.17,30.61,47.3,32.55,60.16,33.28,2.74.16,4.71.4,6.1.64-.16.43-.35.91-.57,1.44-3.41,5.56-25.75,27.34-59.55,54.46-12.52,10.05-24.5,19.13-35.21,26.76,1.45-12.03.63-23.57-.11-34.01-1.15-16.15-2.14-30.1,3.92-43.2,4.79-10.35,2.9-23.63-5.95-41.8-18.54-38.07-74.47-104.92-105.78-112.29-27.78-6.54-47.82-23.07-65-53.59-2.36-4.19-6.53-7.05-11.29-7.74-.74-.11-1.48-.16-2.22-.16-4,0-7.88,1.55-10.8,4.38-17.63,17.13-15.69,38.4-14.28,53.94,1.19,13.09,1.28,19.21-2.89,22.95-4.48,4.02-11.69,4.36-23.08,4.58-15.55.3-34.91.68-50.88,17.13-5.38,5.55-5.85,14.22-1.1,20.32,10.31,13.22,23.5,19.65,40.33,19.65,7.4,0,14.88-1.2,22.53-2.53,5.15-.9,10-1.35,14.39-1.35,10.48,0,18.28,2.64,21.4,7.25,3.26,4.81,2.71,13.6-1.49,24.11-22.82,57.08-15.07,116.69,22.42,172.41,34.15,50.75,45.31,114.11,31.42,178.42-13.37,61.94-49.59,120.15-99.36,159.71-8.87,7.05-20.06,11.97-27.2,11.97-.45,0-.87-.02-1.26-.06-3.9-.41-7.87-.62-11.78-.62-30.63,0-55.63,12.23-79.81,24.06-11.23,5.49-21.83,10.68-32.78,14.57-18.91,6.71-32.32,20.43-38.76,39.66-6.16,18.38-12.98,37-19.57,55l-.15.41c-1.77,4.84-2.77,9.86-3.65,14.29-2.74,13.8-3.69,13.88-8.94,14.31-.45.04-.9.06-1.33.06-7.66,0-11.55-6.01-13.46-11.04-7.07-18.65-6.71-31.01,1.19-41.32,1.46-1.9,4.87-4.13,8.17-6.29,2.49-1.63,5.07-3.32,7.67-5.34,5.14-4.01,20.8-16.2,12.08-34.93-5.01-10.76-14.89-16.93-27.12-16.93-3.54,0-7.35.52-11.31,1.53-10.32,2.65-41.71,10.72-51.08,44.79-14.93,54.26-5.29,97.28,29.44,131.55,42.96,42.38,60.92,69.03,64.04,95.06,3.12,26.04-7.99,56.52-39.63,108.69-4.87,8.04-10.08,15.77-15.6,23.96-4.1,6.08-8.34,12.37-12.39,18.75-12.73,20.03-27.26,31.07-40.92,31.07-16.4,0-30.4-15.13-39.26-27.82-18.56-26.59-37.76-38.72-66.28-41.84-13.16-1.44-20.17-12.06-30.04-33.83-1.69-3.73-3.23-7.71-4.85-11.93-5.79-15.02-12.35-32.05-29.34-46.41-2.83-2.39-6.38-3.66-10-3.66-1.33,0-2.68.17-4,.52-4.9,1.31-8.85,4.93-10.57,9.7-10.02,27.69-3.57,51.53,2.12,72.56,1.68,6.21,3.27,12.08,4.36,17.76,4.13,21.57,3.78,43.07,3.41,65.84-.16,9.79-.32,19.91-.1,30.04.23,10.11-2.57,10.6-5.27,11.07-.63.11-1.05.13-1.3.13-.06,0-.11,0-.15,0-1.32-1.17-3.52-5.61-4.85-8.3-.72-1.46-1.44-2.91-2.19-4.33-19.36-36.71-19.76-76.43-20.18-118.49-.19-19.03-.39-38.71-2.47-58.19-1.94-18.22-3.64-36.83-5.29-54.84-1.29-14.08-2.62-28.63-4.06-42.97-2.43-24.13-14.66-32.74-24.49-35.72-3.47-1.05-6.63-1.56-9.65-1.56-8.83,0-16.07,4.43-19.86,12.16-2.22,4.52-2.73,9.08-3.13,12.74-.1.86-.23,2.11-.36,2.78-.94,1.9-1.78,3.78-2.6,5.61-3.45,7.71-4.8,9.83-6.28,9.89-.14,0-.28,0-.41,0-1.88,0-7.61,0-14.88-14.46-10.35-20.57-20.13-42.03-29.59-62.79-2.34-5.13-4.67-10.25-7.02-15.37-10.6-23.13-22.61-49.34-44.79-67.94-23.3-19.54-35.45-38-40.64-61.71-4.86-22.25-21.25-37.2-40.77-37.2-11.95,0-22.98,5.75-31.04,16.19-16.85,21.82-38.47,38.15-61.36,55.44-22.18,16.76-45.12,34.09-63.82,57.05-24.58,30.19-51.88,59.36-78.29,87.56-7.91,8.45-16.1,17.2-24.1,25.85-26.92,29.11-36.66,60.43-31.59,101.56,4.67,37.85-2.98,75.55-11.08,115.47-3.45,17.01-7.02,34.6-9.53,52.15-.44,3.04-1.36,4.25-1.56,4.4,0,0-.16.06-.56.06-.45,0-1.41-.08-2.89-.65-2.86-1.09-5.72-2.14-8.56-3.18-24.37-8.92-40.46-14.81-45.31-43.48-8.93-52.78-30.64-101.35-51.65-148.33-14.06-31.45-28.6-63.97-38.84-96.97-7.38-23.77-10.25-47.64-13.3-72.92-2.1-17.41-4.27-35.42-8.04-53.31-2.43-11.53-9.84-46.61-44.32-46.61-6.71,0-13.88,1.38-21.93,4.21-4.26,1.5-8.12,2.23-11.8,2.23-8.96,0-17.54-4.39-29.59-15.16-10.68-9.54-21.8-18.71-32.55-27.58-32.45-26.76-63.1-52.04-83.86-87.7-7.69-13.2-20.62-20.46-36.41-20.46-12.2,0-23.38,4.31-30.6,7.92-9.35,4.67-19.31,6.84-31.35,6.84-11.22,0-22.74-1.85-34.95-3.82-12.93-2.08-26.3-4.23-40.11-4.23-5.42,0-10.47.32-15.45.99-.18.02-.37.04-.54.04-7.02,0-17.74-19.72-22.32-28.14-7.97-14.66-21.75-35.1-49.25-43.27-6.06-1.8-10.78-2.6-15.3-2.6-12.32,0-22.09,6.12-29.04,18.18-10.6,18.38-14.76,18.59-14.8,18.59-1.2,0-6.22-1.04-20.18-14.45-4.88-4.69-9.78-9.37-14.67-14.05-29.67-28.36-60.34-57.68-87.29-88.82-12.07-13.95-25.9-21.03-41.1-21.03-13.94,0-26.16,5.83-36.94,10.98-4.46,2.13-8.67,4.14-12.51,5.5-7.92,2.8-13.72,8.49-16.34,16.02-4.86,13.98,2.63,30.46,9.77,41.81l3.71,5.9c28.57,45.45,58.11,92.45,90.68,136.46,11.3,15.27,28.33,23.35,49.24,23.35,11.2,0,23.63-2.23,38.03-6.8,12.85-4.09,25.6-6.16,37.87-6.16,41.42,0,75.98,23.04,107.16,47.94,26.14,20.88,29.92,49.17,10.1,75.69l-.18.24c-5.92,7.92-12.62,16.89-19.25,20.16-50.84,25.1-93.02,61.97-133.81,97.62-42.94,37.53-83.49,72.98-133.5,96.17-4.26,1.98-8.52,3.96-12.79,5.95-30.6,14.25-62.24,28.98-94.06,40.57-5.9,2.15-11.85,3.28-17.22,3.28-15.55,0-19.37-8.94-20.89-15.66-14.71-64.93-49.25-118.71-82.65-170.73-17.27-26.89-35.13-54.7-49.59-83.25-6.87-13.57-15.24-26.36-23.33-38.73-18.08-27.65-35.16-53.76-35.15-86.42,0-10.37-5.45-24.68-15.56-30.8-26.76-16.18-39.67-42.84-53.33-71.06-10.07-20.8-20.49-42.31-36.97-60.85-3.05-3.43-7.3-5.2-11.59-5.2-3.2,0-6.43.99-9.18,3.02-6.45,4.75-8.21,13.63-4.08,20.48,20.77,34.41,28.27,72.47,36.21,112.77,3.34,16.96,6.8,34.5,11.33,51.71,11.45,43.49,31.62,75.25,61.68,97.07,10.08,7.32,11.9,21,13.51,41.04.26,3.21.53,6.54.86,9.79,6.34,61.13,27.42,104.55,68.36,140.79,30.48,26.98,48.65,66.35,67.6,111.25,9.36,22.16,20.74,39.92,34.79,54.29,8.49,8.69,17.9,13.29,27.21,13.29,6.21,0,17.95-2.19,26.76-16.89,4.36-7.27,7.87-8.5,14.09-8.5,4.13,0,9.12.74,13.89,1.54,9.46,1.58,19.14,2.38,28.76,2.38,24.64,0,50.27-5.27,76.2-15.66,10.28-4.12,16.63-4.99,20.14-4.99,4.74,0,6.16,1.47,6.76,2.1,1.83,1.9,5.99,8.6,5.17,29.74-1.42,36.7-16.66,71.13-31.4,104.43l-2.78,6.3c-27.14,61.56-54.75,113.03-84.4,157.34-16.23,24.25-39.61,40.72-64.36,58.15-20.26,14.27-41.2,29.02-58.68,48.69-4.37,4.92-8.76,9.81-13.16,14.69-31.89,35.47-64.87,72.15-85.82,118.19-24.56,53.96-23.24,100.67,4.02,142.79l.83,1.28c2.36,3.63,7.24,11.15,7.4,14.03-4.39,46.91,4.26,92.11,12.62,135.82,7.53,39.36,14.64,76.53,13.02,114.86-.82,19.58-15.4,44.36-38.04,64.66-22.79,20.45-50.12,33.15-71.32,33.15-2.55,0-5.03-.18-7.36-.54-5.37-.82-10.48-1.24-15.2-1.24-22.33,0-33.63,9.31-39.17,17.12-9.05,12.74-9.76,30.29-2.12,52.15,3.03,8.67,6.2,17.4,9.27,25.84,7.02,19.32,14.29,39.29,19.99,59.07,4.38,15.2,4.19,27.17-.57,35.59-4.12,7.29-12.33,12.6-24.39,15.81-43.95,11.68-59.2,45.69-66.84,70.26-23.01,73.95-60.42,143.53-114.38,212.73-39.23,50.31-80.64,73.85-134.28,76.32-35.25,1.62-68.72,12.58-101.08,23.17l-6.43,2.1c-9.5,3.1-18.29,4.67-26.12,4.67-11.32,0-20.03-3.24-25.89-9.63-7.47-8.15-10.61-21.67-9.08-39.12,5.19-59.41-15.46-108-36.35-147.7-46.12-87.66-64.48-158.41-59.5-229.4,1.79-25.56-9.41-45.65-19.29-63.37-1.38-2.47-2.76-4.95-4.11-7.44-6.83-12.63-14.35-24.97-21.62-36.91-17.27-28.36-33.59-55.14-41.63-85.8-9.64-36.75-5.02-72.87,13.73-107.35,30.42-55.95,37.2-114.33,20.73-178.46-5.14-20.02-6.35-41.18-7.63-63.59-.9-15.8-1.83-32.14-4.27-48.28-8.66-57.43-33.22-101.25-75.09-133.98-49.55-38.73-55.18-80.31-17.72-130.85,22.84-30.81,12.59-60.3,4.36-84-.97-2.78-1.94-5.58-2.87-8.39-10.24-31-35.5-31.98-52.22-32.63-2.31-.09-4.49-.17-6.62-.32-34.21-2.3-58.51-9.3-73.95-37.04-9.31-16.73-24.09-25.95-41.6-25.95-9.87,0-20.24,2.91-30.83,8.66-5.36,2.91-10.98,5.77-16.41,8.54-7.33,3.73-14.91,7.59-22.33,11.79-27.05,15.31-49.19,22.14-71.81,22.14-7.35,0-14.96-.75-22.61-2.22-13.11-2.52-26.91-3.8-41.03-3.8-42.3,0-83.34,11.62-110.53,20.35-9.58,3.08-18.69,4.64-27.06,4.64-20.15,0-38.2-8.92-56.8-28.07-63.77-65.65-104.94-122.04-133.48-182.85-7.93-16.89-21.54-27.38-33.55-36.64-6.98-5.38-13.58-10.47-18.67-16.37-27.24-31.57-33.28-57.38-20.83-89.07,24.16-61.52,26.01-128.54,5.81-210.92-10.1-41.19,11.75-79.23,32.89-116.01,2.52-4.39,5.03-8.76,7.47-13.09,27.52-48.98,60.13-98.72,111.97-130.79,23.34-14.43,36.93-37.5,41.57-70.5,5.06-36.05,16.92-61.13,38.45-81.3,12.35-11.57,22.4-27.82,26.9-43.48,17-59.15,39.9-82.19,81.67-82.19,6.07,0,12.63.52,19.49,1.53.76.11,1.52.17,2.27.17,5.61,0,10.86-3.05,13.6-8.08,3.11-5.71,2.33-12.75-1.96-17.63-17.06-19.45-37.19-24.26-54.95-28.51-3.01-.72-5.85-1.4-8.64-2.14-27.55-7.31-41.26-13.88-48.91-23.43-7.66-9.57-11.1-24.45-12.29-53.07-.52-12.5-1.05-24.99-1.58-37.49-1.34-31.65-2.72-64.38-3.91-96.55-1.06-28.73,4.86-50.23,17.6-63.93,12.45-13.38,32.72-20.66,60.24-21.64,24.46-.87,48.74-3.45,72.22-5.95,10.07-1.07,20.49-2.18,30.71-3.13,22.13-2.05,39.03-11.38,47.58-26.26,8.03-13.97,7.84-31.6-.53-49.64-15.09-32.52-34-64.03-56.21-93.66-11.34-15.13-28.16-15.13-33.68-15.13-4.91,0-9.7.48-14.33.95-4.07.41-7.92.8-11.33.8-1.45,0-2.7-.07-3.81-.21-3.57-.46-7.09-.52-9.77-.52-1.35,0-2.72.02-4.09.04-1.24.02-2.49.03-3.73.03-5.43,0-7.63-.44-8.5-.75-.09-.27-.2-.69-.29-1.33-.57-3.75-.86-5.63,17.44-12.52,2.36-.89,4.8-1.81,7.18-2.79,10.19-4.2,21.49-6.42,32.7-6.42,5.67,0,11.28.56,16.67,1.66,8.46,1.73,16.88,2.61,25.04,2.61,44.87,0,77.98-26.08,108.06-52.79,23.94-21.26,47.8-43.31,70.87-64.62,8.48-7.83,16.96-15.67,25.46-23.48.89-.82,2.16-1.82,3.51-2.87,5.22-4.09,12.37-9.7,14.59-18.84,13.33-54.8,56.79-83.21,102.8-113.29l3.9-2.55c6.15-4.02,7.69-10.31,8.61-14.07.31-1.25.62-2.55,1.08-3.92,1.47-4.4.89-9.22-1.58-13.15-2.47-3.93-6.56-6.54-11.16-7.13-2.14-.27-4.33-.4-6.69-.4-4.72,0-9.14.53-13.41,1.03-3.49.42-6.79.81-9.61.81-4.72,0-6.64-.92-8.93-4.29-4.85-7.14-3.52-12,1.85-25.16,1.78-4.38,3.63-8.9,5.05-13.89,2.36-8.31,3.48-16.58,4.56-24.57,1.18-8.74,2.3-17,4.92-24.04,3.51-9.44,6.97-12.08,7.68-12.23,1.19,0,5.78,1.78,12.69,9.92,8.75,10.31,11.07,23.41,13.21,39.48,4.57,34.38,14.22,79.49,48.6,123.56,2.97,3.81,7.5,5.96,12.22,5.96,1.08,0,2.17-.11,3.25-.35,5.81-1.25,10.39-5.7,11.8-11.47,7.74-31.68,5.93-53.09-6.24-73.89-15.27-26.08-30.29-54.37-31.77-88.08-1.62-37.13-25.4-50.37-47.11-50.37-10.04,0-21.01,2.68-31.73,7.76-7.13,3.38-13.25,5.09-18.17,5.09-8.05,0-15.16-4.37-25.71-26.1-21.61-44.5-27.11-91.55-16.36-139.86,3.73-16.74,18.08-30.23,38.38-36.07,40.04-11.51,63.71-39.97,78.03-60.38,8.05-11.47,19.75-19.49,32.13-27.98,13.32-9.13,27.09-18.57,38.34-33.22,28.47-37.07,41.38-71,40.63-106.79-.9-43.07,26.89-64.66,59.07-89.65,1.64-1.27,3.28-2.55,4.92-3.83,2.29-1.79,6.35-3.48,10.28-5.11,7.91-3.29,16.88-7.02,23.09-15.32,27.58-36.91,66.21-54.69,121.58-55.95,9.81-.22,24.29-3.88,32.8-13.46,23.13-26.04,48.53-38.17,79.94-38.17,28.01,0,58.32,9.65,87.64,18.99,8.07,2.57,16.42,5.23,24.66,7.67,24.36,7.22,48.42,23.38,70.8,39.77,50.21,36.78,108.54,60.49,173.38,70.46,35.09,5.4,45.35,15.89,42.2,43.2-.94,8.19,1.51,15.58,3.47,21.51.78,2.35,1.52,4.58,1.9,6.41,5.02,23.94,4.94,38.67-.23,45.03-4.49,5.53-16.47,8.33-35.62,8.33-2.8,0-5.83-.06-9-.18-17.55-.65-41.58-1.54-53.2-12.98-15.11-14.88-31.49-22.12-50.07-22.12-18.22,0-36.68,7.06-54.53,13.88-5.79,2.21-9.71,7.67-9.95,13.87-.24,6.2,3.24,11.94,8.84,14.6,16.85,8,26.7,21.41,37.12,35.61,7.62,10.38,15.5,21.11,26.34,30.1,1.9,1.57,5.85,4.85,1.84,14.72-7.53,18.51-.9,37.48,17.29,49.52,4.71,3.11,9.57,4.69,14.47,4.69,11.94,0,18.63-8.9,22.23-13.68.66-.88,1.63-2.17,2.15-2.72,17.83-11.45,40.84-31,37.48-68.72-.55-6.18.64-9.28,1.35-10.05.49-.54,2.11-.89,4.12-.89s4.53.34,7.32,1.01c8.7,2.1,16.79,3.16,24.03,3.16,15.35,0,27.67-4.65,36.64-13.81,10.26-10.48,15.23-26.27,14.79-46.93-.1-4.71,1.22-10.29,2.63-16.2,1.26-5.29,2.56-10.77,3.16-16.7.27-2.64.67-4.33.99-5.34,1,.14,2.6.49,4.92,1.31,18.1,6.41,34.44,9.53,49.96,9.53,37.17,0,68.03-18.05,94.35-55.17,9.08-12.81,26.36-21.74,44.65-31.21,8.62-4.46,17.54-9.07,25.86-14.27.29-.18.57-.35.83-.5,13.56,5.49,27.69,8.16,43.06,8.16,19.59,0,38.35-4.35,56.49-8.56,11.37-2.64,22.1-5.13,33.02-6.63l8.52-1.17c34.47-4.77,70.1-9.69,105.94-9.69,7.07,0,14.04.2,20.71.58.3.02.6.03.9.03,6.93,0,13.08-4.63,14.93-11.39,1.94-7.05-1.32-14.49-7.81-17.86-22.54-11.68-43.2-25.91-65.08-40.98-5.74-3.95-11.52-7.93-17.38-11.89,57.95,15.13,110.71,44.61,165.61,75.29,32.3,18.05,65.69,36.71,100.36,52.28,2.02.91,4.19,1.36,6.35,1.36,2.55,0,5.1-.63,7.41-1.88,4.25-2.31,7.18-6.48,7.91-11.26,5.63-36.71-16.45-58.74-36.31-73.82-17.13-13.01-17.1-25.33-12.75-54.69,7.64-51.63,43.14-79.03,80.72-108.05,12.82-9.9,26.08-20.14,38.3-31.44,2.24-2.08,4.7-3.13,7.3-3.13,3.49,0,7.24,1.87,10.55,5.27,3.63,3.73,7.67,6.72,11.58,9.61,11.44,8.46,11.09,9.24,9.18,13.52-26.04,58.51-15.67,115.9-5.64,171.4.96,5.31,1.92,10.61,2.84,15.91.35,2,.71,4,1.06,6,7.11,39.8,9.05,59.51-24.14,72.55-8.63,3.39-13.96,10.43-18.25,16.09-.68.89-1.34,1.77-2.01,2.61l-.99,1.23c-4.88,6.05-17.84,22.13-5.14,38.63,5.02,6.52,11.93,10.11,19.47,10.11,9.55,0,16.96-5.67,21.87-9.41l.89-.68c17.06-12.93,37.1-28.29,56.45-44.27,23.75-19.61,29.22-48.65,15-79.66-11.38-24.83-11.88-51.53-12.41-79.8-.32-17.06-.65-34.69-3.48-52.32-.73-4.53.52-8.61,3.82-12.48,6.12-7.19,17.88-11.83,29.95-11.83,6.35,0,12.61,1.3,18.1,3.75,1.2.54,2.38,1.07,3.54,1.6,8.67,3.95,17.64,8.04,27.74,8.04,13.13,0,24.42-6.71,34.53-20.52,1.57-2.14,2.19-2.14,2.55-2.14,2.84,0,8.22,2.3,12.97,4.34,8.09,3.46,17.26,7.39,27.72,7.39,7.31,0,13.62-5.11,15.15-12.25,4.72-22.08-7.63-33.51-14.27-39.65-1.32-1.22-2.56-2.37-3.44-3.35-8.84-9.91-12.9-18.78-11.44-24.97,1.46-6.18,9.04-12.29,21.36-17.2,18.16-7.24,36.15-10.92,53.49-10.92,13.44,0,26.9,2.21,39.99,6.56l1.6.54c5.93,2,12.65,4.26,20.06,4.26,12.37,0,22.39-6.54,28.22-18.42,6.3-12.85,3.4-22.69-.15-28.68-3.75-6.34-9.43-10.45-13.99-13.75-1.75-1.27-3.4-2.46-4.6-3.53-3.35-2.99-6.99-5.47-10.51-7.86-3.24-2.21-8.6-5.85-9.72-7.8,0-.03.01-.06.02-.1.64-.08,1.64-.16,3.18-.16s3.25.07,5.06.15c2.07.09,4.21.18,6.45.18,5.22,0,9.44-.54,13.28-1.68,32.01-9.58,64.33-25.97,98.81-50.1,8-5.6,16.57-7.69,26.49-10.11,3.88-.95,7.9-1.93,12.08-3.17,25.22-7.46,50.98-10.76,78.25-14.25,26.63-3.41,54.18-6.93,81.09-14.7,1.18-.34,2.39-.67,3.6-1,10.42-2.86,24.69-6.78,32.82-20.05,18.75-30.6,45.44-44.25,86.52-44.25M-1331.56-831.55c17.46,0,32.41-6.55,43.24-18.93,12.1-13.85,27.18-24.75,48.89-35.35,26-12.69,39.05-32.34,41.07-61.84,1.84-26.93,6.56-42.9,15.75-53.41,8.91-10.18,23.76-17.01,49.67-22.85.75-.17,1.51-.34,2.27-.5,6.56-1.43,13.99-3.06,20.92-7.29,6.36-3.88,25.7-15.68,25.8-37.35.07-14.55-7.98-21.33-12.78-24.09-5.93-3.4-12.19-3.97-17.22-4.44-1.59-.15-3.99-.37-4.78-.62-2.81-.89-5.61-1.82-8.43-2.75-12.78-4.21-25.99-8.57-40.07-10.31-25.66-3.17-48.23-24.38-57.49-54.04-7.15-22.9-6.37-54.89,17.28-75.97,14.7-13.11,27.12-27.83,40.26-43.41,5.89-6.98,11.98-14.21,18.35-21.34,3.53-3.96,4.79-9.44,3.35-14.55-1.45-5.1-5.4-9.11-10.49-10.62-6.13-1.83-12.06-2.75-17.64-2.75-11.59,0-22.1,4.04-30.4,11.68-14.94,13.76-31.3,25.54-48.62,38-23.62,17-48.05,34.58-68.64,57.67-13.97,15.66-26.37,35.72-12.39,65.75,16.06,34.51-.78,62.38-12.24,75.92-28.35,33.48-40.61,70.36-38.59,116.07.82,18.57,1.1,42.95-4.11,66.82l-.57,2.59c-3.54,15.89-10.91,48.97,21.32,60.6,13.66,4.93,25.53,7.33,36.29,7.33M-413.43-35.5c9.17,0,19.9-2.97,34.79-9.64,6.93-3.1,12.8-4.67,17.44-4.67s9.51.94,14.06,12.17c2.59,6.38,10.46,25.79,28.1,25.79,11.66,0,19.77-8.69,26.28-15.68,1.16-1.24,2.34-2.51,3.54-3.73,18.74-19,20.37-41.88,4.49-62.78-17.3-22.77-23.23-48.78-18.65-81.84,5.67-40.93-9.02-77.06-41.38-101.73-22.41-17.08-33.54-39.72-38.4-78.11-3.32-26.19-.19-32.07.84-33.25.62-.7,3.02-1.52,7.77-1.52,5.84,0,13.84,1.19,24.47,3.65,1.16.27,2.33.4,3.49.4,3.52,0,6.98-1.2,9.76-3.46,3.71-3.01,5.82-7.56,5.73-12.34-.32-15.94-1.28-64.47-44.66-64.47-1.9,0-3.88.1-5.9.29-35.32,3.34-69.19,22.52-92.91,52.61-22.77,28.89-33.13,64.48-28.42,97.65,5.16,36.25,22.85,66.77,37.7,89.3,2.04,3.09,4.12,6.18,6.21,9.26,21.99,32.53,34.45,54,14.55,84.33-7.09,10.8-5.99,23.89-5.02,35.44.25,3.04.49,5.92.55,8.43.34,14.73,1.24,53.87,35.57,53.87M-796.51-441.05c-.98-.03-1.95-.04-2.89-.04-17.45,0-29.94,5.18-37.13,15.4-7.92,11.27-8.15,26.82-.7,47.54.64,1.77,1.34,3.6,2.06,5.46,6.24,16.16,5.06,17.84,1.54,20.4-1.99,1.45-3.29,1.63-4.2,1.63-4.69,0-11.96-5.13-17.8-9.25-1.08-.76-2.14-1.51-3.18-2.23-8.68-6-17.92-10.66-26.85-15.16-18.34-9.25-34.18-17.24-42.32-34.48-4.69-9.94-13.13-15.64-23.15-15.64-5.79,0-11.78,1.89-18.33,5.78-54.72,32.49-85.28,117.24-64.11,177.81,5.99,17.13,18.44,26.56,35.06,26.56,3.23,0,6.67-.37,10.22-1.1,10.14-2.09,20.4-4.27,30.32-6.39,40.8-8.68,82.99-17.67,125.32-21.85,6.45-.64,11.17-.92,15.29-.92,12.35,0,20.16,2.64,29.87,10.09,21.54,16.53,50.87,35.5,86.73,35.5,3.68,0,7.42-.2,11.11-.6,12.72-1.36,30.45-4.89,37.5-19.72,5.84-12.29.5-24.96-5.01-33.41-4.92-7.56-9.4-15.56-14.13-24.03-12.8-22.9-26.04-46.57-49.32-62.98-29.03-20.46-38.86-37.67-36.25-63.48,1.14-11.25-1.31-20.29-7.26-26.88-3.77-4.17-10.69-9.13-22.27-9.13-3.16,0-6.56.38-10.13,1.13M-1375.32-112.3c-1.1-.98-2.62-2.48-4.68-4.78-2.29-2.57-2.51-6.48-2.45-14.81.02-3.17.04-6.46-.2-9.94-1.81-25.38-5.56-78.2-74.19-79.49-24.85-.47-56.9-2.69-84.44-15.82-2.11-1.01-4.39-1.51-6.66-1.51-2.74,0-5.47.73-7.9,2.17-4.44,2.63-7.28,7.31-7.57,12.46-.34,6.05-.45,11.88-.57,17.51-.22,11.26-.44,21.9-2.44,31.45-2.74,13.03-10.14,15.61-34.18,17.7-1.82.16-3.63.32-5.41.49-.55.05-1.12.08-1.7.08-5.69,0-10.39-2.37-11.83-3.9,6.49-21.79,1.86-41-2.24-57.96-2.5-10.37-4.87-20.17-4.43-29.48.26-5.55-.3-10.95-.84-16.18-1.47-14.18-.77-16.87,2.38-18.74.49-.29.92-.47,1.12-.47,2.16,0,7.62,3.95,11.23,6.57,4.68,3.38,9.98,7.22,16.1,9.73,2.36.97,4.93,1.46,7.62,1.46,2.39,0,4.39-.38,5.86-.65.29-.05.57-.11.85-.15,5.2-.48,9.81-3.55,12.26-8.18,2.46-4.65,2.4-10.24-.18-14.83-12.87-22.96-28.7-47.45-53.84-47.45-16.71,0-32.61,11.25-45.95,22.26-8.37,6.91-13.6,7.7-16.8,7.7-2.41,0-4.91-.53-7.65-1.62-5.85-2.34-11.68-3.53-17.33-3.53-11.65,0-22.34,4.89-31.76,14.54-4.25,4.35-8.79,8.73-13.18,12.97-17,16.41-34.59,33.39-45.63,57.31-25.19,54.55-54.13,111.1-106.02,150.41-7.65,5.79-13.9,14.61-16.73,23.58-.54,1.7-1.31,3.65-2.13,5.71-4.11,10.34-11.77,29.59,6.54,46.67,7.61,7.1,16.34,10.7,25.94,10.7s18.02-3.63,24.36-6.8c7.29-3.64,14.86-7.22,22.19-10.69,17.64-8.35,35.88-16.99,52.99-27.64,26.21-16.31,52.75-24.24,81.15-24.24,45.75,0,91.94,21.26,131.65,41.19,3.18,1.59,5.47,2.75,5.45,15.44-.09,59.39,14.99,68.48,62.67,88.27l3.94,1.64c18.89,7.86,38.57,14.43,57.6,20.79,50.17,16.76,97.56,32.6,133.51,70.48,6.46,6.8,16.53,15.84,29.41,15.84,16.83,0,27.11-15.11,33.26-24.15,19.49-28.64,31.91-34.51,44.56-34.51,8.74,0,19.51,2.99,32.93,9.14,48.24,22.1,101.27,32.39,166.91,32.39,30.03,0,59.86-2.06,87.63-4.29,34.28-2.75,56.09-18.9,66.66-49.39,12.99-37.47,33.45-69.96,60.81-96.55,22.03-21.41,24.86-43.09,22.33-69.06-.56-5.79-4.33-10.78-9.74-12.92-1.84-.73-3.77-1.08-5.68-1.08-3.71,0-7.37,1.33-10.25,3.88-14.69,12.96-29.14,19.63-44.15,20.4-4.39.22-8.9.34-13.41.34-47.28,0-93.75-12.05-141.16-25.47-27.38-7.75-55.42-34.64-71.44-68.51-10.06-21.27-23.85-50.4-56.74-59.15l-1.74-.47c-7.94-2.13-16.95-4.54-25.98-4.54-20.71,0-34.4,13.21-37.56,36.25-3.63,26.46-9.93,30.73-23.58,30.73-1.11,0-2.29-.04-3.5-.12-35.16-2.3-52.37-7.62-61.44-33.05-15.4-43.17-33.03-84.92-52.41-124.07-7.07-14.3-18.43-24.93-29.42-35.21-12.46-11.67-24.24-22.69-28.74-38.03-4.05-13.77-15.02-22.66-27.94-22.66-5.92,0-17.28,2.05-26.88,15.81-12.6,18.06-8.94,44.23-1.31,62.68,9.19,22.23,24.76,37.31,41.66,40.35,11.06,1.99,31.79,19.78,47.32,46.13,12.48,21.17,15.65,37.75,13.26,44.8-6.01,17.7-17.47,34.97-28.56,51.67l-1.58,2.39M452.74-1894.77h.01-.01M-675.3-1447.91h.01-.01M-808.21-1272.28h.01-.01M-1581.84-266.56h.01-.01M900.08-2068.5c-38.42,0-74.82,11.01-99.73,51.64-5.61,9.16-17.23,11.29-27.51,14.26-52.13,15.05-107.19,13.52-159.43,28.97-14.85,4.39-29.07,5.65-43.06,15.44-28.92,20.23-60.08,37.68-94.37,47.95-2.71.81-5.72,1.03-8.84,1.03-3.8,0-7.75-.33-11.51-.33-8.04,0-15.19,1.51-17.97,11-4.79,16.29,14.36,22.78,24.68,31.99,8.53,7.61,22.61,12.35,15.14,27.57-3.65,7.43-8.73,9.75-14.31,9.75s-11.28-2.18-16.77-4c-15.07-5.01-30.04-7.35-44.88-7.35-20.01,0-39.79,4.27-59.23,12.02-35.74,14.26-40.96,38.6-15.73,66.88,6.73,7.55,17.73,12.56,14.12,29.45h0c-14.11,0-28.24-11.73-40.68-11.73-5.38,0-10.45,2.2-15.05,8.49-7.75,10.59-14.81,14.18-22.03,14.18-7.78,0-15.75-4.18-24.96-8.29-7.84-3.5-16.22-5.09-24.42-5.09-27.5,0-52.97,17.94-49.07,42.26,7.26,45.21-2.97,92.33,17.1,136.12,9.73,21.23,9.91,44.16-10.79,61.26-18.27,15.09-37.05,29.56-55.94,43.87-3.95,2.99-8.73,6.94-13.39,6.94-2.47,0-4.92-1.11-7.19-4.06-5.66-7.36,1.19-14.74,5.98-20.77,4.08-5.13,8.2-11.72,13.79-13.91,49-19.24,39.41-57.04,32.67-95.63-10.36-59.34-24.79-118.85,1.69-178.35,9.72-21.85-12.74-28.87-23.82-40.25-6.41-6.58-14.11-9.95-21.65-9.95-6.34,0-12.57,2.38-17.82,7.25-47.47,43.92-112.46,71.86-123.82,148.59-4.34,29.32-6,50.53,18.71,69.3,19.02,14.44,34.62,31.45,30.37,59.13-115.68-51.94-214.86-137.83-348.41-139.42,55.2,24.17,98.92,65.39,151.43,92.61-7.23-.42-14.43-.61-21.61-.61-39.91,0-79.01,5.86-116.57,11.01-29.68,4.07-58.12,15.04-87.4,15.04-13.44,0-27.07-2.31-41.06-8.67-.48-.22-1.03-.31-1.65-.31-2.8,0-6.74,2.01-9.39,3.67-25.62,16.01-58.77,26.85-74.94,49.66-23.73,33.48-50.29,48.64-81.71,48.64-13.91,0-28.78-2.97-44.78-8.64-4.31-1.53-8.04-2.3-11.23-2.3-9.21,0-13.94,6.4-15.27,19.35-1.2,11.7-6.12,23.27-5.87,34.82.7,32.29-13.43,44.9-35.93,44.9-6.21,0-13.05-.96-20.4-2.73-4.08-.98-7.72-1.44-10.95-1.44-16.5,0-22.32,12.01-20.91,27.81,2.4,26.92-11.11,41.98-30.77,54.53-5.56,3.55-8.73,13.71-15.65,13.71-1.71,0-3.65-.62-5.92-2.12-10.08-6.67-16.9-17.47-11.49-30.76,5.11-12.56,3.68-24.21-6.3-32.48-23.75-19.69-33.04-51.79-66.7-67.77,18.3-7,34.09-12.86,49-12.86,13.4,0,26.07,4.74,39.2,17.66,15.37,15.14,40.9,16.59,63.5,17.42,3.34.12,6.53.19,9.58.19,50.8,0,62.41-17.67,51.01-72.04-1.62-7.72-5.99-15.61-5.14-22.97,4.83-41.96-19.64-54.81-55.24-60.28-60.68-9.33-116.43-30.91-166.58-67.64-23.18-16.98-48.51-34.12-75.55-42.13-38.68-11.46-78.24-27.3-116.7-27.3-31.63,0-62.5,10.71-91.52,43.37-4.6,5.17-14.21,8.09-21.57,8.26-53.79,1.23-99.91,17.02-133.64,62.17-6.42,8.59-21.29,10.32-30.49,17.49-35,27.32-71.07,52.68-69.95,106.02.75,35.7-14.45,67.12-37.42,97.03-20.08,26.15-52.08,34.98-70.86,61.74-17.07,24.32-38.05,45.31-69.63,54.39-22.82,6.56-43.74,22.94-49.23,47.59-11.46,51.48-5.7,102.13,17.54,149.99,9.66,19.91,20.56,34.83,39.65,34.83,7.04,0,15.19-2.03,24.8-6.58,8.49-4.02,17.16-6.27,25.09-6.27,16.96,0,30.53,10.29,31.63,35.55,1.58,36.17,16.6,65.72,33.87,95.23,10.62,18.15,10.9,36.45,4.56,62.38-29.44-37.73-40.15-76.08-45.46-116.07-2.32-17.42-5.16-33.8-16.76-47.46-8.67-10.22-17.02-15.39-24.5-15.39-8.93,0-16.64,7.37-22.2,22.32-5.82,15.64-5.25,33.54-9.86,49.77-4.9,17.24-17.9,32.73-4.81,52,6.07,8.93,13.65,11.08,21.74,11.08,7.5,0,15.44-1.84,23.02-1.84,1.6,0,3.18.08,4.74.28-1.78,5.33-1.83,8.85-3.47,9.92-48.65,31.85-98.08,62.73-113.27,125.15-1.32,5.44-8.7,9.53-13.53,13.97-31.97,29.39-63.67,59.09-96.13,87.92-28.84,25.62-58.25,48.88-97.76,48.88-6.98,0-14.27-.73-21.93-2.29-6.39-1.31-13.03-1.98-19.77-1.98-12.9,0-26.15,2.45-38.61,7.59-15.74,6.49-37.22,11.05-34.03,31.97,2.13,13.92,12.82,15.23,24.11,15.23,2.61,0,5.25-.07,7.82-.07,2.71,0,5.34.08,7.79.39,1.88.24,3.82.34,5.79.34,8.35,0,17.38-1.75,25.65-1.75,8.34,0,15.92,1.78,21.28,8.93,21.12,28.17,39.73,58.95,54.55,90.89,13.77,29.68-1.82,50.93-34.43,53.95-33.99,3.16-67.71,7.81-102.05,9.03-65.39,2.32-95.16,36.9-92.77,101.62,1.65,44.71,3.63,89.41,5.49,134.11,2.48,59.8,15.09,75.55,72.71,90.84,19.1,5.07,39.55,7.23,55.92,25.89-7.76-1.15-14.99-1.7-21.76-1.7-58.31,0-81.48,40.96-96.56,93.41-3.83,13.32-12.46,26.94-22.6,36.45-26.58,24.9-38.3,55.54-43.2,90.45-3.38,24.06-12.16,45.74-34.37,59.48-53.43,33.05-87.85,83.9-117.33,136.38-23.94,42.6-54.77,87.87-41.89,140.38,16.79,68.49,20.84,135.29-5.19,201.57-16.18,41.19-3.75,73.26,23.52,104.86,15.52,17.99,39.47,27.19,49.93,49.47,33.42,71.19,82.01,131.07,136.4,187.06,20.5,21.11,42.22,32.76,67.91,32.76,9.95,0,20.5-1.75,31.8-5.38,34.37-11.04,70.03-19.61,105.79-19.61,12.71,0,25.43,1.08,38.1,3.52,8.86,1.7,17.34,2.49,25.54,2.49,28.75,0,54-9.75,79.44-24.15,12.61-7.13,25.76-13.29,38.5-20.2,8.12-4.4,16.08-6.78,23.44-6.78,11.27,0,21.15,5.57,28.06,17.99,19.44,34.93,51.14,42.59,86.45,44.96,18.14,1.22,37.27-1.54,45.16,22.34,8.69,26.32,20.94,51.08.77,78.3-41.89,56.53-35.93,108.08,20.63,152.29,41.43,32.38,61.85,74.59,69.31,124.08,5.67,37.6,2.85,76.98,12.21,113.42,15.27,59.43,9.66,113.89-19.33,167.21-20.33,37.38-25.93,77.4-15.11,118.68,12.23,46.63,42.13,84.57,64.61,126.14,10.66,19.72,23.26,38.27,21.58,62.36-6.02,85.98,22.12,163.33,61.25,237.69,22.94,43.6,39.14,87.52,34.63,139.14-3.68,42.12,16.48,65.59,50.41,65.59,9.33,0,19.71-1.78,30.92-5.43,33.9-11.05,68.03-22.9,103.42-24.53,63.42-2.92,108.13-33.98,145.78-82.27,51.53-66.09,92.05-137.62,116.96-217.66,9.14-29.37,24.23-51.44,56.03-59.89,37.34-9.92,45.56-37.07,35.87-70.66-8.36-29-19.55-57.2-29.52-85.73-10.92-31.23-1.03-48.66,26.66-48.66,3.93,0,8.21.35,12.85,1.06,3.17.49,6.41.72,9.72.72,53.48,0,122.69-61.4,124.84-112.66,3.56-84.62-33.69-164.88-25.68-249.99.75-7.99-5.74-17.45-10.66-25.07-27.31-42.2-22.46-85.02-2.93-127.95,22.74-49.97,60.54-88.58,96.46-129,36.98-41.62,92.48-60.9,124.34-108.51,33.83-50.55,61.36-104.5,85.7-159.7,16.25-36.84,33.86-74.33,35.49-116.38,1.23-31.79-7.25-47.94-27.42-47.94-7.14,0-15.75,2.03-25.91,6.1-23.18,9.29-46.65,14.55-70.43,14.55-8.69,0-17.43-.7-26.21-2.17-5.94-.99-11.4-1.75-16.45-1.75-10.95,0-19.91,3.57-27.38,16.03-4,6.68-8.68,9.36-13.47,9.36-5.5,0-11.15-3.53-16.12-8.62-13.86-14.18-23.74-30.89-31.59-49.49-17.94-42.51-37.51-86.63-71.6-116.82-41.1-36.39-57.86-79.15-63.22-130.78-2.25-21.65-1.34-47.72-20.69-61.76-31.11-22.58-46.91-54.7-55.8-88.47-14.89-56.59-17.77-116.36-49.26-168.54,37.15,41.78,42.28,103.67,93.86,134.87,4.65,2.81,8.08,11.55,8.08,17.53-.02,53.15,38.45,89.31,60.15,132.15,42.5,83.92,109.3,154.8,130.95,250.4,4.52,19.94,19.34,27.73,36,27.73,7.39,0,15.15-1.53,22.52-4.22,36.85-13.41,72.42-30.49,108.06-47.02,101.74-47.19,167.34-144.43,267.65-193.96,10.04-4.96,17.95-15.61,24.97-25.02,25-33.46,19.85-70.96-12.85-97.08-35.78-28.58-72.82-51.33-116.83-51.33-13.48,0-27.62,2.13-42.57,6.89-10.47,3.33-22.12,6.07-33.33,6.07-14.01,0-27.33-4.29-36.78-17.07-33.6-45.41-63.62-93.52-93.72-141.39-6.35-10.09-15.8-29.88-1.38-34.98,14.09-4.98,28.79-15.6,44.28-15.6,9.49,0,19.27,3.98,29.38,15.67,31.83,36.79,67.77,70.12,102.94,103.91,12.97,12.46,22.53,18.78,30.92,18.78,9.83,0,18.04-8.69,28.22-26.35,4.45-7.72,9.48-10.42,15.62-10.42,3.28,0,6.89.77,10.9,1.96,19.31,5.73,30.98,19.13,40.05,35.81,8.55,15.73,19.76,36.24,35.93,36.24.85,0,1.72-.06,2.6-.17,4.47-.6,8.92-.85,13.38-.85,25.12,0,50.11,8.04,75.06,8.04,12.77,0,25.53-2.11,38.28-8.48,7.38-3.69,15.78-6.28,23.68-6.28,9.14,0,17.61,3.48,23.02,12.77,29.5,50.65,77.49,81.51,119.48,119.03,12.69,11.34,25.01,19.1,39.91,19.1,5.28,0,10.88-.97,16.94-3.11,6.41-2.26,11.96-3.33,16.78-3.33,16.7,0,24.64,12.91,29.16,34.31,8.91,42.21,8.54,85.21,21.7,127.62,25.77,83.03,75.48,157.41,90.01,243.29,7.04,41.63,35.24,47.69,63.61,58.55,2.93,1.12,5.77,1.67,8.42,1.67,8.91,0,15.8-6.18,17.46-17.76,8.19-57.21,27.75-114.14,20.65-171.71-4.59-37.23,3.97-63.6,27.59-89.14,34.81-37.64,70.71-74.45,103.03-114.15,36.02-44.25,90.15-67.14,125.43-112.8,5.37-6.95,12.13-10.17,18.78-10.17,11.23,0,22.17,9.17,25.63,25.02,6.6,30.18,22.79,50.97,45.82,70.28,19.12,16.04,30.17,39.62,40.66,62.53,12.07,26.33,23.84,52.81,36.85,78.66,5.82,11.56,14.6,22.99,28.72,22.99.33,0,.67,0,1.01-.02,13.89-.53,17.14-14.12,22.45-24.67,2.99-5.94-.32-18.5,9.19-18.5,1.41,0,3.11.28,5.16.9,9.51,2.88,12.61,12.99,13.56,22.44,3.28,32.62,5.88,65.3,9.36,97.9,6.5,60.96-6.13,124.47,24.34,182.26,5.02,9.51,8.73,20.9,20.9,20.9,1.23,0,2.54-.12,3.95-.36,14.35-2.5,18.39-13.82,18.11-26.68-.72-32.79,2.74-65.41-3.59-98.44-4.9-25.59-18.18-51.58-7.12-82.13,18.29,15.46,22.15,35.42,30.08,52.9,8.94,19.73,19.14,40.28,42.47,42.83,25.63,2.81,40.26,13.82,55.26,35.31,16.18,23.19,34.19,34.45,51.97,34.45,19.11,0,37.97-13.02,53.99-38.25,9.18-14.46,19.29-28.34,28.16-42.98,62.28-102.72,58.01-139.19-26.77-222.82-34.02-33.55-37.3-73.11-25.38-116.4,5.65-20.55,21.37-29.1,40-33.89,2.47-.63,5-1.05,7.45-1.05,5.35,0,10.28,1.98,13.07,7.97,3.44,7.4-2.31,12.08-7.56,16.17-6.22,4.84-14,8.41-18.61,14.43-13.48,17.58-10.53,37.4-3.39,56.24,4.68,12.35,14.56,21.05,27.94,21.05.85,0,1.71-.04,2.58-.11,23.74-1.92,20.39-23.69,25.89-38.71,6.79-18.54,13.59-37.09,19.86-55.81,4.99-14.88,14.8-24.85,29.25-29.98,35.7-12.67,67.05-37.73,107.41-37.73,3.32,0,6.71.17,10.17.53.94.1,1.9.15,2.88.15,12.2,0,26.88-7.42,36.84-15.34,107.67-85.56,148.26-244.32,71.15-358.91-30.7-45.62-44.09-99.99-20.89-158.01,13.02-32.55-1.69-52.61-34.3-52.61-5.24,0-10.94.52-17.06,1.58-7.05,1.23-13.66,2.3-19.87,2.3-10.51,0-19.85-3.08-28.11-13.68,21.64-22.31,53.94-3.71,73.18-20.96,21.42-19.2-6.33-54.04,17.62-77.31,17.79,31.61,40.71,53.01,74.95,61.07,30.34,7.15,112.78,107.52,101.23,132.51-18.48,39.95,14.09,81.48-24.18,122.07,32.82-10.97,136.21-96.92,143.26-113.05,8.48-19.4-3.63-23.21-18.71-24.07-19.29-1.1-38.71-5.13-46.8-23.94-19.96-46.38-23.67-98.8-8.12-143.01,11.69-33.23,40.46-69.29,88.29-72.57,21.92-1.5,43.5-9.99,64.9-16.42,33.96-10.2,56.46-31.49,65.86-66.95,9.77-36.86,17.78-74.97,33.64-109.26,34.48-74.56,30.49-150.89,19.19-228.4-4.72-32.41-16.71-54.5-55.85-54.5-.78,0-1.57,0-2.37.03-.69.02-1.37.02-2.06.02-29.17,0-57.02-13.59-81.35-32.26-24.01-18.42-27.22-34.25-3.09-56.64,39.57-36.74,80.99-72.94,113.05-115.78,20.02-26.75,42.21-40.33,71.26-49.78,72.79-23.68,148.17-20.46,223.04-22.38,88.24-2.27,94.78-7.1,119.12-92.85,6.41-22.57,18.69-44.69,41.63-44.69,1.91,0,3.89.15,5.94.47,10.64,1.65,20.99,2.44,31.15,2.44,30.5,0,59.13-7.14,87.88-19.67,8.86-3.86,18.31-5,27.91-5,7.61,0,15.33.72,22.92,1.35,21.44,1.81,25.42,12.57,12.94,28.57-17.8,22.81-38.73,42.77-59.14,63.35-38.56,38.89-85.3,70.57-113.57,118.83-56.16,95.86-33.16,189.15,11.56,281.33,8.93,18.41,19.49,28.01,30.37,28.01,9.64,0,19.52-7.54,28.74-23.17,20.67-35.07,30.82-73.7,61.86-105.87,34.17-35.41,29.68-88.33,18.64-137.07-12.18-53.78,24.75-119.92,75.47-141.42,3.46-1.47,6.44-2.13,9.11-2.13,5.9,0,10.25,3.24,14.85,8.14,12.22,13,24.66,18.27,36.91,18.27,15.13,0,29.99-8.04,43.8-19.49,25.26-20.93,46.08-47.16,70.86-68.75,27.96-24.36,58.47-43.98,96.18-43.98,5.66,0,11.49.44,17.49,1.38,7.06,1.1,14.81,3.06,22,3.06s13.8-1.95,18.63-8.66c10.13-14.06-8.44-22.5-12.59-34.09-4.85-13.57-7.94-27.85-13.67-41.01-4.82-11.07-3.87-17.12,8.55-20.26,35.55-8.98,22.06-23.65,3.93-38.11-8.22-6.55-17.07-12.37-25.96-18-8.08-5.12-16.81-10.77-14.33-21.27,2.8-11.82,14.11-14.6,24.75-16.29,2.22-.35,4.41-.51,6.56-.51,12.51,0,23.98,5.39,35.39,9.86,9.71,3.81,21.22,8.09,31.01,8.09,5.58,0,10.61-1.4,14.42-5.07,10.5-10.13,19.51-13.97,27.66-13.97,15.61,0,28.08,14.1,41.81,25.12,7.19,5.77,13.83,13.11,22.05,16.54,21.79,9.09,41.82,29.55,61.01,32.33,2.05.3,3.9.44,5.58.44,28.1,0,7.69-39.46,23.9-53.21,1.9-1.61,2.24-5.25,4.22-6.55,45.4-29.61,13.79-47.12-12.05-58.54-92.97-41.12-177.67-95.24-262.28-151.11-57.58-38.02-129.21-37.35-197.09-40.21-1.25-.05-2.54-.09-3.85-.09-11.5,0-24.7,2.55-28.78,16.77-4.09,14.26,15,15.68,21.67,39.58-28.42-36.72-59.16-46.41-91.02-46.41-18.03,0-36.42,3.1-54.95,6.17-8.51,1.41-17.32,2.07-26.17,2.07-12.4,0-24.89-1.3-36.76-3.66-8.69-1.73-17.1-2.79-25.35-2.79-9.75,0-19.27,1.49-28.75,5.14-9.4,3.62-17.89,5.53-25.43,5.53-18.02,0-30.65-10.89-37.54-35.26-3.29-11.62-12.92-18.78-22.32-26.59-37.51-31.19-82.73-46.93-127.78-46.93-5.24,0-10.49.21-15.71.64-6.03.49-11.67.74-17.05.74-29.03,0-50.12-7.29-79.28-23.1-64.67-35.05-139.33-57.14-214.27-62.76-12.92-.97-26.78-2.43-40.39-2.43-33.46,0-65.34,8.84-77.66,55.61-1.66,6.32-6.62,7.57-11.99,8.08-34.28,3.23-68.55,16.06-102.42,16.06-7.5,0-14.98-.63-22.43-2.13-9.97-2.01-19.43-2.98-28.48-2.98-30.49,0-56.34,11.03-81.12,30.68-6.7,5.31-12.85,8.08-18.68,8.08-6.54,0-12.68-3.49-18.74-10.77-24.07-28.93-50.23-54.55-67.43-90.65-21.3-44.68-56.5-76.04-100.52-76.04-21.7,0-45.54,7.62-70.91,25.02-6.53,4.48-11.72,7-17.44,7-4.13,0-8.53-1.31-13.9-4.16-54.44-28.81-118.85-15.7-175.1-39.8-1.94-.83-4.13-1.19-6.49-1.19-9.39,0-21.47,5.64-31.09,9.39-47.49,18.53-94.58,38.06-141.82,57.21,46.6-26.63,96.1-46.18,138.38-80.9,57.94-47.57,56.41-116.26-8.04-153.58-17.97-10.4-38.51-16.94-58.54-23.06-56.25-17.18-114.97-5.54-172.47-13.61-13.55-1.9-27.25-3.25-40.71-3.25h0ZM-1331.56-847.04c-10.54,0-21.39-2.93-31.03-6.41-20.5-7.4-14.4-29.14-10.87-45.3,5.14-23.56,5.5-47.22,4.45-70.81-1.77-39.9,8.13-73.71,34.93-105.37,21.64-25.56,30.02-59.05,14.47-92.47-9.26-19.9-4.35-32.92,9.9-48.9,33.83-37.93,79.42-60.7,116.2-94.58,5.21-4.8,11.75-7.58,19.9-7.58,4,0,8.4.67,13.22,2.11-20.36,22.8-36.95,45.3-57.37,63.51-54.24,48.37-18.84,148.62,48.63,156.95,15.52,1.92,30.65,7.65,45.7,12.44,9.04,2.88,24.06-1.4,23.99,14.31-.05,11.14-9.35,18.68-18.38,24.19-5.38,3.28-12.2,4.48-18.53,5.91-55.18,12.44-73.45,31.47-77.47,90.32-1.69,24.71-11.72,38.88-32.41,48.97-20.12,9.82-38.39,21.49-53.77,39.08-8.85,10.13-20.03,13.63-31.57,13.63h0ZM-413.43-50.99c-14.48,0-19.47-12.08-20.08-38.74-.27-11.82-3.63-26.54,1.93-35.01,29.22-44.52,1.4-76.96-20.77-110.62-16.88-25.64-31-52.77-35.3-82.96-8.91-62.63,44.02-126.65,107.45-132.65,1.54-.15,3.02-.22,4.44-.22,20,0,28.48,14.61,29.17,49.28-11.33-2.62-20.55-4.05-27.96-4.05-23.76,0-28.74,14.73-23.99,52.2,4.42,34.87,14.49,65.7,44.38,88.48,28.13,21.45,40.36,51.66,35.43,87.28-4.72,34.07.39,65.35,21.66,93.34,11.18,14.72,10.05,29.1-3.19,42.53-6.66,6.75-12.67,14.79-18.79,14.79-4.42,0-8.91-4.2-13.74-16.12-6.21-15.32-16.01-21.84-28.42-21.84-7.13,0-15.11,2.15-23.76,6.02-12.13,5.43-21.42,8.28-28.46,8.28h0ZM-795.06-425.49c3.21-.81,6.11-1.2,8.67-1.2,10.39,0,15.37,6.53,14.11,18.96-3.65,36.1,14.51,57.81,42.73,77.71,28.36,19.99,40.84,54.31,59.39,82.8,14.39,22.11-4.99,27.54-21.15,29.27-3.21.34-6.36.51-9.46.51-29.51,0-54.59-14.87-77.3-32.3-13.28-10.19-24.8-13.29-39.3-13.29-5.16,0-10.69.39-16.82,1-53.54,5.3-105.07,17.73-157.24,28.48-2.45.5-4.82.78-7.09.78-8.93,0-16.28-4.32-20.43-16.18-18.54-53.06,9.21-130.76,57.4-159.37,3.85-2.29,7.36-3.6,10.42-3.6,3.8,0,6.91,2.03,9.14,6.76,15.03,31.82,48.94,38.2,74.37,55.77,8.79,6.07,18.95,14.23,29.79,14.23,4.35,0,8.8-1.31,13.32-4.6,16.52-12.03,6.92-29.55,1.86-43.63-9.73-27.07-4.61-42.2,23.25-42.2,1.39,0,2.84.04,4.34.11h0ZM-1374.28-95.25c3.8,0,7.7-2.19,11.52-7.95,12.24-18.48,25.22-37.49,32.25-58.18,10.94-32.2-38.52-105.06-72.51-111.17-25.95-4.66-46.03-56.48-30.39-78.91,4.49-6.44,9.57-9.18,14.17-9.18,5.91,0,11.02,4.52,13.08,11.54,10.06,34.25,45.71,48.59,59.14,75.74,19.44,39.28,36.81,80.67,51.7,122.41,13.19,36.97,42.8,41.19,75.03,43.3,1.56.1,3.06.15,4.51.15,28.04,0,35.46-18.82,38.94-44.11,2.46-17.94,11.43-22.86,22.21-22.86,7.57,0,16.03,2.43,23.74,4.48,25.48,6.78,36.78,29.82,46.71,50.8,17.44,36.85,48.92,67.64,81.23,76.79,46.51,13.17,95.57,26.06,145.38,26.06,4.73,0,9.46-.12,14.2-.36,17.8-.91,35.64-8.41,53.61-24.26,2.47,25.44-1.47,40.67-17.71,56.45-29.37,28.55-51.12,63.57-64.65,102.58-9.06,26.13-27.05,36.92-53.25,39.02-28.97,2.32-57.78,4.24-86.39,4.24-54.3,0-107.87-6.9-160.45-30.98-15.36-7.04-28.13-10.55-39.38-10.55-22.3,0-38.66,13.79-57.37,41.29-7.18,10.55-13.13,17.37-20.45,17.37-5.1,0-10.87-3.32-18.17-11.01-53.22-56.07-129.43-67.06-196.4-94.91-46.43-19.31-57.15-22.16-57.07-75.57.02-13.85-2.31-23.45-14-29.31-45.59-22.89-91.31-42.84-138.6-42.84-29.07,0-58.74,7.54-89.33,26.58-23.39,14.55-49.17,25.27-73.92,37.63-5.86,2.92-11.67,5.17-17.44,5.17-5.17,0-10.29-1.8-15.37-6.54-13.04-12.16-3.93-24.56-.2-36.38,1.87-5.94,6.31-12.1,11.31-15.89,53.43-40.47,83.53-97.36,110.73-156.27,12.58-27.24,35.66-45.29,55.83-65.95,6.22-6.37,12.99-9.87,20.68-9.87,3.64,0,7.48.78,11.57,2.42,4.67,1.87,9.12,2.73,13.4,2.73,9.51,0,18.19-4.26,26.66-11.25,14.89-12.29,26.15-18.72,36.09-18.72,13.93,0,25.26,12.65,40.33,39.53-1.72.15-3.62.73-5.28.73-.62,0-1.21-.08-1.74-.3-11.28-4.62-21.43-17.46-33.22-17.46-2.9,0-5.89.77-9.03,2.63-17.23,10.22-8.34,31.2-9.12,47.51-1.33,28.03,16.47,53.68,7.18,84.12-4.24,13.89,11.96,23.45,26.8,23.45,1.07,0,2.14-.05,3.19-.15,21.61-2.1,47.26-1.89,53.25-30.43,3.38-16.06,2.3-33.07,3.32-51.28,28.14,13.41,60.55,16.75,90.82,17.32,47.83.9,56.42,28.48,59.02,65.1.84,11.76-2.07,24.32,6.56,33.97,5.02,5.62,11.02,11.51,17.27,11.51h0Z"/><path d="M1123.92,1010.71c3.29,0,5.93,1.31,7.06,3.5,16.1,31.09,31.87,63.33,48.19,98.55.01.03.03.06.04.08-.49,1.51-3.05,4.87-4.61,6.93-1.47,1.94-2.99,3.94-4.45,6.18-19.37,29.62-20.02,61.43-2,97.23,2.31,4.59,6.74,7.73,11.84,8.4.67.09,1.34.13,2.01.13,4.4,0,8.63-1.87,11.59-5.21,5.07-5.72,8.29-12.46,11.12-18.4,1.53-3.21,3.77-7.91,5.3-9.68.61.12,1.69.43,3.32,1.17,14.2,6.48,18.79,17.98,13.66,34.18-6.18,19.51-.38,34.41,4.74,47.55.87,2.24,1.77,4.56,2.59,6.84,6.04,16.81,11.22,34.47,16.23,51.55,10.11,34.43,20.56,70.04,38.99,103.32,3.44,6.2,3.68,19.24.57,31.01-2.44,9.23-8.52,15.92-14.47,15.92-2.22,0-4.61-.88-7.12-2.62-5.96-4.15-12-8.24-17.83-12.19-42.9-29.08-83.43-56.54-103.92-112.29-27.78-75.58-76.51-141.87-123.62-205.98-10.7-14.57-21.77-29.63-32.34-44.46-1.41-1.98-2.84-3.85-4.22-5.67-9.46-12.41-8.77-13.34-5.42-17.81,11.1-14.82,21-24.09,36.04-24.52.31,0,.61-.01.91-.01,6.56,0,9.27,0,11.7,16.91,4.19,29.16,13.82,67.59,51.32,106.28,2.97,3.06,7,4.71,11.13,4.71,1.69,0,3.39-.28,5.04-.84,5.68-1.95,9.72-7.02,10.37-12.99.48-4.45,1.14-8.04,1.72-11.21,1.35-7.33,2.75-14.92-2.21-22.13-22.2-32.31-11.29-62.15,1.34-96.7,3.59-9.81,7.3-19.96,10.22-30.29,1.51-5.32,2.49-6.78,2.84-7.16.13-.04.46-.14,1.06-.2.42-.04.84-.06,1.25-.06M1121.67,1010.91h.01-.01M1210.5,1197.92h.01-.01M1123.92,995.22c-.91,0-1.84.05-2.77.14-10.95,1.08-14.53,8.83-17.28,18.55-13.03,45.99-43.37,90.59-9.43,139.98,2.14,3.11-.72,9.65-2.15,22.9-30.96-31.94-42.2-63.54-47.11-97.7-2.46-17.1-7.02-30.2-27.04-30.2-.44,0-.89,0-1.35.02-22.32.63-35.98,14.66-48.01,30.72-12.82,17.12.22,28.83,9.42,41.75,56.47,79.27,120.74,156.23,154.04,246.8,25.15,68.41,76.95,96.74,127.44,131.85,5.35,3.72,10.78,5.4,15.96,5.4,13.41,0,25.17-11.24,29.45-27.46,3.51-13.28,4.25-31.2-2-42.47-26.67-48.14-35.98-101.85-54.2-152.6-5.42-15.11-12.56-27.37-7.14-44.47,7.16-22.59.21-42.82-22-52.96-4.05-1.85-7.46-2.66-10.39-2.66-15.22,0-17.24,21.94-27.38,33.38-15.28-30.36-15.53-56.3,1.13-81.78,5.68-8.69,15.4-16.77,10.11-28.18-15.47-33.38-31.58-66.49-48.49-99.15-3.87-7.47-11.82-11.87-20.82-11.87h0Z"/><path d="M1712.07,653.05c3.71,0,7.83,5.89,13.25,14.22,2.06,3.16,4.18,6.42,6.56,9.57,11.2,14.82,10.88,32.3,10.51,52.55-.06,3.35-.12,6.7-.13,10.08,0,3.08.22,5.97.43,8.77.29,3.78.61,8.06-.03,10.11-5.95,18.79-11.24,42.94.68,63.04,9,15.17,26.15,25.05,52.43,30.2,19.29,3.78,24.16,18.92,30.02,50.16,1.12,5.98,2.28,12.15,3.75,18.15-.79,1.01-3.06,2.56-6.25,3.74.25-2.26.33-4.68.02-7.16-2.26-17.75-9.51-33.02-20.98-44.16-1.5-1.46-3.53-3.93-5.48-6.31-7.22-8.8-15.41-18.78-27.87-18.78h0c-20.68,0-25.99,25.93-27.99,35.69-.43,2.09-1.32,6.44-16.26,6.8h-.33c-.11,0-.21,0-.31,0-.57-1.8-1.07-4.98-1.43-7.24-.27-1.7-.55-3.46-.9-5.28-4.96-25.46-6-51.19-7.11-78.42-1.52-37.33-3.08-75.93-15.54-113.98-1.61-4.92-5.09-25.9,8.92-30.88,1.57-.56,2.98-.86,4.06-.86M1712.06,637.55c-2.79,0-5.85.54-9.25,1.75-22.79,8.11-23.2,35.79-18.45,50.3,20.45,62.48,9.93,127.72,22.16,190.54,2.2,11.29,1.84,25.05,17.85,25.05.23,0,.47,0,.71,0,13.48-.33,27.92-3.84,31.06-19.19,3.57-17.45,8.02-23.31,12.81-23.3,7.38,0,15.57,13.93,22.56,20.71,9.4,9.13,14.67,21.42,16.4,35,1.01,7.93-7.77,22.31,7.34,22.31.97,0,2.04-.06,3.22-.18,13.27-1.4,29.63-10.09,26.14-24.14-7.57-30.57-7.13-72.42-45.88-80.02-48.1-9.43-53.86-33.71-41.31-73.36,2.27-7.17.32-15.67.32-23.55.06-24.81,3.09-50-13.52-71.98-9.29-12.29-16.27-29.94-32.18-29.94h0Z"/><path d="M2043.61-10.73h0c7.11,0,13.02,1.71,18.19,5.33-5.03,6.79-10.02,13.61-14.89,20.28-17.71,24.24-36.02,49.31-56.09,71.64-3.41,3.79-13.18,6.22-21.8,8.37-6.5,1.62-13.23,3.29-19.68,5.87-22.05,8.82-31.52,26.94-36.73,39.81-2.87,7.09-1.86,14.16-.34,20.07-7.33-2.89-16.34-9.25-23.14-16.69,1.27-2.61,4.96-7.07,7.08-9.63,1.52-1.84,3.09-3.74,4.54-5.67,3.39-4.5,6.56-9.07,9.64-13.48,12.85-18.47,23.95-34.42,46.28-40.75,27.32-7.74,45.32-34.92,46.98-70.92.26-5.6,1.74-6.54,2.37-6.95,2.56-1.64,7.8-2.49,12.87-3.3,3.42-.55,6.96-1.12,10.53-2.03,5.11-1.3,9.89-1.95,14.19-1.95M2043.61-26.22c-5.93,0-11.98.9-18,2.43-15.17,3.85-36.27,1.3-37.44,26.58-1.18,25.52-12.71,50.2-35.73,56.72-33.79,9.58-46.36,36.28-64.07,59.81-7.63,10.13-21.74,22.57-11.54,34.11,10.52,11.89,28.22,24.36,42.69,24.36.12,0,.24,0,.36,0,21.62-.32,2.68-20.52,7.09-31.41,5.79-14.3,13.89-25.54,28.13-31.24,15.85-6.34,37.2-7.08,47.25-18.26,28.69-31.92,52.86-67.9,78.68-102.1-1.44-2.87-2.11-5.69-3.85-7.42-9.88-9.84-21.48-13.58-33.56-13.58h0Z"/><path d="M536.36,935.48h.01-.01M535.23,937.36c.32,1.65.56,3.45.69,4.4,1.76,13.11,2.56,26.4,3.14,36.1.17,2.82.32,5.31.47,7.38-.37,8.55-.59,16.19-.79,22.96-.41,13.91-.73,24.9-2.04,35.44-2.16,17.36-7.96,17.36-12.63,17.36h-.56c-6.06-.15-8.57-.2-8.2-18.09.63-30.85,8.16-60.58,16.13-92.05.72-2.86,1.45-5.72,2.16-8.57.59-2.33,1.16-3.9,1.63-4.93M536.44,920.17c-.11,0-.23,0-.34,0-10.85.19-15.19,9.03-17.53,18.34-8.61,34.27-18.02,68.51-18.75,104.08-.32,15.84,1.05,33.38,23.34,33.89.31,0,.61.01.91.01,19.52,0,25.98-14.72,28-30.94,2.1-16.86,1.8-34.01,2.97-60.54-.67-8.86-1.34-27.2-3.77-45.31-1.13-8.46-2.86-19.53-14.83-19.53h0Z"/></svg>