<?xml version="1.0" encoding="UTF-8"?><svg xmlns="http://www.w3.org/2000/svg" viewBox="0 0 1920 1080"><g id="a"><path d="M723.51,803.19c-2.72-2.34-7.31-2.63-9.94,1.32-1.77,2.67-3.23,5.48-4.34,8.43-.4.83-.82,1.65-1.21,2.49-8.11,7.93-13.73,18.41-15.9,29.54-1.21,6.2-1.48,12.46-.66,18.73.73,5.61,1.91,13.34,6.26,17.42,5.13,4.82,12.21,2.82,16.07-2.4,4.22-5.7,5.52-14,7.15-20.76,3.87-16.05,5.9-32.53,6.2-49.03.05-2.96-1.54-4.87-3.62-5.73Z" fill="#bd3144"/><path d="M819.01,747c-4.13-3.69-10.11-7.6-12.05-13.04-.82-2.31-.79-8.3,2.76-8.42,3.76-.13,7.97-4.13,6.27-8.23-6-14.44-23.21-13.88-33.57-4.46-5.69,5.17-9.89,12.18-14.02,18.59-4.55,7.06-8.75,14.33-12.6,21.79-15.32,29.69-24.89,61.84-28.71,95-.37,3.22,1.37,5.18,3.68,5.89,1.49,5.29,10.59,6.6,12.64-.08,5.09-16.57,9.97-33.22,15.36-49.7,4.75-14.52,10.37-29.03,19.58-41.36,1.11-1.48,2.24-3.03,3.57-4.32.62-.6,1.91-1.23,2.7-1.88-.06.35-.14.69-.26,1.03-.37,1.51-1.01,3.02-1.54,4.47-3.22,8.75-6.49,17.48-9.74,26.22-5.42,14.6-10.84,29.19-16.26,43.79-1.89,3.02-3.11,6.51-3.44,10.38-.67,7.78,10.39,8.14,12.77,1.73.82-2.22,1.65-4.44,2.47-6.66,2.93-3.22,8.11-4.78,12.12-4.4,8.62.82,15.6,7.45,21.16,13.51,5.04,5.48,13.92-1.56,10.21-7.88-5.76-9.8-6.79-21.46-3.35-32.26,1.61-5.05,4.29-9.81,7.92-13.68,4.04-4.31,8.88-7.91,11.91-13.09,7.12-12.15-.29-24.62-9.6-32.93Z" fill="#bd3144"/><path d="M771.67,681.95c-11.16-6.56-19.69,3.97-24.35,12.97-5.54,10.72-8.44,22.42-8.84,34.47-.03.83.1,1.58.34,2.27-.34.98-.68,1.97-1.02,2.95-1.44,4.18,1.97,7.52,5.63,8.08,2.77,1.32,6.44,1.06,8.72-2.08,7.45-10.28,15.12-20.44,22.35-30.87,6.15-8.87,7.96-21.46-2.83-27.8Z" fill="#bd3144"/><path d="M995.08,776.37c-3.58-18.88-12.94-36.45-26.47-50.01-.23-.24-.48-.48-.72-.72-2.38-2.34-4.88-4.57-7.5-6.64-2.16-1.7-4.62-1.84-6.71-1.07-5.4-1.11-11.05-.43-16.1,2.77-10.05,6.37-11.36,17.74-6.11,27.79,3.36,6.43,10.21,13.73,17.65,14.37.89,1.03,1.61,2.14,2.05,3.37,2.27,6.33-9.89,4.73-12.98,4.43-7.39-.72-14.62-.37-20.57,4.6-4.73,3.95-7.14,9.53-10.9,14.26-4.02,5.07-9.51,4.96-15.5,5.32-6.59.4-13.49,1.49-18.21,6.59-4.3,4.65-5.42,11.31-3.73,17.31,5.25,18.62,25.72,18.89,41.4,16.39,1.82-.29,3.07-1.13,3.82-2.25,3.34-1.56,6.26-4.09,8.42-7.5,2.96-4.67-1.98-11.34-7.34-9.55-3.85,1.29-9.07,1.75-11.39-2.41-.57-1.03-.73-2.34-.46-3.44.18-.17.38-.33.58-.49,3.19-.69,6.39-1.34,9.61-1.9,9.51-1.66,19.08-2.01,28.61-3.29,4.19-.56,8.3-2.24,11.24-4.96,5.21-.34,10.43-.56,15.67-.64,5.81-.08,8.35-6.96,4.6-11.1-1.49-1.64-.77-4.53.82-5.88,2.58-2.2,7.01-.93,9.36.96,5.09,4.09,12.12.32,10.86-6.32Z" fill="#bd3144"/><path d="M1395.87,995.83c-1.4-6.06-6.05-9.67-11.44-12.13-2.01-.92-4.59-1.65-6.23-3.17-2.24-2.07-2.76-5.59-3.87-8.31-2.23-5.47-6.45-10.68-12.62-11.15.76-5.94.58-12-2.81-17.22-1.61-2.48-3.67-4.46-6.02-5.84,1.18-2.89,1.73-5.97,1.11-9.25-1-5.37-4.68-9.8-10.13-10.93-6.67-1.38-12.33,3.22-17.52,6.68-.59.39-1.18.79-1.77,1.18-3.05-7.01-8.96-12.61-16.53-12.59-4.61-7.69-9.89-14.97-15.8-21.76-4.23-4.86-9.06-10.73-15.51-12.61-3.56-1.04-7.48-.85-10.78.67-7.79-6.66-14.24-14.55-19.02-23.7-2.56-4.9-4.49-10.04-5.92-15.38-1.35-5.03-2.45-10.29-5.32-14.73-3.04-4.7-7.52-7.37-12.68-9.23-5.67-2.04-9.95-3.71-14.19-8.22-4.15-4.42-8.61-9.39-11.28-14.88-1.72-3.54-3.12-9.92.67-12.82,2.81-2.15,4.22-5.57,2.33-8.89-.45-.79-1.14-1.48-1.96-2.03-.14-1.58-.85-3.22-1.92-4.09-37.45-30.42-77.48-57.5-119.75-80.78-3.04-1.67-5.94-.72-7.78,1.25-3.32-2.49-6.65-4.97-10.01-7.4-6.89-4.97-14.48-9.47-23.01-10.75-7.39-1.11-15.39-.01-21.6,4.38-6.26,4.42-11.14,12.92-7.43,20.52,1.56,3.19,4.39,5.32,7.72,6.45,4.31,1.46,5.33.54,6.44,5.16,1.83,7.59,4.42,13.35,12.13,16.41,7.58,3.02,14.47,4.56,19.82,11.36,1.09,1.38,4.98,6.31,3.98,8.19.53-.99-8.04-6.63-9.36-7.63-6.94-5.22-15.73-13.66-25.04-8.41-1.8,1.02-3.12,2.42-4.02,3.99-1.08-1.76-1.89-3.76-2.48-5.66-2.09-6.68-3.1-13.98-7.05-19.92-7.42-11.17-21.31-14.6-31.2-4.61-1.66,1.67-3.24,4.22-5.45,5.19-2.86,1.26-6.04-.56-8.22-2.38-5.34-4.48-8.36-11.18-13.61-15.8-9.29-8.18-25.13-9.83-31.05,3.36-2.9,6.47-.36,14.01,5.81,17.51,5.44,3.08,11.97,2.67,17.94,1.67,7.42,4.26,15.03,8.21,22.83,11.69,1.33.59,2.68,1.15,4.05,1.63.94,1.45,1.95,2.8,2.87,3.98,9.51,12.19,22.5,21.47,24.68,37.79,2.06,15.45-.49,33.15,11.74,45.21,7.27,7.17,19.53,9.13,28.09,4.11,8.05,5.47,16.1,10.94,24.15,16.42,9.05,6.15,19.79,15.97,31.68,12.9,5.06-1.31,9.16-4.68,11.01-9.61,1.97-5.27.75-8.21,6.58-10.13,9.17-3.01,17.28-6.48,19.91-16.71,2.23-8.68-1-18.52,2.24-26.86,2.34-6.03,11.81-7.25,15.75-1.96,2.86,3.84,1.91,10.63,2.3,15.1.53,6.17,1.62,12.29,3.42,18.21,3.5,11.5,9.39,21.26,16.59,30.76,2.46,3.25,8.62,10.38,4.44,14.4-4.37,4.2-12.15.92-16.86-.81-10.43-3.82-20.8-7.81-31.18-11.79-3.79-4.23-9.62-6.28-15.19-4.48-6.39,2.07-5.92,10.29,0,12.54,2.1.8,4.2,1.6,6.3,2.4.11,3.25-1.79,8.53-2.26,9.59-2.33,5.26-4.87,10.47-4.9,16.36-.03,5.96,2.38,11.14,5.83,15.69-3.94,1.05-7.07,5.69-4.32,9.56,7.55,10.62,15.1,21.25,22.65,31.87.38,3.08,1.78,5.86,4.17,8.5,1.07,1.18,3.24,2.5,3.86,3.98,1.13,2.67.05,6.23,1.16,9.12,1.76,4.6,6.3,7.77,11.12,6.94,2.98,3.57,8.08,3.56,10.82-.51,9.56-14.18,10.87-32.85,4.14-48.47-1.31-3.04-2.94-5.77-4.8-8.43,1.37,1.07,2.75,2.09,4.13,3.05,1.57,1.1,3.12,1.36,4.5,1.04,6.04,3.33,12.07,6.66,18.11,9.99,7.33,4.05,13.9-7.18,6.56-11.23-9.93-5.48-19.75-11.57-29.91-16.7-2.75-2.63-4.88-5.75-4.9-9.53-.04-8.47,9.48-5.49,13.98-2.64,7.13,4.53,13.69,10.22,20.39,15.36,3.58,2.75,7.16,5.49,10.74,8.24,1.79,1.37,3.59,2.74,5.37,4.12.08.06.16.13.25.19-1.28,2.46-1.02,5.94.8,8.2,2.21,2.76,5.74,3.3,8.86,2.31,15.39,1.56,30.47,4.96,45.11,10.03.02,0,.04.01.06.02.36.39.6.82.67,1.29-.08.06-.18.13-.29.21-.67.39-1.31.84-1.9,1.36-1.26,1.01-2.34,2.01-3.21,3.41-1.61,2.59-2.03,5.76-2.13,8.74-.03.74.3,2.94.17,4.47-1.4.05-2.81.37-4.22,1.02-3,1.38-4.71,4.16-7.49,5.76-6.49,3.75-15.11-.07-21.37-2.41-6.17-2.3-10.88,6.6-6.32,10.86,8.41,7.86,16.83,15.72,25.24,23.59,3.7,3.9,7.4,7.79,11.11,11.69,7.25,7.63,15.07,16.8,25.9,19.02,5.24,1.08,9.94-.25,15.15-.55,5.21-.29,5.04,6.46,7.44,10.08,5.82,8.76,19.63,6.51,20.49-3.18,3.99-3.28,11.4-1.25,16.09-.79,7.85.77,15.8.19,23.51-1.48,12.19-2.65,30.31-10.45,26.66-26.24ZM1044.66,793.81c-.13-.03-.25-.07-.38-.1-.16-.29-.31-.57-.44-.83.31-.05.63-.11.95-.19-.04.37-.08.75-.13,1.12ZM1157.56,869.11c-.15-.8-.33-1.6-.55-2.39.87.29,1.75.56,2.65.81-.74.46-1.44.99-2.1,1.58ZM1161.53,930.15c.16-.16.31-.32.45-.49.13.87.22,1.74.29,2.61-.24-.71-.48-1.42-.74-2.12ZM1341.17,932.51c-.34-.52-.69-1.02-1.03-1.5.08-.03.15-.07.23-.09,1.3-.46.69-.95.86.09.08.49.05,1-.05,1.5Z" fill="#bd3144"/><path d="M1150.2,668.96c-1.46-.4-2.36-2.31-3.18-3.49-1.26-1.81-2.56-3.64-4.24-5.08-4.41-3.78-10.55-4.58-15.27-.81-2.62,2.09-3.96,5.11-3.84,8.12,0,.09.01.18.02.28.15,2.19,1.06,4.34,2.84,6.1.37.37.78.71,1.2,1.03,3.11,3.33,7.18,5.6,11.58,6.6,1.12.62,2.24,1.24,3.36,1.85,3.64,2.01,7.1.25,8.75-2.53,4.94-2.47,4.51-10.48-1.22-12.06Z" fill="#bd3144"/><path d="M1329.15,862.78c-.97-15.16-13.02-26.07-27.87-27.1-3.04-.21-5.28,2.21-6.27,4.77-1.1,2.86-.99,5.62-.1,8.13-2.33-.36-4.64-.82-6.81-1.82-6.87-6.65-12.46-14.57-16.56-23.53-.34-.75-.76-1.36-1.23-1.85-2.06-10.67-5.75-20.82-11.26-30.36-2.32-4.03-9.01-4.43-11.23,0-4.92,9.82-3.31,21.77,4.88,29.33,8.59,24.52,25,47.93,47.78,59.98,6.6,3.49,14.7,7.23,21.4,2.02,5.6-4.35,7.71-12.75,7.27-19.57Z" fill="#bd3144"/><path d="M996.58,484.99c-5.88-1.17-11.66.56-17.54.35-4.94-.18-9.76-1.82-14.38-3.46-9.22-3.28-18.7-7.8-28.75-7.15-11.24.72-20.62,7.58-25.41,17.7-5.69,12-4.45,25.19-1.65,37.79,1.54,6.94,3.58,13.78,4.69,20.81,1.12,7.08.05,13.61-.32,20.65-.62,11.85,6.81,24.56,20.21,21.89,3.17-.63,4.59-2.9,4.67-5.34,2.27-1.9,4.07-4.46,4.97-7.34,1.49-4.73.54-9.92,2.37-14.54,1.59-4.02,5-7.4,8.89-9.22,9.44-4.42,19.74,2.66,29.7.76,9.59-1.83,15.41-10.08,13.87-19.66-.61-3.79-2.19-7.23-3.5-10.81-1.02-2.78-2.73-6.23-.59-8.81,1.88-2.27,5.39-3.48,7.83-5.02,3.41-2.15,6.6-4.83,8.06-8.69,3.55-9.47-4.03-18.09-13.12-19.9Z" fill="#bd3144"/><path d="M1191.8,588.92c-11.68-13.29-28.72-7.79-41.34.82-5.65,3.85-10.57,9.25-10.34,16.49.03,1.07.19,2.09.43,3.08-5.26,1.13-10.52,2.32-15.55,3.98-7.15,2.36-13.3,9.4-9.72,17.21,3.61,7.88,13.21,6.66,20.06,4.75,7.94-2.21,15-6.21,21.39-11.34,2.5-2.01,2.68-4.59,1.59-6.71.75-1.06,1.09-2.35,1.05-3.66,4.67-1.94,9.51-2.58,11.54,3.2,2.26,6.43,7.45,11.31,14.57,8.27,13.64-5.84,15.35-25.82,6.33-36.08Z" fill="#bd3144"/><path d="M1128.58,552.65c-7.75-1.25-15.59-1.86-23.44-1.61-6.18.19-14.19-.04-19.44,3.78-5.17,3.76-5.9,10.79-1.88,15.7,4.32,5.27,11.68,5.53,17.99,5.76,2.24.08,4.47.06,6.71-.04,6.52,1.35,13.25,1.3,19.67-.67,5.83-1.79,13.91-5.42,13.5-12.79-.4-7.15-7.23-9.17-13.11-10.12Z" fill="#bd3144"/><path d="M1131.53,481.2c-7.31-2.93-15.39-.86-21.2,4.14-2.58,2.21-2.45,6.96,0,9.19,3.86,3.5,9.21,4.81,14.01,3.14,2.82,1.71,6.66,1.55,8.62-2.22.82-1.57,1.63-3.14,2.45-4.71,2.11-4.04.1-7.95-3.88-9.55Z" fill="#bd3144"/><path d="M787.51,446.2c-5.38-7.11-11.39-13.4-18.5-18.81-3.27-2.49-6.76-4.99-11.09-4.7-4.34.29-8.07,3.48-9.38,7.58-2.63,8.22,3.71,16.08,10.04,20.59,6.82,4.86,14.9,6.19,23.05,5.04.22-.03.44-.08.65-.14,4.31-.67,8.48-5.26,5.22-9.55Z" fill="#bd3144"/><path d="M766.78,367.71c-1.7-2.91-5.95-4.27-8.89-2.33-6.53,4.31-8.97,13.1-4.81,19.94,1.35,2.22,3.9,3.49,6.48,3.1,2.29-.35,5.03-2.13,5.4-4.66.38-2.58.77-5.16,1.15-7.74.05-.35.08-.71.09-1.06,1.58-2.05,1.98-4.84.57-7.25Z" fill="#bd3144"/><path d="M760.43,302.87c.06-.96,0-1.96-.26-2.97-1.51-6.15-8.9-11.02-14.47-13.12-3.19-1.2-6.73-1.59-10.06-.7-.57.15-3.25,1.32-5.27,2.59,0-.15-.01-.29,0-.41.06-1.56.2-3.09.1-4.65-.22-3.33-1.13-6.61-3.34-9.17-4.08-4.71-10.84-5.08-15.99-1.93-13.66,8.34-4.19,25.42,5.19,32.7,11.25,8.74,26.69,11.44,40.16,6.7,4.22-1.48,5.19-5.81,3.95-9.05Z" fill="#bd3144"/><path d="M811.7,265.67c-2.85-9.93-10.06-22.72-20.99-25.36-5.38-1.3-11.08.69-13.85,5.63-.4.7-.71,1.41-.95,2.13-4.75,1.86-7.1,8.84-1.33,11.37.75.33,1.37.75,1.87,1.24.04,2.2.46,4.42,1.17,6.54-.74,2.89-3.14,5.09-5.04,8.21-2.82,4.62-4.04,9.86-2.19,15.09,4.08,11.53,19.17,14.21,27.13,5.02,2.26-2.61,2.01-5.72.55-8.02.98-4.79.04-10.3-2.5-14.79-.57-1.01-2.58-3.52-4.22-6.18,0-.25.02-.51.02-.75-.05-2.38-.44-4.78-1.2-7.05,3.78-2.43,8.35,8.71,8.99,10.39,2.94,7.64,14.9,4.76,12.54-3.46Z" fill="#bd3144"/><path d="M864.83,368.96c-1.32-1.21-3.03-1.85-4.72-1.85-.43-.32-.91-.58-1.44-.74-2.78-2.6-6.85-3.96-10.66-3.34-.06-.79-.13-1.58-.21-2.37,1.71.73,3.5,1.22,5.38,1.31,6.19.3,11.64-3.2,13.4-9.2.73-2.48-.42-6.22-2.99-7.34-7.24-3.16-7.61-15.17-10.49-21.65-3.95-8.89-10.51-16.37-18.48-21.89-6.54-4.53-17.96-10.39-26.14-8-5.97,1.75-6.93,7.67-5.39,12.92.82,2.78,1.7,5.54,2.61,8.29-2.7,8.18-2.56,19.35,7.48,22.21,2.19.62,4.31.6,6.21.08.6.61,1.21,1.21,1.82,1.81.78,10.46,2.79,20.79,8.32,29.89,2.06,3.4,6.13,8.09,10.78,11.59.99,1.8,2.4,3.35,4.21,4.42,2.11,1.25,4.38,1.72,6.59,1.57,1.09.72,2.38,1.29,3.91,1.65,11.36,2.73,18.14-11.76,9.83-19.36ZM817.41,308.44s-.08.05-.12.07c-.08-.25-.16-.51-.25-.76-.01-.04-.02-.09-.04-.14.41.13.82.28,1.23.42-.27.13-.55.25-.82.4Z" fill="#bd3144"/><path d="M914.26,349.04c-.02,1.87-3.72,3.34-5.01,4.17-2.59,1.67-5.09,3.53-6.76,6.17-3.08,4.88-2.94,11.93,1.69,15.8,2.96,2.48,8.23,2.75,10.21-1.32.7-1.43,1.4-2.87,2.1-4.3,1.01-2.07.88-4.06.1-5.72,1.45-.91,2.97-1.72,4.32-2.78,3.86-3.02,6.31-7.07,6.36-12.04.08-8.37-12.92-8.37-13,0Z" fill="#bd3144"/><path d="M927.47,318.38c-2.34-2.34-6.89-2.67-9.19,0-3.18,3.69-6.36,7.39-9.54,11.08-2.11,2.45-2.62,5.89-.51,8.53,1.94,2.43,5.61,3.45,8.39,1.67,4.49-2.88,8.23-6.74,10.72-11.47.17-.31.3-.64.41-.97,2.03-2.64,2.23-6.34-.28-8.84Z" fill="#bd3144"/><path d="M1229.45,632.06c-5.66-3.47-12.63-1.46-16.37,3.76-3.38,4.72-3.06,11.49,1.22,15.58,4.12,3.93,10.86,5.03,15.74,1.8,1.1-.73,1.97-1.73,2.52-2.86,1.01-.85,1.81-2,2.34-3.31,2.15-5.37-.65-12.03-5.44-14.96Z" fill="#bd3144"/></g><g id="b"><path d="M5683.39-5279.03c95.71-24.61,112.11,49.22,144.93,92.97,32.81,43.75,103.91,103.91,123.05,106.64,19.14,2.73,21.88,71.1-21.88,65.63-43.75-5.47-68.36-49.22-125.78-27.34-57.42,21.88,131.25,43.75,133.99,65.63,2.73,21.88-21.88,68.36-5.47,103.91,16.41,35.55,57.42,87.5-2.73,142.19-60.16,54.69-87.5,139.46-76.56,248.84,10.94,109.38-5.93,224.23-28.94,292.59-23.01,68.36-6.6,117.58-23.01,139.46-16.41,21.88-106.64,103.91-117.58,147.66-10.94,43.75-65.63,90.24-87.5,125.78-21.88,35.55-8.2,72.98-106.64,210.13-98.44,137.15-229.69,246.52-262.51,293.01-32.81,46.49-8.2,102.45-95.71,161.97-87.5,59.52-177.74,138.82-251.57,141.55-73.83,2.73-112.11-43.75-117.58-98.44-5.47-54.69-128.52,41.02-136.72,87.5-8.2,46.49-35.55,71.1-98.44,68.36-62.89-2.73-117.58,120.32-109.38,142.19,8.2,21.88,16.82,141.2-.82,139.04s-65.12,41.01-78.07,41.01-38.85,45.33-58.28,49.65c-19.43,4.32-25.9,41.01-56.12,41.01s-92.82,49.65-92.82,66.91-34.54,77.71,15.11,86.34c49.65,8.63,84.18,62.6,94.97,73.39,10.79,10.79,36.69,118.72,53.96,133.83,17.27,15.11,84.18,82.02,84.18,135.99s24.52,188.89,13.73,238.53c-10.79,49.65-171.3,128.41-203.67,130.57-32.38,2.16-64.75,38.85-84.18,47.49-19.43,8.63-56.12,38.85-77.71,38.85s-43.17,19.43-73.39,0c-30.22-19.43,34.54-28.06,36.69-66.91,2.16-38.85-6.48-103.61-10.79-120.88-4.32-17.27,17.27-77.71,17.27-103.61s2.16-86.34-4.32-101.45c-6.48-15.11-23.74-47.49-8.63-47.49s53.96,19.43,53.96,2.16-4.32-56.12-23.74-69.07c-19.43-12.95-39.83,23.44-35.51-39.16,4.32-62.6-68.09-12.65-96.15-25.6-28.06-12.95-125.19-21.58-118.72-58.28,6.48-36.69,60.44-73.39,60.44-97.13s41.01-97.13,15.11-125.19c-25.9-28.06-120.88-97.13-256.86-56.12-135.99,41.01-228.8,164.05-239.59,164.05s19.43-73.39,19.43-92.82-41.01-32.38-47.49-41.01c-6.48-8.63,71.23-51.8,71.23-58.28s49.65-82.02,47.49-101.45c-2.16-19.43-105.77-60.44-131.67-60.44s-90.66,110.08-103.61,118.72c-12.95,8.63-73.39,28.06-97.13,53.96-23.74,25.9-51.8,34.54-77.71,90.66-25.9,56.12-64.75,23.74-112.24,23.74s-84.18,30.22-82.02,88.5c2.16,58.28,32.38,101.45,103.61,99.29,71.23-2.16,90.66,21.58,86.34,53.96-4.32,32.38-38.85,86.34-2.16,94.97,36.69,8.63,84.18,43.17,125.19-28.06,41.01-71.23,110.08-77.71,146.78-51.8,36.69,25.9,25.9,49.65,123.03,34.54,97.13-15.11,82.02,32.38,75.55,47.49-6.48,15.11,0,71.23-58.28,49.65-58.28-21.58-75.55,8.63-103.61,15.11s-88.5,47.49-94.97,47.49-5.02,63.82-26.29,63.82-35.09,3.19-60.6,52.1c-25.52,48.91-40.4,8.51-63.79,65.92-23.39,57.41-54.22,99.94-35.09,110.57,19.14,10.63,129.2,51.22,133.68,76.7,4.48,25.48,35.81,150.81,67.14,177.67,31.33,26.86-6.71,73.86,26.86,87.29,33.57,13.43,47,17.9,58.19,35.81,11.19,17.9,59.07,81.39,59.07,107.74s-4.79,56.31-35.94,25.16c-31.15-31.15-55.11-31.15-38.34-7.19,16.77,23.96,81.47,85.06,81.47,93.45s-20.37,16.77-51.52,14.38c-31.15-2.4-92.25,70.68-85.06,80.27,7.19,9.58,50.32-9.58,76.67,10.78,26.36,20.37,55.11,35.94,51.52,103.03-3.59,67.09-15.57,86.26-28.75,106.63-13.18,20.37-22.76,47.92-13.18,57.51,9.58,9.58-1.2,41.93-33.54,41.93s-85.06,67.09-86.26,110.22c-1.2,43.13-74.28,69.49-74.28,91.05s39.54,45.53-35.94,37.14c-75.48-8.39-4.79,150.95-23.96,170.12-19.17,19.17-41.93-16.77-74.28,11.98-32.35,28.75-41.93,121-58.7,122.2-16.77,1.2-56.33-6.73-57.51,7.19-2.39,28.27-113.06,117.09-166.53,126.99-32.34,5.99-31.15,88.66-81.46,100.64-50.32,11.98-136.58,5.99-150.95,9.58-14.38,3.59-116.21,91.05-131.78,91.05s-56.31-73.08-67.09-73.08,0,76.67-8.39,86.26c-8.39,9.58-149.75,65.89-168.92,62.3-19.17-3.59-53.91-15.24-68.29.16-14.38,15.41-70.68,39.37-94.64,39.37s-47.92-1.2-55.11,9.58c-7.19,10.78-45.53,67.09-38.34,83.86,7.19,16.77,23.96,37.14,13.18,46.72-10.78,9.58-56.31,29.95-69.49,20.37-13.18-9.58-38.34-59.9-37.14-74.28,1.2-14.38,29.95-82.66,28.75-92.25-1.2-9.58-185.7-38.34-226.43-31.15-40.73,7.19-87.46,77.87-106.63,92.25-19.17,14.38-38.34-4.79-55.11,11.98-16.77,16.77-49.12,97.04-63.5,112.62-14.38,15.57-62.3,13.18-75.48,32.35-13.18,19.17-46.72,122.2-40.73,146.16,5.99,23.96,116.21,107.82,118.61,132.98,2.4,25.16,2.32,47.85,13.18,67.09,17.35,30.73,162.67,144.98,191.69,162.93,39.63,24.52,25.16,52.71,58.7,82.66,33.54,29.95,52.71,44.33,59.9,92.25,7.19,47.92,51.52,147.36,51.52,238.41s-21.56,222.83-41.93,252.79c-20.37,29.95-105.43,46.72-111.42,46.72s-23.96,37.14-33.54,43.13c-9.58,5.99-110.22,20.37-122.2,27.55-11.98,7.19-65.89,73.08-68.29,81.47-2.4,8.39,20.37,44.33,8.39,47.92-11.98,3.59-123.4,41.93-146.16,62.3-22.76,20.37-35.94,57.51-47.92,58.7-11.98,1.2-25.16-11.98-32.35-17.97-7.19-5.99-3.59-124.6,0-134.18,3.59-9.58,35.33-20.82,29.95-28.75-22.76-33.54-112.83-84.05-159.34-75.48-26.56-10.22-23.96-50.32-53.91-50.32s-52.71,4.79-65.89-46.72c-13.18-51.52-29.95-115.01-46.72-122.2-16.77-7.19-63.5-67.09-105.43-68.29-41.93-1.2-103.03,17.97-115.01,9.58-11.98-8.39-6.54-71.62-1.75-99.17,4.79-27.55-120.45-25.42-125.25-14.64-4.79,10.78-7.19,138.97,0,170.12-9.75,40.64-37.14,74.28-63.5,148.56-26.36,74.28-70.68,216.84-35.94,245.6,34.74,28.75,57.51-37.14,74.28-2.4,16.77,34.74-5.99,56.31,33.54,98.24,39.54,41.93,32.35,99.44,45.53,131.78,13.18,32.35,56.31,91.05,91.05,95.84,34.74,4.79,43.13-29.95,87.46,19.17,44.33,49.12,154.55,136.58,186.89,170.12,32.35,33.54,38.34,273.15,35.94,301.9-2.4,28.75,20.37,47.92,39.54,58.7,19.17,10.78,46.72,116.21,57.51,143.76,10.78,27.55,25.16,28.75,9.58,34.74-15.57,5.99-68.29,10.78-103.03-11.98-34.74-22.76-192.88-110.22-208.46-124.6-15.57-14.38-39.54-58.7-52.71-58.7s-25.16-27.55-26.36-39.54c-1.2-11.98-68.29-107.82-75.48-115.01-7.19-7.19-11.98-69.49-11.98-98.24s-33.54-8.39-33.54-56.31,4.79-128.19-10.78-142.57c-15.57-14.38-65.89-103.03-69.49-122.2-3.59-19.17-121.31-136.58-134.93-154.55-13.62-17.97-48.37,22.76-54.36,14.38-5.99-8.39-14.38-100.63-7.19-117.41,7.19-16.77,49.12-95.84,43.13-144.96-5.99-49.12,2.09-176.11,18.42-202.47,16.33-26.36-25.6-21.56-24.41-57.51,1.2-35.94-3.59-91.05,10.78-126.99,14.38-35.94-74.28-50.32-74.28-81.47s7.19-73.08-5.99-100.63c-22.76-43.13-35.94-94.64-34.74-129.39,1.2-34.74-57.51-202.47-75.48-224.03-17.97-21.56-40.73-39.54-46.72-38.34-5.99,1.2-17.97,83.86-26.36,95.84-8.39,11.98-83.86,31.15-99.44,38.34-15.57,7.19-56.31,71.88-68.29,71.88s-20.37-34.74-38.34-38.34c-17.97-3.59-8.39,31.15-15.57,29.95-7.19-1.2-89.85-20.37-95.84-26.36s-1.2-76.67,11.98-109.02c13.18-32.35,44.33-126.99,15.57-201.27-28.75-74.28-105.43-129.39-116.21-173.72-10.78-44.33-9.58-49.12-39.54-61.1-29.95-11.98-138.97-125.79-153.35-173.72-14.38-47.92-41.93-168.92-50.32-194.08-8.39-25.16-46.11-35.94-54.2-35.94s-20.08,22.76-32.06,21.56c-11.98-1.2-42.26-78.48-54.61-85.54-12.35-7.06-16.77,30.88,0,58.24,16.77,27.36,34.41,45,8.82,81.18-25.59,36.18-90.01,47.65-134.13,60.01-44.12,12.35-56.48,22.06-114.72,20.3-58.24-1.76-74.12-7.06-85.6-24.71-11.47-17.65-22.94-36.18-32.65-6.18-9.71,30-7.06,30-35.3,31.77s-113.35,12.76-110.3,55.59c3.65,51.22,31.38,69.49,0,91.77-30.37,21.56-30,82.95-63.54,90.01-33.53,7.06-149.13,33.53-170.31,53.83-21.18,20.3-70.59,122.66-107.66,149.13-37.06,26.47-104.13,80.3-127.07,105.01-22.94,24.71-34.41,36.18-73.24,58.24-38.83,22.06-65.3,28.24-66.03,70.15-1.07,61.77-64.57,57.8-88.4,62.21-23.83,4.41-76.77,81.18-103.24,86.48-26.47,5.29-82.95,4.41-91.77,44.12-8.82,39.71,11.04,211.28,16.04,257.9,5,46.62-9.99,144.86-44.96,206.47-34.97,61.61,0,208.14-9.99,226.45-9.99,18.32-43.29-9.99-58.28-1.67-14.99,8.33-68.27,111.56-61.61,119.89,6.66,8.33,27.16,24.98-.57,29.97-27.73,5-47.71-8.33-61.04,5-13.32,13.32-38.3,111.56-73.26,121.55-34.97,9.99-78.26,14.99-106.57-8.33-28.31-23.31-49.95-48.29-49.95-61.61s-31.64-41.63-33.3-53.28c-1.67-11.66-5-59.94-19.98-83.25-14.99-23.31-48.29-109.9-53.28-148.19-5-38.3-11.66-74.93-33.3-86.58-21.65-11.66-108.23-144.86-118.22-214.8-9.99-69.93-59.94-219.79-81.59-248.1-21.65-28.31-99.91-146.53-106.57-236.44-6.66-89.91-56.61-211.47-56.61-231.45s9.99-39.96,8.33-74.93c-1.67-34.97-41.63-139.87-33.3-166.51,8.33-26.64,39.96-59.94,33.3-79.92-6.66-19.98-51.62-101.57-53.28-139.87-1.67-38.3-3.33-81.59-23.31-79.92-19.98,1.67-26.64,49.95-21.65,79.92,5,29.97-18.32,76.59-46.62,81.59-28.31,5-84.92,41.63-116.56,41.63s-116.56-44.96-154.85-88.25c-38.3-43.29-79.92-76.59-81.59-104.9-1.67-28.31,78.26-33.3,114.89-59.94,36.63-26.64,71.6-54.95,39.96-54.95s-63.27,21.65-84.92,19.98c-21.65-1.67-91.58-21.65-121.55-38.3-29.97-16.65-29.97-54.95-51.62-66.6-21.65-11.66-38.79-22.96-60.43-44.6-21.65-21.65-52.79-10.34-66.11-26.99-13.32-16.65-18.32-93.25-34.97-103.24-16.65-9.99-38.3-9.99-63.27-21.65-24.98-11.66,11.66-26.64,0-46.62-11.66-19.98-58.28-44.96-71.6-44.96s-133.21,29.97-203.14,31.64c-69.93,1.67-68.27-13.32-111.56-13.32s-38.3,23.31-79.92,26.64c-41.63,3.33-124.88-8.33-148.19-3.33-23.31,5-21.65,29.97-44.96,29.97s-256.42-68.27-294.72-71.6c-38.3-3.33-53.28,28.31-66.6,16.65-13.32-11.66-44.96-41.63-99.91-48.29-54.95-6.66-103.24,1.67-114.89-6.66-11.66-8.33-24.2-180.6-81.59-201.48-83.47-30.36-229.35,80.34-244.77,91.58-21.74,15.84-49.95-34.97-66.6-34.97s-89.91,6.66-106.57,0c-16.65-6.66-33.3-43.29-64.94-48.29-31.64-5-43.29-69.93-79.92-89.91-36.63-19.98-84.92-1.67-119.89-24.98-34.97-23.31-84.92-144.86-94.91-189.82-9.99-44.96-91.58-91.58-96.58-124.88-5-33.3-18.32-44.96-48.29-29.97-29.97,14.99-88.26-13.62-105.97-28.8-17.71-15.18,13.92,44.28,0,44.28s-122.72-18.98-112.6-6.33c10.12,12.65,40.49,27.83,8.86,59.46-31.63,31.63-50.61,40.49-34.16,58.2,16.45,17.71,107.54,128.82,107.54,218.87,0,45.55,69.58,45.55,72.11,55.67,2.53,10.12-1.27,41.75,12.65,50.61,13.92,8.86,77.18,35.42,87.3,61.99,10.12,26.57,6.33,116.4,21.51,144.23,15.18,27.83,69.58,135.37,80.97,132.84,11.39-2.53-13.92-83.5-5.06-105.01,8.86-21.51,43.02-94.89,61.99-88.56,18.98,6.33,46.81,24.04,48.08,31.63,1.27,7.59,8.86,122.72-6.33,160.68s-37.96,72.11-29.1,77.18c8.86,5.06,60.73-1.27,60.73,11.39s-12.65,32.89,2.53,34.16c15.18,1.27,96.15-20.24,125.25-24.04,29.1-3.8,151.82,10.12,184.71-10.12,32.89-20.24,154.35-150.56,170.8-178.39,16.45-27.83,106.27-86.03,120.19-84.77,13.92,1.27,0,40.49,1.27,61.99,1.27,21.51-8.86,91.09,2.53,107.54,11.39,16.45,34.16,50.61,45.55,74.65,11.39,24.04,51.87,70.77,129.05,85.36,77.18,14.59,117.66,9.53,121.46,20.92,3.8,11.39,123.99,151.82,141.7,178.39,17.71,26.57,10.12,34.16-7.59,64.52-17.71,30.36-35.42,73.38-73.38,93.62-37.96,20.24-68.32,118.93-80.97,125.25-12.65,6.33-31.63-32.89-46.81-27.83-15.18,5.06-56.93,101.21-56.93,115.13s29.1,113.87,2.53,108.8c-26.57-5.06-92.36,8.86-118.93,34.16-26.57,25.3-50.61,102.48-64.52,108.8-13.92,6.33-89.83,2.53-101.21,7.59-11.39,5.06-37.96,105.01-55.67,113.87-17.71,8.86-45.55-3.8-106.27,11.39-60.73,15.18-207.49,51.87-230.26,70.85-22.77,18.98-67.05,75.91-49.34,106.27,17.71,30.36-5.06,21.51-48.08,35.42-43.02,13.92-79.71,49.34-139.17,50.61-59.46,1.27-196.1,55.67-217.61,78.44-21.51,22.77-37.96,60.73-53.14,63.26-15.18,2.53-96.87-1.27-116.12,6.33-19.25,7.59-40.76,45.55-117.94,64.52-77.18,18.98-153.09,18.98-170.8,25.3-17.71,6.33-70.85,74.65-83.5,74.65s-134.11,27.83-150.56,22.77c-16.45-5.06-87.3-65.79-88.56-79.71-1.27-13.92,11.39-59.46,6.33-74.65-5.06-15.18-40.49-54.4-50.61-111.34-10.12-56.93-24.04-208.75-22.77-247.97,1.27-39.22,3.8-55.67-16.45-79.71-20.24-24.04-30.36-54.4-37.96-67.05-7.59-12.65-53.14-25.3-68.32-50.61-15.18-25.3-93.62-182.18-118.93-221.4-25.3-39.22-73.38-113.87-117.66-134.11-44.28-20.24-58.2-12.65-65.79-46.81-7.59-34.16-70.85-150.56-69.58-179.65,1.27-29.1,13.92-78.44,12.65-93.62-1.27-15.18-86.03-174.59-97.42-180.92-11.39-6.33-98.68-40.49-110.07-56.93-11.39-16.45-26.57-115.13-34.16-137.9-7.59-22.77-97.42-145.49-111.34-172.06-13.92-26.57-151.82-249.24-174.59-256.83-22.77-7.59-58.2,8.86-65.79,1.27-7.59-7.59,59.46-161.94,40.49-202.43-18.98-40.49-67.05,210.02-83.5,227.73-16.45,17.71-130.31-50.61-140.43-106.27-10.12-55.67-7.59-69.58-30.36-80.97-22.77-11.39-29.1-94.89-51.87-96.15-22.77-1.27-21.51,17.71-10.12,56.93,11.39,39.22,5.06,61.99,16.45,78.44,11.39,16.45,40.49,77.18,65.79,94.89,25.3,17.71,68.32,67.05,80.97,123.99,12.65,56.93,13.92,113.87,27.83,131.58,13.92,17.71,73.38,141.7,106.27,182.18,32.89,40.49,49.34,113.87,59.46,131.58,10.12,17.71,70.85,60.73,70.85,69.58s-43.02-1.35-37.96,25.89c5.06,27.24,7.59,103.15,25.3,119.6,17.71,16.45,129.05,69.58,140.43,116.4,11.39,46.81,65.79,172.06,65.79,221.4s7.59,201.16,15.18,222.67c7.59,21.51,152.79,104.36,177.12,153.09,35.67,71.43,73.14,222.46,78.44,268.22,6.63,57.23,68.32,94.89,79.71,89.83,11.39-5.06,34.16-13.92,34.16,7.59s-1.27,37.96,32.89,34.16c34.16-3.8,88.56,43.02,120.19,61.99,31.63,18.98,36.69,79.71,64.52,83.5,27.83,3.8,37.96,8.86,48.08,31.63,10.12,22.77,68.32,87.3,74.65,101.21,6.33,13.92,49.34,0,59.46,16.45,10.12,16.45,58.2,105.01,25.3,115.13-32.89,10.12-61.99,32.89-77.18,35.42-15.18,2.53,3.8,25.3,35.42,25.3s49.34,15.18,61.99,41.75c12.65,26.57,50.61,51.87,70.85,72.11,20.24,20.24,13.92,34.16,68.32,35.42,54.4,1.27,77.6-18.66,111.56-37.34,33.96-18.68,40.75-23.77,91.69-16.98,50.94,6.79,92.57,12.21,112.07-15.28,25.21-35.53,128.81-24.15,159.62-27.17,34.01-3.33,47.54-35.66,91.69-25.47,44.15,10.19,98.49-20.38,130.75-20.38s69.62-20.38,81.51-39.05q11.89-18.68,50.94-8.49c39.05,10.19,52.64,10.19,44.15,33.96-8.49,23.77-20.38,50.94-18.68,64.52,1.7,13.58,15.28,54.34,11.89,62.83-3.4,8.49-33.96,30.56-33.96,42.45s11.89,95.09-3.4,115.47c-15.28,20.38-54.34,56.03-62.83,91.69-8.49,35.66-37.45,73.78-49.24,100.18-11.39,25.5-119.66,160.76-134.14,229.23-19.76,93.44-71.15,157.94-89.06,173.21-27.83,23.73-19.61,69.61-94.32,130.74-74.71,61.13-166.41,183.39-212.25,213.95-45.85,30.56-129.05,76.41-144.33,76.41s-113.77,84.9-183.39,147.73c-69.62,62.83-174.9,200.37-195.27,224.14-20.38,23.77-54.34,81.51-79.81,106.98-25.47,25.47-98.49,76.41-118.86,86.6-20.38,10.19-39.05,23.77-47.54,61.13-8.49,37.36-13.58,62.83-30.56,91.69-16.98,28.87-86.6,151.12-93.39,173.2-6.79,22.07-49.24,96.79-49.24,117.16s-10.19,69.62,5.09,83.2c15.28,13.58,74.71,52.64,74.71,66.22s-27.17,62.83-20.38,84.9c6.79,22.07,16.98,57.73,8.49,86.6-8.49,28.87-6.79,50.94,6.79,64.52,13.58,13.58,40.75,73.02,37.36,108.67-3.4,35.66-6.79,45.85,35.66,74.71,42.45,28.87,62.83,28.87,69.62,81.51,6.79,52.64,20.38,203.76,11.89,288.66-8.49,84.9-54.11,423.78-54.11,423.78l-3672.72,66.78-1702.81-1101.82-500.83-3272.06,550.91-2871.4,3422.31,166.94s252.28,555.6,308.55,552.45c56.26-3.15,85.73,20.96,101.81,30.34,16.07,9.38,61.62,8.97,112.52-30.34,50.9-39.31,71.14-76.57,176.82-82.18,151.37-8.04,178.16,82.65,192.9,82.18s58.32-43.33,142.84-15.97c76.85,24.88,153.2-99.7,216.16-352.87,0,0,36.17-53.58,37.51-88.41,1.34-34.83,44.21-66.98,57.6-87.07,13.4-20.09-14.74-95.11-14.74-132.62s1.34-117.88-1.34-137.97c-2.68-20.09,52.24-46.88,52.24-62.96s-34.83-58.94-42.87-58.94-34.83,56.26-42.87,56.26-77.69-33.49-108.5-33.49-92.43,87.07-128.6,95.11c-36.17,8.04-116.54,38.85-143.33,28.13-26.79-10.72-69.64-64.07-92.43-87.07-13.31-13.44-132.69-52.7-187.54-38.85-37.48,9.47,32.15,69.66-53.58,89.75-85.73,20.09-131.28-4.02-137.97-17.41-6.7-13.4-5.36-30.81,1.34-41.53,6.7-10.72-84.39-10.72-99.13-14.74-14.74-4.02-20.09-6.7-49.56-6.7s-44.21-18.75-14.74-21.43c29.47-2.68,46.88-21.43,34.83-21.43s-61.62-6.7-68.32,1.34c-6.7,8.04-486.04-.57-486.04-.57l-79.08-3426.56,15314.65,132.79Z" fill="none" stroke="#000" stroke-miterlimit="10" stroke-width="5"/><path d="M1644.11,789.12c9.26,15.05,100.69,52.08,129.62,43.98,28.93-8.1,54.39-48.61,81.01-50.92,26.62-2.31,49.77-86.8,61.34-118.05,11.57-31.25,34.72-62.5,20.83-71.75-13.89-9.26-113.42-15.05-178.23,5.79-64.81,20.83-114.58,74.07-121.52,86.8-6.94,12.73-2.31,89.11,6.94,104.16Z" fill="none" stroke="#000" stroke-miterlimit="10" stroke-width="5"/></g><g id="c"><path d="M924.24,128.57c-5.06-11.07-9.15-22.53-12.37-34.29-1.91-6.97-3.52-14.01-4.87-21.11-1.16-6.14-1.74-12.53-3.83-18.45-4.28-12.14-15.21-18.89-28.01-15.88-5.04,1.19-9.25,3.68-12.91,6.9-1.13.23-2.27.84-3.33,1.95l-49.78,52c-3.68,2.07-7.26,4.13-10.6,6.24-24.88,15.73-40.16,40.45-60.18,61.28-36.35,37.82-85.03,63.89-113.19,109.35-8.08,13.04-16.32,29.89-10.83,45.47,4.01,11.39,16.28,20.78,28.48,18.42.2.09.4.17.61.25,8.81,3.14,12.28,13.24,14.38,21.5,2.4,9.45,3.15,19.21,6.71,28.37,3.21,8.26,8.07,16.13,15.98,20.42-3.41,1.9-6.71,3.98-9.76,6.22-7.39,5.41-12.75,11.91-17.19,19.87-.67,1.21-1.34,2.5-2.04,3.8-3.51,5.44-8.03,9.83-13.74,13.21-2.64,1.56-3.46,4.18-3,6.59-2.63.88-5.44,1.35-8.37,1.34-8.37-.03-8.38,12.97,0,13,6.81.03,13.44-1.83,19.27-5.1.76,3.52,4.08,6.55,7.94,5.08,5.32-2.03,7.63,3.72,6.81,8.19-1.18,6.43-6.8,11.28-11.28,15.57-5.13,4.91.4,11.76,6.32,10.86,14.27-2.16,24.41-14.13,25.69-27.51,2.49,1.62,5.96,1.6,8.17-.76,2.94-3.14,5.88-6.29,8.82-9.43,5.71-6.1-3.32-15.2-9.19-9.19-.53.54-1.06,1.09-1.59,1.63-.24.24-.44.49-.63.75-.67.72-1.34,1.43-2.01,2.15-3.19-2.39-7-3.79-11.28-4.21.45-3.12.24-6.56.47-9.42.6-7.38,4.76-14.44,10.58-18.95,6.88-5.34,15.3-3.76,22.59-7.67,6.66-3.57,10.39-12.46,5.62-18.91,1-.64,1.98-1.32,2.93-2.04,16.25-12.38,23.97-33.78,21.37-53.81-1.38-10.62-5.58-20.05-12.21-28.43-7.21-9.11-16.96-16.4-22.8-26.55-2.98-5.18-5.19-11.44-4.12-17.48,1.09-6.12,6.06-10.08,10.89-13.43,8.08-5.62,17.06-11.77,20.49-20.89,2.67-1.69,4.32-5.06,2.34-8.63.55.99,1.33.3,3.21,1.01,2.55.96,4.66,3.34,6.73,5.04,3.76,3.08,7.69,5.59,12.52,6.52,8.84,1.7,18.36-1.33,24.25-8.19,15.23-4.39,28.86-13.33,38.66-26.19,5.67-7.44,10.75-21.47,21.37-22.92.23-.03.45-.05.67-.06,2.04,1.97,4.4,3.63,7.13,4.84.76.34,1.53.62,2.29.88,3.68,4.27,6.92,8.75,11.21,12.47,15.33,13.31,36.49,18.91,55.76,11.19,18.31-7.33,31.85-24.03,33.58-43.87,1.67-19.16-8.53-38.8-24.71-49Z" fill="none" stroke="#e06e4f" stroke-dasharray="5" stroke-miterlimit="10" stroke-width="5"/><path d="M1256.78,538.55c-1.75-4.91-4.63-9.04-8.31-12.19-.44-1.54-1.4-2.9-2.88-3.61-2.6-1.25-5.2-2.5-7.8-3.75-2.6-1.25-5.5-.75-7.47.82-3.91.99-5.3,6.14-3.67,9.63,2.07,4.45,5.61,8.12,9.87,10.49,3.43,3.14,7.61,5.46,12.26,6.6,4.49,1.1,9.73-3.12,8-8Z" fill="none" stroke="#e06e4f" stroke-dasharray="5" stroke-miterlimit="10" stroke-width="5"/><path d="M1159.79,516.05c-.04-.18-.07-.36-.12-.55-1.44-5.36-6.66-8.72-12.04-8.94-6.16-.25-11.03,3.67-15.21,7.72-1.68,1.63-2.22,4.24-1.61,6.49-.08,2.32.98,4.67,3.16,5.85,5.4,2.91,11.41,5.43,17.52,3.11,1.55-.59,2.99-1.47,4.23-2.55.42-.1.84-.2,1.26-.32,5.37-1.51,5.63-7.59,2.8-10.8Z" fill="none" stroke="#e06e4f" stroke-dasharray="5" stroke-miterlimit="10" stroke-width="5"/><path d="M1261.35,495.47c-.44-5.68-4.4-10.88-10.38-11.25-11.67-.73-16.64,16.61-6.46,22.3,1.68.94,3.34,1.08,4.83.66,1.32.65,2.82.85,4.29.28,5.08-1.97,8.15-6.45,7.72-11.99Z" fill="none" stroke="#e06e4f" stroke-dasharray="5" stroke-miterlimit="10" stroke-width="5"/><path d="M1185.4,509.98l-9.98-9.98c-2.41-2.41-6.82-2.59-9.19,0-2.38,2.59-2.57,6.62,0,9.19,3.33,3.33,6.65,6.65,9.98,9.98,2.41,2.41,6.82,2.59,9.19,0,2.38-2.59,2.57-6.62,0-9.19Z" fill="none" stroke="#e06e4f" stroke-dasharray="5" stroke-miterlimit="10" stroke-width="5"/></g><g id="f"><g opacity=".52"><path d="M342.17,1108.35c-52.01-79.15-185.44-283.58-180.92-306.88s40.71,12.53,45.23-8.78-4.52-62.18,2.26-83.58,9.05-73.73,27.14-72.44,29.4,10.8,61.06,6.05,119.86-47.13,128.91-58.73-6.78-34.04,9.05-33,128.86,3.21,135.64,27.83-30.36,56.26-16.79,66.5c3.39,2.56,17.55,15.82,27.54,16.79,29.97,2.91,72.97-11.12,79.76-7.01,9.05,5.48-49.75,257.61-33.92,277.41s135.82-90.71,144.29-85.06,54.61,45.66,67.31,47.07,81.44-63.08,90.38-62.61,81.44-2.35,87.56.47,104.03,121.45,105.91,126.16-11.77,65.43-10.36,80.5,36.27,90.85,45.2,96.97,37.65,4.24,45.18,16,21.18,48.49,21.18,75.32-881.61-118.98-881.61-118.98Z" fill="none" stroke="#333" stroke-miterlimit="10" stroke-width="3"/><path d="M197.02-23.24c3.1,24.76,0,49.49,0,49.49,0,0-14.99,10.85-13.79,18.09s9.05,19.9,21.11,11.46,28.34-27.74,56.08-31.96,75.98-9.3,82.01-6.16-19.3,35.1-16.28,44.75,33.77,86.23,36.18,94.07,66.33,5.43,68.74,14.47-35.58,126.03-31.36,132.06,88.04.6,92.26,9.05,2.41,50.65,12.06,57.29,14.47,25.93,24.72,25.93,92.26-33.17,97.69-33.77,25.33-.6,25.33,24.12,4.22,25.19,27.74,37.02,51.33,22.08,53.1,10.02-16.32-45.36-16.32-68.21-20.87-78.93-18.44-84.67,14.53-27.42,34.87-24.41,32.34,20.3,44.89,11.82c0,0,40.58-51.62,46.61-54.03s52.46,39.8,65.73,39.2,33.77-38.59,39.8-41.01,21.71,25.33,25.33,24.72,20.5-22.91,20.5-22.91c0,0,33.77,26.53,41.01,26.53s27.26-32.11,30.27-32.29,15.02,6.58,27.04,5.07,99.91-73.62,109.68-78.13,31.55,28.55,49.58,31.55,122.45,28.55,136.72,35.31,8.26,12.77,0,23.29-21.03,24.79-17.28,39.81,18.78,45.82,20.28,60.85,71.36,42.82,82.63,46.57,75.12,12.02,84.89,12.02h9.77" fill="none" stroke="#333" stroke-miterlimit="10" stroke-width="3"/><path d="M1385.4,1090.06c-12.96-18.14-32.39-47.94-37.58-57.01s-36.28-59.6-47.94-68.67-57.01-73.86-68.67-82.93-31.1-33.69-47.94-37.58,1.35-54.45-15.99-58.49-151.37-76.26-159.45-86.66,24.84-52.57,31.2-54.88,28.89,1.73,46.22-9.24,49.68-28.31,50.26-34.09-35.82-32.35-36.4-42.75-15.6-15.28-30.62-17.75,25.42-17.49,25.42-28.47-47.95-41.6-61.24-41.6-61.24,26.58-90.7,18.49-68.75-42.75-69.33-62.97,18.49-52,7.51-65.86-27.15-6.93-35.24,0-30.04-60.08-41.6-65.86-32.37-24.21-32.37-24.21" fill="none" stroke="#333" stroke-miterlimit="10" stroke-width="3"/><path d="M501.74,555.38c4.04-14.38,26.57-62.33,32.35-65.8s45.64-2.89,46.22-7.51,6.36-42.75,6.36-52,30.04-35.24,39.86-37.55,25.25-6.87,25.25-6.87" fill="none" stroke="#333" stroke-miterlimit="10" stroke-width="3"/></g><text transform="translate(1108.43 392.09)" fill="#333" font-family="Roboto-Regular, Roboto" font-size="48"><tspan x="0" y="0">Vietnam</tspan></text><text transform="translate(342.01 894.22)" fill="#333" font-family="Roboto-Regular, Roboto" font-size="48"><tspan x="0" y="0">Thailand</tspan></text><text transform="translate(706.42 602.89)" fill="#333" font-family="Roboto-Regular, Roboto" font-size="48"><tspan x="0" y="0">Laos</tspan></text></g></svg>