<?xml version="1.0" encoding="UTF-8"?><svg xmlns="http://www.w3.org/2000/svg" viewBox="0 0 1920 1080"><g id="b"><path d="M1532.7,244.1c-1.68,2.53-3.79,6.63-5.27,6.63s-4.21-3.16-3.58-4.32,2.11-6.21,1.58-7.16-5.48-4.42-4.21-7.37,9.06-9.37,9.27-10.43-1.16-3.69-1.26-4.53,2,.74,3.48.74,7.69-.63,8.64,0,1.26-2,1.26-3.37-.84-7.69,1.47-8.85c3.48-1.9,5.27-16.85,4.42-19.06s-3.58-5.16-2.53-6.85,4-6.32,5.58-5.05,12.43,14.43,14.01,17.59,18.43,13.06,21.06,12.01,6-3.69,6.63-2.95,5.27,12.01,5.16,13.9-4.53,6.74-6.85,6.63-9.79-.42-10.74.63-6,5.37-7.06,5.37-3.58,12.32-5.27,13.37-16.22-10.85-18.75-11.37-10,4.84-11.79,4.84-3.16-5.05-5.27-5.05c-1.39.56-5.16,4.95-4.53,5.58s10.11,6.95,10.95,8.11-2.42.53-3.79.53-2.63.42-2.63.42Z" fill="none" stroke="#000" stroke-miterlimit="10" stroke-width="5"/><path d="M1604.62,202.19c.74.74,8.23-6.2,7.12-7.4s-3.7-2.68-5.27,1.57-2.59,5.09-1.85,5.83Z" fill="none" stroke="#000" stroke-miterlimit="10" stroke-width="5"/><path d="M1620.9,191.83c1.02,2.04,6.48-6.38,8.7-7.77s10.55-5.46,11.75-5.55-1.76-1.67-4.35-2.04-4.16-1.11-5.27.93-5.55,6.48-7.68,7.59-3.79,5.55-3.15,6.85Z" fill="none" stroke="#000" stroke-miterlimit="10" stroke-width="5"/><path d="M1655.31,169.73c-.42.83,5.81-1.94,6.88-3.15s4.09-4.95,4.09-5.66-10.75,8.39-10.97,8.82Z" fill="none" stroke="#000" stroke-miterlimit="10" stroke-width="5"/><path d="M1552.97,165.38c1.91.93,2.88-14.62,5.57-15.19s11.14,8.28,13.64,7.6.77-9.71-3.07-9.9-2.87-10.18-5.95-10.95-4.43-9.99-4.43-12.87,6.92-18.64,6.53-21.9,8.07-8.65,15.18-2.11c8.45,9.22-1.54-19.21-2.88-23.06s-2.11-18.45-5.76-24.4-6.05-19.6-3.41-25.17-3.31-31.32-3.89-33.62-1.73-11.53-7.11-8.65,3.65,4.42,3.46,8.84.77,12.3-5.96,11.91-7.69,1.92-5.57,6.15-1.92,12.49-2.31,23.44,6.15,15.37,7.11,18.83-1.54,12.3-1.15,18.83,1.92,14.79-1.15,24.79,1.92,18.83,1.92,25.55-2.31,5.19-2.5,9.99.96,7.88.58,10.76-2.88,5.38-2.11,9.61,2.11,10.98,3.27,11.54Z" fill="none" stroke="#000" stroke-miterlimit="10" stroke-width="5"/><path d="M1514.18-11.98c9.9-2.55,11.6,5.09,15,9.62s10.75,10.75,12.73,11.04,2.26,7.36-2.26,6.79-7.07-5.09-13.02-2.83,13.58,4.53,13.87,6.79-2.26,7.07-.57,10.75,5.94,9.06-.28,14.72-9.06,14.43-7.92,25.75-.61,23.21-3,30.28-.68,12.17-2.38,14.43-11.04,10.75-12.17,15.28-6.79,9.34-9.06,13.02-.85,7.55-11.04,21.75-23.77,25.51-27.17,30.32-.85,10.6-9.9,16.76-18.39,14.37-26.04,14.65-11.6-4.53-12.17-10.19-13.3,4.24-14.15,9.06-3.68,7.36-10.19,7.07-12.17,12.45-11.32,14.72,1.74,14.61-.08,14.39-6.74,4.24-8.08,4.24-4.02,4.69-6.03,5.14-2.68,4.24-5.81,4.24-9.61,5.14-9.61,6.92-3.57,8.04,1.56,8.94,8.71,6.48,9.83,7.6,3.8,12.29,5.58,13.85,8.71,8.49,8.71,14.07,2.54,19.55,1.42,24.69-17.73,13.29-21.08,13.51-6.7,4.02-8.71,4.91-5.81,4.02-8.04,4.02-4.47,2.01-7.6,0,3.57-2.9,3.8-6.92-.67-10.72-1.12-12.51,1.79-8.04,1.79-10.72.22-8.94-.45-10.5-2.46-4.91-.89-4.91,5.58,2.01,5.58.22-.45-5.81-2.46-7.15-4.12,2.43-3.68-4.05-7.05-1.31-9.95-2.65-12.96-2.23-12.29-6.03,6.25-7.6,6.25-10.05,4.24-10.05,1.56-12.96-12.51-10.05-26.58-5.81-23.68,16.98-24.8,16.98,2.01-7.6,2.01-9.61-4.24-3.35-4.91-4.24,7.37-5.36,7.37-6.03,5.14-8.49,4.91-10.5-10.95-6.25-13.63-6.25-9.38,11.39-10.72,12.29-7.6,2.9-10.05,5.58-5.36,3.57-8.04,9.38-6.7,2.46-11.62,2.46-8.71,3.13-8.49,9.16,3.35,10.5,10.72,10.28,9.38,2.23,8.94,5.58-4.02,8.94-.22,9.83,8.71,4.47,12.96-2.9,11.39-8.04,15.19-5.36,2.68,5.14,12.73,3.57,8.49,3.35,7.82,4.91,0,7.37-6.03,5.14-7.82.89-10.72,1.56-9.16,4.91-9.83,4.91-.52,6.6-2.72,6.6-3.63.33-6.27,5.39-4.18.88-6.6,6.82-5.61,10.34-3.63,11.44,13.37,5.3,13.83,7.94,3.71,15.61,6.95,18.39-.69,7.64,2.78,9.03,4.86,1.85,6.02,3.71,6.11,8.42,6.11,11.15-.5,5.83-3.72,2.6-5.7-3.22-3.97-.74,8.43,8.8,8.43,9.67-2.11,1.74-5.33,1.49-9.55,7.32-8.8,8.31,5.21-.99,7.94,1.12,5.7,3.72,5.33,10.66-1.61,8.93-2.98,11.03-2.36,4.96-1.36,5.95-.12,4.34-3.47,4.34-8.8,6.94-8.93,11.41-7.69,7.19-7.69,9.42,4.09,4.71-3.72,3.84-.5,15.62-2.48,17.61-4.34-1.74-7.69,1.24-4.34,12.52-6.08,12.65-5.83-.7-5.95.74c-.25,2.93-11.7,12.12-17.23,13.14-3.35.62-3.22,9.18-8.43,10.41s-14.13.62-15.62.99-12.03,9.42-13.64,9.42-5.83-7.56-6.94-7.56,0,7.94-.87,8.93-15.5,6.82-17.48,6.45-5.58-1.58-7.07.02-7.32,4.07-9.79,4.07-4.96-.12-5.7.99-4.71,6.94-3.97,8.68,2.48,3.84,1.36,4.84-5.83,3.1-7.19,2.11-3.97-6.2-3.84-7.69,3.1-8.56,2.98-9.55-19.22-3.97-23.43-3.22-9.05,8.06-11.03,9.55-3.97-.5-5.7,1.24-5.08,10.04-6.57,11.65-6.45,1.36-7.81,3.35-4.84,12.65-4.22,15.13,12.03,11.16,12.27,13.76.24,4.95,1.36,6.94c1.8,3.18,16.83,15,19.84,16.86,4.1,2.54,2.6,5.46,6.08,8.55s5.46,4.59,6.2,9.55,5.33,15.25,5.33,24.67-2.23,23.06-4.34,26.16-10.91,4.84-11.53,4.84-2.48,3.84-3.47,4.46-11.41,2.11-12.65,2.85-6.82,7.56-7.07,8.43,2.11,4.59.87,4.96-12.77,4.34-15.13,6.45-3.72,5.95-4.96,6.08-2.6-1.24-3.35-1.86-.37-12.89,0-13.89,3.66-2.15,3.1-2.98c-2.36-3.47-11.68-8.7-16.49-7.81-2.75-1.06-2.48-5.21-5.58-5.21s-5.46.5-6.82-4.84-3.1-11.9-4.84-12.65-6.57-6.94-10.91-7.07-10.66,1.86-11.9.99-.68-7.41-.18-10.26-12.47-2.63-12.96-1.52-.74,14.38,0,17.61c-1.01,4.21-3.84,7.69-6.57,15.37s-7.32,22.44-3.72,25.42,5.95-3.84,7.69-.25-.62,5.83,3.47,10.17,3.35,10.29,4.71,13.64,5.83,9.42,9.42,9.92,4.46-3.1,9.05,1.98,15.99,14.13,19.34,17.61,3.97,28.27,3.72,31.24,2.11,4.96,4.09,6.08,4.84,12.03,5.95,14.88,2.6,2.98.99,3.6-7.07,1.12-10.66-1.24-19.96-11.41-21.57-12.89-4.09-6.08-5.46-6.08-2.6-2.85-2.73-4.09-7.07-11.16-7.81-11.9-1.24-7.19-1.24-10.17-3.47-.87-3.47-5.83.5-13.27-1.12-14.75-6.82-10.66-7.19-12.65-12.55-14.13-13.96-15.99-5.01,2.36-5.63,1.49-1.49-10.41-.74-12.15,5.08-9.92,4.46-15,.22-18.23,1.91-20.95-2.65-2.23-2.53-5.95-.37-9.42,1.12-13.14-7.69-5.21-7.69-8.43.74-7.56-.62-10.41c-2.36-4.46-3.72-9.79-3.6-13.39s-5.95-20.95-7.81-23.19-4.22-4.09-4.84-3.97-1.86,8.68-2.73,9.92-8.68,3.22-10.29,3.97-5.83,7.44-7.07,7.44-2.11-3.6-3.97-3.97-.87,3.22-1.61,3.1-9.3-2.11-9.92-2.73-.12-7.94,1.24-11.28,4.59-13.14,1.61-20.83-10.91-13.39-12.03-17.98-.99-5.08-4.09-6.32-14.38-13.02-15.87-17.98-4.34-17.48-5.21-20.09-4.77-3.72-5.61-3.72-2.08,2.36-3.32,2.23-4.37-8.12-5.65-8.85-1.74,3.2,0,6.03,3.56,4.66.91,8.4-9.32,4.93-13.88,6.21-5.84,2.28-11.87,2.1-7.67-.73-8.86-2.56-2.37-3.74-3.38-.64-.73,3.11-3.65,3.29-11.73,1.32-11.42,5.75c.38,5.3,3.25,7.19,0,9.5-3.14,2.23-3.11,8.58-6.58,9.31s-15.43,3.47-17.63,5.57-7.31,12.69-11.14,15.43-10.78,8.31-13.15,10.87-3.56,3.74-7.58,6.03-6.76,2.92-6.83,7.26c-.11,6.39-6.68,5.98-9.15,6.44s-7.95,8.4-10.68,8.95-8.58.46-9.5,4.57,1.14,21.87,1.66,26.69-1.03,14.99-4.65,21.37,0,21.54-1.03,23.44-4.48-1.03-6.03-.17-7.07,11.55-6.38,12.41,2.81,2.58-.06,3.1-4.94-.86-6.32.52-3.96,11.55-7.58,12.58-8.1,1.55-11.03-.86-5.17-5-5.17-6.38-3.27-4.31-3.45-5.51-.52-6.2-2.07-8.62-5-11.37-5.51-15.34-1.21-7.75-3.45-8.96-11.2-14.99-12.23-22.23-6.2-22.75-8.44-25.68-10.34-15.16-11.03-24.47-5.86-21.88-5.86-23.95,1.03-4.14.86-7.75-4.31-14.48-3.45-17.23,4.14-6.2,3.45-8.27-5.34-10.51-5.51-14.48-.34-8.44-2.41-8.27-2.76,5.17-2.24,8.27-1.9,7.93-4.83,8.44-8.79,4.31-12.06,4.31-12.06-4.65-16.03-9.13-8.27-7.93-8.44-10.86,8.1-3.45,11.89-6.2,7.41-5.69,4.14-5.69-6.55,2.24-8.79,2.07-9.48-2.24-12.58-3.96-3.1-5.69-5.34-6.89-4.01-2.38-6.25-4.62-5.46-1.07-6.84-2.79-1.9-9.65-3.62-10.68-3.96-1.03-6.55-2.24,1.21-2.76,0-4.83-6.03-4.65-7.41-4.65-13.79,3.1-21.02,3.27-7.07-1.38-11.55-1.38-3.96,2.41-8.27,2.76-12.92-.86-15.34-.34-2.24,3.1-4.65,3.1-26.54-7.07-30.5-7.41-5.51,2.93-6.89,1.72-4.65-4.31-10.34-5-10.68.17-11.89-.69-2.5-18.69-8.44-20.85c-8.64-3.14-23.74,8.31-25.33,9.48-2.25,1.64-5.17-3.62-6.89-3.62s-9.31.69-11.03,0-3.45-4.48-6.72-5-4.48-7.24-8.27-9.31-8.79-.17-12.41-2.58-8.79-14.99-9.82-19.64-9.48-9.48-9.99-12.92-1.9-4.65-5-3.1-9.13-1.41-10.97-2.98,1.44,4.58,0,4.58-12.7-1.96-11.65-.65,4.19,2.88.92,6.15-5.24,4.19-3.54,6.02,11.13,13.33,11.13,22.65c0,4.71,7.2,4.71,7.46,5.76s-.13,4.32,1.31,5.24,7.99,3.67,9.03,6.42.65,12.05,2.23,14.93,7.2,14.01,8.38,13.75-1.44-8.64-.52-10.87,4.45-9.82,6.42-9.17,4.84,2.49,4.98,3.27.92,12.7-.65,16.63-3.93,7.46-3.01,7.99,6.28-.13,6.28,1.18-1.31,3.4.26,3.54,9.95-2.09,12.96-2.49,15.71,1.05,19.12-1.05,15.97-15.58,17.68-18.46,11-8.9,12.44-8.77,0,4.19.13,6.42-.92,9.43.26,11.13,3.54,5.24,4.71,7.73,5.37,7.32,13.36,8.83,12.18.99,12.57,2.16,12.83,15.71,14.66,18.46,1.05,3.54-.79,6.68-3.67,7.59-7.59,9.69-7.07,12.31-8.38,12.96-3.27-3.4-4.84-2.88-5.89,10.47-5.89,11.92,3.01,11.78.26,11.26-9.56.92-12.31,3.54-5.24,10.61-6.68,11.26-9.3.26-10.47.79-3.93,10.87-5.76,11.78-4.71-.39-11,1.18-21.47,5.37-23.83,7.33-6.94,7.86-5.11,11-.52,2.23-4.98,3.67-8.25,5.11-14.4,5.24-20.29,5.76-22.52,8.12-3.93,6.28-5.5,6.55-10.02-.13-12.02.65-4.22,4.71-12.21,6.68-15.84,1.96-17.68,2.62-7.33,7.73-8.64,7.73-13.88,2.88-15.58,2.36-9.03-6.81-9.17-8.25,1.18-6.15.65-7.73-4.19-5.63-5.24-11.52-2.49-21.6-2.36-25.66.39-5.76-1.7-8.25-3.14-5.63-3.93-6.94-5.5-2.62-7.07-5.24-9.69-18.85-12.31-22.91-7.59-11.78-12.18-13.88-6.02-1.31-6.81-4.84-7.33-15.58-7.2-18.59,1.44-8.12,1.31-9.69-8.9-18.07-10.08-18.72-10.21-4.19-11.39-5.89-2.75-11.92-3.54-14.27-10.08-15.06-11.52-17.81-15.71-25.79-18.07-26.58-6.02.92-6.81.13,6.15-16.76,4.19-20.95-6.94,21.74-8.64,23.57-13.49-5.24-14.53-11-.79-7.2-3.14-8.38-3.01-9.82-5.37-9.95-2.23,1.83-1.05,5.89.52,6.42,1.7,8.12,4.19,7.99,6.81,9.82,7.07,6.94,8.38,12.83,1.44,11.78,2.88,13.62,7.59,14.66,11,18.85,5.11,11.78,6.15,13.62,7.33,6.28,7.33,7.2-4.45-.14-3.93,2.68.79,10.68,2.62,12.38,13.36,7.2,14.53,12.05,6.81,17.81,6.81,22.91.79,20.82,1.57,23.04,15.81,10.8,18.33,15.84c3.69,7.39,7.57,23.02,8.12,27.76.69,5.92,7.07,9.82,8.25,9.3s3.54-1.44,3.54.79-.13,3.93,3.4,3.54,9.17,4.45,12.44,6.42,3.8,8.25,6.68,8.64,3.93.92,4.98,3.27,7.07,9.03,7.73,10.47,5.11,0,6.15,1.7,6.02,10.87,2.62,11.92-6.42,3.4-7.99,3.67.39,2.62,3.67,2.62,5.11,1.57,6.42,4.32,5.24,5.37,7.33,7.46,1.44,3.54,7.07,3.67,8.03-1.93,11.55-3.86,4.22-2.46,9.49-1.76,9.58,1.26,11.6-1.58c2.61-3.68,13.33-2.5,16.52-2.81,3.52-.34,4.92-3.69,9.49-2.64s10.19-2.11,13.53-2.11,7.2-2.11,8.44-4.04,1.23-1.93,5.27-.88,5.45,1.05,4.57,3.51-2.11,5.27-1.93,6.68,1.58,5.62,1.23,6.5-3.51,3.16-3.51,4.39,1.23,9.84-.35,11.95-5.62,5.8-6.5,9.49-3.88,7.64-5.1,10.37c-1.18,2.64-12.38,16.64-13.88,23.72-2.04,9.67-7.36,16.34-9.22,17.93-2.88,2.46-2.03,7.2-9.76,13.53s-17.22,18.98-21.97,22.14-13.36,7.91-14.94,7.91-11.77,8.79-18.98,15.29-18.1,20.74-20.21,23.2-5.62,8.44-8.26,11.07-10.19,7.91-12.3,8.96-4.04,2.46-4.92,6.33-1.41,6.5-3.16,9.49-8.96,15.64-9.67,17.92-5.1,10.02-5.1,12.13-1.05,7.2.53,8.61,7.73,5.45,7.73,6.85-2.81,6.5-2.11,8.79,1.76,5.97.88,8.96-.7,5.27.7,6.68,4.22,7.56,3.87,11.25-.7,4.74,3.69,7.73,6.5,2.99,7.2,8.44,2.11,21.09,1.23,29.87-5.6,43.86-5.6,43.86l-380.1,6.91-176.23-114.03-51.83-338.63,57.01-297.17,354.18,17.28s26.11,57.5,31.93,57.17,8.87,2.17,10.54,3.14,6.38.93,11.65-3.14,7.36-7.92,18.3-8.5c15.67-.83,18.44,8.55,19.96,8.5s6.04-4.48,14.78-1.65c7.95,2.57,15.85-10.32,22.37-36.52,0,0,3.74-5.55,3.88-9.15s4.57-6.93,5.96-9.01-1.52-9.84-1.52-13.72.14-12.2-.14-14.28,5.41-4.85,5.41-6.52-3.6-6.1-4.44-6.1-3.6,5.82-4.44,5.82-8.04-3.47-11.23-3.47-9.57,9.01-13.31,9.84-12.06,4.02-14.83,2.91-7.21-6.63-9.57-9.01c-1.38-1.39-13.73-5.45-19.41-4.02-3.88.98,3.33,7.21-5.55,9.29s-13.59-.42-14.28-1.8-.55-3.19.14-4.3-8.73-1.11-10.26-1.52-2.08-.69-5.13-.69-4.57-1.94-1.52-2.22,4.85-2.22,3.6-2.22-6.38-.69-7.07.14-50.3-.06-50.3-.06L-70.76-25.72l1584.93,13.74Z" fill="none" stroke="#000" stroke-miterlimit="10" stroke-width="5"/><path d="M-26.43,269.18c0,2.43,32.93.82,34.7,0s-3.81-3.13-2.45-4.22,7.48-.54,7.48-1.77-7.35-4.35-7.76-4.76-18.23-.41-19.05,0-1.77,3.68-4.22,5.58-8.71,4.62-8.71,5.17Z" fill="none" stroke="#000" stroke-miterlimit="10" stroke-width="5"/><path d="M176.42,229.01c2.04,3.98,3.98,7.53,4.2,10.86s-2.37,12.37-5.81,12.37-11.94,6.88-13.77,7.42-3.44-.22-5.92-.43-25.6.75-27.11.11-3.44-1.83-5.59-1.94-6.02-1.4-6.99-2.58-2.26-2.8-4.2-2.15-1.4,1.83-2.9.86-5.16-8.18-6.35-8.18-9.79.97-10.54.11-3.12-6.45-3.98-6.56-1.72,2.37-2.47,2.47-10.53-.16-11.82-.59-11.2-.18-19.26,3.65-14.41,7.7-15.27,10.39-13.23,1.72-15.38,1.51-8.61-.65-10.54-.75-8.93-1.51-11.51-3.12-8-3.76-7.76-4.84-.41-12.05-3.21-13.02-1.18-13.34.65-15.49,10.76-2.58,9.9-10.65-.22-14.52,1.94-16.35,12.37-4.09,12.59-7.42-.43-5.16.32-8.07-.97-4.09.32-5.59,11.94-9.36,12.48-12.16-.11-4.73,3.12-5.7,16.03-2.8,18.18-.86-3.66,4.41-2.69,6.35,3.98,3.23,7.85,3.33,13.02.97,12.8,3.55-7.96,4.63-9.57,6.35-3.76,4.52-3.33,5.16,4.84,1.72,6.78,2.15,6.02.54,6.56,1.72.32,4.3.86,5.92-.86,6.99.75,7.53,6.24.97,7.96-.65,4.84-3.33,5.49-4.63,1.51-2.26,3.23-2.04,4.95.32,5.38-1.61,1.83-4.41,3.12-4.3,2.9,1.18,6.24.97,3.98,1.29,5.06.75,1.4-2.26,1.94-4.52,2.58-3.55,1.4-3.55-5.7.97-7.1,1.29-5.92,2.04-7.53,2.04-4.95-.11-5.06-1.08-.54-6.78-2.26-6.78-5.49-1.18-5.7-2.58,0-4.84,1.29-5.81,6.13-4.84,10-6.99,5.92-4.63,9.57-4.52,10.54-1.83,11.19-2.37,6.24-4.63,9.04-4.95,8.07-1.72,10.65-1.72,5.16-.86,7.21-1.08,5.27,2.26,4.41,3.12-17.86,6.99-17.32,8.39,7.53,7.74,7.53,8.71-11.94,9.47-11.94,10.54.65,5.27-.32,5.7-3.87-1.08-5.27-1.18-3.66-.86-4.52,0-3.76,4.52-2.8,5.06,3.76.75,4.52-.43,2.47-.32,3.01,1.83,2.69,6.13,3.98,7.31,8.93,6.35,12.59,6.88,3.98-.43,6.88,3.01,8.93,9.79,11.08,11.29,6.99,7.96,8.61,8.5,3.98-.11,5.7.54c.86.32,4.52,2.77,6.67,5.06s2.8,4.41,2.8,4.41Z" fill="none" stroke="#000" stroke-miterlimit="10" stroke-width="5"/><path d="M350.23,167.97c2.24.12,10.02,10.96,10.02,12.14s-4.6,3.89-6.48,3.89-7.43-.24-8.72.94-6.37,11.67-7.19,11.43,3.54-11.2,3.54-12.26-9.19-3.3-10.61-4.95-16.39-6.48-20.04.35.35,10.61-1.89,11.67-12.02-.12-12.14,1.53.94,4.48,4.83,4.83,9.31,9.9,9.31,11.32-.35,9.31,3.3,9.43,1.89,4.83,5.07,5.42,9.55.12,11.43,3.06-3.3,8.02-3.06,15.32,3.54,11.32,4.48,11.32-.71-12.02.83-12.38,10.37-4.36,11.32-3.65,14.74,20.28,14.74,21.69-13.91,6.37-14.97,5.89.24-3.06-1.06-3.3-12.14,5.19-12.26,6.6-1.18,6.84-.12,7.54,12.38-1.06,13.09,0-4.24,9.78-6.01,9.78-1.41,2.36,1.65,2.24,9.55,8.37,8.25,10.37-2.36,16.39-1.41,21.1,4.01,10.61,1.77,12.02-3.3.24-6.25,0-16.62,4.36-20.75,4.83-19.1-5.78-21.57-8.02-2-5.66-3.89-6.13-11.08-.12-12.97-2.12-4.24-6.72-4.36-13.67-.24-8.96,3.3-13.09,2.95-16.74,4.48-18.63,9.9-5.07,10.14-6.96-7.43-1.18-8.96-2.36-7.75-16.5-9-17.8-9.39-8.72-11.04-12.61-8.13-10.73-8.13-13.09,2.59-14.97,2-17.45-11.43-9.55-11.79-11.43,4.95-2.83,7.78-10.49,3.54-10.26,6.84-10.26,14.62-2.83,16.5-5.66,1.18-8.61,2.95-8.25,6.37,3.77,7.78,1.3-.35-6.48,1.41-7.31,12.02-10.49,16.15-10.02,4.72,3.77,7.19,4.36,8.25,2,9.08,1.65-.24-4.13.83-4.13,11.2-.94,11.67,5.89,1.65,10.85.71,12.5-2.36,4.36-.71,6.13,2,3.65,2.83,4.01,2.36-1.06,4.72-1.77,5.42-2.83,5.42-2.83Z" fill="none" stroke="#000" stroke-miterlimit="10" stroke-width="5"/><path d="M51.28,364.69c-.12,1.3,5.42,4.72,7.07,4.72s14.03-6.96,16.39-9.9,5.78-5.66,5.31-6.49-4.83,1.65-6.49,2.36-5.07.83-9.32,1.18-12.85,6.84-12.97,8.14Z" fill="none" stroke="#000" stroke-miterlimit="10" stroke-width="5"/><path d="M339.81,700.35c.52-1.75,9.27-.87,10.02-.58s.93,3.9,0,4.72-7.46.76-8.16,0-1.86-4.14-1.86-4.14Z" fill="none" stroke="#000" stroke-miterlimit="10" stroke-width="5"/><path d="M707,739.96c1.7-.18,19.3,21.25,20.89,32.76,1.86,13.46-7.02,22.48-16.61,20.62s-10.31-21.05-9.74-29.07,3.76-24.13,5.46-24.31Z" fill="none" stroke="#000" stroke-miterlimit="10" stroke-width="5"/><path d="M1096.15,616.02c.96,1.56,10.42,5.39,13.41,4.55s5.63-5.03,8.38-5.27,5.15-8.98,6.35-12.22,3.59-6.47,2.16-7.43-11.74-1.56-18.45.6-11.86,7.67-12.58,8.98-.24,9.22.72,10.78Z" fill="none" stroke="#000" stroke-miterlimit="10" stroke-width="5"/><path d="M1260.82,566.22c1.87.12,1.37-6.85,4.86-12.08s6.23-8.1,6.6-14.95,5.11-11.09,5.11-15.32-3.86-6.73-6.73-6.73-9.59,8.47-10.59,11.71-6.73,8.84-7.6,12.83-1.25,6.48-.62,9.22,4.98,9.96,6.73,11.96.37,3.24,2.24,3.36Z" fill="none" stroke="#000" stroke-miterlimit="10" stroke-width="5"/><path d="M1733.1,79.79c1.11.74,8.4-2.84,9.39-3.95s2.35-4.7,2.47-6.3-4.08-.74-4.32,0-6.05,4.7-6.3,5.93-2.35,3.58-1.24,4.32Z" fill="none" stroke="#000" stroke-miterlimit="10" stroke-width="5"/><path d="M1797.89-9.13c-.64,3.64-2.78,7.71-2.35,10.06s3.64,8.99,2.35,10.27-5.35-.86-7.71,0-6.21,4.71-7.71,5.35-6.21,7.71-5.78,10.06,1.92,3.98.56,6.56-3.94,8.83-6.66,11.82-14.54,18.08-17.12,18.08-3.67-9.11-3.81-13.32.14-14.27-.82-16.72-4.62-15.36-5.16-23.51-2.17-12.91-2.17-16.04-2.43-16.26-2.43-16.26l61.86.92-3.06,12.72Z" fill="none" stroke="#000" stroke-miterlimit="10" stroke-width="5"/><path d="M1336.96,392.05c.26.6,6.19-.49,6.84-.49s-2.2-4.07-2.77-4.23-4.32,4.15-4.07,4.72Z" fill="none" stroke="#000" stroke-miterlimit="10" stroke-width="5"/><path d="M1397.89,427.16c1.35,0,10.97-7.65,10.97-10.09s-1.08-6.77,1.08-10.56,4.61-7.45,4.47-8.67-5.69-5.96-5.82-7.04,2.84-1.66,2.57-3.47-8.8-3.3-9.07-4.39-.14-3.66-.95-3.79-.95,1.49-3.25,2.3-13.82,7.04-14.9,7.58-1.08,6.37,0,7.45,5.96,4.47,7.18,4.2-.54-7.58.54-7.58,3.39,2.84,3.25,4.74-.14,2.98.54,3.79.68,4.2-.54,5.15-4.33,2.3-4.33,5.96,1.22,4.2.81,6.5,0,2.71,1.22,3.52,4.88,4.4,6.23,4.4Z" fill="none" stroke="#000" stroke-miterlimit="10" stroke-width="5"/><path d="M919.52,838.17c0-.6,5.65.68,6.41.83s2.11,2.11,2.11,2.71-1.21.15-2.94-.75-5.58-2.19-5.58-2.79Z" fill="none" stroke="#000" stroke-miterlimit="10" stroke-width="5"/><path d="M938.32,856.23c-.56-1.04,1.44-2.32,2.56-2.16s6.64,6.16,6.72,6.88,1.12,4.96.64,4.96-4.12-4.48-4.9-4.96-4.47-3.68-5.03-4.72Z" fill="none" stroke="#000" stroke-miterlimit="10" stroke-width="5"/><path d="M958.58,893.34c-.28-.89,2.62-4.2,3.51-4.13s4.61,5.02,4.27,6.68-3.3,2.34-4.34,2.2-3.17-3.85-3.44-4.75Z" fill="none" stroke="#000" stroke-miterlimit="10" stroke-width="5"/><path d="M1258.61,617.16c1.88-1.45,5.16-1.38,7.15-.47s6.14,2.89,7.77,2.89,5.24.18,7.22-1.08.54,3.43,0,4.88-1.08,3.25.18,4.52,5.06,8.49,4.52,9.93-3.43,9.93-5.06,12.1-5.06,3.43-6.5,5.24-3.38,8.73-2.14,13.83,1.42,8.74,3.79,10.38,5.46,2.91,6.38,1.64-.18-3.28.91-3.28,15.85,3.1,16.76,4.92,2.75,5.99,2.87,8.05,1.21,9.67.73,9.67-2.9-4.6-6.05-5.44-1.33-4.35-2.3-4.96-6.77-6.77-8.1-6.89-.48,2.54-.12,3.99,1.93,3.87-1.57,1.69-8.93-6.67-10.88-6.65c-.93,0-1.32,5.35-7.5,4.6-4.58-.56-5.8-9.43-7.5-11.49s-6.29-3.63-6.89-5.32-2.66-4.72-3.02-11.01-.48-10.52.48-10.76,4.6,4.47,5.8,3.75-.6-22.01.36-25.88.84-7.39,2.72-8.83Z" fill="none" stroke="#000" stroke-miterlimit="10" stroke-width="5"/><path d="M1212.61,757.78c.52,1,5.68,0,8.35-2.67s5.46-3.38,7.17-6.2,4.13-8.26,5.24-9.16,4.03-1.61,6.55-3.42,5.64-5.94,5.64-8.76.91-7.55,0-7.55-2.92,1.91-3.42,3.02-1.51,5.44-2.01,6.75-2.22,4.53-4.13,4.93-6.77,5.64-6.71,6.04-2.86,5.94-4.87,6.55-4.63,5.94-6.04,5.94-6.28,3.54-5.76,4.54Z" fill="none" stroke="#000" stroke-miterlimit="10" stroke-width="5"/><path d="M1277.03,730.79c.8,1.07,8.09-1.55,10.59-4.31s6.11-7.4,5.85-9.21-3.44-1.72-5.94-1.72-7.23,2.32-7.92,2.41-3.36,11.8-2.58,12.83Z" fill="none" stroke="#000" stroke-miterlimit="10" stroke-width="5"/><path d="M1304.32,723.29c.77,0,1.98,3.71.86,6.9s-6.63,14.12-8.18,14.12-.77-4.31-.52-5.51,7.06-15.51,7.84-15.51Z" fill="none" stroke="#000" stroke-miterlimit="10" stroke-width="5"/><path d="M1303.38,742.58c-1.03-1.29,5.51-6.72,6.37-7.15s3.79,2.84,3.7,3.57-2.84,3.57-3.7,3.92-5.34.95-6.37-.34Z" fill="none" stroke="#000" stroke-miterlimit="10" stroke-width="5"/><path d="M1293.49,749.56c1.11,0,.53-3.96,0-5.6s2.07-8.27,2.58-10.16,2.92-8.09,2.83-9.04-7.06-1.03-7.58-.6-1.21,10.94-2.07,12.58-5.42,3.09-5.51,4.73,8.64,8.09,9.74,8.09Z" fill="none" stroke="#000" stroke-miterlimit="10" stroke-width="5"/><path d="M1325.53,740.9c1.25,0,10.69,9.82,10.79,11.17s.96,10.79.96,12.71,4.24,8.96,4.04,9.73-5.39,12.52-6.36,12.52-2.6-11.94-4.04-12.33-5.68,4.72-5.39,5.49,2.12,5.3,1.35,9.92-1.06,7.7-2.02,7.8-1.06-5.2-3.18-5.49-9.05.77-12.42-2.22-4.14-7.42-3.66-10.21,2.79-5.39,2.31-6.55-9.63-5.2-10.98-5.2-6.65,3.76-7.7,3.76.1-3.47-.77-3.47-5.87,8.86-6.55,8.96-1.64-3.27-1.64-5.59,3.27-7.03,4.43-7.61,4.24-.19,6.45-2.12,4.33-4.43,4.53-5.3,3.56-2.02,6.16,1.06.48,5.49,2.22,5.2,11.65-4.53,11.94-6.36-.96-5.97,1.64-5.01,3.27.87,4.62-.58,4.14-1.83,4.04-3.27-.58-1.86-.96-3.63-1.06-3.4.19-3.4Z" fill="none" stroke="#000" stroke-miterlimit="10" stroke-width="5"/><path d="M913.36,798.01c1.4-.83,7.04,5.13,10.42,5.13s18.38-1.38,20.36,0,8.88,9.67,9.08,11.64-.79,3.95,1.97,4.74,4.14,2.17,7.1,3.75,6.71,4.93,9.27,7.1,8.48,5.83,9.67,7.65,2.76,4.78,4.54,6.36,4.14,1.58,6.91,1.78,8.09.99,8.29,1.78-.59,3.16,3.16,4.14,6.91.39,7.89,4.14,1.77,5.55,3.52,3.78,2.1,5.57,2.1,6.62,1.75,4.08,4.54,2.1,7.34,4.66,6.52,5.71-.86,2.91.1,4.31-2.89,3.03-4.06,3.73,2.47,6.17,4.21,6.17,6.63-1.97,7.79.59,3.96,15.84,5.48,17,6.76-.93,9.9,1.28,8.15,7.8,7.69,11.18-2.1,34.36-3.38,36.11-5.48-5.13-6.87-5.01-.58,3.61-2.68,3.96-9.32.47-11.53-2.1-4.43-7.92-7.92-8.39-19.22-12.58-19.45-15.26-1.16-4.31-3.73-5.36-12.69-11.25-14.55-15.67-2.11-10.83-3.85-13.31-10.95-11.56-11.65-16.45-7.34-2.45-8.62-5.94-4.43-14.33-4.78-18.52-8.74-5.59-10.72-7.92-5.36-.44-5.01-4.82-5.01-9.86-7.69-11.95-2.8-4.43-4.66-4.43-2.8.12-4.66-1.63-12.12-10.13-12.93-12.81-3.15-10.35-1.75-11.17Z" fill="none" stroke="#000" stroke-miterlimit="10" stroke-width="5"/><path d="M1047.65,902.94c-1.07-1.07,5.65-7.37,7.95-7.37s4.01,0,5.15,4.15,2.58,8.37,3.65,8.8,5.44.29,5.44,1.36-1.43,7.23-3.44,7.37-7.66-4.37-8.45-6.08-1.79-7.44-2.79-7.59-7.01-.14-7.52-.64Z" fill="none" stroke="#000" stroke-miterlimit="10" stroke-width="5"/><path d="M1081.43,910.76c1.43-1.23,8.67.07,8.67,2.05s-1.16,6.15-6.08,6.21-2.6-8.26-2.6-8.26Z" fill="none" stroke="#000" stroke-miterlimit="10" stroke-width="5"/><path d="M1051.76,969.29c.81-2.7,7.82-12.54,9.84-12.54s7.49,2.46,9.04,2.46,5.04-.72,7.67.18,5.28,1.68,6.78,1.86,4.5,0,5.7-.36,4.08,6.78,5.82,7.43,9.05.19,11.15.97,10.79,1.43,11.99.77,2.22-5.64,4.14-5.7,7.61-.9,11.39,1.08,5.46,4.02,7.14,4.08,23.92-.3,25.12-.06-2.1,3.42-3.84,3.9-10.97.06-11.57.66,3.06,6,4.8,6.72,10.19.54,11.39.84,6.83-.01,6.42.84c-.5,1.02-.96,9.18-1.62,9.77-.93.85-15.83-.42-18.65-1.08s-7.34-.34-11.64-1.08-4.2-.84-7.04-.95-7.67-1.05-9.45-1.47-17.54-6.09-18.8-6.3-5.57-.84-6.3-.21-14.5.74-16.81,0-3.57-3.57-5.78-3.26-4.1-.74-5.57-.74-5.88,0-6.72-1.89-6.09-7.14-7.14-7.04-5.57,1.47-6.41,1.37-1.03-.25-1.03-.25Z" fill="none" stroke="#000" stroke-miterlimit="10" stroke-width="5"/><path d="M1175.16,987.67c-.09-.65-.28-1.35,4.39-.28s12.64,1.87,11.2,3.22-3.83,4.57-6.3,4.39-9.19-6.67-9.29-7.33Z" fill="none" stroke="#000" stroke-miterlimit="10" stroke-width="5"/><path d="M1193.78,996.51c.35,1.05,7.47,1.85,8,1.76s4.31-8.08,3.78-9.67-5.89-.62-6.77,0-5.36,6.85-5.01,7.91Z" fill="none" stroke="#000" stroke-miterlimit="10" stroke-width="5"/><path d="M1205.21,999.14c.77-1.24,5.37-8.53,5.98-8.22,1.41.72,10.98,4.78,11.78,4.08s-.35-2.64-1.05-4.08-2.37-4.61-.7-4.61,14.32,1.05,15.38,2.64,2.64,4.39,2.11,5.01-.53,2.28-2.46,2.11-10.46-.53-10.9-.18-.88,1.14-2.81,1.23-2.2,1.24-3.95,1.15-2.2.7-4.13.87-3.16,1.49-4.57.53-5.22.38-4.66-.53Z" fill="none" stroke="#000" stroke-miterlimit="10" stroke-width="5"/><path d="M1237.44,1006.1c.51-1.44,5.52-2.21,8.33-2.21s7.22-1.27,10.88,2.97,6.03,6.03,4.76,7.14-6.2,1.27-8.5,1.19-4.59-4.76-6.63-5.18-5.52-1.35-7.49-1.87c-1.98-.52-1.69-1.49-1.35-2.04Z" fill="none" stroke="#000" stroke-miterlimit="10" stroke-width="5"/><path d="M1248.24,993.83c-.29-1.05,4.57-5.13,5.9-4.95,1.42.19,8.57,0,10.95.86s5.81.67,9.24,1.05,9.71-.29,10.48.57,0,3.62-1.43,4.1-3.71.86-6.48.95-4.1.67-7.14.95-13.33-.76-15.71-1.24-5.18-.8-5.81-2.29Z" fill="none" stroke="#000" stroke-miterlimit="10" stroke-width="5"/><path d="M1207.23,778.74c1.44-.04,12.42,6.82,12.42,9.01s-2.43,5.36,3.17,6.82,17.04,4.14,16.56,7.79-7.06,4.38-9.5,4.38,3.17,8.52,1.7,8.52-11.69-1.22-11.93,0-3.17,6.09.24,7.55-4.87,4.38-4.87,6.33,7.06,12.42,7.06,16.07,16.8,14.37,15.34,15.34-7.3,3.41-8.77,2.68-5.36-2.41-6.82.13-5.91,7.69-5.73,10.31.17,6.11-1.92,6.63-2.97,2.79-1.57,4.88-4.32,6.11-5.39,9.07-5.6,13.96-5.78,16.75-3.84,8.2-2.62,8.9,2.78,2.03,2.14,3.19-3.34,5.26-3.47,4.88.13-5.65-1.16-5.65-17.58,10.4-19.12,9.63,2.31-8.09,0-8.21-11.17-1.93-14.12-2.05-7.06-5.65-8.09-5.65-.51,4.11-1.93,4.49-6.8-.13-9.5-.13-3.21,3.47-4.88,3.47,1.41-9.5-1.28-9.75-3.54,3.08-12.53,1.7c-5.31-.82-9.67-.8-8.26-5.03.13-6.8-.51-14.76-1.16-16.3s-12.06-11.29-13.48-15.27-4.11-13.6-3.21-17.97,7.44-11.04,8.34-12.71,2.44-1.67,3.85.51,5.26,3.59,7.32,3.59,5.78,1.41,7.7,1.16,4.49-10.52,6.16-13.86,5.01-4.88,10.65-5.39,12.19-1.41,15.14-6.03,8.97-16.17,11.03-16.3,18.62-7.19,20.93-9.37,6.29-7.96,7.32-10.91,6.16-7.57,7.06-8.47,1.48-4.67,2.92-4.71Z" fill="none" stroke="#000" stroke-miterlimit="10" stroke-width="5"/><path d="M1302.05,1016.92c.67.52,8.7-1.19,13.69-6.92s7.51-6.47,13.84-8.7,19.94-7.59,19.94-9.89-5.36-2.38-9.45-.82-9.89,2.08-12.57,1.86-10.19,6.84-12.05,7.14-5.36,3.05-6.47,3.05-5.13.15-5.73,3.94-1.86,9.82-1.19,10.34Z" fill="none" stroke="#000" stroke-miterlimit="10" stroke-width="5"/><path d="M1330.23,984.3c.18.55,8.3.31,8.67-.68s2.64-4.37,2.58-4.67-7.5.25-8.42,1.05-3.01,3.75-2.83,4.3Z" fill="none" stroke="#000" stroke-miterlimit="10" stroke-width="5"/><path d="M1401.97,984.81c.42.42,5.75-2.35,5.68-4.02s-.42-3.53-1.32-3.6-4.78,7.2-4.36,7.62Z" fill="none" stroke="#000" stroke-miterlimit="10" stroke-width="5"/><path d="M1446.49,969.58c1.01.08,6.17-6.93,6.17-8.88s-2.54-10.48-3.09-10.74-2.66,7.19-3.09,8.12-1.27-.42-2.03-.42-1.69,7.27-1.1,8.79,2.11,3.04,3.13,3.13Z" fill="none" stroke="#000" stroke-miterlimit="10" stroke-width="5"/><path d="M1286.69,953.1c1.45.1,7.78-5.6,7.78-6.22s-5.08-3.73-5.08-4.67-.31-4.36-1.14-4.36-5.08,1.97-5.39,3.94-1.66,5.71-.83,7.16,3.22,4.05,4.67,4.15Z" fill="none" stroke="#000" stroke-miterlimit="10" stroke-width="5"/><path d="M1318.52,851.54c1.06.07,3.77,3.66,3.37,4.41s-6.65,10.45-8.35,10.99-8.82,3.46-11.53,3.46-5.63-1.76-7.19-2.04-37.25-.07-38.74.07-3.66,4.14-3.8,6.24-1.02,6.92-.75,8.82,7.06,9.57,8.01,10.18,5.5,1.09,6.58.95,3.39-7.33,4.34-7.33,5.29,1.83,6.58,1.36,2.92-3.26,3.66-3.32,8.89-1.29,10.52-1.29,5.77-.75,4.27.14-4.48,2.65-5.97,3.66-8.55,8.41-9.16,9.3-8.89,2.51-8.55,4.48,6.04,10.18,7.94,12.42,2.37,7.67,1.76,9.57,1.63,2.71,4.21,5.63,5.16,5.43,4.89,5.84-8.59,1.4-10.01,1.51c-1.83.14-.17,5.08-1.19,5.08s-8.21-1.22-8.21-3.05,1.63-6.51,1.29-7.74-8.07-4.55-8.41-5.77.14-8.41.54-9.7-2.37-3.46-4.41-3.46-6.31,1.76-6.17,3.46,2.44,2.85,2.44,4.14-.2,5.02-.68,8.48-1.22,15.27-.88,17.03,1.22,5.84.41,5.9-4,.07-5.16.54-6.24.81-6.31,0-.61-6.72,0-8.55,1.7-11.26,1.36-13.23-.81-6.78-2.85-6.92c-2.98-.2-3.6.95-5.16.81s-2.65-3.53-1.63-7.8,4.95-12.69,5.36-15.4-.2-8.82.54-9.77,5.56-5.7,5.9-7.67,1.97-6.92,1.22-7.33-2.78-2.65-.54-4.27,7.19-7.19,9.57-9.64,3.73-4.48,5.7-4.41,8.01,2.85,9.57,3.12,10.86,1.15,14.11,1.15,8.96,1.49,12.35,1.56,4.61.54,9.23-2.71,6.45-3.94,6.79-4.82,2.09-4.14,3.15-4.07Z" fill="none" stroke="#000" stroke-miterlimit="10" stroke-width="5"/><path d="M1310.81,900.87c.58.89,19.64,1.67,20.1.89s-16.48-3.11-18.47-3.35-2.22,1.56-1.64,2.45Z" fill="none" stroke="#000" stroke-miterlimit="10" stroke-width="5"/><path d="M1334.89,922.49c3.16,1.64,10.29,3.62,11.92,2.57s3.27-3.51,1.05-5.61-10.29-1.87-11.81-1.52-1.17,4.56-1.17,4.56Z" fill="none" stroke="#000" stroke-miterlimit="10" stroke-width="5"/><path d="M1362.59,914.78c.55-.28,14.03-2.45,23.84.58s11.16,5.04,10.52,6.17-1.95,1.17-1.77,1.46,1.33.79,1.9,0,2.18-.37,1.92,1.2.82,4.49-1.01,3.11-4.79-3.41-6.59-4.01-4.64-3-8.12-1.31-9.29-1.83-10.78-2.02-3.11.26-4.12,1.68-6.34-6.59-5.79-6.87Z" fill="none" stroke="#000" stroke-miterlimit="10" stroke-width="5"/><path d="M1353.19,897.88c2.6.51,8.18,1.01,8.44,0s-1.08-3.04-2.28-3.04-5.71-.63-6.15,0,0,3.04,0,3.04Z" fill="none" stroke="#000" stroke-miterlimit="10" stroke-width="5"/><path d="M1359.82,845.38c1.84.31.31,6.53,0,9.01s-1.35,4.56-.41,4.66,8.08-5.9,8.6-5.7,3.21,6.94,2.28,7.35-5.7,3.31-6.32,3.94,5.59,4.66,5.28,5.18-7.35-1.86-8.91-1.55,0,10.36-.31,11.29-3.52-.21-4.04-.52-.62-8.29-1.66-10.46-2.36-9.94-1.34-13.15,4.99-10.36,6.83-10.05Z" fill="none" stroke="#000" stroke-miterlimit="10" stroke-width="5"/><path d="M1367.07,839.57c.53.04.98,5.49,1.19,5.8s-4.04-1.09-4.04-2.23,2.12-3.62,2.85-3.57Z" fill="none" stroke="#000" stroke-miterlimit="10" stroke-width="5"/><path d="M1395.76,879.06c.45,1.01,4.94.71,5.53.29s-1.06-4-1.77-4.06-4,3.24-3.77,3.77Z" fill="none" stroke="#000" stroke-miterlimit="10" stroke-width="5"/><path d="M1383.78,901.29c-.44-1.02,2.89-2.32,4.21-2.32s5.65,1.62,5.34,2.32-9.29.61-9.55,0Z" fill="none" stroke="#000" stroke-miterlimit="10" stroke-width="5"/><path d="M1395.02,887.78c.72-.96,6.18-.68,6.39,0s-.08,5.83,1.38,2.14,1.94-4.37,6.12-4.76,7.28-1.26,7.38-2.82,4.27-2.51,6.31-2.42,6.9,4.56,10.78,5.04,9.32,0,9.32,2.04.29,8.97.78,11.97,2.33,7.56,2.43,8.92.68,3.79,2.14,2.62,3.79-1.26,3.89.78-1.07,3.59,1.55,6.12,2.53,4.37,6.9,3.79,3.21-1.17,5.93-3.3,7.67-6.61,7.67-8.55-.39-3.21,1.85-4.18,9.42-.49,9.62-2.14-.68-1.94-.68-2.91,7.9-3.2,13.41-2.52,14.57,5.21,19.48,7.55,7.93,3.17,14.49,4.08,16.61,4.98,20.61,6.64,22.49,8.64,25.74,9.45,6.33,1.14,10.06,3.89,11.35,8.11,12.17,9.89,1.3,6.97,1.62,8.11-.81,2.39,2.38,2.94,17.06,7.03,23.18,7.94-2.4,11.23-7.54,11.69,2.28,10.04,7.76,11.3,9.82,13.81,11.98,15.75,10.27,1.6,11.53,2.51.91,7.19,3.2,7.88,5.14-.46,5.71.57-1.48,5.02,0,5.82,7.65,1.37,7.65,2.17.34,5.59-1.94,5.59-1.14-2.97-5.48-3.08-19.86-3.65-25.68-3.65-26.82-25.11-27.05-28.08-9.13-3.2-11.87-3.77-3.42-2.85-6.96-2.51-13.47,4.45-14.61,6.16-9.13,1.94-9.47,2.85,7.53,8.1,5.59,9.13-4.57,4.45-8.56,4.22-23.97-1.48-26.37-4.68-8.56-11.64-12.44-11.64-17.24,2.74-23.06,2.74-7.42,1.71-7.42-.11,2.28-8.1,4.11-9.25,2.4-3.42,4.79-3.31,9.03,2.23,7.65.57c-2.85-3.42-1.48-7.53-3.77-11.64s-6.85-15.41-9.47-16.09-13.01-7.99-20.43-10.39c-7.65-3.42-18.38-2.74-19.52-4.68s-3.65-6.28-7.31-5.02-5.71-.8-8.79-3.99-4.11-4.34-5.36-1.71-2.28,5.94-3.54,6.62-3.65.46-3.77-.34-.91-9.13-1.26-9.93-7.15-4.04-7.22-4.88,20.6-7.17,20.6-8.44-7.24-.84-12.02-.84-7.41.79-9.38-1.32-2.5-5.66-5.52-6.31-8.94-1.97-11.24-3.55-7.12-5.7-6.39-6.66Z" fill="none" stroke="#000" stroke-miterlimit="10" stroke-width="5"/><path d="M1466.21,886.64c.71-.39,7.56,4.33,6.85,4.57s-4.96-.32-5.52-.87-2.05-3.31-1.34-3.7Z" fill="none" stroke="#000" stroke-miterlimit="10" stroke-width="5"/><path d="M1464.32,897.82c.16-.71,13.95.55,13.95,1.34s-4.23,1.73-5.15,1.73-8.95-2.36-8.8-3.07Z" fill="none" stroke="#000" stroke-miterlimit="10" stroke-width="5"/><path d="M1681.67,933.68c.39-.79,8.93-1.97,9.33,0s.13,14.19-1.05,15.24-4.6.53-7.1,2.5-6.7,4.86-7.1,5.65-7.62,2.1-10.64,2.1-7.1,1.97-10.38,1.97-8.41-3.55-9.72-4.73-3.94-1.18-4.99-2.1-2.76-3.81-1.05-4.2,9.33.3,12.88.54,8.8-.28,9.33-3.17,1.31-4.07,1.71-2.37-.16,5.03,1.83,5.54,10.26.77,10.66-1.73.79-5.91,2.63-5.91,3.81.92,3.68-1.31,0-8.02,0-8.02Z" fill="none" stroke="#000" stroke-miterlimit="10" stroke-width="5"/><path d="M1676.55,913.97c1.18-1.05,26.02,14.66,26.15,18.63s-2.23,6.2-3.15,5.94c-.42-.12-1.14-6.76-6.31-12.35-6.07-6.56-17.87-11.17-16.69-12.22Z" fill="none" stroke="#000" stroke-miterlimit="10" stroke-width="5"/><path d="M1724.99,950.03c.89-.67,19.18,13.37,18.18,17.17-.56,2.12-7.81,1.78-8.25,0s-1.78-5.35-4.24-6.58-4.8-3.79-4.8-5.35-1.78-4.57-.89-5.24Z" fill="none" stroke="#000" stroke-miterlimit="10" stroke-width="5"/><path d="M1750.31,968.67c-.33-1.02,2.9-1.69,4.24-.69s9.37,7.47,9.03,7.92-4.67-.22-6.63-1.56-6.31-4.65-6.64-5.67Z" fill="none" stroke="#000" stroke-miterlimit="10" stroke-width="5"/><path d="M1767.26,989.51c.33-.56-5.69-6.13-6.58-4.35s6.24,4.91,6.58,4.35Z" fill="none" stroke="#000" stroke-miterlimit="10" stroke-width="5"/><path d="M1779.88,981.79c-.16-.65,3.66-.16,5.45,1.06s9.77,6.54,9.93,6.73-2.85.54-3.91,0-11.31-7.13-11.48-7.79Z" fill="none" stroke="#000" stroke-miterlimit="10" stroke-width="5"/><path d="M1796.57,1005.06c1.14-.33,11.15,2.85,11.39,3.91s.81,2.03-2.12,1.95-9.36-.16-10.09-.9-.33-4.64.81-4.96Z" fill="none" stroke="#000" stroke-miterlimit="10" stroke-width="5"/><path d="M1808.45,989.86c1.06,0,8.71,15.53,8.79,16.42s-8.22-7.06-8.79-8.21-1.06-8.21,0-8.21Z" fill="none" stroke="#000" stroke-miterlimit="10" stroke-width="5"/><path d="M1816.67,1015.56c.24-.73,9.93,3.34,10.17,3.99s.65,3.83,0,3.99-6.43-2.28-7.49-3.5-2.93-3.74-2.69-4.48Z" fill="none" stroke="#000" stroke-miterlimit="10" stroke-width="5"/><path d="M1435.96,379.71c1.48-.19,1.67-2.57,2.38-3.92s4.31-2.25,5.85-1.93,4.76,2.19,5.66,2.19.84,1.03,1.22,2.57c.39,1.54,1.54,2.7,1.48,3.6s-4.11,3.08-5.01,4.11-1.29,4.88-2.19,5.01-2.89-4.11-5.78-3.98-2.96-.32-4.24.96-2.31,1.09-2.31,2.12-2.31,4.69-3.08,5.33.19,2.96-.51,3.34-4.56.64-4.63,0,.71-1.99.26-2.31-2.96.51-2.89-1.29,1.54-4.24.58-4.56-.96-1.41-1.8-1.99-.58-.39.64-1.86,3.73-2.7,4.18-4.37,2.19-4.69,2.89-4.69,1.29,2.44,2.12,2.44,2.57-.45,3.41-.64,1.8-.13,1.8-.13Z" fill="none" stroke="#000" stroke-miterlimit="10" stroke-width="5"/><path d="M1520.59,350.8c.88-1.44,3.3.1,4.85.26s.57.83.57,1.75-2.58,2.73-2.43,3.77-.62,3.77-1.08,4.85,0,1.34.67,1.75,1.75-1.39,1.81-1.6,1.46-1.8,3.35-1.88,2.21-1.39,2.05-2.21,0-2.87.66-4.59,2.87-2.62,3.6-2.46,1.97,0,1.06-1.06-2.54-5.65-2.87-6.96-.33-5.08.74-6.06,2.46-5.98,3.11-6.31,1.15-2.05,2.05-6.47-.66-8.27-1.23-10.81,1.39-5.82,2.38-6.88,2.62.33,3.54.33,1.54-2.46,1.54-3.36.18-2.95.18-4.12,2.78-4.24,4.83-7.75,1.61-11.26,0-16.09-4.29-6.55-5.04-7.05-.84-4.19-1.26-4.44-.59,1.09-1.09,1.09-.42-1,.75-2.01.33-2.93.17-4.02,1-5.78,1-5.78c0,0-1.51.92-2.68.92s-1.93-1.59-3.6-2.51-1.76.08-1.84,1.42-1.64,4.46-.5,4.94c.24.1,1.73-.82,3.04-.82.46,0,.92-1.31,1.7-1.31s1.38,1.18,1.38,2.43-.79,3.61-1.64,4.2-2.1-.07-3.34-.13-2.16,1.05-2.95.46-.66-5.83-1.05-6.03-1.51.52-2.03.52-.72-1.05-1.38-.98-.59,3.41-.72,5.9-1.05,2.56-2.56,3.08-4.65,1.44-2.82,2.16-.13,2.49,1.31,3.93-.52,5.18-1.38,6.82-2.75-1.31-2.29,1.31,1.64-.85,3.8,1.57-.66,7.28-1.05,9.7c-.39,2.43-1.77,7.87-3.31,9.18s-2.85,4.79-2.85,6.23-.92,3.28-2.49,5.7-6.16,3.87-6.16,4.65-2.03,4-2.29,5.11-3.15,2.69-4.59,4.52-.92-1.44-2.88.34-6.88,3.46-8,3.53-.72,2.16-2.03,3.02-3.61-.46-4.4-1.11.59-2.16.59-3.47-.26-3.8,1.38-4,2.49-3.21,2.43-3.8-3.61,1.64-5.51,2.03-2.36.26-2.36,1.38-1.18,2.69-.2,3.28.52,3.08,0,5.24-5.18,7.67-6.69,8.32-3.21,4.52-3.41,5.44,2.29,3.67,1.57,4.13-1.44.39-1.44,1.05-1.64,1.57-2.69,1.84-2.95.26-3.54.13-1.57-3.28-2.36-3.61-4.59.98-6.16,1.51-6.82.52-7.14,1.12-3.08,1.17-4.72,1.37-3.68-.48-4.9-.72-2.68,1.05-4.14.97-1.05-1.62-1.38-1.62-2.68.89-4.14,1.46-2.84,1.38-2.84,1.95-.81.97-1.38,2.11-2.27,2.43-3.73,3.16-5.6,5.11-5.84,6-3.08.16-3.08.73-1.78,1.62-2.35,2.6-1.52,1.87-2.43,1.46c-1.17-.53-3.66.05-4.22.58-.6.57-.32,2.1-.32,3.39s-1.22.65-.41,3c0,0,.98-.54,1.53-.92s1.57-.25,2.37.64,1.1,1.36,1.61.64.59-1.74,1.4-1.48,2.03.59,2.37.51.97-1.53,1.91-1.14,1.44,1.44,2.42,1.99,1.95.47,2.29.89.38,1.02.55.85.04-1.74.25-2.03.85-.76.85-2.16.97-3.22,1.36-3.31.21-.91,1.27-.86,1.1.94,1.61,1.79.81.97,2.25.81,3.35-.04,3.98-.04.85-.47.42-1.44.17-.91,1.23-1.11,2.71-.2,3.69-.8,1.14-.25,2.42-.81,5.21-1.48,5.38-2.16.85-.51,1.02-.13,1.31.38,1.82-.47-.76-1.02.89-1.31,1.82-1.1,3.26-.85,3.01.25,3.98.25,2.54.55,1.48,2.33-.97,2.97-1.48,3.14-1.02,1.74-1.53,1.78-.47,1.4.3,1.4,2.92.3,2.92-1.19-1.06-2.25.08-3.01,1.27-2.08,2.71-2.03c1.44.04,4.41.08,3.01,1.99s-2.67,2.88-2.88,3.09-.25.68.13,1.48-.51,2.03-.68,3.09-.85,2.33,1.1,3.39,1.19,1.44,1.99,2.37,3.94,3.77,5.72,2.84,3.47-3.35,3.94-5.09,2.67-1.23,2.67-2.92-1.23-2.92,1.14-3.81,4.2-1.61,5.85-1.23,1.82-1.57,1.27-2.63-1.86-1.06-3.09-1.74-1.82-3.31-1.06-4.32,1.27-1.99,1.27-2.75,2.75-1.4,2.84-.93-.85.64-.68,2.2.89,3.01,1.36,3.01-.08-1.48.76-1.78-.07,1.06,1.21.93,4.76-.85,3.36.38-3.86,1.82-3.77,2.33.81.47,3.64-.42,4.53-.08,6.23-.25,1.23-.51,2.58-.13,2.75,1.23,3.05.97-.17-1.91.64-2.75,1.1-2.16,1.44-2.75,2.16-.17,2.16-.89.3-2.8,2.46-2.37,3.31,1.78,2.12,1.78-1.31,1.27-1.53,3.39-.25,3.01.42,3.14,1.74.21,2.84-1.36,2.42-3.26,1.82-3.77-1.27-2.12-.76-2.88,1.61-3.94,2.42-3.86,2.5.51,2.46,1.65,1.31,1.44,1.31.51-.38-3.01.08-3.73,1.61-3.59,1.61-3.59Z" fill="none" stroke="#000" stroke-miterlimit="10" stroke-width="5"/><path d="M1136.14,1255.01c7.83-51.67,54.82-79.85,74.38-81.42s64.17-18.79,63.79-31.32c-.38-12.53,8.93-38.55,15.24-34.93,6.3,3.62,16.59,17.71,19.28,6.75,2.68-10.96,22.69-40.71,31.48-40.71s30.18,18.79,39.06,15.66,14.98-29.75,14.98-29.75c0,0,30.45-12.02,33.12-17.36,2.67-5.34,33.01,7.11,40.96,7.11s23.95.89,15.06,5.34-20.34,12.45-18.62,18.67-5.28,13.34,0,17.78c5.28,4.45,57.81,36.46,65.78,35.57s20.42-25.79,20.42-38.24-1.78-35.57,0-43.57c1.78-8,5.34-16.01,8-16.01s12.45,19.56,14.23,25.79c1.78,6.22-1.78,22.23,5.34,24.01s19.56-.89,19.56,8,2.67,21.34,7.11,25.79c4.45,4.45,4.45,24.57,8.89,29.62s35.57,16.62,41.79,33.51,11.75,79.7,11.75,79.7h-531.59Z" fill="none" stroke="#000" stroke-miterlimit="10" stroke-width="5"/><path d="M1256.92,694.42c1.61-1.84,11.97-3.22,14.97,1.61s2.99,15.43-1.84,15.2-13.12-16.81-13.12-16.81Z" fill="none" stroke="#000" stroke-miterlimit="10" stroke-width="5"/><path d="M1313.45,711.23c-.12-5.3,12.32-4.61,12.78-1.15s2.76,15.66,0,15.66-4.37-7.71-7.14-10.19-5.64-4.32-5.64-4.32Z" fill="none" stroke="#000" stroke-miterlimit="10" stroke-width="5"/><path d="M1313.45,725.73c-.58-2.07,5.02-1.84,7.06,2.3s2.73,9.34-.73,8.7-.73-4.22-1.98-6.11-4.36-4.89-4.36-4.89Z" fill="none" stroke="#000" stroke-miterlimit="10" stroke-width="5"/><path d="M1296.94,701.97c4.62.16,13.09,4.4,12.71,6.52s-6,0-8.87,0-3.84-6.52-3.84-6.52Z" fill="none" stroke="#000" stroke-miterlimit="10" stroke-width="5"/></g><g id="c"><path d="M1032.62,852.79c-10.52-12.75-7.31-31.19-13.22-45.85-4.77-11.85-17.01-22.2-30.41-17.68-.4.13-.73.33-1.02.55-3.09-4.88-6.95-9.25-11.4-12.96-.22-.19-.45-.33-.69-.46.41-.71.62-1.56.49-2.43-.3-2.07-.59-4.15-.89-6.22,1.79.23,3.73-.86,3.92-3.33.22-2.74-.76-6.2-2.72-8.14-1.59-2.48-3.84-4.52-6.73-5.9-3.84-1.83-7.23,3.51-4.08,5.71-.45,5.93.47,11.66,2.6,17.12-3.6-4.12-6.53-8.79-8.69-13.88,1.89-6.54,3.31-13.16,4.37-19.83,3.1-4.04,5.06-8.55,6.21-13.33,3.19-10.35,3.14-21.62-.39-32.07-.58-1.71-1.85-2.45-3.14-2.48-.02-1.41-.04-2.81-.07-4.22-.27-12.92-.42-26.08-3.67-38.68-1.84-7.14-11.35-25.69-3.04-31.61,1.15,3.87,4.5,7.05,8.87,7.02,6.53-.04,10.75-7.26,8.64-13.1-.39-1.09-1.21-2.23-2.44-2.44l-4.62-.81c-.37-2.06-.73-4.13-1.1-6.19-.36-2.01-2.59-2.71-4.31-2.44-.47.07-.94.15-1.4.22.65-9.04-1.92-22.72-11.79-18.8-5.07,2.02-7.88,7.04-9.49,11.96-1.14,3.49-1.63,7.43-3.57,10.6-.96,1.57-2.23,3.22-4.12,3.65.27-.81.25-1.74-.24-2.7-7.77-15.13-9.06-32.98-3.57-49.09,5.69-16.68,20.13-28.61,25.31-45.54,3.35-10.94,1.54-32.56-15.15-29.15-1.25.26-2.47.66-3.66,1.14.98-2.57,1.95-5.15,2.85-7.75,1.76-5.08,2.31-9.68.19-14.69-.83-1.96-4.19-2.33-5.5-.71-2.77,3.42-7.84,4.5-11.57,2.47,2.4-1.39,4.8-2.79,7.2-4.18,2.75-1.6,1.91-5.42-.84-6.4-12.11-4.31-27.45-10.48-29.89-24.74-.46-2.68-4.12-3.25-5.85-1.54-3.81,3.77-5.4,9.05-4.46,14.03-6.53.63-12.44,5.41-13.9,12.15-.74,3.41,3.23,5.84,5.85,3.41,6.11-5.67,11.45,6.64,3.33,7.31-4.1.34-4.55,5.36-.93,6.88,2.47,1.04,4.94,2.07,7.42,3.11-.4,1.92-1.38,3.57-2.72,4.95-4.49.46-8.74,2.07-12.52,4.78-5.28.15-10.73-1.13-15.85-1.74-7.58-.9-16.04-.4-22.29,4.05-1.97.63-3.71,2.06-4.52,4.1-7.07,1.74-14.33,2.43-21.53,1.98-.04-.1-.07-.2-.11-.31-3.97-8.92-15.36-11.85-23.52-7.55-12.98-3.6-25.95-7.2-38.93-10.8-.89-.27-1.78-.52-2.69-.75-2.01-.49-3.47.64-4.05,2.12-4.32-1.71-8.51-3.72-12.56-6.01-3.35-6.07-9.29-10.16-16.34-11.42.04-.86-.24-1.75-.99-2.51-5.91-5.88-12.8-10.27-20.52-13.24-19.54-13.34-37.86-28.37-54.8-44.96-2.75-2.69-7.8.86-5.5,4.24,5.55,8.18,11.65,15.96,18.2,23.33,2.83,6.02,6.87,11.46,11.97,15.81,3.12,2.66,7.61,4.86,11.64,7.44,2.72,4.61,6.07,8.72,10.06,12.33,1.15,1.05,2.56,1.19,3.71.72,5.64,4.87,11.65,9.3,18.03,13.22,14.63,14.22,34.81,20.96,54.89,24.66,26.99,4.97,54.84,6.52,81.5,13.15-5.54,2.53-9.3,8.63-4.18,14.19,2.6,2.81,6.71,3.84,10.41,3.45,1.24-.13,2.97-.79,4.87-1.54,2.83.92,5.75,1.58,8.76,1.91,3.64.4,7.23.31,10.85-.2,1.25-.18,9.34-1.88,7.3,1.18-1.52,2.28-8.84,1.79-11.33,2.75-2.3.89-4.25,2.39-5.72,4.38-3.19,4.31-3.7,10.06-3.27,15.25,1.17,14.11,6.7,28.56,12.56,41.32,6.36,13.87,14.72,26.67,24.59,38.29-.69,2.23-1.56,4.43-2.63,6.55-1.17,2.32.11,4.39,1.98,4.97-.09.39-.18.78-.27,1.16-1.06,1.14-2.29,2.2-3.69,3.17-3.41,2.35-.67,7.7,2.7,6.47.34,4.51,2.04,8.98,5.81,11.69,4.62,3.32,10.25,3.05,14.6-.42,3.93-1.08,2.05-7.38-2.23-6.65-.12.02-.25.03-.37.05-3.81-2.14-7.44-4.51-10.86-7.25.08-1.12.24-2.22.44-3.25.08-.4.18-.78.27-1.17,6.84-9.27,7.57-21.93,5.53-33.44-3.07-17.25-12.85-37.34-1.01-53.41.88-1.19.8-2.37.23-3.28.12-.22.24-.43.36-.65,1.2-2.09,3.42-7.12,6.6-4.39,1.56,1.34,1.71,4.97,2.13,6.81.69,3.02,1.72,5.58,3.64,7.68.27.7.77,1.2,1.38,1.51-.04.22-.07.44-.1.67-1.31,9.94-.45,19.94,2.41,29.41-.73-.68-1.48-1.33-2.26-1.91-3.24-2.4-7.62-1.55-8.32,2.79-.35,2.18.51,4.53.91,6.65.79,4.15,1.44,8.33,1.93,12.54.61,5.33.96,10.68,1.1,16.04-.08.34-.13.71-.09,1.13.02.05.02.1.03.15-.58,1.2-1.19,2.38-1.78,3.54-1.85,3.6,2.48,6.84,5.5,4.24.15-.13.28-.27.42-.4.82-.1,1.6-.46,2.16-1.06,4.84-2.29,6.17-7.27,5.53-12.6-.28-2.32-.6-4.64-.94-6.95.07.02.13.04.2.05,1.16,6.19,4.76,12.16,8.3,17.1,2.33,3.25,5.11,5.94,8.9,7.39,1.35.52,2.51.85,3.44,1.37-.26.43-.52.86-.75,1.29-.46.48-.76,1.06-.82,1.71-4.7,10.79-.58,23.33,2.71,34.18,2.35,7.75,4.77,15.47,7.04,23.24,1.2,4.13,2.27,8.28,2.61,12.45-.21,3.29-.48,6.58-.83,9.86-.15.53-.31,1.06-.5,1.59-.32.9-.25,1.69.04,2.34-.18,1.39-.36,2.79-.57,4.18-.7.81-1.45,1.59-2.28,2.35-2.04,1.87-.96,4.44.94,5.46-.43,2.22-.92,4.44-1.45,6.64-2.21-.21-4.66,1.53-3.85,4.29.44,1.5.94,2.97,1.49,4.41-.93,3.04-1.97,6.06-3.12,9.07-1.62,4.21,5.15,6.03,6.75,1.86.24-.62.46-1.25.69-1.88,4.61,7.88,10.97,14.61,18.77,19.77,1.07.71,2.16.69,3.05.26,3.43,4.16,6.18,8.84,8.06,13.99,1.48,4.06,2.46,8.32,2.78,12.63.31,4.1,1.25,6.15,3.52,9.66,8.95,13.81,21.19,25.19,35.48,33.3,3.63,2.06,6.69-2.53,4.24-5.5ZM890.43,484.6c1.02-.32,2.02-.67,3.02-1.05-1.3.58-2.61,1.12-3.93,1.65,0,0-.01,0-.02,0,.31-.19.62-.39.93-.59ZM850.55,501.23c13.24-1.33,26.41-3.87,38.9-8.53,6.57-2.45,12.57-6.11,19.07-8.64,3.15-1.23,7.08-2.21,10.27-.54.75.4,1.58,1.31,2.17,2.37-.28,1.05-.53,2.12-.76,3.19-.08.39-.1.77-.06,1.14-.4.2-.79.41-1.19.61-.64.15-1.18.44-1.6.83-.15.08-.3.15-.44.23-4.35,2.25-8.7,4.5-13.05,6.75-4.35.51-8.69,1.09-13.03,1.75-3.79-2.3-9.42-2.19-13.7.55-.98.63-1.94,1.44-2.88,2.32-7.3,1.43-14.56,3.06-21.77,4.91-1.51-.5-3.04-.9-4.64-.99.94-1.55.84-3.69-1.17-4.7-.54-.27-1.08-.53-1.63-.79,1.83-.14,3.67-.29,5.5-.47ZM885.74,590.83c-.59-1.22-5.46-9.59-2.87-10.26,2.12-.55,4.04,3.84,4.7,5.2,1.75,3.61,3.36,6.99,6.56,9.27-.5.92-.62,2.06-.04,3.24.41.82.78,1.65,1.14,2.49,2.21,5.24,3.29,10.8,3.28,16.37-4.26-8.77-8.52-17.54-12.78-26.31ZM1011.38,807c2.06,4.07,3.46,8.6,4.29,12.57-1.43-4.19-2.86-8.38-4.29-12.57Z" fill="none" stroke="#e06e4f" stroke-dasharray="5" stroke-miterlimit="10" stroke-width="5"/><path d="M1017.6,922.36c-12.33-13.22-21.46-29.11-26.97-46.3-.87-2.71-3.78-3.16-5.85-1.54-.21.16-.42.33-.63.49-2.35-5.21-5.99-9.68-10.53-12.99,0,0,0-.01,0-.02,1.48-11.85-5.91-22.87-16.96-26.89-.13-.05-.26-.08-.39-.11-.49-.75-.98-1.49-1.51-2.22-.87-1.21-2.01-1.68-3.08-1.64-.51-.74-1.02-1.48-1.53-2.22-.34-.5-.75-.86-1.2-1.11-2.03-4.73-4.28-9.37-6.76-13.91-1.23-2.24-4.67-2.06-6-.23-.87-2.23-1.74-4.46-2.61-6.69-1.19-3.04-4.71-3.03-6.18-1.05-.85-1.57-1.72-3.14-2.63-4.69-2.13-3.62-7.01-1.05-6.4,2.7.06.35.13.69.19,1.04-.53-1.08-1.04-2.17-1.5-3.29-.97-2.39-3.92-3.06-5.62-1.81-1.83.34-3.52,1.95-3.03,4.3,1.39,6.65,4.4,12.53,8.86,17.53.56.64,1.13,1.26,1.75,1.86,1.5,1.45,3.35,1.17,4.6.14.72.71,1.45,1.41,2.21,2.09,1.08.96,2.33,1.14,3.4.81.86,2.25,1.67,4.52,2.42,6.82.9,2.75,3.75,3.02,5.47,1.71,2.17,5.38,4.58,10.52,8.52,14.94,1.05,1.17,2.65,1.22,3.95.61.31,1.11.62,2.22.9,3.34.77,3.05,4.13,3.1,5.86,1.31.29,1.17.59,2.35.88,3.52-.37,1.12-.2,2.43.77,3.53,3,3.39,6,6.78,9.01,10.17,1.57,5.01,4.59,9.49,9.6,11.32,11.43,28.58,30.14,53.3,54.52,72.09.06.04.11.06.17.1,2.23,2.87,4.33,5.82,6.22,8.9,1.87,3.05,6.32,1.65,6.52-1.77,1.06-18.32-15.37-28.97-26.45-40.84ZM965.12,857.59c-.23-.08-.46-.15-.69-.23-.23-1.75-.54-3.48-.93-5.19.3.54.57,1.09.83,1.64.36,1.21.62,2.47.79,3.77ZM994.03,901.53s0,0,0,0c1.46,2.65,3,5.24,4.64,7.79-1.71-2.52-3.27-5.1-4.64-7.78Z" fill="none" stroke="#e06e4f" stroke-dasharray="5" stroke-miterlimit="10" stroke-width="5"/><path d="M1066.4,928.43c-3.12-11.31-12.77-19.7-24.11-21.45-.78-.88-1.46-1.83-2.08-2.83-.95-2.47-1.9-4.93-2.86-7.4-1.41-3.65-6.17-2.92-6.77.31-1.87-2.06-3.75-4.13-5.62-6.19-1.33-1.46-3.13-1.26-4.44-.27.67-1.05,1.23-2.21,1.67-3.52,0,0,0-.02,0-.03.25-.06.48-.12.65-.16,1.35-.33,2.64-.76,3.73-1.66,2.39-1.98,2.78-5.24,1.33-7.95-2.27-4.24-7.12-7.62-10.5-10.95-4.35-4.27-8.6-8.68-13.06-12.84-2.27-2.12-5.32-4.41-8.6-3.08-.12.05-.22.1-.33.16-.62-.5-1.33-.9-2.16-1.14-1.5-.43-3-.27-4.43.4-.63.29-1.23.77-1.76,1.21-.29.26-.55.54-.83.81-1.85-1.84-5.98-1.04-6.12,2.41-.14,3.55,2.78,6.26,6.43,5.61,1.56-.28,3.44-2.93,4.55-3,.98-.07,2.53,4.04,3.21,5.31,2.07,3.87,4.38,7.6,6.88,11.2-1.16,3.2-3.9,6.9-1.38,10.25,2.87,3.8,6.96,3.18,10.35,1.08,1.07,1.2,2.15,2.37,3.27,3.53-.66.54-1.44.96-2.36,1.26-1.76.56-3.03,2.44-2.44,4.31,2.16,6.96,9.26,8.4,13.94,4.82,3.54,3.89,7.08,7.79,10.61,11.68,0,1.66,1.01,3.25,3.03,3.33.3.32.59.65.89.97,1.04,1.15,2.63,1.2,3.93.62,1.48,1.09,3.05,2.05,4.73,2.81,1.02.47,2.08.84,3.15,1.19-.64.45-1.17,1.07-1.46,1.78-1.86,4.75-3.47,15.32,3.4,17.02,2.48.61,4.73-.68,6.07-2.75.6-.93.84-3.64,1.12-5.71.84.75,1.68,1.5,2.52,2.25,2.53,2.26,6.82.1,5.85-3.41Z" fill="none" stroke="#e06e4f" stroke-dasharray="5" stroke-miterlimit="10" stroke-width="5"/><path d="M1021.36,681.13c-6.63-2.56-13.36-5.85-20.2-7.79-3.26-.92-7.81-.91-9.39,2.76-4.52,10.5,19.48,11.18,24.63,10.65.04,0,.08-.02.12-.02,1,.38,1.99.77,2.99,1.15,4.21,1.62,6.03-5.14,1.86-6.75Z" fill="none" stroke="#e06e4f" stroke-dasharray="5" stroke-miterlimit="10" stroke-width="5"/><path d="M992.45,602.24c-3.14.36-5.64,3.39-5.7,6.51-.03,1.81.58,3.41,1.36,5.01.19.4,1.8,3.26,1.52,3.43-3.75,2.31-.46,8.14,3.29,6.16,1.63.35,3.4-.31,3.85-2.42,1-4.69,5.11-19.78-4.32-18.7Z" fill="none" stroke="#e06e4f" stroke-dasharray="5" stroke-miterlimit="10" stroke-width="5"/><path d="M686.91,701.23c-4.48-.47-8.02,3.22-8.67,7.47-.17,1.11-.12,2.21.07,3.28-.71-.36-1.47-.34-2.17-.08l.07-.07c1.4-1.46,1.23-3.46,0-4.95-4.39-5.3-11.91-2.41-15.05,2.64-1.17,1.87-2.1,5.15-3.51,7.44-.66-2.05-1.55-4.48-2.09-5.08-1.6-1.78-3.7-2.87-5.88-3.78-1.17-4.46-2.87-8.79-4.98-12.88-.54-1.04-1.11-2.07-1.71-3.07-.26-1.14-.65-2.26-1.18-3.34-.12-.25-.26-.48-.39-.72-1.38-4.04-3.2-8.03-5.89-10.88-2.89-6.49-6.56-12.48-11.76-17.2-.85-2.28-1.43-4.67-1.6-7.21-.49-7.46-.32-14.17-3.66-21.06-2.45-5.07-9.8-15.42-2.47-19.83,3.85-2.32.34-8.38-3.53-6.04-5.54,3.34-7.24,9.74-6.06,15.87.73,3.82,2.71,7.25,4.51,10.65,2.33,4.4,3.73,8.36,3.98,13.38.21,4.38.44,8.4,1.18,12.3-1.07,1.51-1.18,3.89.77,5.27.3.21.58.44.86.66.69,1.86,1.57,3.72,2.7,5.6.09.16.19.31.29.46-.34,3.1.82,6.12,2.63,8.85-.28,1.79.11,3.78,1.41,5.49,1.1,1.44,2.57,2.17,4.1,2.79,0,.01,0,.03.01.04.78,1.82,1.59,3.63,2.44,5.41,0,.65-.02,1.32-.09,2-.22,2.06,1.14,3.15,2.73,3.31.35.68.73,1.34,1.09,2.01-.26.4-.56.77-.89,1.11-.86.87-1.26,2.21-.9,3.41,1.12,3.65,3.67,5.8,6.92,7.36.24.69.47,1.38.72,2.06,1.48,4.14,3.85,8.79,7.52,11.23.48.47.99.91,1.58,1.29,1.33.86,2.79,1.36,4.24,1.52,1.45,1.21,3.22.69,4.31-.54.6-.09,1.22-.26,1.86-.52,2.81-1.15,4.85-3.63,6.9-5.77l6.6-6.89c-.42,1.13-.37,2.45.55,3.62,2.43,3.08,4.31,6.46,5.69,10.13.88,2.33,3.91,3.62,5.85,1.54,2.39-2.56,3.14-5.62,2.58-9.07-.04-.27-.18-.68-.36-1.2.69-4.54,1.38-9.07,2.07-13.61.37-2.41-.93-4.17-3.38-4.43Z" fill="none" stroke="#e06e4f" stroke-dasharray="5" stroke-miterlimit="10" stroke-width="5"/><path d="M676.44,736.04c-.55-.47-1.3-.76-2.25-.71-6.56.35-13.25.69-19.19-2.57-3.95-2.17-7.49,3.88-3.53,6.04.43.23.85.45,1.29.66.01.3.05.61.16.94,3.07,9.31.79,22.34,12.68,25.85,2.72.8,5.82-2.62,3.95-5.14-.64-.86-1.16-1.76-1.57-2.67.99-.95,1.41-2.43.51-4.08-.35-.64-.7-1.28-1.05-1.92-.18-.43-.33-.86-.43-1.29.63-3.63,3-6.83,6.96-8.51.39-.01.79,0,1.21.03,4,.36,4.4-5.16,1.28-6.65Z" fill="none" stroke="#e06e4f" stroke-dasharray="5" stroke-miterlimit="10" stroke-width="5"/><path d="M699.9,646.96c-2.6.55-4.98,1.52-7.08,2.82-.69-1.29-2.06-2.23-3.89-1.85-4.31.89-7.51,3.29-9.85,6.98-.4.64-.56,1.5-.45,2.3-.68,1.02-.89,2.35-.19,3.6,1.63,2.9,3.04,5.89,4.24,8.97.13,1.54.42,3.1.9,4.64-.23,2.44-.28,4.99.29,6.58-1.51-4.21-8.27-2.4-6.75,1.86,1.74,4.86,6.28,5.29,9.66,3.19.08.67.17,1.33.23,2,.42,4.9,2.5,14.3,9.85,10.63,6.28-3.14,1.48-14.76,0-19.52-1.31-4.2-2.93-8.28-4.83-12.23.04-.13.08-.26.12-.39,1.88-5.5,5.58-10.04,10.44-13.17,3.38-2.18,1.2-7.22-2.7-6.4Z" fill="none" stroke="#e06e4f" stroke-dasharray="5" stroke-miterlimit="10" stroke-width="5"/><path d="M620,508.61c-1.69-1.14-4.24-.81-5.19,1.86-.14.39-.28.78-.42,1.17-2.85,2.58-5.03,5.76-6.36,9.33-1.5.86-3.19,1.48-5.08,1.8-1.9.32-2.87,2.62-2.44,4.31,1.44,5.74-2.36,11.26,2.51,16.23,2.83,2.88,7.51,3.21,10.18-.08,2.4-2.96,1.54-6.39.85-9.76,1.61-4.52,3.21-9.03,4.82-13.55.85-1.41,1.53-2.93,2.02-4.53.11-.07.21-.15.32-.23,2.96-1.92,1.43-6.05-1.21-6.55Z" fill="none" stroke="#e06e4f" stroke-dasharray="5" stroke-miterlimit="10" stroke-width="5"/><path d="M623.9,562.42c-.16-4.93-2.79-9.75-7.96-12.63-3.94-2.2-7.47,3.85-3.53,6.04,2.49,1.39,4.5,3.67,4.73,6.64.28,3.56-1.85,5.23-4,7.56-1.61,1.74-1.39,3.32-1.43,5.7-.06,3.61-.13,7.22-.19,10.83-.06,3.26,5.09,5.05,6.52,1.77,3.1-7.12,5.82-14.37,8.09-21.8.64-2.09-.61-3.58-2.22-4.1Z" fill="none" stroke="#e06e4f" stroke-dasharray="5" stroke-miterlimit="10" stroke-width="5"/><path d="M688.32,579.68c-6.92.98-12.78-4.21-19.13-7.06,5.66-3.24,11.55-6.1,17.65-8.5,4.11-1.62,2.43-8.3-1.86-6.75-7.72,2.78-15.54,5.61-22.67,9.75-.03-.04-.04-.09-.08-.13-.96-1.38-2.03-2.61-3.19-3.7,1.27-.35,2.52-.77,3.76-1.23.24-.03.49-.09.75-.19,6.34-2.29,11.34-5.92,15.5-11.09.07-.09.15-.16.23-.25h-.02c.19-.25.38-.47.56-.71,2.39-3.15-2.92-7.25-5.5-4.24-7.02,8.18-16.88,12.47-27.51,12.08-.72-.08-1.44-.13-2.19-.14-4.58-.07-4.41,6.58,0,7,4.73.07,8.82,2.09,11.56,6,.11.16.24.29.36.42-.64.49-1.28.98-1.91,1.49-1.61.81-3.05,1.94-4.19,3.4-3.02,2.18-8.45,5.39-8.19.67.25-4.5-6.75-4.49-7,0-.21,3.91,2.18,7.06,5.75,8.51,3.96,1.61,7.79.56,11.19-1.6.55-.02,1.12-.22,1.7-.66,2.28-1.73,4.61-3.37,6.97-4.95,4.06-.07,8.91,2.72,12.01,4.42,5.61,3.08,10.84,5.14,17.3,4.23,4.44-.63,2.55-7.38-1.86-6.75Z" fill="none" stroke="#e06e4f" stroke-dasharray="5" stroke-miterlimit="10" stroke-width="5"/><path d="M793.68,561.41c.03-3.8-4.55-4.32-6.52-1.77-1.78,2.31-3.56,4.62-5.34,6.93l-2.61-.96c1.73-4.75,3.46-9.49,5.19-14.24.97-2.66-1.91-4.84-4.31-4.31-5.93,1.32-9.79,6.58-9.76,12.32-1.2-.15-2.31-.91-2.91-2.09-1.11-2.17-.06-4.69,1.23-6.46,2.72-3.73,7.53-4.81,11.81-5.66,2.11-.42,3.33-3.37,2.09-5.14l-3.16-4.51c1.49-1.3,2.99-2.6,4.48-3.9,2.72-1.75,5.2-3.89,7.31-6.37,2.92-3.43-1.53-7.93-4.95-4.95-2.14,1.86-4.28,3.73-6.42,5.59-3.57,2.26-7.63,3.67-12,4.01-8.55.67-14.63-4.21-22.51-6.27-5.69-1.49-12.76-.91-16.39,4.33-1.78,2.56-2.41,5.75-1.75,8.63-8.84,2.09-16.85,6.45-23.59,12.69-2.79,2.58.23,6.39,3.41,5.85,9.03-1.54,18.52-2.41,27.37-4.82,4.01-1.1,8.07-3,10.52-6.21,2.8,3.56,3.8,8.24,2.79,12.78-.99-.65-2.03-1.25-3.16-1.74-1.55-.67-2.95-.57-4.24.55-.75.65-1.52,1.24-2.32,1.78-5.83-.24-11.67.29-17.39,1.59-4.57-3.54-11.86-1.48-13.68,4.91-6.64,5.16-15.09,7.34-23.55,5.68-4.4-.86-6.28,5.88-1.86,6.75,10.11,1.99,20.31-.15,28.49-5.97-1.57,4.77-6.6,10.25-8.59,13.02-2.77,3.86-5.54,7.71-8.31,11.57-3.9,3.5-7.8,7-11.69,10.49-.47-.46-.94-.92-1.43-1.35-2.24-1.93-4.61-3.44-7.6-3.85-4.59-.62-9.34,1.8-10.09,6.67-.73,4.79,3.32,8.53,7.38,10.2,3.39,1.4,8.02.48,12.08.53l3.8,1.4c-.06,1.51.72,3.07,2.46,3.53,4.94,1.31,7.62,6.06,10.65,9.8,3.19,3.95,6.93,6.99,11.76,8.7,10.21,3.63,21.71.82,31.74-2.05,1.12-.32,2.2-1.26,2.44-2.44,2.37-11.47-8.9-17.57-16.86-13.59-.73-7.11-1.47-14.22-2.2-21.34,5.71-.16,11.28,2.81,14.48,7.64,1.54,2.34,1.41,5.94,3.25,7.9,1.63,1.74,5.26,2.36,7.5,2.44,11.13.38,18.09-10.51,14.83-20.17,6.98-3.01,13.37-7.14,18.85-12.48,2.99-2.92,6.26-6.36,8.29-10.06,2.22-4.06.96-11.04.99-15.59ZM694.9,604.77c-.04-.06-.09-.12-.13-.17.74-1.02,1.48-2.04,2.21-3.06.1.09.22.17.33.24-.91.92-1.72,1.92-2.41,2.99ZM729.57,634.92c.55-.16,1.08-.36,1.58-.61.2.1.41.2.62.28-.76.17-1.53.33-2.31.48.04-.05.07-.1.11-.15ZM748.52,611.24c.7.63,1.53,1.14,2.49,1.52-1.64.03-2.03-.36-2.49-1.52ZM750.82,594.32c-1.59-1.9-4.06-1.12-5.26.54-1.7-.88-3.45-1.64-5.25-2.26-2.92-2.43-6.45-3.93-10.53-4.09-3.85-.15-11.16,2.12-15.78.77-.62-1.1-1.75-1.71-2.91-1.84-.2-.26-.39-.54-.54-.85-.03-.13-.06-.26-.09-.39-.08-.39-.23-.72-.41-1.02-.04-.16-.08-.31-.1-.48-.05-.33-.15-.61-.27-.87.57-.81,1.14-1.61,1.7-2.43,1.98-2.89,4.2-6.22,5.33-9.69,4.68-1.05,9.37-2.1,14.05-3.15,2.25-.5,4.5-1.09,6.76-1.53.06.13.13.26.21.39,2.67,4.22,7.91,5.52,12.3,3.85,1.05,1.3,2.87,1.84,4.46.9,1.51-.89,2.6-2.15,3.31-3.59.67-.06,1.23-.37,1.67-.81.24-.08.47-.15.7-.22.92,1.39,2.65,4.22,3.23,6.57,0,.02-.02.03-.03.04-.66,1.24-1.31,2.49-1.97,3.73-.1.01-.2.02-.31.03-1.72.09-2.75,1.06-3.38,2.57-1.9,4.58-3.79,9.16-5.69,13.74-.48.37-.9.45-1.2.09Z" fill="none" stroke="#e06e4f" stroke-dasharray="5" stroke-miterlimit="10" stroke-width="5"/><path d="M719.95,521.74c-4.32-1.32-8.45-.74-12.35.83-3.14-.56-6.45.22-9.39,1.84-2.69,1.48-9.03,8.18-13.25,7.74-1.07-.42-2.09-1.15-3.03-2.26-2.54-3.02-7.74.96-5.5,4.24,1.11,1.63,2.51,2.83,4.09,3.63,4.13,2.3,9.36,2.21,13.87.45,4.48-1.75,8.81-5.74,13.42-8.17.2.11.4.23.6.36,2.31,1.58,4.53-.15,5.01-2.29,1.51-.19,3.06-.11,4.66.38,4.32,1.32,6.16-5.44,1.86-6.75Z" fill="none" stroke="#e06e4f" stroke-dasharray="5" stroke-miterlimit="10" stroke-width="5"/><path d="M635.04,534.79c-.13-.02-.25-.02-.38-.03-.03-1.03-.51-2.05-1.65-2.74-5.28-3.19-12.26-.32-14.06,5.48-.6,1.93.72,3.65,2.44,4.31.33.12.66.21.98.31-.03.82-.06,1.64-.09,2.45-.05.51-.07,1.04-.06,1.57,0,.13,0,.26-.01.39h.05c.02.3.03.61.08.93.58,4.04,6.74,2.84,6.88-.93.01-.29.02-.57.03-.86.38-.9.65-1.79.81-2.67.07-.08.14-.15.21-.23,1.9-.26,3.77-.8,5.6-1.58,2.65-1.14,2.05-5.98-.84-6.4Z" fill="none" stroke="#e06e4f" stroke-dasharray="5" stroke-miterlimit="10" stroke-width="5"/><path d="M672.83,503.94c-1.49-4.22-8.25-2.4-6.75,1.86.03.09.05.18.08.26-.48.29-.9.68-1.2,1.19-.47.79-.89,1.59-1.3,2.4-.4-.51-.82-1.01-1.31-1.47-2.76-2.6-7.94.9-5.5,4.24.65.89,1.36,1.84,2.04,2.83,1.38,3.15.12,7.17-2.7,9.38-1.57,1.23-3.36,1.85-5.23,2.04-.72-.43-1.39-.87-1.98-1.27-1.93-1.31-4.09-2.53-6.34-3.38.22-1.45.32-2.92.3-4.44-.04-2.89-2.89-4.05-5.27-3.02-4.51,1.95-7.95,5.19-10.33,9.48-1,1.81-.26,3.53,1.04,4.49.97,2,3.56,3.15,5.43,1,.32-.37.66-.66,1-.91.31.48.71.88,1.16,1.13,3.79,2.13,8.33,3.63,12.79,3.85.46.29.89.55,1.29.75,4.35,2.2,9.69,3.01,13.9.06,3.62-2.53,5.05-5.87,5.14-9.44,3.53-2.83,5.33-7.33,4.73-11.65.38-3.1.07-6.3-1.01-9.39Z" fill="none" stroke="#e06e4f" stroke-dasharray="5" stroke-miterlimit="10" stroke-width="5"/><path d="M844.43,568.91c-1.05-.03-2.1-.05-3.15-.04-.03-1.39-.84-2.72-2.48-3.2-6.52-1.93-24.05-3.94-24.37,6.87-.05,1.55.44,2.96,1.27,4.16.26,1.35,1.22,2.49,2.85,2.56.93.53,1.95.91,3,1.09,3.83.67,7.11-1.3,9.86-3.75,4.28-.6,8.61-.84,13.02-.69,4.51.15,4.5-6.85,0-7Z" fill="none" stroke="#e06e4f" stroke-dasharray="5" stroke-miterlimit="10" stroke-width="5"/><path d="M1300.55,99.99c-15.52,9.28-25.45,25.22-27.29,43.15-.46,4.48,6.54,4.44,7,0,.3-2.88.85-5.71,1.65-8.45,5.82-.93,7.69-5.39,8.88-10.7,1.91-3.09,3.6-6.33,5.05-9.73.16-.38.24-.76.28-1.12,2.29-2.61,5.08-4.88,7.97-7.1,3.45-2.66.46-8.43-3.53-6.04Z" fill="none" stroke="#e06e4f" stroke-dasharray="5" stroke-miterlimit="10" stroke-width="5"/><path d="M1521.06,127.96c-3.14-8.04-14.05-6.78-18.51-.94-2.68,3.51-3.55,7.83-4.21,12.1-.31,1.99-.54,4.05-1.07,6.01-2.08,2.02-3.88,4.23-5.38,6.63-.97.22-2,0-2.98-.92-2.09-1.97-4.85-.86-5.85,1.54-2.86,6.85-7.75,12.57-13.87,16.53,10.39-23.71,18.8-48.22,25.09-73.34,2.56-4.62,4.99-9.83,3.44-15.19-1.3-4.51-5.31-8.26-10.19-7.94-5.54.37-8.73,5.09-11.12,9.54-.86,1.6-5.19,8.74-6.2,4.07-.6-2.76,1.56-8.57,2.07-11.36.27-1.47-.16-3.2-1.61-3.95-9.23-4.77-16.18,4.8-17.16,13.07-.35,2.94-.08,6.41-1.12,9.21-.61,1.64-3.12,5.66-5.66,4.59-1.62-.68-1.98-4.75-2.97-6.24-1.15-1.72-2.93-2.98-4.94-3.46-4.11-.98-8.62,1.21-11.56,3.97-3.16,2.97-5.23,10.01-9.62,11.34-12.57,3.81-5.48-28.82-4.85-33.75,1.32-10.44,1.61-20.94-8.31-27.14-10.8-6.76-22.81-12.54-34.24-18.18-5.33-2.63-10.88-5-16.77-6.02-2.58-.44-5.22-.43-7.79-.89-3.44-.61-5.43-2.56-8.23-4.5-8.15-5.65-17.42.2-18.73,9.44-1,7.02,2.09,13.95,2.66,20.88.59,7.23-.25,14.5-2.48,21.4-2,6.19-5.95,12.29-4.74,19.06.87,4.88,3.9,8.83,8.78,10.1,2.33.61,4.26-1.11,4.43-3.38.21-2.83,3.66-2.91,5.34-1.87,1.38.85,2.32,2.51,2.83,3.98.9,2.59.83,5.38.54,8.11-.71.87-1.25,1.92-1.51,3.15-.77,3.62,3.67,5.52,5.78,3.61.76-.15,1.43-.58,1.82-1.35.61.3,1.25.51,1.9.68.37.7.63,1.3.64,1.35.36,1.65.01,3.62-.12,5.27-.24,2.92-.48,5.71.12,8.6,1.13,5.44,4.56,10.08,8.32,14.02,1.93,2.02,4.67,3.8,6.18,6.17,2.51,3.96-.46,7.9-2,11.58-1.89,4.53-2.69,9.66.43,13.82.95,1.26,2.33,2.05,3.95,1.61,18.55-5.08,33.71-19.37,40.13-37.26,1.03.2,2.17-.07,3.2-.87,3.94-3.06,7.88-6.11,11.83-9.17,6.92,2.37,14.51-1.07,17.71-7.33,2.38,1.66,4.77,3.32,7.15,4.98,1.22.85,3.25.52,4.24-.55,4.12-4.43,10.71-5.83,16.09-3.39-1.99,2.04-3.98,4.08-5.96,6.12-2,2.06-.65,6.17,2.48,5.97.3-.02.6-.04.9-.06-4.24,5.75-9.16,10.93-14.72,15.43-.71-1.69-1.85-3.21-3.48-4.49-1.87-1.46-4.08-1.3-5.5.71-4.53,6.43-7.41,13.48-8.9,21.07-.23.16-.46.35-.68.59-3.42,3.85-8.12,5.44-12.55,5.05,1.28-.26,2.56-.64,3.76-1.06,2.32-.81,3.03-2.99,2.09-5.14-3.74-8.62-14.14-12.92-22.89-9.55-1.31.5-2.76,1.77-2.57,3.38.68,5.84,3.41,10.65,7.21,14.04,0,1.4.09,2.86.19,4.28-5.04-1.41-9.37-6.16-15.11-5.87-7.03.35-12.42,7.4-16.86,12.04-5.23,5.47-10.33,11.43-13.65,18.29-1.68,3.48-2.84,7.07-3.63,10.85-.73,3.49-.98,7.81-4.59,9.49-1.75.81-2.09,3.26-1.26,4.79.2.36.38.73.56,1.1-1.96,2.43-3.79,4.94-5.53,7.52-1.74,1.63-3.1,3.57-3.73,5.94-3.91,6.67-7.14,13.74-9.62,21.17-.6,1.79.7,3.83,2.44,4.31,5.2,1.43,9.29-1.7,11.48-6.29,1.12-2.35,2.26-4.48,3.66-6.22,1.11-.09,1.99-.71,2.53-1.56-.05.15-.1.3-.16.45-1.27,3.38,3.52,5.75,5.85,3.41,2.5-2.52,4.99-5.04,7.49-7.56.08.3.16.61.24.91.79,2.99,4.83,3.34,6.4.84,2.37-3.79,7.73-3.44,11.58-4.42,3.04-.77,6.09-2.04,8.09-4.56,3.39-4.28,2.86-10.47-1.81-13.46-.04-.03-.09-.04-.13-.06.29-.15.58-.29.87-.43.52,1.3,1.63,2.39,3.19,2.26,4.01-.31,7.68,2.14,7.98,6.4.25,3.57,4.5,4.63,6.52,1.77,5.06-7.14,10.48-13.99,16.22-20.57-.52,1.9-.8,3.85-.68,5.86.32,5.55,3.75,10.28,9.07,11.89.49.15,1.05.15,1.59.05,5.59,5.74,16.89-3.14,21.58-6.48,15.4-10.97,26.74-26.42,37.29-41.86,6.64-9.72,13.2-19.5,19.79-29.25,3.33-4.93,6.82-9.78,10.01-14.8,1.87-2.96,3.39-6.22,2.03-9.71ZM1488.05,90.35c.18-.31.35-.63.53-.94-.26,1.09-.52,2.18-.79,3.26-.04-.06-.09-.11-.13-.17.15-.71.28-1.43.39-2.15ZM1343.15,97.67s-.03-.02-.05-.03c0-.34,0-.69-.01-1.03.2.39.41.77.63,1.16-.19-.03-.38-.07-.57-.09ZM1385.16,99.55c-2.1-.91-4.19-1.81-6.29-2.72-4.49-1.94-8.98-3.89-13.47-5.83-1.17-.51-2.8-.52-3.92.19-.72-.28-1.52-.36-2.25-.2,0-.81-.02-1.61-.07-2.38-.31-4.53-1.48-9.18-.23-13.67.91-3.28,2.95-6.17,4.67-9.06,2.2-3.69,4.1-7.47,4.28-11.54,2.04.29,4.08.58,6.11.87.93,11.82,5.91,22.9,10.03,33.91,1.48,3.95,2.96,7.9,4.44,11.86-1.1-.48-2.21-.96-3.31-1.43ZM1350.01,237.92c-1.99.49-3.88,1.3-5.64,2.4-.21-.62-.25-1.33-.14-2.03.79-1.32,1.62-2.61,2.47-3.89.94-.78,2.02-1.42,3.13-1.97.22,1.82.29,3.65.18,5.49ZM1444.83,158.03c-.04.28-.08.56-.12.84-.21-.11-.43-.2-.65-.29.26-.18.52-.36.77-.55ZM1377.24,227.8s-.03-.03-.05-.05c.01-.03.02-.07.03-.1.46-.5,1.01-.93,1.56-1.32.2-.08.4-.17.6-.25-.67.68-1.39,1.26-2.14,1.72ZM1438.77,177.15c-2.58,4.69-5.17,9.38-7.75,14.08-.4.15-.78.39-1.13.73-3.88,3.81-7.63,7.74-11.27,11.76-2.78,2.13-5.78,3.97-8.93,5.51,1.09-8.57,5.05-16.22,11.25-22.26,1.52-1.47,1.33-4.51-.71-5.5-10.83-5.22-20.16,4.61-27.72,11.21l-5.86,5.12c-1.65.06-3.3,1.23-3.53,3.08-2.19,1.91-4.37,3.82-6.56,5.73-1.05-.22-2.22-.48-3.32-.81-.22-.16-.44-.33-.64-.52.03-2.25.58-4.49,1.26-6.67,2.08-1.37,4.08-2.84,6.03-4.39,4.44-3.53,16.68-13.16,12.42-19.88,4.05,2.04,7.5,5.35,12.77,4.73,1.86-.22,3.52-1.43,3.5-3.5-.01-1.26-.03-2.52-.04-3.78,6.69,2.32,14.44,1.31,20.56-4.13.79.11,1.61.01,2.28-.34,2.24-1.18,6.95-3.67,9.67-2.42,4.62,2.12-.83,9.67-2.25,12.25ZM1453.55,196.17c-2.93,3.93-6.69,7.41-10.2,10.91,1.74-3.5,3.49-7,5.23-10.5.73-1.46,2.07-5.47,3.71-6.37,4.99-2.71,2.29,4.57,1.25,5.96Z" fill="none" stroke="#e06e4f" stroke-dasharray="5" stroke-miterlimit="10" stroke-width="5"/></g><g id="d"><path d="M675.56,709.12c-1.73-2.68-5.98-4.51-8.89-2.33-1.77,1.32-3.53,2.65-5.3,3.97-.51-.12-1.06-.18-1.65-.17-4.19.05-7.5-1.56-10.26-4.68-.38-.42-.81-.77-1.28-1.04.92-8.33-2.61-16.88-10.38-21.08-2.15-5.59-4.3-11.18-6.45-16.77-1.26-3.27-4.37-5.54-8-4.54-3.13.86-5.81,4.7-4.54,8,2.15,5.59,4.3,11.18,6.45,16.77.42,1.08,1.04,2.05,1.81,2.83.32,1.84,1.33,3.55,3.05,4.35,3.64,1.69,6.92,6.21,5.14,10.44-1.36,3.23-.97,6.96,2.33,8.89.64.37,1.39.61,2.18.74.15.21.31.42.49.62,4.82,5.46,11.88,8.49,19.13,8.48,1.98,1.14,4.47,1.45,6.39.01l7.44-5.58c1.41-1.06,2.5-2.12,2.99-3.88.43-1.56.23-3.63-.66-5.01Z" fill="#bd3144"/><path d="M670.81,747.15c-.06-2.98.03-6.05-.98-8.9-2.33-6.56-10.92-9.42-16-4-4.06,4.33-.61,10.22,3.78,11.09-.04,1.3.22,2.84.25,3.99l.2,9.48c.17,8.35,13.18,8.38,13,0l-.24-11.66Z" fill="#bd3144"/><path d="M693.81,676.05c-.72-7.09-1.45-14.18-2.17-21.28-.36-3.49-2.73-6.5-6.5-6.5-3.24,0-6.86,2.99-6.5,6.5.72,7.09,1.45,14.18,2.17,21.28.36,3.49,2.73,6.5,6.5,6.5,3.24,0,6.86-2.99,6.5-6.5Z" fill="#bd3144"/><path d="M735.77,629.72c-1.05-3.25-4.06-5.14-7.36-4.66-1.63-.35-3.39-.3-5.05.1.81-2.31.43-5.06-1.46-6.79-.14-.13-.29-.25-.44-.37.83-1.98,1.65-3.95,2.48-5.93,1.66-3.98-2.47-8.26-6.27-8.23-.19,0-.38.02-.57.02-.71-.85-1.64-1.48-2.8-1.7.39-2.62.5-5.27.31-7.95-.57-8.3-13.57-8.36-13,0,.28,4.13-.21,7.61-1.6,11.52-.82,2.3.31,5.4,2.34,7-.15.27-.29.54-.42.82-1.78,3.8-.29,7.24,2.51,8.74-2.94,2.2-3.36,7.36-.62,9.91.77.72,1.54,1.44,2.31,2.15,2.49,2.32,6.76,2.65,9.19,0,.18-.19.34-.4.49-.61.05.91.32,1.82.86,2.67,1.61,2.49,4.43,3.67,7.34,2.99,2.41-.57,4.82-1.14,7.23-1.71,3.31-.78,5.59-4.74,4.54-8Z" fill="#bd3144"/><path d="M774.04,587.34c-3.16-4.85-9.55-3.19-11.63.63-1.57-.61-2.99-1.06-4.72-1.25-3.95-.42-8.1,1-10.27,4.52-2.46,3.97-1.97,7.88.02,11.17-2.98,2.85-1.98,7.86,1.38,10.22,3.26,2.28,7.41,2.79,11.19,1.64,4-1.21,5.14-4.96,4.28-8.1.54-1.35.64-2.88.29-4.28,1.58.07,3.17-.15,4.66-.78,5.22-2.22,8.06-8.77,4.8-13.77Z" fill="#bd3144"/><path d="M738.9,591.51c-.26-.81-.71-1.5-1.34-2.09-.23-.22-.49-.42-.75-.6-.24-.4-.53-.76-.88-1.09-1.24-1.14-2.86-1.98-4.6-1.9l-1.73.23c-1.1.31-2.06.87-2.87,1.67-.28.22-.49.58-.69.83-.12.16-.42.49-.57.75-.19.32-.56,1.24-.68,1.6-.12.36-.11.59-.18,1.07-.06.42-.13.71-.12,1.08,0-.16.11,1.37.27,1.92.01.05.03.09.05.14.17.45.46,1.18.68,1.61.05.09.1.17.16.26.34.5.73,1.04,1.16,1.48.07.07.14.13.21.19.47.39.96.83,1.49,1.13,1.13.63,1.69.77,2.82.92.36.05.72.13,1.08.12.3,0,1.48-.16,1.78-.24.04-.01.09-.02.13-.03.21-.06,1.41-.57,1.6-.68.04-.02.08-.05.12-.07.28-.18,1.12-.81,1.36-1.05.05-.05.09-.09.13-.14.63-.59,1.08-1.29,1.34-2.09.41-.77.59-1.61.56-2.5.03-.9-.15-1.73-.56-2.5Z" fill="#bd3144"/><path d="M697.62,605.53c-.42-1.51-1.58-3.14-2.99-3.88-1.23-.65-2.8-.92-4.3-.74-.77-.88-1.79-1.55-3.02-1.83-3.31-.75-7.18,1-8,4.54-1.14,4.98,1.42,10.03,6.36,11.68,4.1,1.36,9.5-.7,11.29-4.75.73-1.65,1.16-3.19.66-5.01Z" fill="#bd3144"/><path d="M744.35,553.68c-6.2.4-12.4.8-18.59,1.2-3.59.23-5.63,2.79-6.13,5.58-1.1-.91-2.5-1.46-4.09-1.51-1.83-.06-3.66-.11-5.49-.17-2.57-.08-5.84,2.06-6.27,4.77-.86,5.51.4,10.73,4.38,14.79,2.38,2.43,6.83,2.57,9.19,0,1.85-2.02,2.35-4.84,1.32-7.22,1.58-.91,2.81-2.47,3.21-4.23.98.7,2.27,1.09,3.87.99,6.2-.4,12.4-.8,18.59-1.2,8.31-.54,8.37-13.54,0-13Z" fill="#bd3144"/><path d="M739.71,536.71c-2.48-.31-4.96-.61-7.45-.92-3.39-.42-6.64,3.29-6.5,6.5.17,3.88,2.87,6.05,6.5,6.5,2.48.31,4.96.61,7.45.92,3.39.42,6.64-3.29,6.5-6.5-.17-3.88-2.87-6.05-6.5-6.5Z" fill="#bd3144"/><path d="M766.28,540.22l-11.17-7.44c-2.92-1.95-7.2-.57-8.89,2.33-1.86,3.19-.6,6.94,2.33,8.89l11.17,7.44c2.92,1.95,7.2.57,8.89-2.33,1.86-3.19.6-6.94-2.33-8.89Z" fill="#bd3144"/><path d="M777.87,552.62c-3.3-.75-7.2.99-8,4.54-.17.77-.38,1.52-.65,2.26-.04.09-.09.2-.15.31-.19.35-.39.7-.6,1.04-2.68-.71-6.05.72-7.3,3.08-1.8,3.41-.59,6.71,2.33,8.89.86.64,1.72,1.28,2.58,1.92,1.69,1.26,4.86,1.2,6.56,0,4.85-3.44,8.44-8.18,9.76-14.06.74-3.31-1-7.19-4.54-8Z" fill="#bd3144"/><path d="M794.46,569.87c0-1.59-.71-3.5-1.9-4.6-1.24-1.14-2.86-1.98-4.6-1.9-1.68.08-3.43.63-4.6,1.9-1.22,1.33-2.22,2.9-2.59,4.69-.37,1.76-.46,3.78.22,5.49.65,1.63,1.41,2.96,2.99,3.88,1.39.82,3.45,1.16,5.01.66,1.57-.51,3.09-1.48,3.88-2.99.64-1.22,1.11-2.8.86-4.22.46-.89.73-1.87.73-2.91Z" fill="#bd3144"/><path d="M688.21,560.58c-.88-3.2-4.67-5.73-8-4.54l-14.97,5.35c-1.17.42-2.2,1.1-3,1.96-2.66,1.39-4.02,4.52-3.28,7.5.56,2.28.27,4.13-.95,6.25-.06.1-.1.19-.15.29-.49-.65-1.12-1.18-1.9-1.51-4.01-1.71-8.02-3.42-12.03-5.13-3.23-1.38-6.97-.96-8.89,2.33-1.6,2.73-.91,7.51,2.33,8.89,4.01,1.71,8.02,3.42,12.03,5.13,3.23,1.38,6.97.96,8.89-2.33.1-.17.19-.35.28-.54,2.62,3.09,8.03,3.98,10.66-.57,1.97-3.4,2.92-7.15,2.9-10.96,3.85-1.37,7.69-2.75,11.54-4.12,3.3-1.18,5.52-4.43,4.54-8Z" fill="#bd3144"/><path d="M705.29,527.59c-1.93-3-5.72-4.12-8.89-2.33-1.71.96-3.41,1.93-5.12,2.89-2.96,1.67-4.21,5.97-2.33,8.89,1.93,3,5.72,4.12,8.89,2.33,1.71-.96,3.41-1.93,5.12-2.89,2.96-1.67,4.21-5.97,2.33-8.89Z" fill="#bd3144"/><path d="M736.59,471.98c-2.25-.44-3.51-1.09-4.99-2.61-.62-.63-.22-.17-.52-.6-.34-.48-.63-.99-.9-1.5-.34-.63-.59-1.71-.8-3.1-.47-3.24-4.32-5.11-7.34-4.67-.98-.89-2.16-1.65-3.56-2.29-2.25-1.01-4.58-1.49-7.03-1.73-1.23-.12-2.52-.04-3.75-.24-.2-.03-.93-.28-1.46-.4-.05-.47-.3-1.26-.42-1.71-.32-1.21-.85-2.33-1.56-3.35-1.33-1.91-3.23-3.19-5.48-3.8-2.06-.55-4.01-.44-5.83.11l-3.28-7.43c-1.77-4-5.69-4.09-8.53-2.17-.16-.27-.31-.52-.4-.72-1.04-2.16-2.2-4.13-3.96-5.79-1.68-1.58-3.81-2.64-6.04-3.2-.95-.24-1.96-.37-2.92-.48-.29-.03-.53-.06-.73-.09.59-5.29-6.3-10.35-11.02-5.5-3.65,3.75-3.71,8.92-.65,13.1,1.35,1.84,3.14,3.24,5.27,4.08,2.04.8,5.72.42,7.41,1.72,1.42,1.1,2.02,4.29,2.99,5.8,1.18,1.83,2.84,3.48,4.75,4.54,1.65.91,3.52,1.46,5.39,1.56l3.3,7.47c1.62,3.68,7.09,4.06,9.86,1.64,1.23,2.69,3.29,4.57,6,5.87,2.51,1.2,5.21,1.58,7.96,1.81.97.08,2.34.4,3.28.27,1.57-.21,1.61,1.34,1.32-.91.45,3.41,2.54,6.28,6.18,6.48,2.94,5.22,8.19,9.22,14.02,10.37,3.44.68,7.02-.98,8-4.54.88-3.19-1.08-7.31-4.54-8Z" fill="#bd3144"/><path d="M788.12,483.5c-8.03-.39-15.76-1.91-23.4-4.42-7.97-2.62-11.38,9.93-3.46,12.54,8.72,2.86,17.69,4.44,26.85,4.88,8.36.41,8.34-12.59,0-13Z" fill="#bd3144"/><path d="M959.82,508.1c-.3-1.98-1.22-3.8-2.51-5.26.36-5.37-1.44-10.81-5.51-15.21-2.27-2.45-6.95-2.57-9.19,0-.53.61-1.06,1.13-1.61,1.57-2.39-1.3-5.58-1.28-7.68.59-.07-.04-.14-.09-.21-.12.11-.15.21-.31.33-.46,1.15-1.72,2.29-3.37,2.96-5.37,1.27-3.81,1.11-7.78-1.23-11.14-1.83-2.64-4.68-4.09-7.77-4.7-.81-.16-2.18-.12-3.54-.16-.96-1.77-2.78-3.04-5.46-2.93l-3.01.12c-.19,0-.36.04-.54.06-2.94-1.47-5.87-2.94-8.81-4.42-5.4-2.71-10.42,1.73-9.55,7.34.23,1.46.69,2.78,1.34,3.97-.28.37-.56.74-.83,1.15-1.05,1.57-1.79,3.34-2.8,4.93-1.68-3.92-6.52-6.29-10.21-2.2-.38.42-.71.86-1.01,1.32,0,0,0,0,0,0,0,.01-.01.03-.02.04-.34.51-.61,1.05-.85,1.59-1.84,3.02-4.58,4.93-8.38,5.05-2.47.08-4.21,1.28-5.22,2.92-.13-.01-.26-.03-.4-.03-4.53-.12-8.56,1.29-12.76,2.81-1.63.59-4.4,1.98-6.21,1.53-1.57-.39-2.92-2.46-4.06-3.46-6.79-6-18.68-4.54-19.34,5.95-.41,6.56,7.51,7.95,11.19,4.22.35.35.71.7,1.06,1.05,1.1,1.05,2.23,2.09,3.53,2.89,2.66,1.65,5.76,2.46,8.9,2.32,6.17-.28,11.56-4.48,17.69-4.32,2.62.07,4.42-1.16,5.4-2.89.07,0,.14,0,.22,0,4.81-.15,9.4-1.67,13.18-4.34,1.12.57,2.37.97,3.76,1.12,4.3.44,8.51-1.44,11.48-4.53,1.51-1.57,2.68-3.5,3.75-5.37.79-1.39,1.91-4.62,3.6-5.3.54-.22,1.03-.5,1.48-.81.74.29,1.46.42,2.17.45,2.67,1.68,5.82,2.15,9.11,2.41,0,0,.44.05.97.11-1.13,1.74-2.71,4.66-2.98,5.16-1.24,2.39-1.87,5.02-1.65,7.55-1.04.32-2.08.76-3.13,1.33-6.8,3.7-8.42,11-6.04,16.96-5.99-3.01-13.06,4.82-7.6,10.28.57.57,1.18,1.12,1.81,1.66-.03.03-.07.06-.1.09-2.61,1.11-4.9,3.07-6.41,5.49-1.58,2.53-2.24,5.35-2.87,8.22-.26,1.16-.39,2.46-.87,3.57-.24.56-1.26,1.67-.58,1.4-3.27,1.28-5.54,4.35-4.54,8,.85,3.11,4.71,5.83,8,4.54,4.79-1.88,7.75-5.15,9.47-9.99.77-2.16,1.01-4.44,1.61-6.64.09-.33.18-.7.28-1.06.39-.23.78-.51,1.16-.84.1-.09.2-.18.31-.27,1.83.38,3.75-.31,5.18-1.54,2.6-.27,4.99-1.31,6.85-3.57.73-.88,1.28-1.94,1.59-3.05.95-.56,1.87-1.28,2.75-2.18.85-.88,1.5-1.85,1.96-2.88l6.53-3.46c2.55,1.01,5.76-.16,7.42-2.27,2.45,1.91,5.31,3.1,8.48,2.87,5.93-.44,10.91-5.78,9.97-11.85Z" fill="#bd3144"/><path d="M954.85,586.42c-6.61-1.13-12.42,3.73-12.79,10.38-4.34,2.27-7.38,6.79-7.45,11.55-4.74,2.23-7.38,9.07-6.34,13.92,1.59,7.49,8.74,10.64,15.73,9.59,3.5-.53,5.36-4.9,4.54-8-.06-.22-.13-.43-.2-.64,3.1.15,6.31-.9,8.89-3.1,9.28-7.89,13.84-30.94-2.38-33.71Z" fill="#bd3144"/><path d="M968.66,657.04c-.11-.71-.27-1.42-.47-2.13-.97-3.37-4.58-5.48-8-4.54-2.46.68-4.26,2.83-4.68,5.25-1.79,1.19-3.2,2.95-3.84,5.15-1.38,4.67.52,9.73,4.75,12.19.63.37,1.39.61,2.17.74.81.37,1.69.57,2.62.51,5.36-.35,10.04-4.31,10.25-9.92.11-2.82-.97-5.38-2.8-7.26Z" fill="#bd3144"/><path d="M970.77,698.98c-.99-2.42-2.31-4.57-3.7-6.77-.79-1.25-2.98-3.89-2.17-5.52,3.71-7.47-7.5-14.06-11.23-6.56-2.04,4.1-2.44,8.27-.91,12.65,1.61,4.61,5.23,8.15,6.62,12.83,2.94,9.95-2.01,20.42-6.07,29.29-3.45,7.55,7.75,14.17,11.23,6.56,4.24-9.26,8.52-18.8,8.66-29.18.06-4.53-.71-9.11-2.43-13.3Z" fill="#bd3144"/><path d="M1023.86,818.87c-1.55-5.66-7.93-8.98-13.46-7.13-.97.32-1.76.8-2.4,1.37-.91-.47-1.87-.81-2.9-.99.58-.88,1.05-1.84,1.38-2.85.79-2.43-.29-5.29-2.28-6.88-1.45-2.16-3.66-3.78-6.33-4.51-4.66-1.28-11.21.71-12.43,5.96-1.31,5.66,2.16,11.49,7.72,13.1.65.19,1.29.29,1.93.35-1.66,3.59-1.55,8.36-.08,12.15,1.27,3.27,4.36,5.54,8,4.54,1.94-.53,3.71-2.22,4.47-4.21,2.14,1.51,4.56,2.42,7.52,2.06,6.06-.74,10.53-6.98,8.88-12.96Z" fill="#bd3144"/><path d="M956.7,828.6c-1.81-2.42-3.61-4.86-5.4-7.3-1.07-3.31-3.43-6.33-6.26-8.55-2.58-2.02-5.76-2.65-8.53-.51-1.12.87-1.98,2.21-2.37,3.67-4.08-4.39-9.2-6.8-14.86-9.02-7.79-3.06-11.17,9.5-3.46,12.54,6.46,2.54,9.31,5.82,13.14,11.35,3.39,4.91,6.89,8.65,12.58,10.77,3.32,1.24,6.4-.93,7.62-3.85,5.24,1.4,11.52-3.77,7.54-9.1Z" fill="#bd3144"/><path d="M1016.23,917.34c-6.4-7.42-13.91-14.71-19.5-22.96,2.98-3.98,3.62-9.82.63-14.07-1.59-2.26-3.68-3.27-6.24-3.12-.18-.17-.41-.53-.54-1.21-.23-1.2-.95-2.48-1.45-3.58-1.15-2.53-2.73-4.77-5.07-6.34-1.93-1.3-4.33-2.18-6.69-2.1-.68.02-1.43.14-2.17.32-.64-3.38-4.91-5.16-7.96-4.36-3.73.98-5.06,4.54-4.54,8,.61,4.11,2.44,7.95,6.4,9.76,2,.91,4.24,1.22,6.4.67.57-.22,1.14-.47,1.69-.73.04,1.08,1.65,3.94,2.07,4.77.87,1.72,1.91,3.3,3.33,4.63.25.24.52.43.78.64-2,2.03-2.36,5.68-1.06,8.1,6.14,11.44,16.28,21.03,24.7,30.79,5.48,6.34,14.64-2.89,9.19-9.19Z" fill="#bd3144"/><path d="M1023.68,886.12c-.54-.87-1.08-1.74-1.62-2.6-.98-5.49-3.92-10.01-8.68-13.28-.91-.63-1.96-.91-3.02-.92l.05-.34c0-1.17-.3-2.27-.89-3.28-.62-.83-1.25-1.65-1.87-2.48-.41-.76-.97-1.37-1.67-1.82-.63-.57-1.36-.96-2.21-1.16-.86-.27-1.73-.31-2.59-.12-.86.04-1.67.3-2.42.77-1.39.89-2.61,2.23-2.99,3.88-.08.58-.15,1.15-.23,1.73,0,1.17.3,2.27.89,3.28.62.83,1.25,1.65,1.87,2.48.41.76.97,1.37,1.67,1.82.63.57,1.36.96,2.21,1.16.48.15.96.22,1.45.23-.1,2.33,1.15,4.58,3.2,5.99,1.09.75,1.94,2,2.33,3.37.35,1.25.21,2.1.78,3.53.61,1.53,1.67,2.93,2.54,4.33,4.41,7.09,15.66.57,11.23-6.56Z" fill="#bd3144"/><path d="M1029.87,940.43c-3.04-3.58-6.08-7.16-9.12-10.74-2.27-2.68-6.85-2.34-9.19,0-2.65,2.65-2.28,6.51,0,9.19,3.04,3.58,6.08,7.16,9.12,10.74,2.27,2.68,6.85,2.34,9.19,0,2.65-2.65,2.28-6.51,0-9.19Z" fill="#bd3144"/><path d="M1511.09,121.54c-6.77,10.39-13.54,20.77-20.31,31.16-.01,0-.03,0-.04,0-3-1.36-6.07-.55-8.31,2.47-2.5,3.38-5.26,6.6-8.21,9.62,3.73-11.8,7.45-23.59,11.18-35.39.71-1.32,1.15-2.74,1.32-4.19,1.97-6.22,3.93-12.44,5.9-18.67,1.31-1.28,2.46-2.7,3.39-4.39,1.26-2.3,1.02-4.52-.02-6.27,1.13-3.59,2.27-7.17,3.4-10.76,2.22-7.02-8.33-11.46-11.88-5.01-2.21,4.02-4.37,8.06-6.48,12.13-1.43-2.45-4.66-4.29-7.4-3.15-3.27,1.36-7.88.93-9.45-2.86-.45-1.08-.42-2.33-.08-3.53,2.61-2.52,6.41-4.65,8.19-5.66,5.21-2.96,3.36-12.97-3.28-12.11-6.77.87-12.78,4.94-15.92,10.59-1.38,1.71-2.53,3.62-3.33,5.79-1.29,3.49-1.52,7.38-.6,10.93-.79.63-1.54,1.3-2.26,1.99-.62.59-1.33,1.18-2.02,1.77.53-1.23.74-2.99,1.16-4.14,2.69-7.53-7.81-10.38-11.88-5.01-6.09,8.04-13.3,15.08-21.34,21.04,2.07-14.04-.23-29.39.11-42.92.23-8.97,6.61-20.5-2.82-27.03-3.17-2.2-7-2.64-10.78-2.56-3.09.06-6.9,1.05-9.65-.69-3.02-1.92-7.09-.57-8.89,2.33-2.84,4.57-4.99,9.72-3.3,15.12.32,1.01.76,1.96,1.3,2.82-1.34,3.8-1.04,8.39.75,12.11,4.33,9.03,11.66,17.29,17.39,25.49.9,1.28,2.1,2.14,3.41,2.6,0,.19,0,.38,0,.58-.01,6.24-.34,12.43-2.37,18.18-1.03-.13-2.1,0-3.14.46-.48-.72-1.15-1.38-2.02-1.95-1.3-.86-2.69-1.45-4.11-1.83-2.29-.82-4.66-1.31-7.04-1.37-3.49-4.83-8.36-8.41-14.38-10.48-1.1-.38-2.19-.39-3.19-.14-2.69-.31-5.54.38-7.91,1.9-5.59,3.6-6.38,10.64-4.21,16.48,1.11,2.97,2.95,5.46,4.21,8.33,1.34,3.07-.27,4.92-1.03,7.95-1.57,6.25,1.11,12.57,7.47,14.5.58.18,1.19.25,1.79.24-3.86,3.06-6.33,7.87-4.38,12.78,1.12,2.81,3.15,4.64,6.27,4.77,10.11.43,16.67-7.43,20.23-16,3.2-7.72,6.47-14.55,11.69-20.67,1.77.76,3.86.83,5.76-.16,11.43-5.96,21.62-13.64,30.53-22.73,1.77,2.6,4.59,4.36,8.78,4.44,3.79.08,6.93-1.68,9.72-4.08,1.21-1.05,2.26-2.27,3.45-3.33.34-.3.65-.69,1.03-.94.22-.14.35-.25.44-.33.08.07.27.13.66.18,1.3.16,2.48-.2,3.46-.88,4.38,2,9.44,2.49,14.02.93-.22.45-.45.89-.67,1.34-.16.14-.31.28-.46.42-3.12,3.01-5.44,7.22-5.29,11.61-2.02,4.35-4,8.73-5.91,13.13-2.5,1.97-4.54,4.52-5.53,7.57-.73,2.23-.9,4.57-.52,6.8-.52,1.28-1.01,2.57-1.52,3.85-5.95,3.13-6.99,9.06-5.66,14.82-.22.59-.45,1.18-.66,1.78-4.26,2.54-7.84,6.43-9.86,10.75-2.06,4.4-3.03,9.03-4.03,13.69-1.61,3.5-2.7,7.24-3.93,10.92-.34,1.02-.82,2.38-1.45,3.79-1.51,1.89-3.44,3.26-5.92,3.38-2.53.12-4.62,1.81-5.72,3.93-3.68,1.18-5.81,5.2-3.76,9.31,3.93,7.85,12.06,11.36,19.98,10.56.11,6.13,8.2,8.76,12.06,3.23,4.43-6.36,8.87-12.72,13.3-19.08,2.79-2.74,5.48-5.52,7.42-8.71,1.05-1.73,1.89-3.6,2.51-5.54,4.47-6.42,8.94-12.83,13.42-19.24,2.36.2,4.84-.63,6.28-2.85l32.17-49.35c4.58-7.03-6.67-13.55-11.23-6.56ZM1458.74,193.37c-.01.13-.04.26-.06.39-3,4.31-6,8.61-9,12.92-2.33,2.35-4.67,4.68-6.79,7.16-.98-.47-1.97-.93-2.95-1.4.66-1,1.26-2.05,1.8-3.15.13-.26.26-.58.39-.93,2.34-3.48,4.03-7.51,5.08-11.64.43-1.68.76-3.45,1.09-5.24,1.93-3.43,4.34-5.73,7.43-4.94,2.62.67,3.25,4.63,3,6.84Z" fill="#bd3144"/><path d="M1413.54,213.77c-2.51-5.17-7.89-5.33-11.9-2.89-.86-2.65-1.09-5.42-.57-8.33.77-4.36-5.67-6.3-6.75-1.86-.39,1.61-.65,3.19-.78,4.77-1.23-1.57-2.3-3.27-3.23-5.11-1.2-2.39-4.78-2.16-6.04,0-1.43,2.46-1.59,5.19-.83,7.63-5.22,1.96-9.12,6.89-9.35,13-.03.52-.02,1.06.02,1.62,0,.04,0,.09,0,.13,0,0,0,0,0,0,.03.31.07.62.12.93.67,3.86,7.17,3,6.88-.93-.08-1.04,0-2.01.22-2.9.78-1.21,2.58-1.46,3.94-.25.6.53,1.25.81,1.89.89,1.58,2.08,4.61,3.17,7.22,2.7l.46.43c1.16,1.09,2.57,1.24,3.74.72,3.66,4.32,11.45,3.5,13.36-1.59,2.4-2.18,3.03-6.02,1.6-8.96Z" fill="#bd3144"/><path d="M1441.69,141.31c-2.16-1.73-6.14-.85-5.98,2.47.02.36,0,.71,0,1.07-3.71,1.09-5.22,4.98-4.52,8.3-2.45,2.05-1.43,6.18,2.05,6.29,2.89.1,5.79.19,8.68.29,3.16.11,4.09-3.31,2.81-5.41.44-.68.79-1.43,1-2.22,1.1-4.02-.92-8.29-4.05-10.8Z" fill="#bd3144"/></g></svg>